<?xml version="1.0" standalone="no"?>
<!DOCTYPE svg PUBLIC "-//W3C//DTD SVG 1.1//EN" "http://www.w3.org/Graphics/SVG/1.1/DTD/svg11.dtd" >
<svg xmlns="http://www.w3.org/2000/svg" xmlns:xlink="http://www.w3.org/1999/xlink" version="1.1">
<metadata>
Created by FontForge 20170731 at Sat Dec  3 13:25:07 2016
 By Aleksey,,,
Copyright 2016 The Manuale Project Authors (omnibus.type@gmail.com)
</metadata>
<defs>
<font id="Manuale-SemiBold" horiz-adv-x="545" >
  <font-face 
    font-family="Manuale Medium"
    font-weight="600"
    font-stretch="normal"
    units-per-em="1000"
    panose-1="2 4 7 4 5 4 5 6 2 4"
    ascent="800"
    descent="-200"
    x-height="492"
    cap-height="613"
    bbox="-306 -234 1254 980"
    underline-thickness="50"
    underline-position="-150"
    unicode-range="U+000D-FB02"
  />
<missing-glyph horiz-adv-x="204" 
 />
    <glyph glyph-name="fi" unicode="fi" horiz-adv-x="655" 
d="M29 39l82 25v363h-81v42l81 32q0 107 67.5 168t185.5 61q35 0 79 -7.5t58 -15.5l-17 -134h-61l-16 75q-37 7 -68 7q-64 0 -87.5 -33t-23.5 -98v-33l322 7v-434l82 -20v-44h-269v41l69 23v365h-204v-365l80 -25v-39h-279v39z" />
    <glyph glyph-name="fl" unicode="fl" horiz-adv-x="644" 
d="M29 39l82 25v363h-81v42l81 32q0 67 31 120t86 83.5t125 30.5q45 0 81.5 -8.5t56.5 -17.5l18 21h38v-666l82 -22v-42h-274v41l75 26v566q-18 12 -38.5 20t-59.5 8q-57 0 -80.5 -34.5t-23.5 -102.5v-32h132v-72l-132 9v-364l80 -24v-41h-279v39z" />
    <glyph glyph-name="f_f" unicode="ff" horiz-adv-x="752" 
d="M30 0zM30 42l82 22v363h-81v42l81 32q0 108 58 168.5t160 60.5q26 0 58 -7.5t43 -15.5l-17 -134h-55l-16 75q-19 7 -38 7q-46 0 -61 -32.5t-15 -98.5v-32h150v-72l-149 9v-362l116 -21v-46h-316v42zM406 42l82 22v363h-81v42l81 32q0 108 58 168.5t160 60.5q26 0 58 -7.5
t43 -15.5l-17 -134h-55l-16 75q-19 7 -38 7q-46 0 -61 -32.5t-15 -98.5v-32h150v-72l-149 9v-362l116 -21v-46h-316v42z" />
    <glyph glyph-name=".notdef" horiz-adv-x="204" 
 />
    <glyph glyph-name=".null" horiz-adv-x="0" 
 />
    <glyph glyph-name="nonmarkingreturn" unicode="&#xd;" horiz-adv-x="181" 
 />
    <glyph glyph-name="NULL" horiz-adv-x="0" 
 />
    <glyph glyph-name="NULL" horiz-adv-x="0" 
 />
    <glyph glyph-name="space" unicode=" " horiz-adv-x="181" 
 />
    <glyph glyph-name="exclam" unicode="!" horiz-adv-x="227" 
d="M149 188h-71l-31 425h133zM68 100.5q18 19.5 45 19.5q26 0 45 -19.5t19 -46.5q0 -26 -19 -44t-45 -18q-27 0 -45 18t-18 44q0 27 18 46.5z" />
    <glyph glyph-name="quotedbl" unicode="&#x22;" horiz-adv-x="328" 
d="M37 700h104l-35 -232h-34zM189 700h102l-35 -232h-32z" />
    <glyph glyph-name="numbersign" unicode="#" horiz-adv-x="557" 
d="M404 231h111l-21 -69h-107l-48 -170h-73l48 170h-122l-47 -170h-73l47 170h-119l19 69h118l27 95h-121l20 69h119l48 171h74l-49 -171h122l47 171h73l-47 -171h107l-19 -69h-107zM210 231h122l27 95h-123z" />
    <glyph glyph-name="dollar" unicode="$" horiz-adv-x="526" 
d="M229 2q-42 1 -87.5 9t-81.5 21l13 123h49l17 -83q51 -14 101 -14q57 0 90.5 24t33.5 66q0 34 -21 56t-67 41l-105 42q-49 19 -75.5 54.5t-26.5 100.5q0 75 46 119.5t129 52.5v102h59v-101q59 -2 143 -28l-10 -131h-46l-23 94q-12 4 -37 6.5t-43 2.5q-52 0 -85.5 -21
t-33.5 -66q0 -37 22.5 -59t67.5 -40l105 -43q52 -21 78 -59t26 -101q0 -67 -46 -111.5t-134 -54.5v-121h-58v119z" />
    <glyph glyph-name="percent" unicode="%" horiz-adv-x="910" 
d="M331.5 231q-45.5 -53 -122.5 -53q-76 0 -123 53.5t-47 171.5t46.5 171.5t123.5 53.5t122.5 -53t45.5 -172t-45.5 -172zM381 0h-75l224 613h75zM285.5 291.5q31.5 33.5 31.5 115.5q0 80 -31.5 111t-75.5 31q-45 0 -76.5 -32t-31.5 -115q0 -80 31.5 -112t76.5 -32
q44 0 75.5 33.5zM823 45q-45 -53 -121 -53q-77 0 -123.5 53.5t-46.5 171.5q0 119 46.5 172.5t123.5 53.5q76 0 121 -53t45 -173q0 -119 -45 -172zM777.5 106q31.5 34 31.5 115q0 80 -31 111.5t-75 31.5q-45 0 -76.5 -32t-31.5 -115q0 -80 31.5 -112.5t76.5 -32.5
q43 0 74.5 34z" />
    <glyph glyph-name="ampersand" unicode="&#x26;" horiz-adv-x="599" 
d="M327.5 7q-43.5 -15 -102.5 -15q-64 0 -106.5 22t-62.5 58t-20 78q0 69 35.5 113t95.5 76q-64 87 -64 151q0 74 53 105.5t116 31.5q68 0 111 -30t43 -86q0 -40 -17.5 -69.5t-45 -51t-74.5 -49.5l136 -157q17 43 19 102l-40 13v40h181v-39l-76 -15q-9 -82 -41 -147l75 -79
l76 -19v-40h-162l-52 52q-34 -30 -77.5 -45zM254 390q39 22 60 47t21 61q0 28 -14.5 49t-51.5 21q-31 0 -47 -17t-16 -48q0 -53 48 -113zM321 61q31 11 51 31q-15 17 -48 52q-84 90 -124 143q-31 -23 -44.5 -49.5t-13.5 -63.5q0 -61 28 -92.5t82 -31.5q38 0 69 11z" />
    <glyph glyph-name="quotesingle" unicode="'" horiz-adv-x="186" 
d="M41 700h104l-35 -232h-35z" />
    <glyph glyph-name="parenleft" unicode="(" horiz-adv-x="315" 
d="M172 86.5q7 -73.5 36.5 -139t91.5 -93.5l-11 -36q-95 27 -143 76t-65.5 134.5t-17.5 236.5q0 152 17.5 237t65.5 134.5t143 77.5l11 -38q-62 -27 -91.5 -92.5t-36.5 -139.5t-7 -179t7 -178.5z" />
    <glyph glyph-name="parenright" unicode=")" horiz-adv-x="315" 
d="M144 444q-7 74 -37 139.5t-93 92.5l11 38q95 -28 142.5 -77.5t65 -134t17.5 -237.5q0 -152 -17.5 -237t-65 -134t-142.5 -76l-11 36q63 28 93 93.5t37 139t7 178.5t-7 179z" />
    <glyph glyph-name="asterisk" unicode="*" horiz-adv-x="347" 
d="M116 421l-78 56l82 84l-3 8l-114 19l27 91l108 -53l6 4l-18 118h93l-16 -118l7 -5l106 54l28 -91l-115 -19l-3 -8l82 -84l-77 -56l-53 104h-9z" />
    <glyph glyph-name="plus" unicode="+" horiz-adv-x="510" 
d="M220 102v167h-167v70h167v166h69v-166h168v-70h-168v-167h-69z" />
    <glyph glyph-name="comma" unicode="," horiz-adv-x="192" 
d="M74 -117l-41 8l15 218l92 21l25 -25z" />
    <glyph glyph-name="hyphen" unicode="-" horiz-adv-x="282" 
d="M274 206h-265v65h265v-65z" />
    <glyph glyph-name="period" unicode="." horiz-adv-x="208" 
d="M157.5 12.5q-21.5 -20.5 -53.5 -20.5q-31 0 -53.5 21t-22.5 51q0 31 23 53.5t53 22.5q31 0 53 -22t22 -54q0 -31 -21.5 -51.5z" />
    <glyph glyph-name="slash" unicode="/" horiz-adv-x="364" 
d="M360 697l-273 -836h-82l270 836h85z" />
    <glyph glyph-name="zero" unicode="0" horiz-adv-x="507" 
d="M413.5 65q-59.5 -76 -160.5 -76q-100 0 -159.5 76.5t-59.5 246.5q0 169 62 245t163 76q103 0 158.5 -74t55.5 -247q0 -171 -59.5 -247zM350.5 138.5q38.5 51.5 38.5 178.5q0 124 -38.5 172t-95.5 48q-58 0 -96.5 -49.5t-38.5 -177.5q0 -124 39 -173.5t96 -49.5t95.5 51.5
z" />
    <glyph glyph-name="one" unicode="1" horiz-adv-x="507" 
d="M478 43v-43h-414v43l162 28v462h-157v44l269 40v-547z" />
    <glyph glyph-name="two" unicode="2" horiz-adv-x="507" 
d="M15 63l214 216q88 85 88 176q0 44 -28.5 71t-84.5 27q-34 0 -64 -8.5t-77 -27.5l-26 58q104 53 201 53q93 0 148 -38.5t55 -124.5q0 -63 -34 -117t-104 -121l-174 -156l248 8l39 81h52l-14 -160h-418z" />
    <glyph glyph-name="three" unicode="3" horiz-adv-x="507" 
d="M368 593.5q48 -34.5 48 -100.5q0 -54 -32 -94t-84 -64q68 -13 107 -56t39 -105q0 -92 -58 -138.5t-172 -46.5q-92 0 -185 35l17 62q89 -30 142 -30q60 0 98 29.5t38 88.5q0 74 -48 97.5t-127 23.5l-4 52q153 18 153 128q0 81 -92 81q-27 0 -65 -8.5t-77 -27.5l-25 54
q37 24 93.5 39t109.5 15q76 0 124 -34.5z" />
    <glyph glyph-name="four" unicode="4" horiz-adv-x="507" 
d="M287 0v137h-277l-16 46l312 439l88 -9v-410h82v-66h-82v-137h-107zM97 203h190v271z" />
    <glyph glyph-name="five" unicode="5" horiz-adv-x="507" 
d="M425 537h-256l-11 -151q125 -2 191 -31.5t87 -72.5t21 -100q0 -89 -59.5 -141.5t-170.5 -52.5q-93 0 -188 36l20 64q47 -18 78.5 -24.5t59.5 -6.5q63 0 101.5 32.5t38.5 89.5q0 77 -58 108t-181 31l-26 26l26 269h327v-76z" />
    <glyph glyph-name="six" unicode="6" horiz-adv-x="507" 
d="M296 383q89 0 134 -51t45 -132q0 -50 -19.5 -97.5t-71.5 -81.5t-141 -34q-121 0 -165 72t-44 185q0 132 46 218.5t116.5 126t143.5 39.5q30 0 48.5 -2t42.5 -8l-8 -55q-44 6 -68 6q-54 0 -98 -28.5t-72.5 -84t-33.5 -132.5q55 59 145 59zM171.5 101q22.5 -50 78.5 -50
q55 0 83 35.5t28 93.5q0 62 -20 98t-71 36q-37 0 -69 -22t-52 -55q0 -86 22.5 -136z" />
    <glyph glyph-name="seven" unicode="7" horiz-adv-x="507" 
d="M45 457l-7 156h420l17 -55l-233 -570l-114 13l257 534h-261l-20 -78h-59z" />
    <glyph glyph-name="eight" unicode="8" horiz-adv-x="507" 
d="M90 27.5q-44 39.5 -44 109.5q0 50 30.5 95t91.5 79q-51 32 -77.5 69.5t-26.5 92.5q0 68 50 111.5t147 43.5q101 0 143.5 -37t42.5 -97q0 -44 -27.5 -85.5t-96.5 -72.5q44 -23 71.5 -44t44.5 -51.5t17 -73.5q0 -81 -55.5 -130t-159.5 -49q-107 0 -151 39.5zM327.5 416.5
q20.5 26.5 20.5 61.5q0 45 -22 69t-65 24t-68.5 -22t-25.5 -66q0 -66 97 -118q43 25 63.5 51.5zM320 71q30 25 30 73q0 40 -24 67t-73 52l-33 18q-31 -24 -52 -61.5t-21 -73.5q0 -51 25.5 -75.5t68.5 -24.5q49 0 79 25z" />
    <glyph glyph-name="nine" unicode="9" horiz-adv-x="507" 
d="M186 54q86 0 125.5 55t40.5 161q-76 -35 -138 -35q-86 0 -134.5 51t-48.5 136q0 80 47 143t173 63q121 0 169 -81t48 -208q0 -191 -71 -271t-194 -80q-43 0 -79.5 6.5t-77.5 22.5l15 60q69 -23 125 -23zM332 509q-22 55 -88 55q-45 0 -72 -35t-27 -92q0 -69 26 -101.5
t67 -32.5q54 0 116 41q0 110 -22 165z" />
    <glyph glyph-name="colon" unicode=":" horiz-adv-x="213" 
d="M160 343q-22 -21 -54 -21q-30 0 -52.5 21.5t-22.5 51.5t22.5 52t52.5 22q32 0 54 -21.5t22 -52.5t-22 -52zM160 12.5q-22 -20.5 -54 -20.5q-30 0 -52.5 21t-22.5 51q0 31 22.5 53.5t52.5 22.5q32 0 54 -22t22 -54q0 -31 -22 -51.5z" />
    <glyph glyph-name="semicolon" unicode=";" horiz-adv-x="195" 
d="M150 343q-22 -21 -53 -21q-30 0 -53 21.5t-23 51.5t23 52t53 22q31 0 53 -21.5t22 -52.5t-22 -52zM73 -117l-41 8l14 218l93 21l25 -25z" />
    <glyph glyph-name="less" unicode="&#x3c;" horiz-adv-x="510" 
d="M410 105l-372 198l372 199l38 -63l-269 -136l269 -135z" />
    <glyph glyph-name="equal" unicode="=" horiz-adv-x="510" 
d="M48 355v70h404v-70h-404zM48 182v70h404v-70h-404z" />
    <glyph glyph-name="greater" unicode="&#x3e;" horiz-adv-x="510" 
d="M88 105l-38 63l268 135l-268 136l38 63l372 -199z" />
    <glyph glyph-name="question" unicode="?" horiz-adv-x="383" 
d="M316 589q48 -39 48 -99q0 -65 -39.5 -119t-148.5 -103l-9 -87h-53l-19 120q72 34 113 78t41 108q0 40 -24 60t-64 20q-20 0 -43 -6l-20 -95h-50l-16 124q29 16 71.5 27t82.5 11q82 0 130 -39zM185.5 100.5q18.5 -19.5 18.5 -46.5q0 -26 -18.5 -44t-45.5 -18t-45 18
t-18 44q0 27 18 46.5t45 19.5t45.5 -19.5z" />
    <glyph glyph-name="at" unicode="@" horiz-adv-x="742" 
d="M199.5 42.5q60.5 -62.5 165.5 -62.5q91 0 224 46l14 -44q-125 -62 -255 -62q-104 0 -173 44t-101.5 117t-32.5 163q0 83 34.5 154t109 115t187.5 44q181 0 255.5 -82t74.5 -204q0 -68 -27.5 -116.5t-73.5 -74t-102 -25.5q-27 0 -48.5 11t-30.5 30q-23 -19 -50 -30.5
t-52 -11.5q-45 0 -69.5 28t-24.5 68q0 31 17.5 57t69.5 39l104 26v42q0 26 -12.5 37t-38.5 11q-45 0 -113 -25l-15 41q80 39 149 39q60 0 91.5 -19.5t31.5 -65.5v-190q0 -11 4.5 -19.5t14.5 -8.5q40 0 60.5 44t20.5 127q0 59 -24.5 107.5t-75.5 77t-125 28.5
q-127 0 -185.5 -71t-58.5 -188q0 -134 60.5 -196.5zM324.5 188.5q-9.5 -11.5 -9.5 -30.5q0 -22 10 -31.5t31 -9.5q25 0 59 17v87l-57 -14q-24 -7 -33.5 -18.5z" />
    <glyph glyph-name="A" unicode="A" horiz-adv-x="594" 
d="M138 62l70 -21v-41h-215v40l72 23l188 550l71 13l202 -563l72 -22v-41h-257v41l63 19l-31 93h-205zM267 447l-82 -243h169z" />
    <glyph glyph-name="B" unicode="B" horiz-adv-x="581" 
d="M490 270.5q39 -40.5 39 -101.5q0 -78 -60.5 -123.5t-174.5 -45.5h-257v41l86 22v487l-87 22v41h262q111 0 162 -39.5t51 -108.5q0 -57 -37.5 -93.5t-101.5 -47.5q79 -13 118 -53.5zM360 369q33 27 33 90q0 50 -27 74.5t-73 24.5q-19 0 -34.5 -3.5t-18.5 -3.5v-209h35
q52 0 85 27zM293 55q51 0 82.5 29.5t31.5 90.5q0 58 -36.5 87.5t-98.5 29.5h-32v-230q21 -7 53 -7z" />
    <glyph glyph-name="C" unicode="C" horiz-adv-x="549" 
d="M425 -2q-42 -8 -97 -8q-149 0 -221.5 89.5t-72.5 231.5q0 141 71.5 229t222.5 88q57 0 97 -7.5t87 -21.5l-10 -144h-45l-25 98q-40 12 -86 12q-106 0 -147 -70t-41 -184q0 -108 42.5 -182t141.5 -74q44 0 90 13l25 86h47l8 -132q-45 -16 -87 -24z" />
    <glyph glyph-name="D" unicode="D" horiz-adv-x="649" 
d="M541 535q75 -78 75 -216q0 -142 -72 -230.5t-220 -88.5h-287v41l86 22v487l-87 22v41h270q160 0 235 -78zM240 550v-485q46 -14 91 -14q161 0 161 268q0 107 -51 172t-139 65q-34 0 -62 -6z" />
    <glyph glyph-name="E" unicode="E" 
d="M380 394h47v-188h-47l-21 69h-117v-210h193l26 92h50v-157h-474v41l88 22v487l-89 22v41h453v-141h-50l-21 79h-176v-223h119z" />
    <glyph glyph-name="F" unicode="F" horiz-adv-x="508" 
d="M489 613v-141h-50l-21 79h-176v-233h119l19 66h47v-188h-47l-21 69h-117v-197l108 -24v-44h-313v41l88 22v487l-89 22v41h453z" />
    <glyph glyph-name="G" unicode="G" horiz-adv-x="612" 
d="M355 565q-110 0 -153.5 -75t-43.5 -179q0 -110 41.5 -183.5t140.5 -73.5q47 0 78 12v160l-85 21v42h266v-43l-64 -19v-195q-35 -20 -85 -31t-106 -11q-162 0 -236 89t-74 232q0 141 77.5 229t242.5 88q47 0 99 -8t83 -21l-12 -144h-50l-25 98q-33 12 -94 12z" />
    <glyph glyph-name="H" unicode="H" horiz-adv-x="732" 
d="M36 0v41l87 22v488l-87 21v41h290v-41l-86 -21v-218h252v218l-87 21v41h290v-41l-86 -21v-488l87 -22v-41h-290v41l86 22v214h-252v-214l86 -22v-41h-290z" />
    <glyph glyph-name="I" unicode="I" horiz-adv-x="363" 
d="M37 0v41l86 22v487l-87 22v41h291v-41l-87 -22v-487l87 -22v-41h-290z" />
    <glyph glyph-name="J" unicode="J" horiz-adv-x="331" 
d="M-35 -119l4 33h70q42 0 57.5 31.5t15.5 91.5v513l-86 22v41h288v-41l-86 -22v-487q0 -119 -39 -166t-117 -47q-62 0 -107 31z" />
    <glyph glyph-name="K" unicode="K" horiz-adv-x="590" 
d="M600 0h-170l-191 273v-210l74 -21v-42h-277v41l86 22v487l-86 22v41h277v-42l-74 -21v-211l194 216l-59 17v41h205v-40l-70 -21l-183 -211l193 -275l81 -25v-41z" />
    <glyph glyph-name="L" unicode="L" horiz-adv-x="487" 
d="M479 0h-443v41l86 22v487l-86 22v41h290v-41l-87 -22v-485h165l25 92h50v-157z" />
    <glyph glyph-name="M" unicode="M" horiz-adv-x="807" 
d="M253 0h-233v41l83 22l18 488l-83 21v41h200l162 -475l158 475h207v-41l-86 -22l20 -487l87 -22v-41h-284v41l86 22l-15 397l-158 -460l-66 -10l-168 469l-14 -396l86 -22v-41z" />
    <glyph glyph-name="N" unicode="N" horiz-adv-x="710" 
d="M455 613h236v-41l-84 -21v-551l-94 -10l-329 477v-404l85 -22v-41h-233v41l83 22v488l-84 21v41h186l319 -461v399l-85 21v41z" />
    <glyph glyph-name="O" unicode="O" horiz-adv-x="661" 
d="M555.5 539q71.5 -88 71.5 -229q0 -142 -72 -230.5t-223 -88.5q-101 0 -168 42t-98.5 114t-31.5 163q0 140 73.5 228.5t224.5 88.5q152 0 223.5 -88zM464 489q-38 76 -138 76q-95 0 -130.5 -75.5t-35.5 -179.5q0 -106 38 -181t138 -75q96 0 131 75.5t35 180.5
q0 103 -38 179z" />
    <glyph glyph-name="P" unicode="P" horiz-adv-x="539" 
d="M461 567.5q63 -45.5 63 -129.5q0 -64 -31 -107.5t-81.5 -64.5t-107.5 -21q-12 0 -32.5 1.5t-31.5 4.5v-188l106 -21v-42h-309v41l86 22v486l-87 22v42h267q95 0 158 -45.5zM281 292q56 0 89 37t33 102q0 59 -28.5 92.5t-75.5 33.5q-32 0 -59 -6v-255q16 -4 41 -4z" />
    <glyph glyph-name="Q" unicode="Q" horiz-adv-x="661" 
d="M627.5 -145q-33.5 -10 -59.5 -10q-29 0 -61 11t-84 43l-164 101q-110 23 -167.5 107.5t-57.5 202.5q0 140 73 228.5t224 88.5q152 0 224 -88t72 -229q0 -124 -59.5 -209.5t-178.5 -104.5q90 -42 143 -64t72 -22h73l4 -33q-20 -12 -53.5 -22zM197.5 131.5
q38.5 -76.5 137.5 -76.5q96 0 131.5 75.5t35.5 179.5q0 102 -38.5 178.5t-138.5 76.5q-95 0 -130.5 -76t-35.5 -179q0 -102 38.5 -178.5z" />
    <glyph glyph-name="R" unicode="R" horiz-adv-x="584" 
d="M345 195.5q-22 48.5 -36 62.5t-38 14h-29v-209l80 -22v-41h-285v41l88 22v487l-88 22v41h269q112 0 166 -41.5t54 -109.5q0 -62 -36.5 -105.5t-106.5 -62.5q25 -8 39 -20.5t26 -35t37 -79.5l44 -96l68 -22v-41h-171q-59 147 -81 195.5zM375.5 356.5q30.5 34.5 30.5 92.5
q0 53 -29.5 81.5t-81.5 28.5q-25 0 -53 -8v-229h47q56 0 86.5 34.5z" />
    <glyph glyph-name="S" unicode="S" horiz-adv-x="474" 
d="M96.5 581q54.5 47 154.5 47q83 0 170 -27l-11 -140h-47l-22 93q-13 4 -38 7.5t-43 3.5q-52 0 -84 -21.5t-32 -66.5q0 -37 22.5 -60.5t66.5 -42.5l97 -40q59 -23 85.5 -62t26.5 -99q0 -85 -59 -134t-171 -49q-44 0 -93 8t-88 23l15 135h49l18 -87q52 -15 100 -15
q56 0 88.5 23t32.5 63q0 37 -20 60t-67 43l-99 41q-46 19 -76 59.5t-30 105.5q0 85 54.5 132z" />
    <glyph glyph-name="T" unicode="T" horiz-adv-x="530" 
d="M8 613h514l-6 -152h-50l-20 90h-122v-488l92 -22v-41h-301v41l92 22v488h-124l-19 -90h-49z" />
    <glyph glyph-name="U" unicode="U" horiz-adv-x="658" 
d="M516.5 68.5q-49.5 -77.5 -182.5 -77.5q-97 0 -150 36t-71.5 95.5t-18.5 142.5v285l-87 22v41h291v-41l-87 -22v-285q0 -67 10 -111.5t40 -71.5t87 -27q77 0 113.5 50.5t36.5 136.5v309l-86 21v41h238v-41l-84 -21v-315q0 -90 -49.5 -167.5z" />
    <glyph glyph-name="V" unicode="V" horiz-adv-x="590" 
d="M269 -10l-199 560l-71 22v41h257v-41l-63 -20l129 -382l5 -17l4 17l122 380l-69 22v41h214v-40l-71 -23l-186 -547z" />
    <glyph glyph-name="W" unicode="W" horiz-adv-x="783" 
d="M586 613h216v-40l-72 -23l-130 -547l-70 -13l-132 416l-113 -403l-70 -13l-154 560l-71 22v41h257v-41l-62 -20l84 -367l92 361l104 19l112 -388l79 373l-70 22v41z" />
    <glyph glyph-name="X" unicode="X" horiz-adv-x="597" 
d="M225 42v-42h-220v41l68 20l163 243l-157 248l-67 20v41h262v-43l-67 -18l110 -172l114 172l-71 18v43h221v-41l-68 -20l-157 -232l163 -259l74 -20v-41h-263v43l61 18l-117 181l-119 -181z" />
    <glyph glyph-name="Y" unicode="Y" horiz-adv-x="572" 
d="M360 571v42h215v-40l-71 -23l-151 -305v-182l93 -22v-41h-301v41l92 22v182l-157 305l-70 22v41h263v-42l-65 -21l112 -222l111 223z" />
    <glyph glyph-name="Z" unicode="Z" horiz-adv-x="506" 
d="M473 157l-9 -157h-417l-18 33l313 517h-210l-24 -78h-51l-9 141h424l5 -33l-309 -516h217l38 93h50z" />
    <glyph glyph-name="bracketleft" unicode="[" horiz-adv-x="315" 
d="M290 -167h-219v864h219v-42l-118 -7v-763l118 -9v-43z" />
    <glyph glyph-name="backslash" unicode="\" horiz-adv-x="364" 
d="M89 697l271 -836h-83l-272 836h84z" />
    <glyph glyph-name="bracketright" unicode="]" horiz-adv-x="315" 
d="M24 697h219v-864h-219v43l119 9v763l-119 7v42z" />
    <glyph glyph-name="asciicircum" unicode="^" horiz-adv-x="472" 
d="M30 250l180 363h52l180 -363h-83l-123 254l-124 -254h-82z" />
    <glyph glyph-name="underscore" unicode="_" horiz-adv-x="441" 
d="M441 -72h-441v54h441v-54z" />
    <glyph glyph-name="grave" unicode="`" horiz-adv-x="255" 
d="M231 558l-227 107l3 21l90 36l154 -135z" />
    <glyph glyph-name="a" unicode="a" horiz-adv-x="514" 
d="M151 420l-23 -84h-49l-17 128q97 37 201 37q78 0 118 -26t40 -93v-308l82 -24v-38q-64 -17 -108 -17q-31 0 -56 14t-32 40q-41 -29 -78 -44t-79 -15q-53 0 -83.5 34.5t-30.5 88.5q0 48 28.5 88.5t99.5 54.5l140 27v75q0 40 -16 57.5t-56 17.5q-42 0 -81 -13zM170.5 183
q-17.5 -22 -17.5 -56q0 -63 59 -63q21 0 47 9.5t45 21.5v135l-75 -16q-41 -9 -58.5 -31z" />
    <glyph glyph-name="b" unicode="b" horiz-adv-x="552" 
d="M242.5 493.5q29.5 7.5 56.5 7.5q107 0 165 -62t58 -189q0 -113 -56 -186.5t-194 -73.5q-42 0 -101.5 8t-95.5 19v624l-81 11v39l161 39h38v-255q20 11 49.5 18.5zM225 54q21 -4 47 -4q70 0 96.5 47.5t26.5 150.5q0 99 -26 146t-95 47q-24 0 -42.5 -5t-38.5 -16v-356
q11 -6 32 -10z" />
    <glyph glyph-name="c" unicode="c" horiz-adv-x="445" 
d="M86 60.5q-55 70.5 -55 183.5q0 116 54.5 186.5t170.5 70.5q48 0 88 -7.5t82 -23.5l-19 -134h-50l-22 91q-33 13 -69 13q-63 0 -86 -50t-23 -144q0 -70 11.5 -111t37 -59t68.5 -18q73 0 147 23l7 -40q-36 -24 -80 -37.5t-92 -13.5q-115 0 -170 70.5z" />
    <glyph glyph-name="d" unicode="d" horiz-adv-x="563" 
d="M200 -10q-55 0 -93 35t-57 92.5t-19 126.5q0 120 57 188.5t160 68.5q26 0 50.5 -5t41.5 -11.5t19 -8.5v165l-83 11v39l161 39h39v-656l81 -24v-38q-61 -17 -109 -17q-30 0 -55 14t-31 38q-78 -57 -162 -57zM314.5 74q28.5 11 44.5 25v314q-17 13 -41.5 20.5t-48.5 7.5
q-55 0 -83.5 -52t-28.5 -143q0 -85 24.5 -134t75.5 -49q29 0 57.5 11z" />
    <glyph glyph-name="e" unicode="e" horiz-adv-x="478" 
d="M85 58q-55 68 -55 186q0 133 60.5 195t163.5 62q102 0 149 -46t47 -144q0 -34 -3 -61h-291v-27q0 -87 35.5 -126.5t103.5 -39.5q60 0 142 23l8 -39q-76 -51 -181 -51q-124 0 -179 68zM330 308v22q0 54 -15.5 81.5t-55.5 27.5q-55 0 -76.5 -33.5t-24.5 -107.5z" />
    <glyph glyph-name="f" unicode="f" horiz-adv-x="376" 
d="M30 42l82 22v363h-81v42l81 32q0 108 58 168.5t160 60.5q26 0 58 -7.5t43 -15.5l-17 -134h-55l-16 75q-19 7 -38 7q-46 0 -61 -32.5t-15 -98.5v-32h150v-72l-149 9v-362l116 -21v-46h-316v42z" />
    <glyph glyph-name="g" unicode="g" horiz-adv-x="513" 
d="M68.5 -150q-41.5 27 -41.5 71q0 56 68 100q-19 7 -29 24t-10 36q0 24 17 48t50 58q-36 22 -52.5 60.5t-16.5 85.5q0 74 50.5 122t142.5 48q69 0 118 -28l137 39v-80h-100q18 -18 28 -45.5t10 -55.5q0 -76 -47.5 -124t-149.5 -48q-21 0 -42.5 2.5t-28.5 5.5
q-15 -27 -15 -40t7 -23t23 -10h140q80 0 122.5 -24.5t42.5 -85.5q0 -42 -29.5 -79t-90 -60.5t-148.5 -23.5q-114 0 -155.5 27zM309 249q18 29 18 84q0 113 -81 113q-41 0 -58 -29t-17 -84q0 -54 18 -83.5t60 -29.5t60 29zM346.5 -92q37.5 24 37.5 66q0 26 -14.5 33.5
t-49.5 7.5h-156q-15 -19 -21.5 -35.5t-6.5 -36.5q0 -30 20.5 -44.5t72.5 -14.5q80 0 117.5 24z" />
    <glyph glyph-name="h" unicode="h" horiz-adv-x="621" 
d="M337 0v41l68 23v303q0 25 -6 38t-22.5 18t-48.5 5q-65 0 -109 -14v-350l68 -23v-41h-268v44l83 20v577l-82 11v39l161 39h38v-269q31 15 83 27.5t95 12.5q55 0 90.5 -25.5t35.5 -79.5v-332l82 -23v-41h-268z" />
    <glyph glyph-name="i" unicode="i" horiz-adv-x="323" 
d="M113 592q-23 21 -23 51q0 31 23 53.5t54 22.5q30 0 52 -22.5t22 -53.5q0 -30 -22 -51t-52 -21q-31 0 -54 21zM27 0v44l82 20v349l-82 11v39l161 38h38v-437l81 -20v-44h-280z" />
    <glyph glyph-name="j" unicode="j" horiz-adv-x="319" 
d="M221 592q-22 -21 -52 -21q-31 0 -53.5 21t-22.5 51q0 31 22.5 53.5t53.5 22.5q30 0 52 -22.5t22 -53.5q0 -30 -22 -51zM191 501h38v-445q0 -119 -39.5 -171.5t-100.5 -52.5q-17 0 -45 7t-55 20l6 42h45q36 0 54 24.5t18 55.5v432l-82 11v39z" />
    <glyph glyph-name="k" unicode="k" horiz-adv-x="573" 
d="M280 0h-261v44l83 20v577l-83 11v39l162 39h38v-666l61 -19v-45zM586 0h-244v45l43 17l-157 196l142 174l-72 17v43h256v-43l-94 -19l-118 -142l181 -224l63 -19v-45z" />
    <glyph glyph-name="l" unicode="l" horiz-adv-x="313" 
d="M16 0v44l82 20v577l-82 11v39l161 39h38v-666l82 -20v-44h-281z" />
    <glyph glyph-name="m" unicode="m" horiz-adv-x="912" 
d="M26 39l82 25v350l-82 10v40l161 37h38v-40q30 15 80 27.5t90 12.5q75 0 107 -44q40 17 91.5 30.5t93.5 13.5q57 0 91.5 -25t34.5 -80v-332l83 -25v-39h-265v39l65 25v303q0 36 -15.5 48.5t-61.5 12.5q-60 0 -102 -14q2 -6 2 -22v-328l65 -25v-39h-247v39l65 25v303
q0 25 -6.5 38t-23.5 18t-50 5q-57 0 -97 -14v-350l65 -25v-39h-264v39z" />
    <glyph glyph-name="n" unicode="n" horiz-adv-x="628" 
d="M307 487.5q53 13.5 96 13.5q56 0 91.5 -25t35.5 -80v-332l83 -25v-39h-268v39l68 25v303q0 26 -6.5 39t-23.5 17.5t-50 4.5q-56 0 -107 -14v-350l68 -25v-39h-267v39l82 25v350l-82 10v40l161 37h38v-40q28 13 81 26.5z" />
    <glyph glyph-name="o" unicode="o" 
d="M456 430.5q59 -70.5 59 -186.5q0 -113 -60 -183.5t-184 -70.5q-121 0 -180.5 71t-59.5 183q0 116 58.5 186.5t181.5 70.5q126 0 185 -70.5zM362 390q-26 51 -93 51q-63 0 -87.5 -51t-24.5 -144q0 -92 26 -143.5t92 -51.5q65 0 89 51t24 144t-26 144z" />
    <glyph glyph-name="p" unicode="p" horiz-adv-x="576" 
d="M17 -125l82 22v519l-90 8v40q63 16 140 26.5t143 10.5q139 0 196 -65t57 -192q0 -112 -58 -178t-166 -66q-41 0 -84 14l13 47q18 -4 38 -4q55 0 83.5 24t37.5 64.5t9 102.5q0 86 -24.5 139.5t-99.5 53.5q-40 0 -78 -12v-529l105 -23v-45h-304v43z" />
    <glyph glyph-name="q" unicode="q" horiz-adv-x="550" 
d="M553 -125v-43h-286v43l95 24v149q-41 -31 -74 -44.5t-87 -13.5q-81 0 -125.5 71.5t-44.5 182.5q0 114 54 185.5t160 71.5q76 0 145 -38l47 32h39v-598zM267 441q-53 0 -81 -50.5t-28 -131.5q0 -107 26 -151.5t73 -44.5q30 0 57 10.5t45 28.5v307q-45 32 -92 32z" />
    <glyph glyph-name="r" unicode="r" horiz-adv-x="417" 
d="M225 407v-343l115 -21v-43h-314v42l82 22v348l-82 12v39l156 38h42v-46q34 22 75 35.5t76 13.5q21 0 28 -1l-18 -167h-59l-21 88q-44 0 -80 -17z" />
    <glyph glyph-name="s" unicode="s" horiz-adv-x="440" 
d="M166.5 424q-23.5 -16 -23.5 -44q0 -25 12.5 -40t42.5 -25l100 -33q56 -18 80 -49.5t24 -87.5q0 -72 -52.5 -113.5t-147.5 -41.5q-37 0 -82 6.5t-78 18.5l12 131h49l21 -83q36 -12 77 -12q49 0 75 18t26 53q0 23 -14 35.5t-51 25.5l-93 32q-50 18 -74.5 50t-24.5 84
q0 72 47 112t141 40q36 0 75.5 -7.5t73.5 -22.5l-14 -119h-47l-21 74q-31 14 -69 14q-41 0 -64.5 -16z" />
    <glyph glyph-name="t" unicode="t" horiz-adv-x="350" 
d="M247 -3q-45 -6 -72 -6q-49 0 -67.5 22t-18.5 57v357h-72v43l82 33l53 100h53v-111h131v-72l-131 8v-352l117 -22v-42q-30 -9 -75 -15z" />
    <glyph glyph-name="u" unicode="u" horiz-adv-x="612" 
d="M481 -5q-31 0 -57 15t-31 40q-36 -25 -83 -42.5t-90 -17.5q-65 0 -94 33t-29 83v307l-82 11v39l162 38h37v-368q0 -35 15 -51.5t54 -16.5q22 0 52.5 9.5t53.5 22.5v316l-82 11v39l161 38h38v-427l83 -24v-38q-64 -17 -108 -17z" />
    <glyph glyph-name="v" unicode="v" horiz-adv-x="500" 
d="M444 429l-160 -434l-77 -9l-167 445l-54 17l-1 44h236v-46l-56 -15l99 -295l102 293l-71 17v46h213v-44z" />
    <glyph glyph-name="w" unicode="w" horiz-adv-x="734" 
d="M682 429l-138 -434l-79 -9l-97 288l-91 -279l-78 -9l-154 445l-53 17v44h230v-46l-55 -15l89 -295l96 308l73 12l97 -320l83 293l-72 17v46h212v-44z" />
    <glyph glyph-name="x" unicode="x" horiz-adv-x="501" 
d="M515 0h-241v48l45 11l-82 116l-75 -115l51 -12v-48h-217v46l74 19l119 176l-133 191l-51 15v45h214v-47l-40 -8l84 -118l73 114l-49 12v47h202v-48l-55 -10l-124 -182l132 -187l73 -16v-49z" />
    <glyph glyph-name="y" unicode="y" horiz-adv-x="496" 
d="M220 455l-50 -24l104 -275l91 273l-68 17v46h209v-44l-63 -19l-143 -395q-36 -102 -78 -152t-105 -50q-45 0 -104 27l7 41h57q50 0 81 31t57 93l-170 407l-53 24v37h228v-37z" />
    <glyph glyph-name="z" unicode="z" horiz-adv-x="473" 
d="M297 426h-172l-22 -85h-43l-17 151h380l21 -42l-265 -386h182l35 88h45l-11 -152h-377l-20 42z" />
    <glyph glyph-name="braceleft" unicode="{" horiz-adv-x="315" 
d="M104 677l176 37l11 -38l-91 -37l25 -348l-86 -31l86 -31l-25 -349l91 -37l-11 -36l-176 35l21 376l-72 34v15l72 36z" />
    <glyph glyph-name="bar" unicode="|" horiz-adv-x="368" 
d="M234 697v-836h-100v836h100z" />
    <glyph glyph-name="braceright" unicode="}" horiz-adv-x="315" 
d="M35 -193l-11 36l91 37l-25 349l86 31l-86 31l25 348l-91 37l11 38l176 -37l-21 -374l72 -36v-15l-72 -34l21 -376z" />
    <glyph glyph-name="asciitilde" unicode="~" horiz-adv-x="514" 
d="M128 249.5q-16 -11.5 -36 -39.5l-42 24q47 97 117 97q21 0 41 -6.5t52 -20.5q27 -12 45.5 -18.5t36.5 -6.5q27 0 43 11t35 42l45 -25q-55 -100 -127 -100q-20 0 -40.5 7t-46.5 20q-29 14 -48 20.5t-40 6.5q-19 0 -35 -11.5z" />
    <glyph glyph-name="uni00A0" unicode="&#xa0;" horiz-adv-x="181" 
 />
    <glyph glyph-name="exclamdown" unicode="&#xa1;" horiz-adv-x="227" 
d="M68 483q18 18 45 18t46 -18t19 -44q0 -27 -19 -45.5t-46 -18.5t-45 18.5t-18 45.5q0 26 18 44zM180 -121h-132l30 427h72z" />
    <glyph glyph-name="cent" unicode="&#xa2;" horiz-adv-x="526" 
d="M104 121q-48 72 -48 186q0 119 57 189t154 81v121h59v-121q36 -3 73.5 -12t65.5 -20l-10 -132h-59l-22 94q-13 6 -33 9.5t-38 3.5q-67 0 -95.5 -55t-28.5 -155q0 -110 29 -163.5t101 -53.5q77 0 151 28l8 -37q-77 -49 -157 -52v-119h-61v122q-98 14 -146 86z" />
    <glyph glyph-name="sterling" unicode="&#xa3;" horiz-adv-x="526" 
d="M213.5 106q-23.5 -28 -59.5 -47l266 11l50 52l26 -16l-31 -106h-417l-13 45q0 -2 26 14.5t47 44t21 64.5v95h-100l9 54h91q0 106 16.5 172t55.5 99t108 33q76 0 155 -27l-10 -133h-49l-21 91q-27 9 -56 9q-39 0 -58.5 -25t-25 -67t-5.5 -110v-42h189l-9 -54h-181v-94
q-1 -35 -24.5 -63z" />
    <glyph glyph-name="currency" unicode="&#xa4;" horiz-adv-x="541" 
d="M105 131q-37 53 -37 118q0 62 37 117l-53 53l50 49l52 -54q52 38 117 38t117 -38l53 53l48 -48l-53 -53q38 -56 38 -117q0 -68 -38 -118l53 -51l-47 -50l-54 53q-49 -36 -117 -36q-65 0 -117 36l-55 -54l-47 50zM163 186q17 -29 45.5 -46t62.5 -17t63.5 17t46.5 46t17 63
t-17 63.5t-46.5 46.5t-63.5 17t-62.5 -17t-45.5 -46.5t-17 -63.5t17 -63z" />
    <glyph glyph-name="yen" unicode="&#xa5;" horiz-adv-x="526" 
d="M45 334v51h96l-79 161l-66 25v42h256v-42l-62 -25l97 -218l98 218l-65 25v42h209v-42l-73 -25l-75 -161h97v-51h-121l-29 -63h150v-51h-160v-153l90 -25v-42h-292v42l90 25v153h-161v51h151l-31 63h-120z" />
    <glyph glyph-name="brokenbar" unicode="&#xa6;" horiz-adv-x="389" 
d="M234 697v-323h-100v323h100zM234 185v-324h-100v324h100z" />
    <glyph glyph-name="section" unicode="&#xa7;" horiz-adv-x="375" 
d="M211 596q-36 0 -57 -11t-21 -42q0 -19 22 -44.5t66 -66.5q59 -55 89.5 -92t30.5 -71q0 -36 -12 -58q-63 66 -166 167q-50 49 -71.5 72t-31.5 44t-10 46q0 53 43 83t111 30q36 0 67 -5t49 -10t22 -7l-14 -128h-47l-20 86q-19 7 -50 7zM109 57q2 -1 18 -5.5t37 -4.5
q36 0 58.5 14t22.5 46q0 19 -20.5 42t-67.5 66q-58 53 -89 90t-31 73q0 31 12 52q81 -85 175 -177q47 -46 67 -67t29.5 -39.5t9.5 -40.5q0 -53 -42.5 -83.5t-113.5 -30.5q-37 0 -69 4.5t-51 9t-24 6.5l13 130h45z" />
    <glyph glyph-name="dieresis" unicode="&#xa8;" horiz-adv-x="255" 
d="M67.5 596.5q-20.5 -19.5 -47.5 -19.5q-29 0 -50 19.5t-21 47.5t21 47.5t50 19.5q27 0 47.5 -20t20.5 -47q0 -28 -20.5 -47.5zM285.5 596.5q-20.5 -19.5 -47.5 -19.5q-28 0 -49 19.5t-21 47.5q0 27 21 47t49 20q27 0 47.5 -20t20.5 -47q0 -28 -20.5 -47.5z" />
    <glyph glyph-name="copyright" unicode="&#xa9;" horiz-adv-x="495" 
d="M37.5 575q32.5 56 88.5 89t122 33t122 -33t88.5 -89t32.5 -122q0 -65 -33 -121t-88.5 -89t-121.5 -33t-121.5 33t-88.5 89t-33 121q0 66 32.5 122zM68 347.5q28 -48.5 76 -77t104 -28.5q57 0 105 28.5t76 77t28 105.5t-28 105.5t-76 77t-105 28.5q-56 0 -104 -28.5
t-76 -77t-28 -105.5t28 -105.5zM251 294q-77 0 -113 42.5t-36 116.5q0 72 36.5 116t112.5 44q45 0 95 -15l-8 -72h-30l-9 48q-24 6 -40 6q-47 0 -65.5 -34.5t-18.5 -92.5q0 -55 18.5 -90.5t63.5 -35.5q22 0 42 6l13 43h30l4 -62q-41 -20 -95 -20z" />
    <glyph glyph-name="ordfeminine" unicode="&#xaa;" horiz-adv-x="408" 
d="M123 591l-18 -66h-40l-13 102q81 27 157 27q60 0 91.5 -20t31.5 -72v-222l58 -21v-31q-51 -13 -83 -13q-28 0 -49 11.5t-25 30.5q-32 -24 -58 -35.5t-62 -11.5q-35 0 -58 28.5t-23 64.5q0 38 21 68.5t76 40.5l101 17v52q0 30 -11.5 44.5t-37.5 14.5q-29 0 -58 -9z
M130 378q0 -23 12 -33.5t30 -10.5q14 0 29.5 5.5t28.5 14.5v93l-47 -9q-53 -9 -53 -60z" />
    <glyph glyph-name="guillemotleft" unicode="&#xab;" horiz-adv-x="403" 
d="M21 242l138 179l47 -30l-79 -149l79 -147l-47 -31zM326 64l-139 178l139 179l47 -30l-79 -149l79 -147z" />
    <glyph glyph-name="logicalnot" unicode="&#xac;" horiz-adv-x="536" 
d="M404 123v146h-339v70h405v-216h-66z" />
    <glyph glyph-name="uni00AD" unicode="&#xad;" horiz-adv-x="282" 
d="M274 206h-265v56h265v-56z" />
    <glyph glyph-name="registered" unicode="&#xae;" horiz-adv-x="495" 
d="M126.5 243q-55.5 33 -88.5 89t-33 121q0 66 32.5 122t88.5 89t122 33t122 -33t88.5 -89t32.5 -122q0 -65 -33 -121t-88.5 -89t-121.5 -33t-121.5 33zM353 270.5q48 28.5 76 77t28 105.5t-28 105.5t-76 77t-105 28.5q-56 0 -104 -28.5t-76 -77t-28 -105.5t28 -105.5
t76 -77t104 -28.5q57 0 105 28.5zM121 327l34 8v247l-34 8v22h129q54 0 79.5 -22.5t25.5 -52.5q0 -27 -15.5 -50.5t-48.5 -33.5q12 -5 18 -13.5t13.5 -24t10.5 -21.5l31 -59l28 -8v-21h-89q-28 71 -39.5 96.5t-19 32t-20.5 6.5h-6v-106l35 -8v-21h-132v21zM238 467
q24 0 36.5 17.5t12.5 46.5q0 25 -13 39.5t-40 14.5q-9 0 -16 -2v-116h20z" />
    <glyph glyph-name="macron" unicode="&#xaf;" horiz-adv-x="255" 
d="M11 677h233v-70h-233v70z" />
    <glyph glyph-name="degree" unicode="&#xb0;" horiz-adv-x="442" 
d="M357.5 479q-21.5 -36 -57.5 -57t-79 -21t-79 21t-57.5 57t-21.5 79t21.5 79.5t57.5 58t79 21.5t79 -21.5t57.5 -58t21.5 -79.5t-21.5 -79zM150 639.5q-26 -32.5 -26 -81.5q0 -48 26 -80t71 -32q44 0 70.5 32t26.5 80q0 49 -26.5 81.5t-70.5 32.5q-45 0 -71 -32.5z" />
    <glyph glyph-name="plusminus" unicode="&#xb1;" horiz-adv-x="510" 
d="M220 102v167h-167v70h167v166h69v-166h168v-70h-168v-167h-69zM53 10v70h404v-70h-404z" />
    <glyph glyph-name="uni00B2" unicode="&#xb2;" horiz-adv-x="405" 
d="M67 633l-20 47q29 17 68 28t78 11q67 0 108 -28.5t41 -90.5q0 -64 -106 -166l-101 -98h145l25 53l51 -6l-8 -105h-304l-14 41l146 148q68 68 68 132q0 30 -16 48t-44 18q-47 0 -117 -32z" />
    <glyph glyph-name="uni00B3" unicode="&#xb3;" horiz-adv-x="405" 
d="M293.5 694q36.5 -25 36.5 -72q0 -36 -20.5 -65t-54.5 -45q45 -12 70 -42t25 -69q0 -64 -43 -98t-123 -34q-66 0 -139 29l11 48q68 -24 106 -24q40 0 64.5 20t24.5 59q0 47 -33.5 61.5t-89.5 14.5l-3 45q55 6 81 31t26 60q0 25 -14 38.5t-41 13.5q-26 0 -100 -34l-19 46
q30 19 68 30.5t76 11.5q55 0 91.5 -25z" />
    <glyph glyph-name="acute" unicode="&#xb4;" horiz-adv-x="255" 
d="M27 558l-23 29l155 135l92 -36v-21z" />
    <glyph glyph-name="uni00B5" unicode="&#xb5;" horiz-adv-x="588" 
d="M446 -4q-29 0 -53 13.5t-30 37.5q-26 -25 -58 -41t-66 -16q-43 0 -70 21l24 -218h-105v600l-77 9v36l156 34h35v-344q0 -35 12 -50.5t46 -15.5q48 0 100 31v300l-68 9v36l145 34h38v-401l77 -24v-36q-59 -15 -106 -15z" />
    <glyph glyph-name="paragraph" unicode="&#xb6;" horiz-adv-x="539" 
d="M226 226q-62 0 -107.5 27t-69 72.5t-23.5 101.5t23.5 101.5t68.5 72t108 26.5q7 0 25 -2v-397q-8 -2 -25 -2zM491 40v-40h-300v41l103 24v560h197v-39l-86 -25v-497z" />
    <glyph glyph-name="periodcentered" unicode="&#xb7;" horiz-adv-x="230" 
d="M176.5 204q-19.5 -20 -49.5 -20q-29 0 -49.5 20t-20.5 49q0 30 20 49t50 19t49.5 -19t19.5 -49q0 -29 -19.5 -49z" />
    <glyph glyph-name="cedilla" unicode="&#xb8;" horiz-adv-x="255" 
d="M196 -66q26 -20 26 -51q0 -28 -19 -51.5t-50.5 -37.5t-66.5 -14q-29 0 -53 10l8 35q14 -7 30 -7q30 0 47.5 16t17.5 37q0 18 -15 30t-47 13l-6 15l28 77h40l-16 -52q50 0 76 -20z" />
    <glyph glyph-name="uni00B9" unicode="&#xb9;" horiz-adv-x="405" 
d="M57 643v39l208 31v-432h-94v362h-114z" />
    <glyph glyph-name="ordmasculine" unicode="&#xba;" horiz-adv-x="429" 
d="M355 601q44 -53 44 -140q0 -84 -45 -137.5t-138 -53.5q-94 0 -139.5 53.5t-45.5 137.5q0 87 45 140t140 53t139 -53zM275.5 568.5q-17.5 37.5 -62.5 37.5q-42 0 -58 -37t-16 -106q0 -68 16.5 -104.5t61.5 -36.5q44 0 60 36.5t16 104.5t-17.5 105.5z" />
    <glyph glyph-name="guillemotright" unicode="&#xbb;" horiz-adv-x="403" 
d="M217 242l-140 -178l-46 31l79 147l-79 149l46 30zM244 421l138 -179l-138 -178l-45 31l77 147l-77 149z" />
    <glyph glyph-name="onequarter" unicode="&#xbc;" horiz-adv-x="910" 
d="M347 -46h-74l230 681h74zM48 536v37l209 32v-433h-94v364h-115zM701 0v85h-202l-13 38l232 316l74 -8v-290h57v-56h-57v-85h-91zM575 141h126v172z" />
    <glyph glyph-name="onehalf" unicode="&#xbd;" horiz-adv-x="910" 
d="M322 -46h-74l230 681h74zM39 536v37l209 31v-432h-94v364h-115zM537 355l-21 47q28 17 68 28t79 11q149 0 149 -118q0 -37 -29 -79t-75 -88l-99 -98h141l25 54l51 -6l-8 -106h-304l-14 42l146 149q68 68 68 131q0 64 -61 64q-50 0 -116 -31z" />
    <glyph glyph-name="threequarters" unicode="&#xbe;" horiz-adv-x="947" 
d="M397 -46h-75l230 681h75zM290.5 586.5q36.5 -24.5 36.5 -71.5q0 -36 -21 -65t-55 -46q45 -11 70.5 -40.5t25.5 -68.5q0 -66 -42.5 -99t-124.5 -33q-66 0 -138 27l11 48q76 -24 105 -24q41 0 65 21t24 60q0 46 -33.5 61.5t-88.5 15.5l-3 42q55 6 80.5 31.5t25.5 61.5
q0 24 -13.5 38t-41.5 14q-29 0 -99 -35l-19 46q29 18 67 29.5t76 11.5q56 0 92.5 -24.5zM739 0v85h-203l-13 38l232 316l74 -8v-290h58v-56h-58v-85h-90zM612 141h127v172z" />
    <glyph glyph-name="questiondown" unicode="&#xbf;" horiz-adv-x="383" 
d="M196.5 393.5q-18.5 18.5 -18.5 45.5q0 26 18.5 44t44.5 18q28 0 46 -18t18 -44q0 -27 -18 -45.5t-46 -18.5q-26 0 -44.5 18.5zM101 -118q-41 19 -62.5 51t-21.5 70q0 65 40 119.5t149 103.5l10 87h52l19 -120q-71 -35 -112.5 -79.5t-41.5 -108.5q0 -40 24 -59t65 -19
q14 0 42 5l20 95h49l17 -123q-27 -16 -71.5 -28.5t-81.5 -12.5q-55 0 -96 19z" />
    <glyph glyph-name="Agrave" unicode="&#xc0;" horiz-adv-x="594" 
d="M369 639l-226 107l2 21l90 32l154 -131zM138 62l70 -21v-41h-215v40l72 23l188 550l71 13l202 -563l72 -22v-41h-257v41l63 19l-31 93h-205zM267 447l-82 -243h169z" />
    <glyph glyph-name="Aacute" unicode="&#xc1;" horiz-adv-x="594" 
d="M211 640l-23 29l156 131l91 -32v-22zM138 62l70 -21v-41h-215v40l72 23l188 550l71 13l202 -563l72 -22v-41h-257v41l63 19l-31 93h-205zM267 447l-82 -243h169z" />
    <glyph glyph-name="Acircumflex" unicode="&#xc2;" horiz-adv-x="594" 
d="M411 644l-124 79l-121 -79l-23 22l106 134h77l106 -134zM138 62l70 -21v-41h-215v40l72 23l188 550l71 13l202 -563l72 -22v-41h-257v41l63 19l-31 93h-205zM267 447l-82 -243h169z" />
    <glyph glyph-name="Atilde" unicode="&#xc3;" horiz-adv-x="594" 
d="M418 690q-19 -26 -43 -26q-23 0 -89 20q-58 18 -75 18q-10 0 -19.5 -7.5t-15.5 -15t-7 -10.5l-41 17q17 45 38.5 72.5t44.5 27.5q24 0 88 -20q58 -18 76 -18q11 0 20 7.5t15 15t7 10.5l40 -17q-20 -48 -39 -74zM138 62l70 -21v-41h-215v40l72 23l188 550l71 13l202 -563
l72 -22v-41h-257v41l63 19l-31 93h-205zM267 447l-82 -243h169z" />
    <glyph glyph-name="Adieresis" unicode="&#xc4;" horiz-adv-x="594" 
d="M230.5 673q-20.5 -19 -48.5 -19t-49 19t-21 47t21 48t49 20t48.5 -20t20.5 -48t-20.5 -47zM449 673q-20 -19 -48 -19q-29 0 -49.5 19t-20.5 47t20.5 48t49.5 20q27 0 47.5 -20t20.5 -48t-20 -47zM138 62l70 -21v-41h-215v40l72 23l188 550l71 13l202 -563l72 -22v-41
h-257v41l63 19l-31 93h-205zM267 447l-82 -243h169z" />
    <glyph glyph-name="Aring" unicode="&#xc5;" horiz-adv-x="594" 
d="M206.5 655.5q-28.5 26.5 -28.5 67.5q0 42 28.5 69.5t80.5 27.5q53 0 81 -27t28 -70q0 -42 -28 -68t-81 -26q-52 0 -80.5 26.5zM322 685.5q9 13.5 9 37.5q0 25 -9 39.5t-35 14.5t-34.5 -14.5t-8.5 -39.5q0 -24 8.5 -37.5t34.5 -13.5t35 13.5zM-7 0v40l72 23l188 550l71 13
l202 -563l72 -22v-41h-257v41l63 19l-31 93h-205l-30 -91l70 -21v-41h-215zM185 204h169l-87 243z" />
    <glyph glyph-name="AE" unicode="&#xc6;" horiz-adv-x="712" 
d="M-39 0v40l72 23l260 493l-66 16v41h416v-141h-50l-22 79h-142l17 -237h82l19 66h47v-188h-47l-21 69h-77l14 -196h144l26 92h50v-157h-420v41l87 22l-14 194h-129l-100 -194l69 -22v-41h-215zM234 310h98l-11 168z" />
    <glyph glyph-name="Ccedilla" unicode="&#xc7;" horiz-adv-x="540" 
d="M425 -2q-42 -8 -94 -8l-11 -36q50 0 76 -20t26 -51q0 -28 -19 -51.5t-50 -37.5t-67 -14q-29 0 -53 10l8 35q14 -7 30 -7q30 0 48 16t18 37q0 18 -15.5 30t-47.5 13l-6 15l22 63q-130 11 -193 98.5t-63 220.5q0 141 71.5 229t222.5 88q57 0 97 -7.5t87 -21.5l-10 -144h-45
l-25 98q-40 12 -86 12q-106 0 -147 -70t-41 -184q0 -108 42.5 -182t141.5 -74q44 0 90 13l25 86h47l8 -132q-45 -16 -87 -24z" />
    <glyph glyph-name="Egrave" unicode="&#xc8;" 
d="M378 640l-227 106l3 22l90 32l154 -131zM37 0v41l88 22v487l-89 22v41h453v-141h-50l-21 79h-176v-223h119l19 66h47v-188h-47l-21 69h-117v-210h193l26 92h50v-157h-474z" />
    <glyph glyph-name="Eacute" unicode="&#xc9;" 
d="M204 640l-23 29l155 131l91 -32v-22zM37 0v41l88 22v487l-89 22v41h453v-141h-50l-21 79h-176v-223h119l19 66h47v-188h-47l-21 69h-117v-210h193l26 92h50v-157h-474z" />
    <glyph glyph-name="Ecircumflex" unicode="&#xca;" 
d="M407 644l-125 79l-121 -79l-22 22l106 134h76l107 -134zM380 394h47v-188h-47l-21 69h-117v-210h193l26 92h50v-157h-474v41l88 22v487l-89 22v41h453v-141h-50l-21 79h-176v-223h119z" />
    <glyph glyph-name="Edieresis" unicode="&#xcb;" 
d="M219 673q-20 -19 -48 -19q-29 0 -50 19t-21 47t21 48t50 20q27 0 47.5 -20t20.5 -48t-20 -47zM437 673q-20 -19 -47 -19q-29 0 -50 19t-21 47t21 48t50 20q27 0 47 -20t20 -48t-20 -47zM380 394h47v-188h-47l-21 69h-117v-210h193l26 92h50v-157h-474v41l88 22v487
l-89 22v41h453v-141h-50l-21 79h-176v-223h119z" />
    <glyph glyph-name="Igrave" unicode="&#xcc;" horiz-adv-x="363" 
d="M284 640l-226 106l2 22l90 32l154 -131zM37 0v41l86 22v487l-87 22v41h291v-41l-87 -22v-487l87 -22v-41h-290z" />
    <glyph glyph-name="Iacute" unicode="&#xcd;" horiz-adv-x="363" 
d="M82 640l-23 29l155 131l91 -32v-22zM37 0v41l86 22v487l-87 22v41h291v-41l-87 -22v-487l87 -22v-41h-290z" />
    <glyph glyph-name="Icircumflex" unicode="&#xce;" horiz-adv-x="363" 
d="M59 644l-23 22l107 134h76l107 -134l-22 -22l-124 79zM37 0v41l86 22v487l-87 22v41h291v-41l-87 -22v-487l87 -22v-41h-290z" />
    <glyph glyph-name="Idieresis" unicode="&#xcf;" horiz-adv-x="363" 
d="M24 673q-21 19 -21 47t21 48t50 20q27 0 47.5 -20t20.5 -48t-20 -47t-48 -19q-29 0 -50 19zM243 673q-21 19 -21 47t21 48t50 20q27 0 47 -20t20 -48t-20 -47t-47 -19q-29 0 -50 19zM37 0v41l86 22v487l-87 22v41h291v-41l-87 -22v-487l87 -22v-41h-290z" />
    <glyph glyph-name="Eth" unicode="&#xd0;" horiz-adv-x="651" 
d="M39 41l86 22v212h-85v53h85v222l-87 22v41h270q160 0 235 -78t75 -216q0 -142 -72 -230.5t-220 -88.5h-287v41zM494 319q0 107 -51 172t-139 65q-36 0 -62 -6v-222h112v-53h-112v-210q46 -14 91 -14q161 0 161 268z" />
    <glyph glyph-name="Ntilde" unicode="&#xd1;" horiz-adv-x="710" 
d="M492 690q-19 -26 -42 -26q-25 0 -89 20q-22 7 -43 12.5t-33 5.5q-10 0 -19 -7.5t-15 -15t-7 -10.5l-41 17q16 45 37 72.5t45 27.5q25 0 89 -20q21 -7 42 -12.5t33 -5.5q11 0 20.5 7.5t15.5 15t7 10.5l39 -17q-20 -48 -39 -74zM454 613h236v-41l-83 -21v-551l-95 -10
l-329 477v-404l85 -22v-41h-233v41l83 22v488l-83 21v41h186l318 -461v399l-85 21v41z" />
    <glyph glyph-name="Ograve" unicode="&#xd2;" horiz-adv-x="661" 
d="M418 640l-226 106l2 22l90 32l154 -131zM555.5 539q71.5 -88 71.5 -229q0 -142 -72 -230.5t-223 -88.5q-101 0 -168 42t-98.5 114t-31.5 163q0 140 73.5 228.5t224.5 88.5q152 0 223.5 -88zM464 489q-38 76 -138 76q-95 0 -130.5 -75.5t-35.5 -179.5q0 -106 38 -181
t138 -75q96 0 131 75.5t35 180.5q0 103 -38 179z" />
    <glyph glyph-name="Oacute" unicode="&#xd3;" horiz-adv-x="661" 
d="M34 0zM555.5 539q71.5 -88 71.5 -229q0 -142 -72 -230.5t-223 -88.5q-101 0 -168 42t-98.5 114t-31.5 163q0 140 73.5 228.5t224.5 88.5q152 0 223.5 -88zM464 489q-38 76 -138 76q-95 0 -130.5 -75.5t-35.5 -179.5q0 -106 38 -181t138 -75q96 0 131 75.5t35 180.5
q0 103 -38 179zM290 640l-23 29l155 131l92 -32v-22z" />
    <glyph glyph-name="Ocircumflex" unicode="&#xd4;" horiz-adv-x="661" 
d="M454 644l-124 79l-121 -79l-23 22l106 134h77l106 -134zM555.5 539q71.5 -88 71.5 -229q0 -142 -72 -230.5t-223 -88.5q-101 0 -168 42t-98.5 114t-31.5 163q0 140 73.5 228.5t224.5 88.5q152 0 223.5 -88zM464 489q-38 76 -138 76q-95 0 -130.5 -75.5t-35.5 -179.5
q0 -106 38 -181t138 -75q96 0 131 75.5t35 180.5q0 103 -38 179z" />
    <glyph glyph-name="Otilde" unicode="&#xd5;" horiz-adv-x="661" 
d="M456 690q-19 -26 -43 -26q-23 0 -89 20q-58 18 -75 18q-10 0 -19.5 -7.5t-15.5 -15t-7 -10.5l-41 17q17 45 38.5 72.5t44.5 27.5q24 0 88 -20q58 -18 76 -18q11 0 20 7.5t15 15t7 10.5l40 -17q-20 -48 -39 -74zM555.5 539q71.5 -88 71.5 -229q0 -142 -72 -230.5
t-223 -88.5q-101 0 -168 42t-98.5 114t-31.5 163q0 140 73.5 228.5t224.5 88.5q152 0 223.5 -88zM464 489q-38 76 -138 76q-95 0 -130.5 -75.5t-35.5 -179.5q0 -106 38 -181t138 -75q96 0 131 75.5t35 180.5q0 103 -38 179z" />
    <glyph glyph-name="Odieresis" unicode="&#xd6;" horiz-adv-x="661" 
d="M270.5 673.5q-20.5 -19.5 -47.5 -19.5q-28 0 -49.5 19.5t-21.5 46.5q0 28 21.5 48t49.5 20q27 0 47.5 -20t20.5 -48q0 -27 -20.5 -46.5zM489.5 673.5q-20.5 -19.5 -47.5 -19.5q-29 0 -49.5 19t-20.5 47t20.5 48t49.5 20q27 0 47.5 -20t20.5 -48q0 -27 -20.5 -46.5z
M555.5 539q71.5 -88 71.5 -229q0 -142 -72 -230.5t-223 -88.5q-101 0 -168 42t-98.5 114t-31.5 163q0 140 73.5 228.5t224.5 88.5q152 0 223.5 -88zM464 489q-38 76 -138 76q-95 0 -130.5 -75.5t-35.5 -179.5q0 -106 38 -181t138 -75q96 0 131 75.5t35 180.5q0 103 -38 179z
" />
    <glyph glyph-name="multiply" unicode="&#xd7;" horiz-adv-x="510" 
d="M122 123l-49 51l132 131l-132 133l51 50l131 -132l131 131l51 -50l-132 -132l132 -130l-49 -51l-133 132z" />
    <glyph glyph-name="Oslash" unicode="&#xd8;" horiz-adv-x="661" 
d="M183 23q-75 37 -112 112.5t-37 174.5q0 140 73.5 228.5t224.5 88.5q35 0 70 -5l32 86h76l-39 -107q80 -35 118 -112t38 -179q0 -142 -72 -230.5t-223 -88.5q-41 0 -83 8l-34 -94h-74zM380 562q-26 8 -54 8q-96 0 -131 -77t-35 -183q0 -139 55 -204zM467 125.5
q35 76.5 35 184.5q0 62 -14 117.5t-48 91.5l-168 -459q25 -11 64 -11q96 0 131 76.5z" />
    <glyph glyph-name="Ugrave" unicode="&#xd9;" horiz-adv-x="658" 
d="M414 640l-226 106l2 22l90 32l154 -131zM516.5 68.5q-49.5 -77.5 -182.5 -77.5q-97 0 -150 36t-71.5 95.5t-18.5 142.5v285l-87 22v41h291v-41l-87 -22v-285q0 -67 10 -111.5t40 -71.5t87 -27q77 0 113.5 50.5t36.5 136.5v309l-86 21v41h238v-41l-84 -21v-315
q0 -90 -49.5 -167.5z" />
    <glyph glyph-name="Uacute" unicode="&#xda;" horiz-adv-x="658" 
d="M255 640l-23 29l155 131l91 -32v-22zM516.5 68.5q-49.5 -77.5 -182.5 -77.5q-97 0 -150 36t-71.5 95.5t-18.5 142.5v285l-87 22v41h291v-41l-87 -22v-285q0 -67 10 -111.5t40 -71.5t87 -27q77 0 113.5 50.5t36.5 136.5v309l-86 21v41h238v-41l-84 -21v-315
q0 -90 -49.5 -167.5z" />
    <glyph glyph-name="Ucircumflex" unicode="&#xdb;" horiz-adv-x="658" 
d="M471 644l-124 79l-121 -79l-23 22l106 134h77l106 -134zM516.5 68.5q-49.5 -77.5 -182.5 -77.5q-97 0 -150 36t-71.5 95.5t-18.5 142.5v285l-87 22v41h291v-41l-87 -22v-285q0 -67 10 -111.5t40 -71.5t87 -27q77 0 113.5 50.5t36.5 136.5v309l-86 21v41h238v-41l-84 -21
v-315q0 -90 -49.5 -167.5z" />
    <glyph glyph-name="Udieresis" unicode="&#xdc;" horiz-adv-x="658" 
d="M290 673q-20 -19 -48 -19t-49.5 19t-21.5 47t21.5 48t49.5 20q27 0 47.5 -20t20.5 -48t-20 -47zM508 673q-20 -19 -47 -19q-29 0 -49.5 19t-20.5 47t20.5 48t49.5 20q27 0 47 -20t20 -48t-20 -47zM516.5 68.5q-49.5 -77.5 -182.5 -77.5q-97 0 -150 36t-71.5 95.5
t-18.5 142.5v285l-87 22v41h291v-41l-87 -22v-285q0 -67 10 -111.5t40 -71.5t87 -27q77 0 113.5 50.5t36.5 136.5v309l-86 21v41h238v-41l-84 -21v-315q0 -90 -49.5 -167.5z" />
    <glyph glyph-name="Yacute" unicode="&#xdd;" horiz-adv-x="572" 
d="M226 640l-24 29l156 131l91 -32v-22zM357 571v42h215v-40l-71 -23l-151 -305v-182l93 -22v-41h-301v41l92 22v182l-157 305l-70 22v41h263v-42l-64 -21l112 -222l110 223z" />
    <glyph glyph-name="Thorn" unicode="&#xde;" horiz-adv-x="527" 
d="M37 41l86 22v487l-87 22v41h291v-41l-87 -22v-70h47q99 0 158 -42.5t59 -123.5q0 -61 -29.5 -102t-76.5 -61t-102 -20q-39 0 -56 5v-73l87 -22v-41h-290v41zM359 211q31 34 31 96q0 58 -29.5 88t-85.5 30q-17 0 -35 -3v-241q13 -4 34 -4q54 0 85 34z" />
    <glyph glyph-name="germandbls" unicode="&#xdf;" horiz-adv-x="625" 
d="M365 -4q-29 6 -66 19l12 125h45l19 -84q28 -11 62 -11q64 0 64 58q0 31 -23.5 57.5t-70.5 62.5q-50 39 -76 69t-26 67q0 28 11 45t34 39q26 24 40 47t14 64q0 30 -18 58t-65 28q-54 0 -74 -31t-20 -89v-456l27 -19v-45h-225v42l82 22v363h-81v42l81 32q0 97 58.5 151
t156.5 54q56 0 99 -20.5t66.5 -54t23.5 -71.5q0 -31 -13.5 -51t-41.5 -46q-24 -22 -35.5 -38.5t-11.5 -39.5q0 -17 16 -33.5t54 -46.5q59 -45 92 -84.5t33 -92.5q0 -65 -45.5 -101.5t-128.5 -36.5q-40 0 -69 6z" />
    <glyph glyph-name="agrave" unicode="&#xe0;" horiz-adv-x="514" 
d="M323 558l-226 107l2 21l90 36l154 -135zM151 420l-23 -84h-49l-17 128q97 37 201 37q78 0 118 -26t40 -93v-308l82 -24v-38q-64 -17 -108 -17q-31 0 -56 14t-32 40q-41 -29 -78 -44t-79 -15q-53 0 -83.5 34.5t-30.5 88.5q0 48 28.5 88.5t99.5 54.5l140 27v75
q0 40 -16 57.5t-56 17.5q-42 0 -81 -13zM170.5 183q-17.5 -22 -17.5 -56q0 -63 59 -63q21 0 47 9.5t45 21.5v135l-75 -16q-41 -9 -58.5 -31z" />
    <glyph glyph-name="aacute" unicode="&#xe1;" horiz-adv-x="514" 
d="M36 0zM151 420l-23 -84h-49l-17 128q97 37 201 37q78 0 118 -26t40 -93v-308l82 -24v-38q-64 -17 -108 -17q-31 0 -56 14t-32 40q-41 -29 -78 -44t-79 -15q-53 0 -83.5 34.5t-30.5 88.5q0 48 28.5 88.5t99.5 54.5l140 27v75q0 40 -16 57.5t-56 17.5q-42 0 -81 -13z
M170.5 183q-17.5 -22 -17.5 -56q0 -63 59 -63q21 0 47 9.5t45 21.5v135l-75 -16q-41 -9 -58.5 -31zM176 558l-23 29l155 135l92 -36v-21z" />
    <glyph glyph-name="acircumflex" unicode="&#xe2;" horiz-adv-x="514" 
d="M349 557l-115 86l-113 -86l-31 25l106 141h76l106 -141zM151 420l-23 -84h-49l-17 128q97 37 201 37q78 0 118 -26t40 -93v-308l82 -24v-38q-64 -17 -108 -17q-31 0 -56 14t-32 40q-41 -29 -78 -44t-79 -15q-53 0 -83.5 34.5t-30.5 88.5q0 48 28.5 88.5t99.5 54.5l140 27
v75q0 40 -16 57.5t-56 17.5q-42 0 -81 -13zM170.5 183q-17.5 -22 -17.5 -56q0 -63 59 -63q21 0 47 9.5t45 21.5v135l-75 -16q-41 -9 -58.5 -31z" />
    <glyph glyph-name="atilde" unicode="&#xe3;" horiz-adv-x="514" 
d="M367 609q-19 -26 -43 -26q-23 0 -89 20q-58 18 -75 18q-10 0 -19.5 -7.5t-15.5 -15t-7 -10.5l-41 17q42 100 83 100q24 0 88 -20q58 -18 76 -18q11 0 20 7t15 15t7 10l40 -16q-20 -48 -39 -74zM151 420l-23 -84h-49l-17 128q97 37 201 37q78 0 118 -26t40 -93v-308
l82 -24v-38q-64 -17 -108 -17q-31 0 -56 14t-32 40q-41 -29 -78 -44t-79 -15q-53 0 -83.5 34.5t-30.5 88.5q0 48 28.5 88.5t99.5 54.5l140 27v75q0 40 -16 57.5t-56 17.5q-42 0 -81 -13zM170.5 183q-17.5 -22 -17.5 -56q0 -63 59 -63q21 0 47 9.5t45 21.5v135l-75 -16
q-41 -9 -58.5 -31z" />
    <glyph glyph-name="adieresis" unicode="&#xe4;" horiz-adv-x="514" 
d="M184.5 596.5q-20.5 -19.5 -47.5 -19.5q-29 0 -50 19.5t-21 47.5t21 47.5t50 19.5q27 0 47.5 -20t20.5 -47q0 -28 -20.5 -47.5zM402.5 596.5q-20.5 -19.5 -47.5 -19.5q-28 0 -49 19.5t-21 47.5q0 27 21 47t49 20q27 0 47.5 -20t20.5 -47q0 -28 -20.5 -47.5zM151 420
l-23 -84h-49l-17 128q97 37 201 37q78 0 118 -26t40 -93v-308l82 -24v-38q-64 -17 -108 -17q-31 0 -56 14t-32 40q-41 -29 -78 -44t-79 -15q-53 0 -83.5 34.5t-30.5 88.5q0 48 28.5 88.5t99.5 54.5l140 27v75q0 40 -16 57.5t-56 17.5q-42 0 -81 -13zM170.5 183
q-17.5 -22 -17.5 -56q0 -63 59 -63q21 0 47 9.5t45 21.5v135l-75 -16q-41 -9 -58.5 -31z" />
    <glyph glyph-name="aring" unicode="&#xe5;" horiz-adv-x="514" 
d="M321.5 569.5q-28.5 -28.5 -81.5 -28.5t-81.5 28.5t-28.5 74.5t28.5 76t81.5 30t81.5 -30t28.5 -76t-28.5 -74.5zM205.5 688q-8.5 -15 -8.5 -44q0 -28 8.5 -42t34.5 -14t34.5 14t8.5 42t-9 43.5t-34 15.5q-26 0 -34.5 -15zM151 420l-23 -84h-49l-17 128q97 37 201 37
q78 0 118 -26t40 -93v-308l82 -24v-38q-64 -17 -108 -17q-31 0 -56 14t-32 40q-41 -29 -78 -44t-79 -15q-53 0 -83.5 34.5t-30.5 88.5q0 48 28.5 88.5t99.5 54.5l140 27v75q0 40 -16 57.5t-56 17.5q-42 0 -81 -13zM170.5 183q-17.5 -22 -17.5 -56q0 -63 59 -63q21 0 47 9.5
t45 21.5v135l-75 -16q-41 -9 -58.5 -31z" />
    <glyph glyph-name="ae" unicode="&#xe6;" horiz-adv-x="717" 
d="M59 23.5q-30 33.5 -30 81.5q0 49 34.5 86t106.5 50l120 22v95q0 40 -15.5 57.5t-54.5 17.5t-76 -13l-22 -84h-50l-17 128q95 37 195 37q91 0 127 -51q53 51 134 51q82 0 132 -46.5t50 -142.5q0 -21 -2 -30l-286 -51q0 -94 29.5 -134t101.5 -40q57 0 140 23l8 -39
q-75 -51 -180 -51q-66 0 -106 20t-67 56q-46 -37 -89 -56.5t-97 -19.5q-56 0 -86 33.5zM574 316q0 61 -14.5 92t-54.5 31q-51 0 -73 -39.5t-25 -117.5zM248.5 72q22.5 9 41.5 24v114l-68 -12q-42 -8 -59.5 -25t-17.5 -46q0 -31 15.5 -47.5t43.5 -16.5q22 0 44.5 9z" />
    <glyph glyph-name="ccedilla" unicode="&#xe7;" horiz-adv-x="445" 
d="M164 -210l8 35q15 -7 31 -7q30 0 47.5 16t17.5 37q0 18 -15 30t-48 13l-5 15l22 63q-98 11 -145 79.5t-47 172.5q0 116 54.5 186.5t170.5 70.5q49 0 88 -7.5t82 -23.5l-19 -134h-49l-23 91q-33 13 -69 13q-63 0 -85.5 -50t-22.5 -144q0 -70 11.5 -111t36.5 -59t68 -18
q73 0 147 23l7 -40q-78 -48 -164 -51l-11 -36q49 0 75 -20t26 -51q0 -28 -19 -51.5t-50 -37.5t-66 -14q-30 0 -54 10z" />
    <glyph glyph-name="egrave" unicode="&#xe8;" horiz-adv-x="478" 
d="M332 558l-226 107l2 21l90 36l154 -135zM85 58q-55 68 -55 186q0 133 60.5 195t163.5 62q102 0 149 -46t47 -144q0 -34 -3 -61h-291v-27q0 -87 35.5 -126.5t103.5 -39.5q60 0 142 23l8 -39q-76 -51 -181 -51q-124 0 -179 68zM330 308v22q0 54 -15.5 81.5t-55.5 27.5
q-55 0 -76.5 -33.5t-24.5 -107.5z" />
    <glyph glyph-name="eacute" unicode="&#xe9;" horiz-adv-x="478" 
d="M172 558l-23 29l155 135l91 -36v-21zM85 58q-55 68 -55 186q0 133 60.5 195t163.5 62q102 0 149 -46t47 -144q0 -34 -3 -61h-291v-27q0 -87 35.5 -126.5t103.5 -39.5q60 0 142 23l8 -39q-76 -51 -181 -51q-124 0 -179 68zM330 308v22q0 54 -15.5 81.5t-55.5 27.5
q-55 0 -76.5 -33.5t-24.5 -107.5z" />
    <glyph glyph-name="ecircumflex" unicode="&#xea;" horiz-adv-x="478" 
d="M137 557l-31 25l106 141h76l106 -141l-29 -25l-115 86zM85 58q-55 68 -55 186q0 133 60.5 195t163.5 62q102 0 149 -46t47 -144q0 -34 -3 -61h-291v-27q0 -87 35.5 -126.5t103.5 -39.5q60 0 142 23l8 -39q-76 -51 -181 -51q-124 0 -179 68zM330 308v22q0 54 -15.5 81.5
t-55.5 27.5q-55 0 -76.5 -33.5t-24.5 -107.5z" />
    <glyph glyph-name="edieresis" unicode="&#xeb;" horiz-adv-x="478" 
d="M89.5 596.5q-21.5 19.5 -21.5 47.5q0 27 21.5 47t49.5 20t48 -19.5t20 -47.5t-20 -47.5t-48 -19.5t-49.5 19.5zM308.5 596.5q-20.5 19.5 -20.5 47.5t20.5 47.5t49.5 19.5q27 0 47.5 -20t20.5 -47q0 -28 -20.5 -47.5t-47.5 -19.5q-29 0 -49.5 19.5zM85 58q-55 68 -55 186
q0 133 60.5 195t163.5 62q102 0 149 -46t47 -144q0 -34 -3 -61h-291v-27q0 -87 35.5 -126.5t103.5 -39.5q60 0 142 23l8 -39q-76 -51 -181 -51q-124 0 -179 68zM330 308v22q0 54 -15.5 81.5t-55.5 27.5q-55 0 -76.5 -33.5t-24.5 -107.5z" />
    <glyph glyph-name="igrave" unicode="&#xec;" horiz-adv-x="324" 
d="M225 558l-227 107l3 21l90 36l154 -135zM307 44v-44h-280v44l82 20v349l-82 11v39l161 38h38v-437z" />
    <glyph glyph-name="iacute" unicode="&#xed;" horiz-adv-x="324" 
d="M59 558l-23 29l155 135l91 -36v-21zM307 44v-44h-280v44l82 20v349l-82 11v39l161 38h38v-437z" />
    <glyph glyph-name="icircumflex" unicode="&#xee;" horiz-adv-x="324" 
d="M259 557l-115 86l-113 -86l-31 25l106 141h76l106 -141zM307 44v-44h-280v44l82 20v349l-82 11v39l161 38h38v-437z" />
    <glyph glyph-name="idieresis" unicode="&#xef;" horiz-adv-x="324" 
d="M90.5 596.5q-20.5 -19.5 -47.5 -19.5q-28 0 -49.5 19.5t-21.5 47.5q0 27 21.5 47t49.5 20q27 0 47.5 -20t20.5 -47q0 -28 -20.5 -47.5zM309 596.5q-20 -19.5 -47 -19.5q-29 0 -49.5 19.5t-20.5 47.5t20.5 47.5t49.5 19.5q27 0 47 -20t20 -47q0 -28 -20 -47.5zM307 44v-44
h-280v44l82 20v349l-82 11v39l161 38h38v-437z" />
    <glyph glyph-name="eth" unicode="&#xf0;" horiz-adv-x="541" 
d="M90 60.5q-59 70.5 -59 183.5q0 115 58.5 186t181.5 71q55 0 96 -22q-22 62 -58 112l-119 -68l-27 47l112 64q-32 39 -91 89l31 42q72 -31 134 -88l117 68l29 -48l-107 -61q61 -72 94 -167.5t33 -200.5q0 -123 -56.5 -200.5t-187.5 -77.5q-122 0 -181 70.5zM364.5 102
q23.5 51 23.5 144q0 92 -26 143.5t-93 51.5q-64 0 -87.5 -51.5t-23.5 -143.5q0 -91 25.5 -143t91.5 -52t89.5 51z" />
    <glyph glyph-name="ntilde" unicode="&#xf1;" horiz-adv-x="628" 
d="M440 609.5q-20 -26.5 -43 -26.5q-24 0 -90 20q-21 7 -42 12.5t-32 5.5q-10 0 -19.5 -7.5t-15.5 -15t-7 -10.5l-41 17q20 47 39.5 73.5t42.5 26.5q24 0 88 -20q22 -7 43.5 -12.5t33.5 -5.5q11 0 20 7t15 15t7 10l40 -16q-19 -47 -39 -73.5zM306 487.5q53 13.5 96 13.5
q56 0 91.5 -25t35.5 -80v-332l83 -25v-39h-268v39l68 25v303q0 26 -6.5 39t-23.5 17.5t-50 4.5q-56 0 -107 -14v-350l67 -25v-39h-266v39l82 25v350l-82 10v40l161 37h38v-40q28 13 81 26.5z" />
    <glyph glyph-name="ograve" unicode="&#xf2;" 
d="M358 558l-226 107l2 21l90 36l154 -135zM456 430.5q59 -70.5 59 -186.5q0 -113 -60 -183.5t-184 -70.5q-121 0 -180.5 71t-59.5 183q0 116 58.5 186.5t181.5 70.5q126 0 185 -70.5zM362 390q-26 51 -93 51q-63 0 -87.5 -51t-24.5 -144q0 -92 26 -143.5t92 -51.5
q65 0 89 51t24 144t-26 144z" />
    <glyph glyph-name="oacute" unicode="&#xf3;" 
d="M31 0zM456 430.5q59 -70.5 59 -186.5q0 -113 -60 -183.5t-184 -70.5q-121 0 -180.5 71t-59.5 183q0 116 58.5 186.5t181.5 70.5q126 0 185 -70.5zM362 390q-26 51 -93 51q-63 0 -87.5 -51t-24.5 -144q0 -92 26 -143.5t92 -51.5q65 0 89 51t24 144t-26 144zM194 558
l-23 29l155 135l92 -36v-21z" />
    <glyph glyph-name="ocircumflex" unicode="&#xf4;" 
d="M388 557l-115 86l-114 -86l-30 25l106 141h76l106 -141zM456 430.5q59 -70.5 59 -186.5q0 -113 -60 -183.5t-184 -70.5q-121 0 -180.5 71t-59.5 183q0 116 58.5 186.5t181.5 70.5q126 0 185 -70.5zM362 390q-26 51 -93 51q-63 0 -87.5 -51t-24.5 -144q0 -92 26 -143.5
t92 -51.5q65 0 89 51t24 144t-26 144z" />
    <glyph glyph-name="otilde" unicode="&#xf5;" 
d="M397 609q-19 -26 -42 -26q-24 0 -90 20q-21 7 -42 12.5t-32 5.5t-20 -7.5t-15 -15t-7 -10.5l-41 17q20 47 39.5 73.5t42.5 26.5q24 0 88 -20q22 -7 43.5 -12.5t33.5 -5.5q11 0 20 7t15 15t7 10l39 -16q-20 -48 -39 -74zM456 430.5q59 -70.5 59 -186.5q0 -113 -60 -183.5
t-184 -70.5q-121 0 -180.5 71t-59.5 183q0 116 58.5 186.5t181.5 70.5q126 0 185 -70.5zM362 390q-26 51 -93 51q-63 0 -87.5 -51t-24.5 -144q0 -92 26 -143.5t92 -51.5q65 0 89 51t24 144t-26 144z" />
    <glyph glyph-name="odieresis" unicode="&#xf6;" 
d="M211.5 596.5q-20.5 -19.5 -47.5 -19.5q-29 0 -50 19.5t-21 47.5t21 47.5t50 19.5q27 0 47.5 -20t20.5 -47q0 -28 -20.5 -47.5zM429.5 596.5q-20.5 -19.5 -47.5 -19.5q-28 0 -49 19.5t-21 47.5q0 27 21 47t49 20q27 0 47.5 -20t20.5 -47q0 -28 -20.5 -47.5zM456 430.5
q59 -70.5 59 -186.5q0 -113 -60 -183.5t-184 -70.5q-121 0 -180.5 71t-59.5 183q0 116 58.5 186.5t181.5 70.5q126 0 185 -70.5zM362 390q-26 51 -93 51q-63 0 -87.5 -51t-24.5 -144q0 -92 26 -143.5t92 -51.5q65 0 89 51t24 144t-26 144z" />
    <glyph glyph-name="divide" unicode="&#xf7;" horiz-adv-x="510" 
d="M211.5 405q-18.5 18 -18.5 43q0 26 18 44t44 18t44.5 -18t18.5 -44q0 -25 -18.5 -43t-44.5 -18q-25 0 -43.5 18zM53 269v70h404v-70h-404zM211.5 115q-18.5 18 -18.5 43q0 27 18 45t44 18t44.5 -18t18.5 -45q0 -25 -18.5 -43t-44.5 -18q-25 0 -43.5 18z" />
    <glyph glyph-name="oslash" unicode="&#xf8;" 
d="M161 11q-66 28 -98 89.5t-32 143.5q0 116 58.5 186.5t181.5 70.5q24 0 47 -3l29 91h67l-35 -106q70 -27 103 -90t33 -149q0 -113 -60 -183.5t-184 -70.5q-20 0 -52 4l-28 -87h-64zM299 438q-13 3 -30 3q-63 0 -87.5 -51t-24.5 -144q0 -103 31 -150zM364 102q24 51 24 144
q0 110 -36 155l-112 -345q14 -5 35 -5q65 0 89 51z" />
    <glyph glyph-name="ugrave" unicode="&#xf9;" horiz-adv-x="614" 
d="M377 558l-226 107l2 21l90 36l154 -135zM481 -5q-31 0 -57.5 15t-30.5 40q-37 -25 -84 -42.5t-90 -17.5q-64 0 -93 33t-29 83v307l-82 11v39l161 38h38v-368q0 -35 15 -51.5t54 -16.5q22 0 52 9.5t54 22.5v316l-83 11v39l162 38h38v-427l82 -24v-38q-62 -17 -107 -17z
" />
    <glyph glyph-name="uacute" unicode="&#xfa;" horiz-adv-x="614" 
d="M212 558l-23 29l156 135l91 -36v-21zM481 -5q-31 0 -57.5 15t-30.5 40q-37 -25 -84 -42.5t-90 -17.5q-64 0 -93 33t-29 83v307l-82 11v39l161 38h38v-368q0 -35 15 -51.5t54 -16.5q22 0 52 9.5t54 22.5v316l-83 11v39l162 38h38v-427l82 -24v-38q-62 -17 -107 -17z" />
    <glyph glyph-name="ucircumflex" unicode="&#xfb;" horiz-adv-x="614" 
d="M407 557l-115 86l-113 -86l-31 25l106 141h76l106 -141zM481 -5q-31 0 -57.5 15t-30.5 40q-37 -25 -84 -42.5t-90 -17.5q-64 0 -93 33t-29 83v307l-82 11v39l161 38h38v-368q0 -35 15 -51.5t54 -16.5q22 0 52 9.5t54 22.5v316l-83 11v39l162 38h38v-427l82 -24v-38
q-62 -17 -107 -17z" />
    <glyph glyph-name="udieresis" unicode="&#xfc;" horiz-adv-x="614" 
d="M234 596.5q-20 -19.5 -48 -19.5t-49.5 19.5t-21.5 47.5q0 27 21.5 47t49.5 20t48 -19.5t20 -47.5t-20 -47.5zM452.5 596.5q-20.5 -19.5 -47.5 -19.5q-29 0 -49.5 19.5t-20.5 47.5t20.5 47.5t49.5 19.5q27 0 47.5 -20t20.5 -47q0 -28 -20.5 -47.5zM481 -5q-31 0 -57.5 15
t-30.5 40q-37 -25 -84 -42.5t-90 -17.5q-64 0 -93 33t-29 83v307l-82 11v39l161 38h38v-368q0 -35 15 -51.5t54 -16.5q22 0 52 9.5t54 22.5v316l-83 11v39l162 38h38v-427l82 -24v-38q-62 -17 -107 -17z" />
    <glyph glyph-name="yacute" unicode="&#xfd;" horiz-adv-x="507" 
d="M179 558l-23 29l155 135l91 -36v-21zM228 455l-50 -24l103 -275l91 273l-67 17v46h209v-44l-63 -19l-143 -395q-37 -102 -79 -152t-104 -50q-47 0 -105 27l8 41h57q50 0 81 31.5t56 92.5l-169 407l-53 24v37h228v-37z" />
    <glyph glyph-name="thorn" unicode="&#xfe;" horiz-adv-x="554" 
d="M-3 -125l82 22v744l-82 11v39l160 39h37v-233q36 4 80 4q136 0 192.5 -65t56.5 -192q0 -112 -58 -178t-166 -66q-40 0 -83 14l12 47q18 -4 38 -4q55 0 83.5 24t37.5 64.5t9 102.5q0 87 -24 140t-101 53q-43 0 -77 -12v-529l106 -23v-45h-303v43z" />
    <glyph glyph-name="ydieresis" unicode="&#xff;" horiz-adv-x="507" 
d="M214 596.5q-20 -19.5 -48 -19.5t-49.5 19.5t-21.5 47.5q0 27 21.5 47t49.5 20t48 -19.5t20 -47.5t-20 -47.5zM432.5 596.5q-20.5 -19.5 -47.5 -19.5q-29 0 -49.5 19.5t-20.5 47.5t20.5 47.5t49.5 19.5q27 0 47.5 -20t20.5 -47q0 -28 -20.5 -47.5zM228 455l-50 -24
l103 -275l91 273l-67 17v46h209v-44l-63 -19l-143 -395q-37 -102 -79 -152t-104 -50q-47 0 -105 27l8 41h57q50 0 81 31.5t56 92.5l-169 407l-53 24v37h228v-37z" />
    <glyph glyph-name="Amacron" unicode="&#x100;" horiz-adv-x="594" 
d="M172 755h233v-70h-233v70zM138 62l70 -21v-41h-215v40l72 23l188 550l71 13l202 -563l72 -22v-41h-257v41l63 19l-31 93h-205zM267 447l-82 -243h169z" />
    <glyph glyph-name="amacron" unicode="&#x101;" horiz-adv-x="514" 
d="M120 677h232v-70h-232v70zM151 420l-23 -84h-49l-17 128q97 37 201 37q78 0 118 -26t40 -93v-308l82 -24v-38q-64 -17 -108 -17q-31 0 -56 14t-32 40q-41 -29 -78 -44t-79 -15q-53 0 -83.5 34.5t-30.5 88.5q0 48 28.5 88.5t99.5 54.5l140 27v75q0 40 -16 57.5t-56 17.5
q-42 0 -81 -13zM170.5 183q-17.5 -22 -17.5 -56q0 -63 59 -63q21 0 47 9.5t45 21.5v135l-75 -16q-41 -9 -58.5 -31z" />
    <glyph glyph-name="Abreve" unicode="&#x102;" horiz-adv-x="594" 
d="M194.5 691q-26.5 35 -26.5 93l50 2q0 -62 67 -62q74 0 74 62l49 -2q0 -59 -25.5 -93.5t-93.5 -34.5t-94.5 35zM138 62l70 -21v-41h-215v40l72 23l188 550l71 13l202 -563l72 -22v-41h-257v41l63 19l-31 93h-205zM267 447l-82 -243h169z" />
    <glyph glyph-name="abreve" unicode="&#x103;" horiz-adv-x="514" 
d="M148 609.5q-24 34.5 -24 93.5l49 2q0 -61 67 -61q75 0 75 61l49 -2q0 -128 -124 -128q-68 0 -92 34.5zM151 420l-23 -84h-49l-17 128q97 37 201 37q78 0 118 -26t40 -93v-308l82 -24v-38q-64 -17 -108 -17q-31 0 -56 14t-32 40q-41 -29 -78 -44t-79 -15q-53 0 -83.5 34.5
t-30.5 88.5q0 48 28.5 88.5t99.5 54.5l140 27v75q0 40 -16 57.5t-56 17.5q-42 0 -81 -13zM170.5 183q-17.5 -22 -17.5 -56q0 -63 59 -63q21 0 47 9.5t45 21.5v135l-75 -16q-41 -9 -58.5 -31z" />
    <glyph glyph-name="Aogonek" unicode="&#x104;" horiz-adv-x="594" 
d="M-7 40l72 23l188 550l72 13l204 -563l72 -22v-41h-120q-32 0 -59 -17t-42.5 -44.5t-15.5 -57.5q0 -60 47 -60q29 0 57 23l21 -20q0 -2 -13 -17t-36.5 -28t-55.5 -13q-50 0 -74 25t-24 61q0 38 18.5 67.5t54.5 68.5q22 23 32.5 37.5t10.5 27.5q0 11 -5 28l-24 72h-204
l-29 -90l69 -22v-41h-216v40zM268 446l-81 -242h167z" />
    <glyph glyph-name="aogonek" unicode="&#x105;" horiz-adv-x="521" 
d="M511 -176q-13 -21 -38.5 -39.5t-65.5 -18.5q-52 0 -76 24t-24 60t25 75t67 70h-3q-32 0 -57.5 14t-31.5 40q-41 -29 -78 -44t-79 -15q-53 0 -83.5 34.5t-30.5 88.5q0 48 28.5 88.5t99.5 54.5l140 27v75q0 40 -16 57.5t-56 17.5q-42 0 -81 -13l-23 -84h-49l-17 128
q97 37 201 37q78 0 118 -26t40 -93v-308l82 -24v-38q-58 -15 -87.5 -55.5t-29.5 -84.5q0 -50 48 -50q32 0 56 22zM304 230l-75 -16q-41 -9 -58.5 -31t-17.5 -56q0 -63 59 -63q21 0 47 9.5t45 21.5v135z" />
    <glyph glyph-name="Cacute" unicode="&#x106;" horiz-adv-x="540" 
d="M234 640l-24 29l156 131l91 -32v-22zM425 -2q-42 -8 -97 -8q-149 0 -221.5 89.5t-72.5 231.5q0 141 71.5 229t222.5 88q57 0 97 -7.5t87 -21.5l-10 -144h-45l-25 98q-40 12 -86 12q-106 0 -147 -70t-41 -184q0 -108 42.5 -182t141.5 -74q44 0 90 13l25 86h47l8 -132
q-45 -16 -87 -24z" />
    <glyph glyph-name="cacute" unicode="&#x107;" horiz-adv-x="445" 
d="M173 558l-23 29l155 135l91 -36v-21zM85 60.5q-55 70.5 -55 183.5q0 116 54.5 186.5t170.5 70.5q49 0 88 -7.5t82 -23.5l-19 -134h-49l-23 91q-33 13 -69 13q-63 0 -85.5 -50t-22.5 -144q0 -70 11.5 -111t36.5 -59t68 -18q73 0 147 23l7 -40q-78 -51 -172 -51
q-115 0 -170 70.5z" />
    <glyph glyph-name="Ccircumflex" unicode="&#x108;" horiz-adv-x="549" 
d="M34 0zM425 -2q-42 -8 -97 -8q-149 0 -221.5 89.5t-72.5 231.5q0 141 71.5 229t222.5 88q57 0 97 -7.5t87 -21.5l-10 -144h-45l-25 98q-40 12 -86 12q-106 0 -147 -70t-41 -184q0 -108 42.5 -182t141.5 -74q44 0 90 13l25 86h47l8 -132q-45 -16 -87 -24zM441 644l-124 79
l-121 -79l-23 22l107 134h76l107 -134z" />
    <glyph glyph-name="ccircumflex" unicode="&#x109;" horiz-adv-x="445" 
d="M31 0zM86 60.5q-55 70.5 -55 183.5q0 116 54.5 186.5t170.5 70.5q48 0 88 -7.5t82 -23.5l-19 -134h-50l-22 91q-33 13 -69 13q-63 0 -86 -50t-23 -144q0 -70 11.5 -111t37 -59t68.5 -18q73 0 147 23l7 -40q-36 -24 -80 -37.5t-92 -13.5q-115 0 -170 70.5zM378 557
l-115 86l-113 -86l-31 25l106 141h76l106 -141z" />
    <glyph glyph-name="Cdotaccent" unicode="&#x10a;" horiz-adv-x="549" 
d="M34 0zM425 -2q-42 -8 -97 -8q-149 0 -221.5 89.5t-72.5 231.5q0 141 71.5 229t222.5 88q57 0 97 -7.5t87 -21.5l-10 -144h-45l-25 98q-40 12 -86 12q-106 0 -147 -70t-41 -184q0 -108 42.5 -182t141.5 -74q44 0 90 13l25 86h47l8 -132q-45 -16 -87 -24zM371.5 667
q-22.5 -21 -52.5 -21t-53.5 21t-23.5 51t23.5 53t53.5 23t52.5 -22.5t22.5 -53.5q0 -30 -22.5 -51z" />
    <glyph glyph-name="cdotaccent" unicode="&#x10b;" horiz-adv-x="445" 
d="M31 0zM86 60.5q-55 70.5 -55 183.5q0 116 54.5 186.5t170.5 70.5q48 0 88 -7.5t82 -23.5l-19 -134h-50l-22 91q-33 13 -69 13q-63 0 -86 -50t-23 -144q0 -70 11.5 -111t37 -59t68.5 -18q73 0 147 23l7 -40q-36 -24 -80 -37.5t-92 -13.5q-115 0 -170 70.5zM316.5 592
q-22.5 -21 -52.5 -21q-31 0 -54 21t-23 51t23.5 53t53.5 23t52.5 -22.5t22.5 -53.5q0 -30 -22.5 -51z" />
    <glyph glyph-name="Ccaron" unicode="&#x10c;" horiz-adv-x="540" 
d="M277 644l-107 133l23 23l123 -79l122 79l22 -23l-106 -133h-77zM106.5 79.5q-72.5 89.5 -72.5 231.5q0 141 71.5 229t222.5 88q57 0 97 -7.5t87 -21.5l-10 -144h-45l-25 98q-40 12 -86 12q-106 0 -147 -70t-41 -184q0 -108 42.5 -182t141.5 -74q44 0 90 13l25 86h47
l8 -132q-45 -16 -87 -24t-97 -8q-149 0 -221.5 89.5z" />
    <glyph glyph-name="ccaron" unicode="&#x10d;" horiz-adv-x="445" 
d="M138 726l113 -83l114 83l29 -22l-105 -141h-77l-106 141zM85 60.5q-55 70.5 -55 183.5q0 116 54.5 186.5t170.5 70.5q49 0 88 -7.5t82 -23.5l-19 -134h-49l-23 91q-33 13 -69 13q-63 0 -85.5 -50t-22.5 -144q0 -70 11.5 -111t36.5 -59t68 -18q73 0 147 23l7 -40
q-78 -51 -172 -51q-115 0 -170 70.5z" />
    <glyph glyph-name="Dcaron" unicode="&#x10e;" horiz-adv-x="646" 
d="M272 644l-107 133l23 23l122 -79l123 79l21 -23l-105 -133h-77zM37 41l86 22v487l-87 22v41h270q160 0 235 -78t75 -216q0 -142 -72 -230.5t-220 -88.5h-287v41zM492 319q0 107 -51 172t-139 65q-34 0 -62 -6v-485q46 -14 91 -14q161 0 161 268z" />
    <glyph glyph-name="dcaron" unicode="&#x10f;" horiz-adv-x="611" 
d="M560 523l-37 223h40l63 -22l-32 -201h-34zM109.5 25q-38.5 35 -57.5 92.5t-19 126.5q0 120 57.5 188.5t160.5 68.5q25 0 49.5 -5t42 -11.5t18.5 -8.5v165l-82 11v39l161 39h38v-656l82 -24v-38q-62 -17 -109 -17q-30 0 -55.5 14t-31.5 38q-78 -57 -161 -57
q-55 0 -93.5 35zM317 74q29 11 44 25v314q-17 13 -41 20.5t-48 7.5q-55 0 -83.5 -52t-28.5 -143q0 -85 24.5 -134t74.5 -49q29 0 58 11z" />
    <glyph glyph-name="Dcroat" unicode="&#x110;" horiz-adv-x="651" 
d="M38 0zM39 41l86 22v212h-85v53h85v222l-87 22v41h270q160 0 235 -78t75 -216q0 -142 -72 -230.5t-220 -88.5h-287v41zM494 319q0 107 -51 172t-139 65q-36 0 -62 -6v-222h112v-53h-112v-210q46 -14 91 -14q161 0 161 268z" />
    <glyph glyph-name="dcroat" unicode="&#x111;" horiz-adv-x="571" 
d="M560 50v-38q-62 -17 -109 -17q-30 0 -55.5 14t-31.5 38q-78 -57 -161 -57q-55 0 -93.5 35t-57.5 92.5t-19 126.5q0 120 57.5 188.5t160.5 68.5q24 0 48.5 -5.5t42 -12t19.5 -8.5v95h-155v55h155v34l-82 14v39l161 18h38v-105h61v-55h-61v-496zM361 415q-16 11 -41.5 18.5
t-46.5 7.5q-56 0 -85 -51.5t-29 -143.5q0 -85 24.5 -134t75.5 -49q29 0 58 10.5t44 23.5v318z" />
    <glyph glyph-name="Emacron" unicode="&#x112;" 
d="M173 755h232v-70h-232v70zM380 394h47v-188h-47l-21 69h-117v-210h193l26 92h50v-157h-474v41l88 22v487l-89 22v41h453v-141h-50l-21 79h-176v-223h119z" />
    <glyph glyph-name="emacron" unicode="&#x113;" horiz-adv-x="478" 
d="M129 607v70h232v-70h-232zM85 58q-55 68 -55 186q0 133 60.5 195t163.5 62q102 0 149 -46t47 -144q0 -34 -3 -61h-291v-27q0 -87 35.5 -126.5t103.5 -39.5q60 0 142 23l8 -39q-76 -51 -181 -51q-124 0 -179 68zM330 308v22q0 54 -15.5 81.5t-55.5 27.5q-55 0 -76.5 -33.5
t-24.5 -107.5z" />
    <glyph glyph-name="Ebreve" unicode="&#x114;" 
d="M36 0zM380 394h47v-188h-47l-21 69h-117v-210h193l26 92h50v-157h-474v41l88 22v487l-89 22v41h453v-141h-50l-21 79h-176v-223h119zM177.5 690.5q-25.5 34.5 -25.5 93.5l51 2q0 -26 15.5 -44t53.5 -18q40 0 56 18t16 44l48 -2q0 -58 -26.5 -93t-95.5 -35
q-67 0 -92.5 34.5z" />
    <glyph glyph-name="ebreve" unicode="&#x115;" horiz-adv-x="478" 
d="M30 0zM85 58q-55 68 -55 186q0 133 60.5 195t163.5 62q102 0 149 -46t47 -144q0 -34 -3 -61h-291v-27q0 -87 35.5 -126.5t103.5 -39.5q60 0 142 23l8 -39q-76 -51 -181 -51q-124 0 -179 68zM330 308v22q0 54 -15.5 81.5t-55.5 27.5q-55 0 -76.5 -33.5t-24.5 -107.5z
M142.5 609.5q-24.5 34.5 -24.5 93.5l49 2q0 -61 68 -61q75 0 75 61l48 -2q0 -128 -124 -128q-67 0 -91.5 34.5z" />
    <glyph glyph-name="Edotaccent" unicode="&#x116;" 
d="M347 667q-22 -21 -52 -21q-31 0 -54 21t-23 51q0 31 23 53.5t54 22.5q30 0 52 -22.5t22 -53.5q0 -30 -22 -51zM380 394h47v-188h-47l-21 69h-117v-210h193l26 92h50v-157h-474v41l88 22v487l-89 22v41h453v-141h-50l-21 79h-176v-223h119z" />
    <glyph glyph-name="edotaccent" unicode="&#x117;" horiz-adv-x="478" 
d="M197 592q-23 21 -23 51t23.5 53t53.5 23q31 0 53 -22.5t22 -53.5q0 -30 -22 -51t-53 -21t-54 21zM85 58q-55 68 -55 186q0 133 60.5 195t163.5 62q102 0 149 -46t47 -144q0 -34 -3 -61h-291v-27q0 -87 35.5 -126.5t103.5 -39.5q60 0 142 23l8 -39q-76 -51 -181 -51
q-124 0 -179 68zM330 308v22q0 54 -15.5 81.5t-55.5 27.5q-55 0 -76.5 -33.5t-24.5 -107.5z" />
    <glyph glyph-name="Eogonek" unicode="&#x118;" 
d="M354 -209.5q-24 24.5 -24 61.5q0 32 23 71.5t69 76.5h-385v41l88 22v487l-89 22v41h453v-141h-50l-21 79h-176v-223h119l19 66h47v-188h-47l-21 69h-117v-210h193l26 92h50v-157h-48q-17 -17 -35.5 -53t-18.5 -75q0 -23 12 -36.5t35 -13.5q31 0 57 22l21 -20
q0 -2 -13 -17t-36 -28t-55 -13q-52 0 -76 24.5z" />
    <glyph glyph-name="eogonek" unicode="&#x119;" horiz-adv-x="478" 
d="M262 -209.5q-24 24.5 -24 60.5q0 35 24 73.5t65 70.5q-32 -5 -63 -5q-124 0 -179 68t-55 186q0 133 60.5 195t163.5 62q102 0 149 -46t47 -144q0 -34 -3 -61h-291v-27q0 -87 35.5 -126.5t103.5 -39.5q60 0 142 23l8 -39q-58 -36 -93 -75t-35 -94q0 -25 12.5 -37.5
t34.5 -12.5q31 0 57 22l21 -20q-13 -20 -38.5 -39t-65.5 -19q-52 0 -76 24.5zM330 308v22q0 54 -15.5 81.5t-55.5 27.5q-55 0 -76.5 -33.5t-24.5 -107.5z" />
    <glyph glyph-name="Ecaron" unicode="&#x11a;" 
d="M258 644l-108 133l23 23l123 -79l123 79l21 -23l-106 -133h-76zM37 0v41l88 22v487l-89 22v41h453v-141h-50l-21 79h-176v-223h119l19 66h47v-188h-47l-21 69h-117v-210h193l26 92h50v-157h-474z" />
    <glyph glyph-name="ecaron" unicode="&#x11b;" horiz-adv-x="478" 
d="M212 563l-106 141l31 22l114 -83l114 83l29 -22l-105 -141h-77zM85 58q-55 68 -55 186q0 133 60.5 195t163.5 62q102 0 149 -46t47 -144q0 -34 -3 -61h-291v-27q0 -87 35.5 -126.5t103.5 -39.5q60 0 142 23l8 -39q-76 -51 -181 -51q-124 0 -179 68zM330 308v22
q0 54 -15.5 81.5t-55.5 27.5q-55 0 -76.5 -33.5t-24.5 -107.5z" />
    <glyph glyph-name="Gcircumflex" unicode="&#x11c;" horiz-adv-x="612" 
d="M34 0zM355 565q-110 0 -153.5 -75t-43.5 -179q0 -110 41.5 -183.5t140.5 -73.5q47 0 78 12v160l-85 21v42h266v-43l-64 -19v-195q-35 -20 -85 -31t-106 -11q-162 0 -236 89t-74 232q0 141 77.5 229t242.5 88q47 0 99 -8t83 -21l-12 -144h-50l-25 98q-33 12 -94 12z
M430 644l-124 79l-121 -79l-23 22l107 134h76l107 -134z" />
    <glyph glyph-name="gcircumflex" unicode="&#x11d;" horiz-adv-x="513" 
d="M27 0zM68.5 -150q-41.5 27 -41.5 71q0 56 68 100q-19 7 -29 24t-10 36q0 24 17 48t50 58q-36 22 -52.5 60.5t-16.5 85.5q0 74 50.5 122t142.5 48q69 0 118 -28l137 39v-80h-100q18 -18 28 -45.5t10 -55.5q0 -76 -47.5 -124t-149.5 -48q-21 0 -42.5 2.5t-28.5 5.5
q-15 -27 -15 -40t7 -23t23 -10h140q80 0 122.5 -24.5t42.5 -85.5q0 -42 -29.5 -79t-90 -60.5t-148.5 -23.5q-114 0 -155.5 27zM309 249q18 29 18 84q0 113 -81 113q-41 0 -58 -29t-17 -84q0 -54 18 -83.5t60 -29.5t60 29zM346.5 -92q37.5 24 37.5 66q0 26 -14.5 33.5
t-49.5 7.5h-156q-15 -19 -21.5 -35.5t-6.5 -36.5q0 -30 20.5 -44.5t72.5 -14.5q80 0 117.5 24zM372 557l-115 86l-113 -86l-31 25l106 141h76l106 -141z" />
    <glyph glyph-name="Gbreve" unicode="&#x11e;" horiz-adv-x="606" 
d="M230 690.5q-25 34.5 -25 93.5l50 2q0 -26 16 -44t54 -18q40 0 56 18t16 44l48 -2q0 -58 -27 -93t-95 -35t-93 34.5zM355 565q-110 0 -153.5 -75t-43.5 -179q0 -110 41.5 -183.5t140.5 -73.5q47 0 78 12v160l-85 21v42h266v-43l-64 -19v-195q-35 -20 -85 -31t-106 -11
q-162 0 -236 89t-74 232q0 141 77.5 229t242.5 88q47 0 99 -8t83 -21l-12 -144h-50l-25 98q-33 12 -94 12z" />
    <glyph glyph-name="gbreve" unicode="&#x11f;" horiz-adv-x="529" 
d="M156.5 609.5q-24.5 34.5 -24.5 93.5l50 2q0 -61 67 -61q75 0 75 61l48 -2q0 -128 -123 -128q-68 0 -92.5 34.5zM69.5 -150q-41.5 27 -41.5 71q0 54 71 100q-19 7 -28.5 24t-9.5 36q0 24 17 48.5t49 57.5q-68 41 -68 146q0 74 50 122t142 48q70 0 118 -28l138 39v-80h-101
q18 -18 28.5 -46t10.5 -55q0 -76 -47.5 -124t-149.5 -48q-21 0 -42.5 2.5t-28.5 5.5q-15 -24 -15 -40q0 -14 6.5 -23.5t22.5 -9.5h146q79 0 121.5 -24.5t42.5 -85.5q0 -41 -31.5 -78.5t-93.5 -61t-150 -23.5q-115 0 -156.5 27zM313 249q18 29 18 84q0 113 -81 113
q-41 0 -58 -29t-17 -84q0 -54 18 -83.5t60 -29.5t60 29zM352.5 -91.5q41.5 24.5 41.5 65.5q0 26 -14.5 33.5t-49.5 7.5h-162q-16 -21 -24 -37.5t-8 -34.5q0 -30 21 -44.5t74 -14.5q80 0 121.5 24.5z" />
    <glyph glyph-name="Gdotaccent" unicode="&#x120;" horiz-adv-x="612" 
d="M34 0zM355 565q-110 0 -153.5 -75t-43.5 -179q0 -110 41.5 -183.5t140.5 -73.5q47 0 78 12v160l-85 21v42h266v-43l-64 -19v-195q-35 -20 -85 -31t-106 -11q-162 0 -236 89t-74 232q0 141 77.5 229t242.5 88q47 0 99 -8t83 -21l-12 -144h-50l-25 98q-33 12 -94 12z
M360.5 667q-22.5 -21 -52.5 -21t-53.5 21t-23.5 51t23.5 53t53.5 23t52.5 -22.5t22.5 -53.5q0 -30 -22.5 -51z" />
    <glyph glyph-name="gdotaccent" unicode="&#x121;" horiz-adv-x="513" 
d="M27 0zM68.5 -150q-41.5 27 -41.5 71q0 56 68 100q-19 7 -29 24t-10 36q0 24 17 48t50 58q-36 22 -52.5 60.5t-16.5 85.5q0 74 50.5 122t142.5 48q69 0 118 -28l137 39v-80h-100q18 -18 28 -45.5t10 -55.5q0 -76 -47.5 -124t-149.5 -48q-21 0 -42.5 2.5t-28.5 5.5
q-15 -27 -15 -40t7 -23t23 -10h140q80 0 122.5 -24.5t42.5 -85.5q0 -42 -29.5 -79t-90 -60.5t-148.5 -23.5q-114 0 -155.5 27zM309 249q18 29 18 84q0 113 -81 113q-41 0 -58 -29t-17 -84q0 -54 18 -83.5t60 -29.5t60 29zM346.5 -92q37.5 24 37.5 66q0 26 -14.5 33.5
t-49.5 7.5h-156q-15 -19 -21.5 -35.5t-6.5 -36.5q0 -30 20.5 -44.5t72.5 -14.5q80 0 117.5 24zM310.5 592q-22.5 -21 -52.5 -21q-31 0 -54 21t-23 51t23.5 53t53.5 23t52.5 -22.5t22.5 -53.5q0 -30 -22.5 -51z" />
    <glyph glyph-name="Gcommaaccent" unicode="&#x122;" horiz-adv-x="606" 
d="M108 79q-74 89 -74 232q0 141 77.5 229t242.5 88q47 0 99 -8t83 -21l-12 -144h-50l-25 98q-33 12 -94 12q-110 0 -153.5 -75t-43.5 -179q0 -110 41.5 -183.5t140.5 -73.5q47 0 78 12v160l-85 21v42h266v-43l-64 -19v-195q-35 -20 -85 -31t-106 -11q-162 0 -236 89z
M271 -226l11 182l83 19l21 -21l-75 -185z" />
    <glyph glyph-name="gcommaaccent" unicode="&#x123;" horiz-adv-x="529" 
d="M218 556l-21 21l75 185l40 -5l-10 -183zM69.5 -150q-41.5 27 -41.5 71q0 54 71 100q-19 7 -28.5 24t-9.5 36q0 24 17 48.5t49 57.5q-68 41 -68 146q0 74 50 122t142 48q70 0 118 -28l138 39v-80h-101q18 -18 28.5 -46t10.5 -55q0 -76 -47.5 -124t-149.5 -48
q-21 0 -42.5 2.5t-28.5 5.5q-15 -24 -15 -40q0 -14 6.5 -23.5t22.5 -9.5h146q79 0 121.5 -24.5t42.5 -85.5q0 -41 -31.5 -78.5t-93.5 -61t-150 -23.5q-115 0 -156.5 27zM313 249q18 29 18 84q0 113 -81 113q-41 0 -58 -29t-17 -84q0 -54 18 -83.5t60 -29.5t60 29z
M352.5 -91.5q41.5 24.5 41.5 65.5q0 26 -14.5 33.5t-49.5 7.5h-162q-16 -21 -24 -37.5t-8 -34.5q0 -30 21 -44.5t74 -14.5q80 0 121.5 24.5z" />
    <glyph glyph-name="Hcircumflex" unicode="&#x124;" horiz-adv-x="732" 
d="M36 0zM36 0v41l87 22v488l-87 21v41h290v-41l-86 -21v-218h252v218l-87 21v41h290v-41l-86 -21v-488l87 -22v-41h-290v41l86 22v214h-252v-214l86 -22v-41h-290zM489 644l-124 79l-121 -79l-23 22l107 134h76l107 -134z" />
    <glyph glyph-name="hcircumflex" unicode="&#x125;" horiz-adv-x="621" 
d="M16 0zM337 0v41l68 23v303q0 25 -6 38t-22.5 18t-48.5 5q-65 0 -109 -14v-350l68 -23v-41h-268v44l83 20v577l-82 11v39l161 39h38v-269q31 15 83 27.5t95 12.5q55 0 90.5 -25.5t35.5 -79.5v-332l82 -23v-41h-268zM284 738l-124 79l-121 -79l-23 22l107 134h76l107 -134z
" />
    <glyph glyph-name="Hbar" unicode="&#x126;" horiz-adv-x="732" 
d="M609 63l87 -22v-41h-290v41l86 22v184h-252v-184l86 -22v-41h-290v41l87 22v328h-83v52h83v108l-87 21v41h290v-41l-86 -21v-108h252v108l-87 21v41h290v-41l-86 -21v-108h83v-52h-83v-328zM240 303h252v88h-252v-88z" />
    <glyph glyph-name="hbar" unicode="&#x127;" horiz-adv-x="621" 
d="M605 41v-41h-268v41l68 23v303q0 25 -6 38t-22.5 18t-48.5 5q-65 0 -109 -14v-350l68 -23v-41h-268v44l83 20v506h-82v55h82v34l-82 14v39l161 18h38v-105h133v-55h-133v-109q31 15 83 27.5t95 12.5q55 0 90.5 -25.5t35.5 -79.5v-332z" />
    <glyph glyph-name="Itilde" unicode="&#x128;" horiz-adv-x="363" 
d="M166 694q-21 7 -42 12.5t-32 5.5t-20 -7.5t-15 -15t-7 -10.5l-41 17q16 45 37.5 73t44.5 28q25 0 89 -20q21 -7 42 -12.5t33 -5.5q11 0 20.5 7t15.5 15t7 10l39 -17q-20 -48 -39 -74t-42 -26q-24 0 -90 20zM37 0v41l86 22v487l-87 22v41h291v-41l-87 -22v-487l87 -22v-41
h-290z" />
    <glyph glyph-name="itilde" unicode="&#x129;" horiz-adv-x="324" 
d="M274 590.5q-19 -26.5 -43 -26.5t-90 20q-21 7 -42 12.5t-32 5.5q-10 0 -19.5 -7t-15.5 -15t-7 -10l-41 16q41 101 83 101q23 0 87 -20q22 -7 43.5 -12.5t33.5 -5.5q11 0 20 7t15 15t7 10l40 -16q-20 -48 -39 -74.5zM307 44v-44h-280v44l82 20v349l-82 11v39l161 38h38
v-437z" />
    <glyph glyph-name="Imacron" unicode="&#x12a;" horiz-adv-x="363" 
d="M64 685v70h232v-70h-232zM37 0v41l86 22v487l-87 22v41h291v-41l-87 -22v-487l87 -22v-41h-290z" />
    <glyph glyph-name="imacron" unicode="&#x12b;" horiz-adv-x="324" 
d="M21 677h232v-70h-232v70zM307 44v-44h-280v44l82 20v349l-82 11v39l161 38h38v-437z" />
    <glyph glyph-name="Ibreve" unicode="&#x12c;" horiz-adv-x="363" 
d="M36 0zM37 0v41l86 22v487l-87 22v41h291v-41l-87 -22v-487l87 -22v-41h-290zM86.5 690.5q-25.5 34.5 -25.5 93.5l51 2q0 -26 15.5 -44t53.5 -18q40 0 56 18t16 44l48 -2q0 -58 -26.5 -93t-95.5 -35q-67 0 -92.5 34.5z" />
    <glyph glyph-name="ibreve" unicode="&#x12d;" horiz-adv-x="324" 
d="M27 0zM307 44v-44h-280v44l82 20v349l-82 11v39l161 38h38v-437zM65.5 609.5q-24.5 34.5 -24.5 93.5l49 2q0 -61 68 -61q75 0 75 61l48 -2q0 -128 -124 -128q-67 0 -91.5 34.5z" />
    <glyph glyph-name="Iogonek" unicode="&#x12e;" horiz-adv-x="363" 
d="M154.5 -210q-24.5 24 -24.5 60q0 42 29 82t76 68h-198v41l86 22v487l-87 22v41h291v-41l-87 -22v-487l87 -22v-41q-60 -14 -89 -51.5t-29 -76.5q0 -50 48 -50q32 0 56 22l21 -20q-11 -20 -37 -39t-66 -19q-52 0 -76.5 24z" />
    <glyph glyph-name="iogonek" unicode="&#x12f;" horiz-adv-x="324" 
d="M113 592q-23 21 -23 51q0 31 23 53.5t54 22.5q30 0 52 -22.5t22 -53.5q0 -30 -22 -51t-52 -21q-31 0 -54 21zM135 -210q-24 24 -24 60q0 42 29.5 82t77.5 68h-191v44l82 20v349l-82 11v39l161 38h38v-437l81 -20v-44q-59 -14 -88 -51.5t-29 -76.5q0 -50 48 -50
q32 0 56 22l21 -20q-13 -21 -38.5 -39.5t-65.5 -18.5q-52 0 -76 24z" />
    <glyph glyph-name="Idotaccent" unicode="&#x130;" horiz-adv-x="363" 
d="M128.5 667q-23.5 21 -23.5 51t23.5 53t53.5 23t52 -22.5t22 -53.5q0 -30 -22 -51t-52 -21t-53.5 21zM37 0v41l86 22v487l-87 22v41h291v-41l-87 -22v-487l87 -22v-41h-290z" />
    <glyph glyph-name="dotlessi" unicode="&#x131;" horiz-adv-x="324" 
d="M307 44v-44h-280v44l82 20v349l-82 11v39l161 38h38v-437z" />
    <glyph glyph-name="IJ" unicode="&#x132;" horiz-adv-x="691" 
d="M36 0zM37 0v41l86 22v487l-87 22v41h291v-41l-87 -22v-487l87 -22v-41h-290zM325 -119l4 33h70q42 0 57.5 31.5t15.5 91.5v513l-86 22v41h288v-41l-86 -22v-487q0 -119 -39 -166t-117 -47q-62 0 -107 31z" />
    <glyph glyph-name="ij" unicode="&#x133;" horiz-adv-x="642" 
d="M27 0zM113 592q-23 21 -23 51q0 31 23 53.5t54 22.5q30 0 52 -22.5t22 -53.5q0 -30 -22 -51t-52 -21q-31 0 -54 21zM27 0v44l82 20v349l-82 11v39l161 38h38v-437l81 -20v-44h-280zM544 592q-22 -21 -52 -21q-31 0 -53.5 21t-22.5 51q0 31 22.5 53.5t53.5 22.5
q30 0 52 -22.5t22 -53.5q0 -30 -22 -51zM514 501h38v-445q0 -119 -39.5 -171.5t-100.5 -52.5q-17 0 -45 7t-55 20l6 42h45q36 0 54 24.5t18 55.5v432l-82 11v39z" />
    <glyph glyph-name="Jcircumflex" unicode="&#x134;" horiz-adv-x="331" 
d="M0 0zM-35 -119l4 33h70q42 0 57.5 31.5t15.5 91.5v513l-86 22v41h288v-41l-86 -22v-487q0 -119 -39 -166t-117 -47q-62 0 -107 31zM289 644l-124 79l-121 -79l-23 22l107 134h76l107 -134z" />
    <glyph glyph-name="jcircumflex" unicode="&#x135;" horiz-adv-x="319" 
d="M0 0zM191 501h38v-445q0 -119 -39.5 -171.5t-100.5 -52.5q-17 0 -45 7t-55 20l6 42h45q36 0 54 24.5t18 55.5v432l-82 11v39zM274 557l-115 86l-113 -86l-31 25l106 141h76l106 -141z" />
    <glyph glyph-name="Kcommaaccent" unicode="&#x136;" horiz-adv-x="590" 
d="M36 0v41l86 22v487l-86 22v41h277v-42l-74 -21v-211l194 216l-59 17v41h205v-40l-70 -21l-183 -211l193 -275l81 -25v-41h-170l-191 273v-210l74 -21v-42h-277zM272 -226l11 182l83 19l21 -21l-74 -185z" />
    <glyph glyph-name="kcommaaccent" unicode="&#x137;" horiz-adv-x="580" 
d="M19 0v44l83 20v577l-83 11v39l162 39h38v-666l61 -19v-45h-261zM342 0v45l43 17l-157 196l142 174l-72 17v43h256v-43l-94 -19l-118 -142l181 -224l63 -19v-45h-244zM247 -226l10 182l83 19l21 -21l-74 -185z" />
    <glyph glyph-name="kgreenlandic" unicode="&#x138;" horiz-adv-x="580" 
d="M287 0h-261v44l83 20v350l-82 10v40l161 37h38v-437l61 -19v-45zM593 0h-244v45l43 17l-157 196l142 174l-72 17v43h256v-43l-94 -19l-118 -142l181 -224l63 -19v-45z" />
    <glyph glyph-name="Lacute" unicode="&#x139;" horiz-adv-x="487" 
d="M107 640l-23 29l155 131l91 -32v-22zM479 0h-443v41l86 22v487l-86 22v41h290v-41l-87 -22v-485h165l25 92h50v-157z" />
    <glyph glyph-name="lacute" unicode="&#x13a;" horiz-adv-x="313" 
d="M34 717l-24 29l156 131l91 -32v-21zM18 0v44l82 20v577l-82 11v39l161 39h38v-666l82 -20v-44h-281z" />
    <glyph glyph-name="Lcommaaccent" unicode="&#x13b;" horiz-adv-x="487" 
d="M36 0v41l86 22v487l-86 22v41h290v-41l-87 -22v-485h165l25 92h50v-157h-443zM221 -226l11 182l84 19l20 -21l-74 -185z" />
    <glyph glyph-name="lcommaaccent" unicode="&#x13c;" horiz-adv-x="313" 
d="M18 0v44l82 20v577l-82 11v39l161 39h38v-666l82 -20v-44h-281zM104 -226l11 182l83 19l21 -21l-75 -185z" />
    <glyph glyph-name="Lcaron" unicode="&#x13d;" horiz-adv-x="487" 
d="M144 644l-107 133l23 23l123 -79l122 79l22 -23l-106 -133h-77zM36 0v41l86 22v487l-86 22v41h290v-41l-87 -22v-485h165l25 92h50v-157h-443z" />
    <glyph glyph-name="lcaron" unicode="&#x13e;" horiz-adv-x="348" 
d="M300 523l-36 223h38l64 -22l-32 -201h-34zM18 0v44l82 20v577l-82 11v39l161 39h38v-666l82 -20v-44h-281z" />
    <glyph glyph-name="Ldot" unicode="&#x13f;" horiz-adv-x="487" 
d="M36 0zM479 0h-443v41l86 22v487l-86 22v41h290v-41l-87 -22v-485h165l25 92h50v-157zM462.5 375q-19.5 -20 -49.5 -20q-29 0 -49.5 20t-20.5 49q0 30 20 49t50 19t49.5 -19t19.5 -49q0 -29 -19.5 -49z" />
    <glyph glyph-name="ldot" unicode="&#x140;" horiz-adv-x="313" 
d="M16 0zM16 0v44l82 20v577l-82 11v39l161 39h38v-666l82 -20v-44h-281zM361.5 375q-19.5 -20 -49.5 -20q-29 0 -49.5 20t-20.5 49q0 30 20 49t50 19t49.5 -19t19.5 -49q0 -29 -19.5 -49z" />
    <glyph glyph-name="Lslash" unicode="&#x141;" horiz-adv-x="487" 
d="M36 0v41l86 22v176l-63 -36l-28 49l91 54v244l-86 22v41h290v-41l-87 -22v-175l89 53l30 -50l-119 -70v-243h165l25 92h50v-157h-443z" />
    <glyph glyph-name="lslash" unicode="&#x142;" horiz-adv-x="315" 
d="M19 0v44l82 20v233l-73 -43l-29 49l102 60v278l-82 11v39l161 39h38v-298l79 47l29 -50l-108 -64v-301l82 -20v-44h-281z" />
    <glyph glyph-name="Nacute" unicode="&#x143;" horiz-adv-x="710" 
d="M287 640l-23 29l155 131l91 -32v-22zM454 613h236v-41l-83 -21v-551l-95 -10l-329 477v-404l85 -22v-41h-233v41l83 22v488l-83 21v41h186l318 -461v399l-85 21v41z" />
    <glyph glyph-name="nacute" unicode="&#x144;" horiz-adv-x="628" 
d="M230 558l-23 29l155 135l91 -36v-21zM306 487.5q53 13.5 96 13.5q56 0 91.5 -25t35.5 -80v-332l83 -25v-39h-268v39l68 25v303q0 26 -6.5 39t-23.5 17.5t-50 4.5q-56 0 -107 -14v-350l67 -25v-39h-266v39l82 25v350l-82 10v40l161 37h38v-40q28 13 81 26.5z" />
    <glyph glyph-name="Ncommaaccent" unicode="&#x145;" horiz-adv-x="710" 
d="M512 -10l-329 477v-404l85 -22v-41h-233v41l83 22v488l-83 21v41h186l318 -461v399l-85 21v41h236v-41l-83 -21v-551zM312 -226l10 182l83 19l22 -21l-75 -185z" />
    <glyph glyph-name="ncommaaccent" unicode="&#x146;" horiz-adv-x="628" 
d="M26 39l82 25v350l-82 10v40l161 37h38v-40q28 13 81 26.5t96 13.5q56 0 91.5 -25t35.5 -80v-332l83 -25v-39h-268v39l68 25v303q0 26 -6.5 39t-23.5 17.5t-50 4.5q-56 0 -107 -14v-350l67 -25v-39h-266v39zM260 -226l10 182l84 19l20 -21l-74 -185z" />
    <glyph glyph-name="Ncaron" unicode="&#x147;" horiz-adv-x="710" 
d="M326 644l-107 133l23 23l122 -79l123 79l21 -23l-106 -133h-76zM512 -10l-329 477v-404l85 -22v-41h-233v41l83 22v488l-83 21v41h186l318 -461v399l-85 21v41h236v-41l-83 -21v-551z" />
    <glyph glyph-name="ncaron" unicode="&#x148;" horiz-adv-x="628" 
d="M200 726l113 -83l115 83l29 -22l-105 -141h-77l-106 141zM306 487.5q53 13.5 96 13.5q56 0 91.5 -25t35.5 -80v-332l83 -25v-39h-268v39l68 25v303q0 26 -6.5 39t-23.5 17.5t-50 4.5q-56 0 -107 -14v-350l67 -25v-39h-266v39l82 25v350l-82 10v40l161 37h38v-40
q28 13 81 26.5z" />
    <glyph glyph-name="napostrophe" unicode="&#x149;" horiz-adv-x="600" 
d="M27 0zM113 523l-37 223h39l64 -22l-32 -201h-34zM307 487.5q53 13.5 96 13.5q56 0 91.5 -25t35.5 -80v-332l83 -25v-39h-268v39l68 25v303q0 26 -6.5 39t-23.5 17.5t-50 4.5q-56 0 -107 -14v-350l68 -25v-39h-267v39l82 25v350l-82 10v40l161 37h38v-40q28 13 81 26.5z
" />
    <glyph glyph-name="Eng" unicode="&#x14a;" horiz-adv-x="710" 
d="M422 -161q-28 7 -55 20l6 42h45q36 0 54 24.5t18 55.5v42l-306 444v-404l85 -22v-41h-233v41l83 22v488l-84 21v41h186l319 -461v399l-85 21v41h236v-41l-84 -21v-495q0 -119 -39.5 -171.5t-100.5 -52.5q-17 0 -45 7z" />
    <glyph glyph-name="eng" unicode="&#x14b;" horiz-adv-x="606" 
d="M494.5 476q35.5 -25 35.5 -80v-340q0 -118 -39.5 -171t-100.5 -53q-17 0 -45 7t-55 20l6 42h45q36 0 54 24.5t18 55.5v386q0 26 -6.5 39t-23.5 17.5t-50 4.5q-56 0 -107 -14v-350l68 -25v-39h-267v39l82 25v350l-82 10v40l161 37h38v-40q28 13 81 26.5t96 13.5
q56 0 91.5 -25z" />
    <glyph glyph-name="Omacron" unicode="&#x14c;" horiz-adv-x="661" 
d="M214 755h233v-70h-233v70zM555.5 539q71.5 -88 71.5 -229q0 -142 -72 -230.5t-223 -88.5q-101 0 -168 42t-98.5 114t-31.5 163q0 140 73.5 228.5t224.5 88.5q152 0 223.5 -88zM464 489q-38 76 -138 76q-95 0 -130.5 -75.5t-35.5 -179.5q0 -106 38 -181t138 -75
q96 0 131 75.5t35 180.5q0 103 -38 179z" />
    <glyph glyph-name="omacron" unicode="&#x14d;" 
d="M156 677h232v-70h-232v70zM456 430.5q59 -70.5 59 -186.5q0 -113 -60 -183.5t-184 -70.5q-121 0 -180.5 71t-59.5 183q0 116 58.5 186.5t181.5 70.5q126 0 185 -70.5zM362 390q-26 51 -93 51q-63 0 -87.5 -51t-24.5 -144q0 -92 26 -143.5t92 -51.5q65 0 89 51t24 144
t-26 144z" />
    <glyph glyph-name="Obreve" unicode="&#x14e;" horiz-adv-x="661" 
d="M34 0zM555.5 539q71.5 -88 71.5 -229q0 -142 -72 -230.5t-223 -88.5q-101 0 -168 42t-98.5 114t-31.5 163q0 140 73.5 228.5t224.5 88.5q152 0 223.5 -88zM464 489q-38 76 -138 76q-95 0 -130.5 -75.5t-35.5 -179.5q0 -106 38 -181t138 -75q96 0 131 75.5t35 180.5
q0 103 -38 179zM235.5 690.5q-25.5 34.5 -25.5 93.5l51 2q0 -26 15.5 -44t53.5 -18q40 0 56 18t16 44l48 -2q0 -58 -26.5 -93t-95.5 -35q-67 0 -92.5 34.5z" />
    <glyph glyph-name="obreve" unicode="&#x14f;" 
d="M31 0zM456 430.5q59 -70.5 59 -186.5q0 -113 -60 -183.5t-184 -70.5q-121 0 -180.5 71t-59.5 183q0 116 58.5 186.5t181.5 70.5q126 0 185 -70.5zM362 390q-26 51 -93 51q-63 0 -87.5 -51t-24.5 -144q0 -92 26 -143.5t92 -51.5q65 0 89 51t24 144t-26 144zM176.5 609.5
q-24.5 34.5 -24.5 93.5l49 2q0 -61 68 -61q75 0 75 61l48 -2q0 -128 -124 -128q-67 0 -91.5 34.5z" />
    <glyph glyph-name="Ohungarumlaut" unicode="&#x150;" horiz-adv-x="661" 
d="M225 638l-29 21l87 150h86v-20zM386 638l-29 21l87 150h86v-20zM164 33q-67 42 -98.5 114t-31.5 163q0 140 73.5 228.5t224.5 88.5q152 0 223.5 -88t71.5 -229q0 -142 -72 -230.5t-223 -88.5q-101 0 -168 42zM467 129.5q35 75.5 35 180.5q0 103 -38 179t-138 76
q-95 0 -130.5 -75.5t-35.5 -179.5q0 -106 38 -181t138 -75q96 0 131 75.5z" />
    <glyph glyph-name="ohungarumlaut" unicode="&#x151;" 
d="M152 549l-27 19l91 160h86v-21zM313 549l-27 19l91 160h86v-21zM456 430.5q59 -70.5 59 -186.5q0 -113 -60 -183.5t-184 -70.5q-121 0 -180.5 71t-59.5 183q0 116 58.5 186.5t181.5 70.5q126 0 185 -70.5zM362 390q-26 51 -93 51q-63 0 -87.5 -51t-24.5 -144
q0 -92 26 -143.5t92 -51.5q65 0 89 51t24 144t-26 144z" />
    <glyph glyph-name="OE" unicode="&#x152;" horiz-adv-x="815" 
d="M768 472h-49l-22 79h-171v-223h114l19 66h47v-188h-47l-21 69h-112v-210h188l26 92h50v-157h-465q-147 0 -219 85t-72 225q0 138 71.5 220.5t219.5 82.5h443v-141zM319 562q-92 0 -126.5 -74t-34.5 -178q0 -107 37.5 -183t133.5 -76q43 0 82 12v487q-45 12 -92 12z" />
    <glyph glyph-name="oe" unicode="&#x153;" horiz-adv-x="838" 
d="M90.5 61q-59.5 71 -59.5 183q0 116 58.5 186.5t181.5 70.5q61 0 106 -21t73 -59q29 42 72 61t93 19q98 0 147 -47t49 -145q0 -19 -4 -59h-291v-21q0 -82 33 -127t108 -45q58 0 141 23l7 -39q-77 -51 -180 -51q-60 0 -109 25.5t-67 63.5q-24 -38 -71.5 -63.5t-106.5 -25.5
q-121 0 -180.5 71zM363.5 100q24.5 49 24.5 154q-2 91 -27.5 139t-91.5 48q-64 0 -88 -50.5t-24 -144.5q0 -92 25.5 -143.5t92.5 -51.5q64 0 88.5 49zM690 308v22q0 51 -15.5 80t-54.5 29q-56 0 -78 -35.5t-24 -105.5z" />
    <glyph glyph-name="Racute" unicode="&#x154;" horiz-adv-x="584" 
d="M209 640l-24 29l156 131l91 -32v-22zM345 195.5q-22 48.5 -36 62.5t-38 14h-29v-209l80 -22v-41h-285v41l88 22v487l-88 22v41h269q112 0 166 -41.5t54 -109.5q0 -62 -36.5 -105.5t-106.5 -62.5q25 -8 39 -20.5t26 -35t37 -79.5l44 -96l68 -22v-41h-171
q-59 147 -81 195.5zM375.5 356.5q30.5 34.5 30.5 92.5q0 53 -29.5 81.5t-81.5 28.5q-25 0 -53 -8v-229h47q56 0 86.5 34.5z" />
    <glyph glyph-name="racute" unicode="&#x155;" horiz-adv-x="417" 
d="M152 558l-23 29l155 135l91 -36v-21zM225 407v-343l115 -21v-43h-314v42l82 22v348l-82 12v39l156 38h42v-46q34 22 75 35.5t76 13.5q21 0 28 -1l-18 -167h-59l-21 88q-44 0 -80 -17z" />
    <glyph glyph-name="Rcommaaccent" unicode="&#x156;" horiz-adv-x="584" 
d="M37 41l88 22v487l-88 22v41h269q112 0 166 -41.5t54 -109.5q0 -62 -36.5 -105.5t-106.5 -62.5q25 -8 39 -20.5t26 -35t37 -79.5l44 -96l68 -22v-41h-171q-59 147 -81 195.5t-36 62.5t-38 14h-29v-209l80 -22v-41h-285v41zM289 322q56 0 86.5 34.5t30.5 92.5
q0 53 -29.5 81.5t-81.5 28.5q-25 0 -53 -8v-229h47zM275 -226l11 182l83 19l21 -21l-74 -185z" />
    <glyph glyph-name="rcommaaccent" unicode="&#x157;" horiz-adv-x="417" 
d="M26 42l82 22v348l-82 12v39l156 38h42v-46q34 22 75 35.5t76 13.5q21 0 28 -1l-18 -167h-59l-21 88q-44 0 -80 -17v-343l115 -21v-43h-314v42zM124 -226l10 182l84 19l20 -21l-74 -185z" />
    <glyph glyph-name="Rcaron" unicode="&#x158;" horiz-adv-x="584" 
d="M256 644l-107 133l23 23l122 -79l123 79l21 -23l-106 -133h-76zM37 41l88 22v487l-88 22v41h269q112 0 166 -41.5t54 -109.5q0 -62 -36.5 -105.5t-106.5 -62.5q25 -8 39 -20.5t26 -35t37 -79.5l44 -96l68 -22v-41h-171q-59 147 -81 195.5t-36 62.5t-38 14h-29v-209
l80 -22v-41h-285v41zM289 322q56 0 86.5 34.5t30.5 92.5q0 53 -29.5 81.5t-81.5 28.5q-25 0 -53 -8v-229h47z" />
    <glyph glyph-name="rcaron" unicode="&#x159;" horiz-adv-x="417" 
d="M108 726l113 -83l114 83l30 -22l-106 -141h-77l-105 141zM225 407v-343l115 -21v-43h-314v42l82 22v348l-82 12v39l156 38h42v-46q34 22 75 35.5t76 13.5q21 0 28 -1l-18 -167h-59l-21 88q-44 0 -80 -17z" />
    <glyph glyph-name="Sacute" unicode="&#x15a;" horiz-adv-x="474" 
d="M159 640l-23 29l155 131l91 -32v-22zM98.5 581q54.5 47 153.5 47q84 0 170 -27l-10 -140h-48l-22 93q-12 4 -37.5 7.5t-42.5 3.5q-53 0 -85 -21.5t-32 -66.5q0 -37 22.5 -60.5t67.5 -42.5l97 -40q58 -23 84.5 -62t26.5 -99q0 -85 -59 -134t-171 -49q-43 0 -92 8t-88 23
l14 135h50l17 -87q55 -15 100 -15q56 0 88.5 23t32.5 63q0 37 -20 60t-67 43l-98 41q-46 19 -76 59.5t-30 105.5q0 85 54.5 132z" />
    <glyph glyph-name="sacute" unicode="&#x15b;" horiz-adv-x="445" 
d="M141 558l-23 29l155 135l91 -36v-21zM170.5 424q-23.5 -16 -23.5 -44q0 -25 12.5 -40t42.5 -25l100 -33q56 -18 80 -49.5t24 -87.5q0 -72 -52.5 -113.5t-147.5 -41.5q-37 0 -82 6.5t-78 18.5l12 131h49l21 -83q36 -12 77 -12q49 0 75 18t26 53q0 23 -14 35.5t-51 25.5
l-94 32q-50 18 -74 50t-24 84q0 72 47 112t141 40q36 0 75.5 -7.5t73.5 -22.5l-15 -119h-47l-20 74q-32 14 -69 14q-41 0 -64.5 -16z" />
    <glyph glyph-name="Scircumflex" unicode="&#x15c;" horiz-adv-x="474" 
d="M31 0zM96.5 581q54.5 47 154.5 47q83 0 170 -27l-11 -140h-47l-22 93q-13 4 -38 7.5t-43 3.5q-52 0 -84 -21.5t-32 -66.5q0 -37 22.5 -60.5t66.5 -42.5l97 -40q59 -23 85.5 -62t26.5 -99q0 -85 -59 -134t-171 -49q-44 0 -93 8t-88 23l15 135h49l18 -87q52 -15 100 -15
q56 0 88.5 23t32.5 63q0 37 -20 60t-67 43l-99 41q-46 19 -76 59.5t-30 105.5q0 85 54.5 132zM361 644l-124 79l-121 -79l-23 22l107 134h76l107 -134z" />
    <glyph glyph-name="scircumflex" unicode="&#x15d;" horiz-adv-x="440" 
d="M42 0zM166.5 424q-23.5 -16 -23.5 -44q0 -25 12.5 -40t42.5 -25l100 -33q56 -18 80 -49.5t24 -87.5q0 -72 -52.5 -113.5t-147.5 -41.5q-37 0 -82 6.5t-78 18.5l12 131h49l21 -83q36 -12 77 -12q49 0 75 18t26 53q0 23 -14 35.5t-51 25.5l-93 32q-50 18 -74.5 50t-24.5 84
q0 72 47 112t141 40q36 0 75.5 -7.5t73.5 -22.5l-14 -119h-47l-21 74q-31 14 -69 14q-41 0 -64.5 -16zM335 557l-115 86l-113 -86l-31 25l106 141h76l106 -141z" />
    <glyph glyph-name="Scedilla" unicode="&#x15e;" horiz-adv-x="474" 
d="M139 -210l8 35q14 -7 30 -7q30 0 47.5 16t17.5 37q0 18 -15 30t-47 13l-6 15l22 62q-97 4 -163 30l14 135h50l17 -87q55 -15 100 -15q56 0 88.5 23t32.5 63q0 37 -20 60t-67 43l-98 41q-46 19 -76 59.5t-30 105.5q0 85 54.5 132t153.5 47q84 0 170 -27l-10 -140h-48
l-22 93q-12 4 -37.5 7.5t-42.5 3.5q-53 0 -85 -21.5t-32 -66.5q0 -37 22.5 -60.5t67.5 -42.5l97 -40q58 -23 84.5 -62t26.5 -99q0 -80 -52.5 -128.5t-153.5 -53.5l-11 -37q50 0 76 -20t26 -51q0 -28 -19 -51.5t-50.5 -37.5t-66.5 -14q-29 0 -53 10z" />
    <glyph glyph-name="scedilla" unicode="&#x15f;" horiz-adv-x="445" 
d="M131 -210l8 35q15 -7 31 -7q30 0 47.5 16t17.5 37q0 18 -15 30t-47 13l-6 15l22 62q-35 1 -74 7.5t-70 16.5l13 131h48l21 -83q38 -12 78 -12q48 0 74 18t26 53q0 23 -14 35.5t-51 25.5l-93 32q-50 18 -74.5 50t-24.5 84q0 72 47 112t141 40q79 0 149 -30l-14 -119h-47
l-21 74q-32 14 -69 14q-41 0 -64.5 -16t-23.5 -44q0 -25 12.5 -40t43.5 -25l99 -33q56 -18 80 -49.5t24 -87.5q0 -67 -45.5 -108t-129.5 -46l-11 -37q49 0 75 -20t26 -51q0 -28 -19 -51.5t-50 -37.5t-66 -14q-30 0 -54 10z" />
    <glyph glyph-name="Scaron" unicode="&#x160;" horiz-adv-x="474" 
d="M207 644l-108 133l23 23l123 -79l123 79l21 -23l-106 -133h-76zM119 -2q-49 8 -88 23l15 135h49l18 -87q52 -15 100 -15q56 0 88.5 23t32.5 63q0 37 -20 60t-67 43l-99 41q-46 19 -76 59.5t-30 105.5q0 85 54.5 132t154.5 47q83 0 170 -27l-11 -140h-47l-22 93
q-13 4 -38 7.5t-43 3.5q-52 0 -84 -21.5t-32 -66.5q0 -37 22.5 -60.5t66.5 -42.5l97 -40q59 -23 85.5 -62t26.5 -99q0 -85 -59 -134t-171 -49q-44 0 -93 8z" />
    <glyph glyph-name="scaron" unicode="&#x161;" horiz-adv-x="446" 
d="M188 557l-106 141l32 22l113 -83l114 83l29 -22l-105 -141h-77zM128 -3.5q-45 6.5 -79 18.5l13 131h49l21 -83q36 -12 77 -12q48 0 74 17t26 49q0 26 -14.5 39.5t-52.5 26.5l-92 32q-50 18 -74.5 50t-24.5 84q0 72 47 112t141 40q36 0 75.5 -7.5t73.5 -22.5l-14 -119h-47
l-21 74q-31 14 -69 14q-41 0 -64.5 -16t-23.5 -44q0 -25 12.5 -40t42.5 -25l100 -33q56 -19 81 -50.5t25 -90.5q0 -69 -52.5 -110t-147.5 -41q-37 0 -82 6.5z" />
    <glyph glyph-name="uni0162" unicode="&#x162;" horiz-adv-x="530" 
d="M183 -210l8 35q15 -7 31 -7q29 0 47 16t18 37q0 18 -15.5 30t-47.5 13l-5 15l25 71h-129v41l92 22v488h-124l-19 -90h-49l-7 152h514l-6 -152h-50l-20 90h-122v-488l92 -22v-41h-131l-15 -46q50 0 76 -20t26 -51q0 -28 -19 -51.5t-50 -37.5t-67 -14q-29 0 -53 10z" />
    <glyph glyph-name="uni0163" unicode="&#x163;" horiz-adv-x="350" 
d="M105 -210l8 35q14 -7 30 -7q30 0 48 16t18 37q0 18 -15.5 30t-47.5 13l-6 15l22 63q-69 6 -69 78v357h-72v43l82 33l53 100h53v-111h131v-72l-131 8v-352l117 -22v-42q-54 -14 -122 -20l-12 -38q50 0 76 -20t26 -51q0 -28 -19 -51.5t-50 -37.5t-67 -14q-29 0 -53 10z" />
    <glyph glyph-name="Tcaron" unicode="&#x164;" horiz-adv-x="530" 
d="M228 644l-108 133l23 23l123 -79l123 79l21 -23l-106 -133h-76zM115 0v41l92 22v488h-124l-19 -90h-49l-7 152h514l-6 -152h-50l-20 90h-122v-488l92 -22v-41h-301z" />
    <glyph glyph-name="tcaron" unicode="&#x165;" horiz-adv-x="350" 
d="M254 746h40l63 -22l-32 -201h-34zM251 -3q-45 -6 -72 -6q-49 0 -67.5 22t-18.5 57v357h-72v43l82 33l53 100h53v-111h131v-72l-131 8v-352l117 -22v-42q-30 -9 -75 -15z" />
    <glyph glyph-name="Tbar" unicode="&#x166;" horiz-adv-x="530" 
d="M446 551h-122v-212h170v-52h-170v-224l92 -22v-41h-301v41l92 22v224h-167v52h167v212h-124l-19 -90h-49l-7 152h514l-6 -152h-50z" />
    <glyph glyph-name="tbar" unicode="&#x167;" horiz-adv-x="350" 
d="M205 428v-122h115v-52h-115v-178l117 -22v-42q-30 -9 -75 -15t-72 -6q-49 0 -67.5 22t-18.5 57v184h-59v52h59v121h-72v43l82 33l53 100h53v-111h131v-72z" />
    <glyph glyph-name="Utilde" unicode="&#x168;" horiz-adv-x="658" 
d="M476.5 700.5q-19.5 -26.5 -42.5 -26.5q-24 0 -90 20q-21 7 -42 12.5t-32 5.5t-20 -7.5t-15 -15t-7 -10.5l-41 17q16 45 37.5 73t44.5 28q24 0 88 -20q22 -7 43.5 -12.5t33.5 -5.5q11 0 20 7t15 15t7 10l40 -17q-20 -47 -39.5 -73.5zM516.5 68.5q-49.5 -77.5 -182.5 -77.5
q-97 0 -150 36t-71.5 95.5t-18.5 142.5v285l-87 22v41h291v-41l-87 -22v-285q0 -69 10 -115t40 -73t87 -27q77 0 113.5 51.5t36.5 140.5v309l-86 21v41h238v-41l-84 -21v-315q0 -90 -49.5 -167.5z" />
    <glyph glyph-name="utilde" unicode="&#x169;" horiz-adv-x="614" 
d="M421 590.5q-19 -26.5 -43 -26.5t-88 20q-22 7 -43 12.5t-33 5.5q-10 0 -19 -7t-15 -15t-7 -10l-42 16q41 101 83 101q25 0 89 -20q21 -7 42 -12.5t33 -5.5q11 0 20 7t15 15t7 10l40 -16q-20 -48 -39 -74.5zM481 -5q-31 0 -57.5 15t-30.5 40q-37 -25 -84 -42.5t-90 -17.5
q-64 0 -93 33t-29 83v307l-82 11v39l161 38h38v-368q0 -35 15 -51.5t54 -16.5q22 0 52 9.5t54 22.5v316l-83 11v39l162 38h38v-427l82 -24v-38q-62 -17 -107 -17z" />
    <glyph glyph-name="Umacron" unicode="&#x16a;" horiz-adv-x="658" 
d="M238 755h232v-70h-232v70zM516.5 68.5q-49.5 -77.5 -182.5 -77.5q-97 0 -150 36t-71.5 95.5t-18.5 142.5v285l-87 22v41h291v-41l-87 -22v-285q0 -67 10 -111.5t40 -71.5t87 -27q77 0 113.5 50.5t36.5 136.5v309l-86 21v41h238v-41l-84 -21v-315q0 -90 -49.5 -167.5z" />
    <glyph glyph-name="umacron" unicode="&#x16b;" horiz-adv-x="614" 
d="M186 677h233v-70h-233v70zM481 -5q-31 0 -57.5 15t-30.5 40q-37 -25 -84 -42.5t-90 -17.5q-64 0 -93 33t-29 83v307l-82 11v39l161 38h38v-368q0 -35 15 -51.5t54 -16.5q22 0 52 9.5t54 22.5v316l-83 11v39l162 38h38v-427l82 -24v-38q-62 -17 -107 -17z" />
    <glyph glyph-name="Ubreve" unicode="&#x16c;" horiz-adv-x="658" 
d="M7 0zM516.5 68.5q-49.5 -77.5 -182.5 -77.5q-97 0 -150 36t-71.5 95.5t-18.5 142.5v285l-87 22v41h291v-41l-87 -22v-285q0 -67 10 -111.5t40 -71.5t87 -27q77 0 113.5 50.5t36.5 136.5v309l-86 21v41h238v-41l-84 -21v-315q0 -90 -49.5 -167.5zM233.5 690.5
q-25.5 34.5 -25.5 93.5l51 2q0 -26 15.5 -44t53.5 -18q40 0 56 18t16 44l48 -2q0 -58 -26.5 -93t-95.5 -35q-67 0 -92.5 34.5z" />
    <glyph glyph-name="ubreve" unicode="&#x16d;" horiz-adv-x="612" 
d="M15 0zM481 -5q-31 0 -57 15t-31 40q-36 -25 -83 -42.5t-90 -17.5q-65 0 -94 33t-29 83v307l-82 11v39l162 38h37v-368q0 -35 15 -51.5t54 -16.5q22 0 52.5 9.5t53.5 22.5v316l-82 11v39l161 38h38v-427l83 -24v-38q-64 -17 -108 -17zM209.5 609.5q-24.5 34.5 -24.5 93.5
l49 2q0 -61 68 -61q75 0 75 61l48 -2q0 -128 -124 -128q-67 0 -91.5 34.5z" />
    <glyph glyph-name="Uring" unicode="&#x16e;" horiz-adv-x="658" 
d="M275.5 655.5q-28.5 26.5 -28.5 67.5q0 42 28.5 69.5t80.5 27.5q53 0 81 -27t28 -70q0 -42 -28 -68t-81 -26q-52 0 -80.5 26.5zM391.5 685.5q8.5 13.5 8.5 37.5q0 25 -8.5 39.5t-35.5 14.5q-26 0 -34.5 -14.5t-8.5 -39.5q0 -24 8.5 -37.5t34.5 -13.5q27 0 35.5 13.5z
M184 27q-53 36 -71.5 95.5t-18.5 142.5v285l-87 22v41h291v-41l-87 -22v-285q0 -67 10 -111.5t40 -71.5t87 -27q77 0 113.5 50.5t36.5 136.5v309l-86 21v41h238v-41l-84 -21v-315q0 -90 -49.5 -167.5t-182.5 -77.5q-97 0 -150 36z" />
    <glyph glyph-name="uring" unicode="&#x16f;" horiz-adv-x="614" 
d="M375.5 564.5q-28.5 -28.5 -82.5 -28.5q-53 0 -81 28.5t-28 74.5t28 75.5t81 29.5q54 0 82.5 -29.5t28.5 -75.5t-28.5 -74.5zM259.5 682q-8.5 -15 -8.5 -43q0 -29 8 -43t34 -14t35 14.5t9 42.5t-9 43t-35 15q-25 0 -33.5 -15zM481 -5q-31 0 -57.5 15t-30.5 40
q-37 -25 -84 -42.5t-90 -17.5q-64 0 -93 33t-29 83v307l-82 11v39l161 38h38v-368q0 -35 15 -51.5t54 -16.5q22 0 52 9.5t54 22.5v316l-83 11v39l162 38h38v-427l82 -24v-38q-62 -17 -107 -17z" />
    <glyph glyph-name="Uhungarumlaut" unicode="&#x170;" horiz-adv-x="658" 
d="M242 638l-28 21l86 150h86v-20zM403 638l-28 21l86 150h86v-20zM516.5 68.5q-49.5 -77.5 -182.5 -77.5q-97 0 -150 36t-71.5 95.5t-18.5 142.5v285l-87 22v41h291v-41l-87 -22v-285q0 -67 10 -111.5t40 -71.5t87 -27q77 0 113.5 50.5t36.5 136.5v309l-86 21v41h238v-41
l-84 -21v-315q0 -90 -49.5 -167.5z" />
    <glyph glyph-name="uhungarumlaut" unicode="&#x171;" horiz-adv-x="614" 
d="M169 549l-27 19l91 160h86v-21zM330 549l-27 19l91 160h86v-21zM481 -5q-31 0 -57.5 15t-30.5 40q-37 -25 -84 -42.5t-90 -17.5q-64 0 -93 33t-29 83v307l-82 11v39l161 38h38v-368q0 -35 15 -51.5t54 -16.5q22 0 52 9.5t54 22.5v316l-83 11v39l162 38h38v-427l82 -24
v-38q-62 -17 -107 -17z" />
    <glyph glyph-name="Uogonek" unicode="&#x172;" horiz-adv-x="658" 
d="M296 -209q-24 25 -24 61t23.5 73t67.5 70q-13 -4 -29 -4q-97 0 -150 36t-71.5 95.5t-18.5 142.5v285l-87 22v41h291v-41l-87 -22v-285q0 -67 10 -111.5t40 -71.5t87 -27q77 0 113.5 50.5t36.5 136.5v309l-86 21v41h238v-41l-84 -21v-315q0 -64 -25.5 -126.5t-91.5 -93.5
q-98 -51 -98 -144q0 -50 47 -50q31 0 57 22l21 -20q0 -2 -13 -17t-36.5 -28t-55.5 -13q-51 0 -75 25z" />
    <glyph glyph-name="uogonek" unicode="&#x173;" horiz-adv-x="614" 
d="M493 -48q-29 -41 -29 -80q0 -25 12.5 -37.5t34.5 -12.5q31 0 57 22l20 -20q-10 -17 -37.5 -35.5t-65.5 -18.5q-49 0 -73.5 24t-24.5 59q0 36 27 74.5t71 67.5h-3q-31 0 -58 15t-31 40q-37 -25 -84 -42.5t-90 -17.5q-64 0 -93 33t-29 83v307l-82 11v39l161 38h38v-368
q0 -35 15 -51.5t54 -16.5q22 0 52 9.5t54 22.5v316l-83 11v39l162 38h38v-427l82 -24v-38l-9 -3q-57 -16 -86 -57z" />
    <glyph glyph-name="Wcircumflex" unicode="&#x174;" horiz-adv-x="783" 
d="M0 0zM586 613h216v-40l-72 -23l-130 -547l-70 -13l-132 416l-113 -403l-70 -13l-154 560l-71 22v41h257v-41l-62 -20l84 -367l92 361l104 19l112 -388l79 373l-70 22v41zM510 644l-124 79l-121 -79l-23 22l107 134h76l107 -134z" />
    <glyph glyph-name="wcircumflex" unicode="&#x175;" horiz-adv-x="734" 
d="M0 0zM682 429l-138 -434l-79 -9l-97 288l-91 -279l-78 -9l-154 445l-53 17v44h230v-46l-55 -15l89 -295l96 308l73 12l97 -320l83 293l-72 17v46h212v-44zM482 557l-115 86l-113 -86l-31 25l106 141h76l106 -141z" />
    <glyph glyph-name="Ycircumflex" unicode="&#x176;" horiz-adv-x="572" 
d="M425 644l-125 79l-121 -79l-23 22l107 134h76l107 -134zM357 571v42h215v-40l-71 -23l-151 -305v-182l93 -22v-41h-301v41l92 22v182l-157 305l-70 22v41h263v-42l-64 -21l112 -222l110 223z" />
    <glyph glyph-name="ycircumflex" unicode="&#x177;" horiz-adv-x="507" 
d="M148 550l-31 26l106 140h76l106 -140l-29 -26l-115 86zM21 -141l7 41h57q50 0 81 31.5t56 92.5l-169 407l-53 24v37h228v-37l-50 -24l103 -275l92 273l-68 17v46h209v-44l-63 -19l-143 -395q-37 -102 -79 -152t-104 -50q-47 0 -104 27z" />
    <glyph glyph-name="Ydieresis" unicode="&#x178;" horiz-adv-x="572" 
d="M147 673.5q-21 19.5 -21 47.5t21 47.5t50 19.5q27 0 47 -19.5t20 -47.5t-20 -47.5t-47 -19.5q-29 0 -50 19.5zM366 673.5q-21 19.5 -21 47.5t21 47.5t50 19.5q26 0 46.5 -20t20.5 -47q0 -28 -20.5 -47.5t-46.5 -19.5q-29 0 -50 19.5zM142 0v41l92 22v182l-157 305l-70 22
v41h264v-42l-65 -21l112 -222l110 223l-71 20v42h215v-40l-71 -23l-151 -305v-182l93 -22v-41h-301z" />
    <glyph glyph-name="Zacute" unicode="&#x179;" horiz-adv-x="506" 
d="M180 640l-23 29l155 131l91 -32v-22zM473 157l-9 -157h-417l-18 33l313 517h-210l-24 -78h-51l-9 141h424l5 -33l-309 -516h217l38 93h50z" />
    <glyph glyph-name="zacute" unicode="&#x17a;" horiz-adv-x="473" 
d="M154 558l-23 29l155 135l91 -36v-21zM295 426h-171l-22 -85h-44l-16 151h380l21 -42l-266 -386h183l34 88h45l-10 -152h-377l-20 42z" />
    <glyph glyph-name="Zdotaccent" unicode="&#x17b;" horiz-adv-x="506" 
d="M319 667q-22 -21 -52 -21t-53.5 21t-23.5 51t23.5 53t53.5 23t52 -22.5t22 -53.5q0 -30 -22 -51zM473 157l-9 -157h-417l-18 33l313 517h-210l-24 -78h-51l-9 141h424l5 -33l-309 -516h217l38 93h50z" />
    <glyph glyph-name="zdotaccent" unicode="&#x17c;" horiz-adv-x="473" 
d="M299 592q-22 -21 -52 -21q-31 0 -54 21t-23 51q0 31 23 53.5t54 22.5q30 0 52 -22.5t22 -53.5q0 -30 -22 -51zM295 426h-171l-22 -85h-44l-16 151h380l21 -42l-266 -386h183l34 88h45l-10 -152h-377l-20 42z" />
    <glyph glyph-name="Zcaron" unicode="&#x17d;" horiz-adv-x="506" 
d="M233 644l-107 133l23 23l122 -79l123 79l21 -23l-106 -133h-76zM48 0l-18 33l313 517h-210l-23 -78h-51l-10 141h424l5 -33l-309 -516h217l38 93h50l-9 -157h-417z" />
    <glyph glyph-name="zcaron" unicode="&#x17e;" horiz-adv-x="473" 
d="M123 726l113 -83l115 83l29 -22l-105 -141h-77l-106 141zM291 426h-171l-22 -85h-44l-16 151h380l21 -42l-266 -386h183l34 88h45l-10 -152h-377l-20 42z" />
    <glyph glyph-name="longs" unicode="&#x17f;" horiz-adv-x="376" 
d="M30 42l82 22v363h-81v42l81 32q0 108 58 168.5t160 60.5q26 0 58 -7.5t43 -15.5l-17 -134h-55l-16 75q-19 7 -38 7q-46 0 -61 -32.5t-15 -98.5l1 -457l116 -21v-46h-316v42z" />
    <glyph glyph-name="uni018F" unicode="&#x18f;" horiz-adv-x="651" 
d="M105.5 70q-71.5 79 -71.5 237v26h456q-4 102 -47.5 166.5t-136.5 64.5q-69 0 -139 -35l-25 -86h-48l-8 132q108 53 226 53q159 0 232 -88.5t73 -231.5q0 -148 -76 -232.5t-224 -84.5q-140 0 -211.5 79zM449.5 117.5q35.5 63.5 40.5 159.5h-329q5 -113 45.5 -168
t117.5 -55q90 0 125.5 63.5z" />
    <glyph glyph-name="florin" unicode="&#x192;" horiz-adv-x="436" 
d="M346 564q-44 0 -66.5 -44.5t-31.5 -137.5h134l-6 -49h-134l-49 -370q-9 -67 -48 -100t-92 -33q-19 0 -44.5 6.5t-48.5 17.5l5 34l60 -1q27 0 46.5 26t25.5 79l42 341h-88l8 49h87q13 120 60 177.5t127 57.5q57 0 122 -21l-10 -102h-43l-13 64q-19 6 -43 6z" />
    <glyph glyph-name="uni019D" unicode="&#x19d;" horiz-adv-x="710" 
d="M691 613v-41l-84 -21v-551l-94 -10l-329 477v-461q0 -91 -29 -132.5t-70 -41.5q-17 0 -41 7t-48 20l6 42h45q36 0 54 24.5t18 55.5v570l-84 21v41h186l319 -461v399l-85 21v41h236z" />
    <glyph glyph-name="Ohorn" unicode="&#x1a0;" horiz-adv-x="661" 
d="M642 579q-35 -28 -88 -38q73 -84 73 -231q0 -142 -72 -230.5t-223 -88.5q-101 0 -168 42t-98.5 114t-31.5 163q0 140 73.5 228.5t224.5 88.5q101 0 171 -43h22q29 0 44.5 11t15.5 42q0 19 -5 41l6 13l78 14q6 -13 9.5 -29t3.5 -28q0 -41 -35 -69zM467 129.5
q35 75.5 35 180.5q0 103 -38 179t-138 76q-95 0 -130.5 -75.5t-35.5 -179.5q0 -106 38 -181t138 -75q96 0 131 75.5z" />
    <glyph glyph-name="ohorn" unicode="&#x1a1;" 
d="M531.5 473q-30.5 -27 -78.5 -40q62 -66 62 -189q0 -113 -60 -183.5t-184 -70.5q-121 0 -180.5 71t-59.5 183q0 116 58.5 186.5t181.5 70.5q77 0 130 -28h9q29 0 44.5 11t15.5 42q0 19 -5 41l6 13l78 14q6 -13 9.5 -29t3.5 -28q0 -37 -30.5 -64zM364 102q24 51 24 144
t-26 144t-93 51q-63 0 -87.5 -51t-24.5 -144q0 -92 26 -143.5t92 -51.5q65 0 89 51z" />
    <glyph glyph-name="Uhorn" unicode="&#x1af;" horiz-adv-x="658" 
d="M671.5 626.5q-17.5 -22.5 -47.5 -37.5l-58 -38v-315q0 -90 -49.5 -167.5t-182.5 -77.5q-97 0 -150 36t-71.5 95.5t-18.5 142.5v285l-87 22v41h291v-41l-87 -22v-285q0 -67 10 -111.5t40 -71.5t87 -27q77 0 113.5 50.5t36.5 136.5v309l-86 21v41h125q29 0 44.5 11t15.5 42
q0 19 -5 41l6 13l78 14q6 -13 9.5 -29t3.5 -28q0 -28 -17.5 -50.5z" />
    <glyph glyph-name="uhorn" unicode="&#x1b0;" horiz-adv-x="612" 
d="M614 489q-45 -30 -108 -36v-379l83 -24v-38q-64 -17 -108 -17q-31 0 -57 15t-31 40q-36 -25 -83 -42.5t-90 -17.5q-65 0 -94 33t-29 83v307l-82 11v39l162 38h37v-368q0 -35 15 -51.5t54 -16.5q22 0 52.5 9.5t53.5 22.5v316l-82 11v39l160 38h40q29 0 44.5 11t15.5 42
q0 19 -5 41l6 13l78 14q6 -13 9.5 -29t3.5 -28q0 -46 -45 -76z" />
    <glyph glyph-name="uni01C4" unicode="&#x1c4;" horiz-adv-x="1148" 
d="M36 0zM541 535q75 -78 75 -216q0 -142 -72 -230.5t-220 -88.5h-287v41l86 22v487l-87 22v41h270q160 0 235 -78zM240 550v-485q46 -14 91 -14q161 0 161 268q0 107 -51 172t-139 65q-34 0 -62 -6zM1115 157l-9 -157h-417l-18 33l313 517h-210l-24 -78h-51l-9 141h424
l5 -33l-309 -516h217l38 93h50zM858 644l-108 133l23 23l123 -79l122 79l22 -23l-106 -133h-76z" />
    <glyph glyph-name="uni01C5" unicode="&#x1c5;" horiz-adv-x="1115" 
d="M36 0zM541 535q75 -78 75 -216q0 -142 -72 -230.5t-220 -88.5h-287v41l86 22v487l-87 22v41h270q160 0 235 -78zM240 550v-485q46 -14 91 -14q161 0 161 268q0 107 -51 172t-139 65q-34 0 -62 -6zM939 426h-172l-22 -85h-43l-17 151h380l21 -42l-265 -386h182l35 88h45
l-11 -152h-377l-20 42zM766 726l113 -83l115 83l29 -22l-105 -141h-77l-106 141z" />
    <glyph glyph-name="uni01C6" unicode="&#x1c6;" horiz-adv-x="1036" 
d="M31 0zM200 -10q-55 0 -93 35t-57 92.5t-19 126.5q0 120 57 188.5t160 68.5q26 0 50.5 -5t41.5 -11.5t19 -8.5v165l-83 11v39l161 39h39v-656l81 -24v-38q-61 -17 -109 -17q-30 0 -55 14t-31 38q-78 -57 -162 -57zM314.5 74q28.5 11 44.5 25v314q-17 13 -41.5 20.5
t-48.5 7.5q-55 0 -83.5 -52t-28.5 -143q0 -85 24.5 -134t75.5 -49q29 0 57.5 11zM860 426h-172l-22 -85h-43l-17 151h380l21 -42l-265 -386h182l35 88h45l-11 -152h-377l-20 42zM687 726l113 -83l115 83l29 -22l-105 -141h-77l-106 141z" />
    <glyph glyph-name="uni01C7" unicode="&#x1c7;" horiz-adv-x="818" 
d="M36 0zM479 0h-443v41l86 22v487l-86 22v41h290v-41l-87 -22v-485h165l25 92h50v-157zM452 -119l4 33h70q42 0 57.5 31.5t15.5 91.5v513l-86 22v41h288v-41l-86 -22v-487q0 -119 -39 -166t-117 -47q-62 0 -107 31z" />
    <glyph glyph-name="uni01C8" unicode="&#x1c8;" horiz-adv-x="806" 
d="M36 0zM479 0h-443v41l86 22v487l-86 22v41h290v-41l-87 -22v-485h165l25 92h50v-157zM708 592q-22 -21 -52 -21q-31 0 -53.5 21t-22.5 51q0 31 22.5 53.5t53.5 22.5q30 0 52 -22.5t22 -53.5q0 -30 -22 -51zM678 501h38v-445q0 -119 -39.5 -171.5t-100.5 -52.5
q-17 0 -45 7t-55 20l6 42h45q36 0 54 24.5t18 55.5v432l-82 11v39z" />
    <glyph glyph-name="uni01C9" unicode="&#x1c9;" horiz-adv-x="632" 
d="M16 0zM16 0v44l82 20v577l-82 11v39l161 39h38v-666l82 -20v-44h-281zM534 592q-22 -21 -52 -21q-31 0 -53.5 21t-22.5 51q0 31 22.5 53.5t53.5 22.5q30 0 52 -22.5t22 -53.5q0 -30 -22 -51zM504 501h38v-445q0 -119 -39.5 -171.5t-100.5 -52.5q-17 0 -45 7t-55 20l6 42
h45q36 0 54 24.5t18 55.5v432l-82 11v39z" />
    <glyph glyph-name="uni01CA" unicode="&#x1ca;" horiz-adv-x="1041" 
d="M35 0zM455 613h236v-41l-84 -21v-551l-94 -10l-329 477v-404l85 -22v-41h-233v41l83 22v488l-84 21v41h186l319 -461v399l-85 21v41zM675 -119l4 33h70q42 0 57.5 31.5t15.5 91.5v513l-86 22v41h288v-41l-86 -22v-487q0 -119 -39 -166t-117 -47q-62 0 -107 31z" />
    <glyph glyph-name="uni01CB" unicode="&#x1cb;" horiz-adv-x="1029" 
d="M35 0zM455 613h236v-41l-84 -21v-551l-94 -10l-329 477v-404l85 -22v-41h-233v41l83 22v488l-84 21v41h186l319 -461v399l-85 21v41zM931 592q-22 -21 -52 -21q-31 0 -53.5 21t-22.5 51q0 31 22.5 53.5t53.5 22.5q30 0 52 -22.5t22 -53.5q0 -30 -22 -51zM901 501h38v-445
q0 -119 -39.5 -171.5t-100.5 -52.5q-17 0 -45 7t-55 20l6 42h45q36 0 54 24.5t18 55.5v432l-82 11v39z" />
    <glyph glyph-name="uni01CC" unicode="&#x1cc;" horiz-adv-x="947" 
d="M27 0zM307 487.5q53 13.5 96 13.5q56 0 91.5 -25t35.5 -80v-332l83 -25v-39h-268v39l68 25v303q0 26 -6.5 39t-23.5 17.5t-50 4.5q-56 0 -107 -14v-350l68 -25v-39h-267v39l82 25v350l-82 10v40l161 37h38v-40q28 13 81 26.5zM849 592q-22 -21 -52 -21q-31 0 -53.5 21
t-22.5 51q0 31 22.5 53.5t53.5 22.5q30 0 52 -22.5t22 -53.5q0 -30 -22 -51zM819 501h38v-445q0 -119 -39.5 -171.5t-100.5 -52.5q-17 0 -45 7t-55 20l6 42h45q36 0 54 24.5t18 55.5v432l-82 11v39z" />
    <glyph glyph-name="uni01CD" unicode="&#x1cd;" horiz-adv-x="594" 
d="M0 0zM138 62l70 -21v-41h-215v40l72 23l188 550l71 13l202 -563l72 -22v-41h-257v41l63 19l-31 93h-205zM267 447l-82 -243h169zM260 644l-108 133l23 23l123 -79l122 79l22 -23l-106 -133h-76z" />
    <glyph glyph-name="uni01CE" unicode="&#x1ce;" horiz-adv-x="514" 
d="M36 0zM151 420l-23 -84h-49l-17 128q97 37 201 37q78 0 118 -26t40 -93v-308l82 -24v-38q-64 -17 -108 -17q-31 0 -56 14t-32 40q-41 -29 -78 -44t-79 -15q-53 0 -83.5 34.5t-30.5 88.5q0 48 28.5 88.5t99.5 54.5l140 27v75q0 40 -16 57.5t-56 17.5q-42 0 -81 -13z
M170.5 183q-17.5 -22 -17.5 -56q0 -63 59 -63q21 0 47 9.5t45 21.5v135l-75 -16q-41 -9 -58.5 -31zM142 726l113 -83l115 83l29 -22l-105 -141h-77l-106 141z" />
    <glyph glyph-name="uni01CF" unicode="&#x1cf;" horiz-adv-x="363" 
d="M36 0zM37 0v41l86 22v487l-87 22v41h291v-41l-87 -22v-487l87 -22v-41h-290zM145 644l-108 133l23 23l123 -79l122 79l22 -23l-106 -133h-76z" />
    <glyph glyph-name="uni01D0" unicode="&#x1d0;" horiz-adv-x="324" 
d="M18 0zM307 44v-44h-280v44l82 20v349l-82 11v39l161 38h38v-437zM49 726l113 -83l115 83l29 -22l-105 -141h-77l-106 141z" />
    <glyph glyph-name="uni01D1" unicode="&#x1d1;" horiz-adv-x="661" 
d="M34 0zM555.5 539q71.5 -88 71.5 -229q0 -142 -72 -230.5t-223 -88.5q-101 0 -168 42t-98.5 114t-31.5 163q0 140 73.5 228.5t224.5 88.5q152 0 223.5 -88zM464 489q-38 76 -138 76q-95 0 -130.5 -75.5t-35.5 -179.5q0 -106 38 -181t138 -75q96 0 131 75.5t35 180.5
q0 103 -38 179zM294 644l-108 133l23 23l123 -79l122 79l22 -23l-106 -133h-76z" />
    <glyph glyph-name="uni01D2" unicode="&#x1d2;" 
d="M31 0zM456 430.5q59 -70.5 59 -186.5q0 -113 -60 -183.5t-184 -70.5q-121 0 -180.5 71t-59.5 183q0 116 58.5 186.5t181.5 70.5q126 0 185 -70.5zM362 390q-26 51 -93 51q-63 0 -87.5 -51t-24.5 -144q0 -92 26 -143.5t92 -51.5q65 0 89 51t24 144t-26 144zM160 726
l113 -83l115 83l29 -22l-105 -141h-77l-106 141z" />
    <glyph glyph-name="uni01D3" unicode="&#x1d3;" horiz-adv-x="658" 
d="M7 0zM516.5 68.5q-49.5 -77.5 -182.5 -77.5q-97 0 -150 36t-71.5 95.5t-18.5 142.5v285l-87 22v41h291v-41l-87 -22v-285q0 -67 10 -111.5t40 -71.5t87 -27q77 0 113.5 50.5t36.5 136.5v309l-86 21v41h238v-41l-84 -21v-315q0 -90 -49.5 -167.5zM292 644l-108 133l23 23
l123 -79l122 79l22 -23l-106 -133h-76z" />
    <glyph glyph-name="uni01D4" unicode="&#x1d4;" horiz-adv-x="612" 
d="M15 0zM481 -5q-31 0 -57 15t-31 40q-36 -25 -83 -42.5t-90 -17.5q-65 0 -94 33t-29 83v307l-82 11v39l162 38h37v-368q0 -35 15 -51.5t54 -16.5q22 0 52.5 9.5t53.5 22.5v316l-82 11v39l161 38h38v-427l83 -24v-38q-64 -17 -108 -17zM193 726l113 -83l115 83l29 -22
l-105 -141h-77l-106 141z" />
    <glyph glyph-name="uni01D5" unicode="&#x1d5;" horiz-adv-x="658" 
d="M7 0zM516.5 68.5q-49.5 -77.5 -182.5 -77.5q-97 0 -150 36t-71.5 95.5t-18.5 142.5v285l-87 22v41h291v-41l-87 -22v-285q0 -67 10 -111.5t40 -71.5t87 -27q77 0 113.5 50.5t36.5 136.5v309l-86 21v41h238v-41l-84 -21v-315q0 -90 -49.5 -167.5zM269 673q-20 -19 -48 -19
q-29 0 -50 19t-21 47t21 48t50 20q27 0 47.5 -20t20.5 -48t-20 -47zM487 673q-20 -19 -48 -19t-49 19t-21 47t21 48t49 20q27 0 47.5 -20t20.5 -48t-20 -47zM214 930h233v-70h-233v70z" />
    <glyph glyph-name="uni01D6" unicode="&#x1d6;" horiz-adv-x="612" 
d="M15 0zM481 -5q-31 0 -57 15t-31 40q-36 -25 -83 -42.5t-90 -17.5q-65 0 -94 33t-29 83v307l-82 11v39l162 38h37v-368q0 -35 15 -51.5t54 -16.5q22 0 52.5 9.5t53.5 22.5v316l-82 11v39l161 38h38v-427l83 -24v-38q-64 -17 -108 -17zM246 552q-20 -19 -48 -19
q-29 0 -50 19t-21 47t21 48t50 20q27 0 47.5 -20t20.5 -48t-20 -47zM464 552q-20 -19 -48 -19t-49 19t-21 47t21 48t49 20q27 0 47.5 -20t20.5 -48t-20 -47zM191 809h233v-70h-233v70z" />
    <glyph glyph-name="uni01D7" unicode="&#x1d7;" horiz-adv-x="658" 
d="M7 0zM516.5 68.5q-49.5 -77.5 -182.5 -77.5q-97 0 -150 36t-71.5 95.5t-18.5 142.5v285l-87 22v41h291v-41l-87 -22v-285q0 -67 10 -111.5t40 -71.5t87 -27q77 0 113.5 50.5t36.5 136.5v309l-86 21v41h238v-41l-84 -21v-315q0 -90 -49.5 -167.5zM269 673q-20 -19 -48 -19
q-29 0 -50 19t-21 47t21 48t50 20q27 0 47.5 -20t20.5 -48t-20 -47zM487 673q-20 -19 -48 -19t-49 19t-21 47t21 48t49 20q27 0 47.5 -20t20.5 -48t-20 -47zM290 815l-23 29l155 131l92 -32v-22z" />
    <glyph glyph-name="uni01D8" unicode="&#x1d8;" horiz-adv-x="612" 
d="M15 0zM481 -5q-31 0 -57 15t-31 40q-36 -25 -83 -42.5t-90 -17.5q-65 0 -94 33t-29 83v307l-82 11v39l162 38h37v-368q0 -35 15 -51.5t54 -16.5q22 0 52.5 9.5t53.5 22.5v316l-82 11v39l161 38h38v-427l83 -24v-38q-64 -17 -108 -17zM246 552q-20 -19 -48 -19
q-29 0 -50 19t-21 47t21 48t50 20q27 0 47.5 -20t20.5 -48t-20 -47zM464 552q-20 -19 -48 -19t-49 19t-21 47t21 48t49 20q27 0 47.5 -20t20.5 -48t-20 -47zM267 694l-23 29l155 131l92 -32v-22z" />
    <glyph glyph-name="uni01D9" unicode="&#x1d9;" horiz-adv-x="658" 
d="M7 0zM516.5 68.5q-49.5 -77.5 -182.5 -77.5q-97 0 -150 36t-71.5 95.5t-18.5 142.5v285l-87 22v41h291v-41l-87 -22v-285q0 -67 10 -111.5t40 -71.5t87 -27q77 0 113.5 50.5t36.5 136.5v309l-86 21v41h238v-41l-84 -21v-315q0 -90 -49.5 -167.5zM269 673q-20 -19 -48 -19
q-29 0 -50 19t-21 47t21 48t50 20q27 0 47.5 -20t20.5 -48t-20 -47zM487 673q-20 -19 -48 -19t-49 19t-21 47t21 48t49 20q27 0 47.5 -20t20.5 -48t-20 -47zM294 819l-108 133l23 23l123 -79l122 79l22 -23l-106 -133h-76z" />
    <glyph glyph-name="uni01DA" unicode="&#x1da;" horiz-adv-x="612" 
d="M15 0zM481 -5q-31 0 -57 15t-31 40q-36 -25 -83 -42.5t-90 -17.5q-65 0 -94 33t-29 83v307l-82 11v39l162 38h37v-368q0 -35 15 -51.5t54 -16.5q22 0 52.5 9.5t53.5 22.5v316l-82 11v39l161 38h38v-427l83 -24v-38q-64 -17 -108 -17zM246 552q-20 -19 -48 -19
q-29 0 -50 19t-21 47t21 48t50 20q27 0 47.5 -20t20.5 -48t-20 -47zM464 552q-20 -19 -48 -19t-49 19t-21 47t21 48t49 20q27 0 47.5 -20t20.5 -48t-20 -47zM271 698l-108 133l23 23l123 -79l122 79l22 -23l-106 -133h-76z" />
    <glyph glyph-name="uni01DB" unicode="&#x1db;" horiz-adv-x="658" 
d="M7 0zM516.5 68.5q-49.5 -77.5 -182.5 -77.5q-97 0 -150 36t-71.5 95.5t-18.5 142.5v285l-87 22v41h291v-41l-87 -22v-285q0 -67 10 -111.5t40 -71.5t87 -27q77 0 113.5 50.5t36.5 136.5v309l-86 21v41h238v-41l-84 -21v-315q0 -90 -49.5 -167.5zM269 673q-20 -19 -48 -19
q-29 0 -50 19t-21 47t21 48t50 20q27 0 47.5 -20t20.5 -48t-20 -47zM487 673q-20 -19 -48 -19t-49 19t-21 47t21 48t49 20q27 0 47.5 -20t20.5 -48t-20 -47zM371 815l-227 106l3 22l90 32l154 -131z" />
    <glyph glyph-name="uni01DC" unicode="&#x1dc;" horiz-adv-x="612" 
d="M15 0zM481 -5q-31 0 -57 15t-31 40q-36 -25 -83 -42.5t-90 -17.5q-65 0 -94 33t-29 83v307l-82 11v39l162 38h37v-368q0 -35 15 -51.5t54 -16.5q22 0 52.5 9.5t53.5 22.5v316l-82 11v39l161 38h38v-427l83 -24v-38q-64 -17 -108 -17zM246 552q-20 -19 -48 -19
q-29 0 -50 19t-21 47t21 48t50 20q27 0 47.5 -20t20.5 -48t-20 -47zM464 552q-20 -19 -48 -19t-49 19t-21 47t21 48t49 20q27 0 47.5 -20t20.5 -48t-20 -47zM348 694l-227 106l3 22l90 32l154 -131z" />
    <glyph glyph-name="Gcaron" unicode="&#x1e6;" horiz-adv-x="612" 
d="M34 0zM355 565q-110 0 -153.5 -75t-43.5 -179q0 -110 41.5 -183.5t140.5 -73.5q47 0 78 12v160l-85 21v42h266v-43l-64 -19v-195q-35 -20 -85 -31t-106 -11q-162 0 -236 89t-74 232q0 141 77.5 229t242.5 88q47 0 99 -8t83 -21l-12 -144h-50l-25 98q-33 12 -94 12z
M270 644l-108 133l23 23l123 -79l122 79l22 -23l-106 -133h-76z" />
    <glyph glyph-name="gcaron" unicode="&#x1e7;" horiz-adv-x="513" 
d="M27 0zM68.5 -150q-41.5 27 -41.5 71q0 56 68 100q-19 7 -29 24t-10 36q0 24 17 48t50 58q-36 22 -52.5 60.5t-16.5 85.5q0 74 50.5 122t142.5 48q69 0 118 -28l137 39v-80h-100q18 -18 28 -45.5t10 -55.5q0 -76 -47.5 -124t-149.5 -48q-21 0 -42.5 2.5t-28.5 5.5
q-15 -27 -15 -40t7 -23t23 -10h140q80 0 122.5 -24.5t42.5 -85.5q0 -42 -29.5 -79t-90 -60.5t-148.5 -23.5q-114 0 -155.5 27zM309 249q18 29 18 84q0 113 -81 113q-41 0 -58 -29t-17 -84q0 -54 18 -83.5t60 -29.5t60 29zM346.5 -92q37.5 24 37.5 66q0 26 -14.5 33.5
t-49.5 7.5h-156q-15 -19 -21.5 -35.5t-6.5 -36.5q0 -30 20.5 -44.5t72.5 -14.5q80 0 117.5 24zM144 726l113 -83l115 83l29 -22l-105 -141h-77l-106 141z" />
    <glyph glyph-name="uni01EA" unicode="&#x1ea;" horiz-adv-x="661" 
d="M561 -117l20 -20q-13 -21 -39 -39.5t-68 -18.5q-49 0 -72.5 24.5t-23.5 59.5q0 26 13.5 56t40.5 59q-43 -13 -100 -13q-101 0 -168 42t-98.5 114t-31.5 163q0 140 73.5 228.5t224.5 88.5q152 0 223.5 -88t71.5 -229q0 -86 -27 -155t-83 -111q-28 -25 -44.5 -62t-16.5 -70
q0 -51 48 -51q29 0 57 22zM198 129q38 -75 138 -75q96 0 131 75.5t35 180.5q0 103 -38 179t-138 76q-95 0 -130.5 -75.5t-35.5 -179.5q0 -106 38 -181z" />
    <glyph glyph-name="uni01EB" unicode="&#x1eb;" 
d="M476 -121l21 -20q0 -2 -13 -17t-36.5 -28t-55.5 -13q-52 0 -75.5 24.5t-23.5 61.5q0 24 13 53t40 58q-35 -8 -75 -8q-121 0 -180.5 71t-59.5 183q0 116 58.5 186.5t181.5 70.5q126 0 185 -70.5t59 -186.5q0 -64 -19.5 -116t-59.5 -86q-26 -21 -45 -61.5t-19 -73.5
q0 -50 47 -50q31 0 57 22zM183 102.5q26 -51.5 92 -51.5q65 0 89 51t24 144t-26 144t-93 51q-63 0 -87.5 -51t-24.5 -144q0 -92 26 -143.5z" />
    <glyph glyph-name="uni01F1" unicode="&#x1f1;" horiz-adv-x="1148" 
d="M36 0zM541 535q75 -78 75 -216q0 -142 -72 -230.5t-220 -88.5h-287v41l86 22v487l-87 22v41h270q160 0 235 -78zM240 550v-485q46 -14 91 -14q161 0 161 268q0 107 -51 172t-139 65q-34 0 -62 -6zM1115 157l-9 -157h-417l-18 33l313 517h-210l-24 -78h-51l-9 141h424
l5 -33l-309 -516h217l38 93h50z" />
    <glyph glyph-name="uni01F2" unicode="&#x1f2;" horiz-adv-x="1115" 
d="M36 0zM541 535q75 -78 75 -216q0 -142 -72 -230.5t-220 -88.5h-287v41l86 22v487l-87 22v41h270q160 0 235 -78zM240 550v-485q46 -14 91 -14q161 0 161 268q0 107 -51 172t-139 65q-34 0 -62 -6zM939 426h-172l-22 -85h-43l-17 151h380l21 -42l-265 -386h182l35 88h45
l-11 -152h-377l-20 42z" />
    <glyph glyph-name="uni01F3" unicode="&#x1f3;" horiz-adv-x="1036" 
d="M31 0zM200 -10q-55 0 -93 35t-57 92.5t-19 126.5q0 120 57 188.5t160 68.5q26 0 50.5 -5t41.5 -11.5t19 -8.5v165l-83 11v39l161 39h39v-656l81 -24v-38q-61 -17 -109 -17q-30 0 -55 14t-31 38q-78 -57 -162 -57zM314.5 74q28.5 11 44.5 25v314q-17 13 -41.5 20.5
t-48.5 7.5q-55 0 -83.5 -52t-28.5 -143q0 -85 24.5 -134t75.5 -49q29 0 57.5 11zM860 426h-172l-22 -85h-43l-17 151h380l21 -42l-265 -386h182l35 88h45l-11 -152h-377l-20 42z" />
    <glyph glyph-name="uni01F4" unicode="&#x1f4;" horiz-adv-x="612" 
d="M34 0zM355 565q-110 0 -153.5 -75t-43.5 -179q0 -110 41.5 -183.5t140.5 -73.5q47 0 78 12v160l-85 21v42h266v-43l-64 -19v-195q-35 -20 -85 -31t-106 -11q-162 0 -236 89t-74 232q0 141 77.5 229t242.5 88q47 0 99 -8t83 -21l-12 -144h-50l-25 98q-33 12 -94 12z
M266 640l-23 29l155 131l92 -32v-22z" />
    <glyph glyph-name="uni01F5" unicode="&#x1f5;" horiz-adv-x="513" 
d="M27 0zM68.5 -150q-41.5 27 -41.5 71q0 56 68 100q-19 7 -29 24t-10 36q0 24 17 48t50 58q-36 22 -52.5 60.5t-16.5 85.5q0 74 50.5 122t142.5 48q69 0 118 -28l137 39v-80h-100q18 -18 28 -45.5t10 -55.5q0 -76 -47.5 -124t-149.5 -48q-21 0 -42.5 2.5t-28.5 5.5
q-15 -27 -15 -40t7 -23t23 -10h140q80 0 122.5 -24.5t42.5 -85.5q0 -42 -29.5 -79t-90 -60.5t-148.5 -23.5q-114 0 -155.5 27zM309 249q18 29 18 84q0 113 -81 113q-41 0 -58 -29t-17 -84q0 -54 18 -83.5t60 -29.5t60 29zM346.5 -92q37.5 24 37.5 66q0 26 -14.5 33.5
t-49.5 7.5h-156q-15 -19 -21.5 -35.5t-6.5 -36.5q0 -30 20.5 -44.5t72.5 -14.5q80 0 117.5 24zM178 558l-23 29l155 135l92 -36v-21z" />
    <glyph glyph-name="Aringacute" unicode="&#x1fa;" horiz-adv-x="594" 
d="M0 0zM138 62l70 -21v-41h-215v40l72 23l188 550l71 13l202 -563l72 -22v-41h-257v41l63 19l-31 93h-205zM267 447l-82 -243h169zM216 655q-28 26 -28 68q0 43 28 70t80 27q53 0 81.5 -27t28.5 -70q0 -42 -28.5 -68t-81.5 -26q-52 0 -80 26zM331.5 685.5
q8.5 13.5 8.5 37.5q0 25 -8.5 39.5t-35.5 14.5q-26 0 -34.5 -14.5t-8.5 -39.5q0 -24 8.5 -37.5t34.5 -13.5q27 0 35.5 13.5zM258 820l-23 29l155 131l92 -32v-22z" />
    <glyph glyph-name="aringacute" unicode="&#x1fb;" horiz-adv-x="514" 
d="M36 0zM151 420l-23 -84h-49l-17 128q97 37 201 37q78 0 118 -26t40 -93v-308l82 -24v-38q-64 -17 -108 -17q-31 0 -56 14t-32 40q-41 -29 -78 -44t-79 -15q-53 0 -83.5 34.5t-30.5 88.5q0 48 28.5 88.5t99.5 54.5l140 27v75q0 40 -16 57.5t-56 17.5q-42 0 -81 -13z
M170.5 183q-17.5 -22 -17.5 -56q0 -63 59 -63q21 0 47 9.5t45 21.5v135l-75 -16q-41 -9 -58.5 -31zM174 534q-28 26 -28 68q0 43 28 70t80 27q53 0 81.5 -27t28.5 -70q0 -42 -28.5 -68t-81.5 -26q-52 0 -80 26zM289.5 564.5q8.5 13.5 8.5 37.5q0 25 -8.5 39.5t-35.5 14.5
q-26 0 -34.5 -14.5t-8.5 -39.5q0 -24 8.5 -37.5t34.5 -13.5q27 0 35.5 13.5zM216 699l-23 29l155 131l92 -32v-22z" />
    <glyph glyph-name="AEacute" unicode="&#x1fc;" horiz-adv-x="712" 
d="M0 0zM-39 0v40l72 23l260 493l-66 16v41h416v-141h-50l-22 79h-142l17 -237h82l19 66h47v-188h-47l-21 69h-77l14 -196h144l26 92h50v-157h-420v41l87 22l-14 194h-129l-100 -194l69 -22v-41h-215zM234 310h98l-11 168zM315 640l-23 29l155 131l92 -32v-22z" />
    <glyph glyph-name="aeacute" unicode="&#x1fd;" horiz-adv-x="717" 
d="M29 0zM59 23.5q-30 33.5 -30 81.5q0 49 34.5 86t106.5 50l120 22v95q0 40 -15.5 57.5t-54.5 17.5t-76 -13l-22 -84h-50l-17 128q95 37 195 37q91 0 127 -51q53 51 134 51q82 0 132 -46.5t50 -142.5q0 -21 -2 -30l-286 -51q0 -94 29.5 -134t101.5 -40q57 0 140 23l8 -39
q-75 -51 -180 -51q-66 0 -106 20t-67 56q-46 -37 -89 -56.5t-97 -19.5q-56 0 -86 33.5zM574 316q0 61 -14.5 92t-54.5 31q-51 0 -73 -39.5t-25 -117.5zM248.5 72q22.5 9 41.5 24v114l-68 -12q-42 -8 -59.5 -25t-17.5 -46q0 -31 15.5 -47.5t43.5 -16.5q22 0 44.5 9zM279 558
l-23 29l155 135l92 -36v-21z" />
    <glyph glyph-name="Oslashacute" unicode="&#x1fe;" horiz-adv-x="661" 
d="M34 0zM183 23q-75 37 -112 112.5t-37 174.5q0 140 73.5 228.5t224.5 88.5q35 0 70 -5l32 86h76l-39 -107q80 -35 118 -112t38 -179q0 -142 -72 -230.5t-223 -88.5q-41 0 -83 8l-34 -94h-74zM380 562q-26 8 -54 8q-96 0 -131 -77t-35 -183q0 -139 55 -204zM467 125.5
q35 76.5 35 184.5q0 62 -14 117.5t-48 91.5l-168 -459q25 -11 64 -11q96 0 131 76.5zM227 640l-23 29l155 131l92 -32v-22z" />
    <glyph glyph-name="oslashacute" unicode="&#x1ff;" 
d="M31 0zM161 11q-66 28 -98 89.5t-32 143.5q0 116 58.5 186.5t181.5 70.5q24 0 47 -3l29 91h67l-35 -106q70 -27 103 -90t33 -149q0 -113 -60 -183.5t-184 -70.5q-20 0 -52 4l-28 -87h-64zM299 438q-13 3 -30 3q-63 0 -87.5 -51t-24.5 -144q0 -103 31 -150zM364 102
q24 51 24 144q0 110 -36 155l-112 -345q14 -5 35 -5q65 0 89 51zM194 558l-23 29l155 135l92 -36v-21z" />
    <glyph glyph-name="uni0200" unicode="&#x200;" horiz-adv-x="594" 
d="M0 0zM138 62l70 -21v-41h-215v40l72 23l188 550l71 13l202 -563l72 -22v-41h-257v41l63 19l-31 93h-205zM267 447l-82 -243h169zM217 638l-144 151v20h86l86 -150zM378 638l-144 151v20h86l86 -150z" />
    <glyph glyph-name="uni0201" unicode="&#x201;" horiz-adv-x="514" 
d="M36 0zM151 420l-23 -84h-49l-17 128q97 37 201 37q78 0 118 -26t40 -93v-308l82 -24v-38q-64 -17 -108 -17q-31 0 -56 14t-32 40q-41 -29 -78 -44t-79 -15q-53 0 -83.5 34.5t-30.5 88.5q0 48 28.5 88.5t99.5 54.5l140 27v75q0 40 -16 57.5t-56 17.5q-42 0 -81 -13z
M170.5 183q-17.5 -22 -17.5 -56q0 -63 59 -63q21 0 47 9.5t45 21.5v135l-75 -16q-41 -9 -58.5 -31zM191 549l-151 158v21h86l92 -160zM352 549l-151 158v21h86l92 -160z" />
    <glyph glyph-name="uni0202" unicode="&#x202;" horiz-adv-x="594" 
d="M0 0zM138 62l70 -21v-41h-215v40l72 23l188 550l71 13l202 -563l72 -22v-41h-257v41l63 19l-31 93h-205zM267 447l-82 -243h169zM391 759q25 -35 25 -93l-50 -2q0 26 -15.5 43.5t-54.5 17.5q-72 0 -72 -61l-48 2q0 128 122 128q68 0 93 -35z" />
    <glyph glyph-name="uni0203" unicode="&#x203;" horiz-adv-x="514" 
d="M36 0zM151 420l-23 -84h-49l-17 128q97 37 201 37q78 0 118 -26t40 -93v-308l82 -24v-38q-64 -17 -108 -17q-31 0 -56 14t-32 40q-41 -29 -78 -44t-79 -15q-53 0 -83.5 34.5t-30.5 88.5q0 48 28.5 88.5t99.5 54.5l140 27v75q0 40 -16 57.5t-56 17.5q-42 0 -81 -13z
M170.5 183q-17.5 -22 -17.5 -56q0 -63 59 -63q21 0 47 9.5t45 21.5v135l-75 -16q-41 -9 -58.5 -31zM350 680.5q24 -34.5 24 -93.5l-49 -2q0 62 -67 62q-75 0 -75 -62l-49 2q0 128 124 128q68 0 92 -34.5z" />
    <glyph glyph-name="uni0204" unicode="&#x204;" 
d="M36 0zM380 394h47v-188h-47l-21 69h-117v-210h193l26 92h50v-157h-474v41l88 22v487l-89 22v41h453v-141h-50l-21 79h-176v-223h119zM193 638l-144 151v20h86l86 -150zM354 638l-144 151v20h86l86 -150z" />
    <glyph glyph-name="uni0205" unicode="&#x205;" horiz-adv-x="478" 
d="M24 0zM85 58q-55 68 -55 186q0 133 60.5 195t163.5 62q102 0 149 -46t47 -144q0 -34 -3 -61h-291v-27q0 -87 35.5 -126.5t103.5 -39.5q60 0 142 23l8 -39q-76 -51 -181 -51q-124 0 -179 68zM330 308v22q0 54 -15.5 81.5t-55.5 27.5q-55 0 -76.5 -33.5t-24.5 -107.5z
M175 549l-151 158v21h86l92 -160zM336 549l-151 158v21h86l92 -160z" />
    <glyph glyph-name="uni0206" unicode="&#x206;" 
d="M36 0zM380 394h47v-188h-47l-21 69h-117v-210h193l26 92h50v-157h-474v41l88 22v487l-89 22v41h453v-141h-50l-21 79h-176v-223h119zM367 759q25 -35 25 -93l-50 -2q0 26 -15.5 43.5t-54.5 17.5q-72 0 -72 -61l-48 2q0 128 122 128q68 0 93 -35z" />
    <glyph glyph-name="uni0207" unicode="&#x207;" horiz-adv-x="478" 
d="M30 0zM85 58q-55 68 -55 186q0 133 60.5 195t163.5 62q102 0 149 -46t47 -144q0 -34 -3 -61h-291v-27q0 -87 35.5 -126.5t103.5 -39.5q60 0 142 23l8 -39q-76 -51 -181 -51q-124 0 -179 68zM330 308v22q0 54 -15.5 81.5t-55.5 27.5q-55 0 -76.5 -33.5t-24.5 -107.5z
M334 680.5q24 -34.5 24 -93.5l-49 -2q0 62 -67 62q-75 0 -75 -62l-49 2q0 128 124 128q68 0 92 -34.5z" />
    <glyph glyph-name="uni0208" unicode="&#x208;" horiz-adv-x="363" 
d="M0 0zM37 0v41l86 22v487l-87 22v41h291v-41l-87 -22v-487l87 -22v-41h-290zM102 638l-144 151v20h86l86 -150zM263 638l-144 151v20h86l86 -150z" />
    <glyph glyph-name="uni0209" unicode="&#x209;" horiz-adv-x="324" 
d="M0 0zM307 44v-44h-280v44l82 20v349l-82 11v39l161 38h38v-437zM98 549l-151 158v21h86l92 -160zM259 549l-151 158v21h86l92 -160z" />
    <glyph glyph-name="uni020A" unicode="&#x20a;" horiz-adv-x="363" 
d="M36 0zM37 0v41l86 22v487l-87 22v41h291v-41l-87 -22v-487l87 -22v-41h-290zM276 759q25 -35 25 -93l-50 -2q0 26 -15.5 43.5t-54.5 17.5q-72 0 -72 -61l-48 2q0 128 122 128q68 0 93 -35z" />
    <glyph glyph-name="uni020B" unicode="&#x20b;" horiz-adv-x="324" 
d="M27 0zM307 44v-44h-280v44l82 20v349l-82 11v39l161 38h38v-437zM257 680.5q24 -34.5 24 -93.5l-49 -2q0 62 -67 62q-75 0 -75 -62l-49 2q0 128 124 128q68 0 92 -34.5z" />
    <glyph glyph-name="uni020C" unicode="&#x20c;" horiz-adv-x="661" 
d="M34 0zM555.5 539q71.5 -88 71.5 -229q0 -142 -72 -230.5t-223 -88.5q-101 0 -168 42t-98.5 114t-31.5 163q0 140 73.5 228.5t224.5 88.5q152 0 223.5 -88zM464 489q-38 76 -138 76q-95 0 -130.5 -75.5t-35.5 -179.5q0 -106 38 -181t138 -75q96 0 131 75.5t35 180.5
q0 103 -38 179zM251 638l-144 151v20h86l86 -150zM412 638l-144 151v20h86l86 -150z" />
    <glyph glyph-name="uni020D" unicode="&#x20d;" 
d="M31 0zM456 430.5q59 -70.5 59 -186.5q0 -113 -60 -183.5t-184 -70.5q-121 0 -180.5 71t-59.5 183q0 116 58.5 186.5t181.5 70.5q126 0 185 -70.5zM362 390q-26 51 -93 51q-63 0 -87.5 -51t-24.5 -144q0 -92 26 -143.5t92 -51.5q65 0 89 51t24 144t-26 144zM209 549
l-151 158v21h86l92 -160zM370 549l-151 158v21h86l92 -160z" />
    <glyph glyph-name="uni020E" unicode="&#x20e;" horiz-adv-x="661" 
d="M34 0zM555.5 539q71.5 -88 71.5 -229q0 -142 -72 -230.5t-223 -88.5q-101 0 -168 42t-98.5 114t-31.5 163q0 140 73.5 228.5t224.5 88.5q152 0 223.5 -88zM464 489q-38 76 -138 76q-95 0 -130.5 -75.5t-35.5 -179.5q0 -106 38 -181t138 -75q96 0 131 75.5t35 180.5
q0 103 -38 179zM425 759q25 -35 25 -93l-50 -2q0 26 -15.5 43.5t-54.5 17.5q-72 0 -72 -61l-48 2q0 128 122 128q68 0 93 -35z" />
    <glyph glyph-name="uni020F" unicode="&#x20f;" 
d="M31 0zM456 430.5q59 -70.5 59 -186.5q0 -113 -60 -183.5t-184 -70.5q-121 0 -180.5 71t-59.5 183q0 116 58.5 186.5t181.5 70.5q126 0 185 -70.5zM362 390q-26 51 -93 51q-63 0 -87.5 -51t-24.5 -144q0 -92 26 -143.5t92 -51.5q65 0 89 51t24 144t-26 144zM368 680.5
q24 -34.5 24 -93.5l-49 -2q0 62 -67 62q-75 0 -75 -62l-49 2q0 128 124 128q68 0 92 -34.5z" />
    <glyph glyph-name="uni0210" unicode="&#x210;" horiz-adv-x="584" 
d="M37 0zM345 195.5q-22 48.5 -36 62.5t-38 14h-29v-209l80 -22v-41h-285v41l88 22v487l-88 22v41h269q112 0 166 -41.5t54 -109.5q0 -62 -36.5 -105.5t-106.5 -62.5q25 -8 39 -20.5t26 -35t37 -79.5l44 -96l68 -22v-41h-171q-59 147 -81 195.5zM375.5 356.5
q30.5 34.5 30.5 92.5q0 53 -29.5 81.5t-81.5 28.5q-25 0 -53 -8v-229h47q56 0 86.5 34.5zM212 638l-144 151v20h86l86 -150zM373 638l-144 151v20h86l86 -150z" />
    <glyph glyph-name="uni0211" unicode="&#x211;" horiz-adv-x="417" 
d="M0 0zM225 407v-343l115 -21v-43h-314v42l82 22v348l-82 12v39l156 38h42v-46q34 22 75 35.5t76 13.5q21 0 28 -1l-18 -167h-59l-21 88q-44 0 -80 -17zM145 549l-151 158v21h86l92 -160zM306 549l-151 158v21h86l92 -160z" />
    <glyph glyph-name="uni0212" unicode="&#x212;" horiz-adv-x="584" 
d="M37 0zM345 195.5q-22 48.5 -36 62.5t-38 14h-29v-209l80 -22v-41h-285v41l88 22v487l-88 22v41h269q112 0 166 -41.5t54 -109.5q0 -62 -36.5 -105.5t-106.5 -62.5q25 -8 39 -20.5t26 -35t37 -79.5l44 -96l68 -22v-41h-171q-59 147 -81 195.5zM375.5 356.5
q30.5 34.5 30.5 92.5q0 53 -29.5 81.5t-81.5 28.5q-25 0 -53 -8v-229h47q56 0 86.5 34.5zM386 759q25 -35 25 -93l-50 -2q0 26 -15.5 43.5t-54.5 17.5q-72 0 -72 -61l-48 2q0 128 122 128q68 0 93 -35z" />
    <glyph glyph-name="uni0213" unicode="&#x213;" horiz-adv-x="417" 
d="M26 0zM225 407v-343l115 -21v-43h-314v42l82 22v348l-82 12v39l156 38h42v-46q34 22 75 35.5t76 13.5q21 0 28 -1l-18 -167h-59l-21 88q-44 0 -80 -17zM304 680.5q24 -34.5 24 -93.5l-49 -2q0 62 -67 62q-75 0 -75 -62l-49 2q0 128 124 128q68 0 92 -34.5z" />
    <glyph glyph-name="uni0214" unicode="&#x214;" horiz-adv-x="658" 
d="M7 0zM516.5 68.5q-49.5 -77.5 -182.5 -77.5q-97 0 -150 36t-71.5 95.5t-18.5 142.5v285l-87 22v41h291v-41l-87 -22v-285q0 -67 10 -111.5t40 -71.5t87 -27q77 0 113.5 50.5t36.5 136.5v309l-86 21v41h238v-41l-84 -21v-315q0 -90 -49.5 -167.5zM249 638l-144 151v20h86
l86 -150zM410 638l-144 151v20h86l86 -150z" />
    <glyph glyph-name="uni0215" unicode="&#x215;" horiz-adv-x="612" 
d="M15 0zM481 -5q-31 0 -57 15t-31 40q-36 -25 -83 -42.5t-90 -17.5q-65 0 -94 33t-29 83v307l-82 11v39l162 38h37v-368q0 -35 15 -51.5t54 -16.5q22 0 52.5 9.5t53.5 22.5v316l-82 11v39l161 38h38v-427l83 -24v-38q-64 -17 -108 -17zM242 549l-151 158v21h86l92 -160z
M403 549l-151 158v21h86l92 -160z" />
    <glyph glyph-name="uni0216" unicode="&#x216;" horiz-adv-x="658" 
d="M7 0zM516.5 68.5q-49.5 -77.5 -182.5 -77.5q-97 0 -150 36t-71.5 95.5t-18.5 142.5v285l-87 22v41h291v-41l-87 -22v-285q0 -67 10 -111.5t40 -71.5t87 -27q77 0 113.5 50.5t36.5 136.5v309l-86 21v41h238v-41l-84 -21v-315q0 -90 -49.5 -167.5zM423 759q25 -35 25 -93
l-50 -2q0 26 -15.5 43.5t-54.5 17.5q-72 0 -72 -61l-48 2q0 128 122 128q68 0 93 -35z" />
    <glyph glyph-name="uni0217" unicode="&#x217;" horiz-adv-x="612" 
d="M15 0zM481 -5q-31 0 -57 15t-31 40q-36 -25 -83 -42.5t-90 -17.5q-65 0 -94 33t-29 83v307l-82 11v39l162 38h37v-368q0 -35 15 -51.5t54 -16.5q22 0 52.5 9.5t53.5 22.5v316l-82 11v39l161 38h38v-427l83 -24v-38q-64 -17 -108 -17zM401 680.5q24 -34.5 24 -93.5l-49 -2
q0 62 -67 62q-75 0 -75 -62l-49 2q0 128 124 128q68 0 92 -34.5z" />
    <glyph glyph-name="Scommaaccent" unicode="&#x218;" horiz-adv-x="474" 
d="M121 -2q-49 8 -88 23l14 135h50l17 -87q55 -15 100 -15q56 0 88.5 23t32.5 63q0 37 -20 60t-67 43l-98 41q-46 19 -76 59.5t-30 105.5q0 85 54.5 132t153.5 47q84 0 170 -27l-10 -140h-48l-22 93q-12 4 -37.5 7.5t-42.5 3.5q-53 0 -85 -21.5t-32 -66.5q0 -37 22.5 -60.5
t67.5 -42.5l97 -40q58 -23 84.5 -62t26.5 -99q0 -85 -59 -134t-171 -49q-43 0 -92 8zM180 -226l11 182l84 19l20 -21l-74 -185z" />
    <glyph glyph-name="scommaaccent" unicode="&#x219;" horiz-adv-x="445" 
d="M169.5 424q-23.5 -16 -23.5 -44q0 -25 12.5 -40t43.5 -25l99 -33q56 -18 80 -49.5t24 -87.5q0 -72 -52 -113.5t-148 -41.5q-37 0 -81.5 6.5t-78.5 18.5l13 131h48l21 -83q38 -12 78 -12q48 0 74 18t26 53q0 23 -14 35.5t-51 25.5l-93 32q-50 18 -74.5 50t-24.5 84
q0 72 47 112t141 40q79 0 149 -30l-14 -119h-47l-21 74q-32 14 -69 14q-41 0 -64.5 -16zM207 -231l-40 5l10 182l83 19l21 -21z" />
    <glyph glyph-name="uni021A" unicode="&#x21a;" horiz-adv-x="530" 
d="M115 0v41l92 22v488h-124l-19 -90h-49l-7 152h514l-6 -152h-50l-20 90h-122v-488l92 -22v-41h-301zM209 -226l11 182l83 19l21 -21l-74 -185z" />
    <glyph glyph-name="uni021B" unicode="&#x21b;" horiz-adv-x="350" 
d="M111.5 13q-18.5 22 -18.5 57v357h-72v43l82 33l53 100h53v-111h131v-72l-131 8v-352l117 -22v-42q-30 -9 -75 -15t-72 -6q-49 0 -67.5 22zM135 -226l11 182l83 19l21 -21l-75 -185z" />
    <glyph glyph-name="uni0232" unicode="&#x232;" horiz-adv-x="572" 
d="M10 0zM360 571v42h215v-40l-71 -23l-151 -305v-182l93 -22v-41h-301v41l92 22v182l-157 305l-70 22v41h263v-42l-65 -21l112 -222l111 223zM170 755h233v-70h-233v70z" />
    <glyph glyph-name="uni0233" unicode="&#x233;" horiz-adv-x="496" 
d="M0 0zM220 455l-50 -24l104 -275l91 273l-68 17v46h209v-44l-63 -19l-143 -395q-36 -102 -78 -152t-105 -50q-45 0 -104 27l7 41h57q50 0 81 31t57 93l-170 407l-53 24v37h228v-37zM131 677h233v-70h-233v70z" />
    <glyph glyph-name="uni0237" unicode="&#x237;" horiz-adv-x="319" 
d="M191 501h38v-445q0 -119 -39.5 -171.5t-100.5 -52.5q-17 0 -45 7t-55 20l6 42h45q36 0 54 24.5t18 55.5v432l-82 11v39z" />
    <glyph glyph-name="uni0259" unicode="&#x259;" horiz-adv-x="478" 
d="M393 434q55 -68 55 -186q0 -133 -60.5 -195t-163.5 -62q-102 0 -149 46t-47 144q0 34 3 61h291v27q0 87 -35.5 126.5t-103.5 39.5q-60 0 -142 -23l-8 39q76 51 181 51q124 0 179 -68zM148 184v-22q0 -54 15.5 -81.5t55.5 -27.5q55 0 76.5 33.5t24.5 107.5z" />
    <glyph glyph-name="uni0272" unicode="&#x272;" horiz-adv-x="628" 
d="M613 39v-39h-268v39l68 25v303q0 26 -6.5 39t-23.5 17.5t-50 4.5q-56 0 -107 -14v-358q0 -119 -39.5 -171.5t-100.5 -52.5q-17 0 -45 7t-55 20l6 42h45q36 0 54 24.5t18 55.5v433l-82 10v40l161 37h38v-40q28 13 81 26.5t96 13.5q56 0 91.5 -25t35.5 -80v-332z" />
    <glyph glyph-name="uni02B0" unicode="&#x2b0;" horiz-adv-x="474" 
d="M459 314v-35h-203v35l44 19v218q0 26 -10.5 35t-41.5 9q-52 0 -75 -10v-252l45 -19v-35h-202v35l57 19v426l-57 8v30l124 29h33v-201q21 10 63.5 19.5t72.5 9.5q40 0 65.5 -18.5t25.5 -59.5v-243z" />
    <glyph glyph-name="uni02BC" unicode="&#x2bc;" horiz-adv-x="255" 
d="M113 523l-37 223h39l64 -22l-32 -201h-34z" />
    <glyph glyph-name="circumflex" unicode="&#x2c6;" horiz-adv-x="255" 
d="M242 557l-115 86l-113 -86l-31 25l106 141h76l106 -141z" />
    <glyph glyph-name="caron" unicode="&#x2c7;" horiz-adv-x="255" 
d="M14 726l113 -83l115 83l29 -22l-105 -141h-77l-106 141z" />
    <glyph glyph-name="uni02C9" unicode="&#x2c9;" horiz-adv-x="255" 
d="M11 666h233v-69h-233v69z" />
    <glyph glyph-name="breve" unicode="&#x2d8;" horiz-adv-x="255" 
d="M31.5 609.5q-24.5 34.5 -24.5 93.5l49 2q0 -61 68 -61q75 0 75 61l48 -2q0 -128 -124 -128q-67 0 -91.5 34.5z" />
    <glyph glyph-name="dotaccent" unicode="&#x2d9;" horiz-adv-x="255" 
d="M180.5 592q-22.5 -21 -52.5 -21q-31 0 -54 21t-23 51t23.5 53t53.5 23t52.5 -22.5t22.5 -53.5q0 -30 -22.5 -51z" />
    <glyph glyph-name="ring" unicode="&#x2da;" horiz-adv-x="255" 
d="M209.5 564.5q-28.5 -28.5 -82.5 -28.5q-53 0 -81.5 29t-28.5 74q0 46 28.5 75.5t81.5 29.5q54 0 82.5 -29.5t28.5 -75.5t-28.5 -74.5zM93.5 682q-8.5 -15 -8.5 -43q0 -29 8 -43t34 -14t34.5 14.5t8.5 42.5t-9 43t-34 15t-33.5 -15z" />
    <glyph glyph-name="ogonek" unicode="&#x2db;" horiz-adv-x="255" 
d="M120.5 -60q-16.5 -37 -16.5 -68q0 -50 47 -50q31 0 57 22l21 -20q0 -2 -13 -17t-36.5 -28t-55.5 -13q-51 0 -75 25t-24 61q0 32 23 71.5t69 76.5h41q-21 -23 -37.5 -60z" />
    <glyph glyph-name="tilde" unicode="&#x2dc;" horiz-adv-x="255" 
d="M253 609.5q-20 -26.5 -43 -26.5q-24 0 -90 20q-21 7 -42 12.5t-32 5.5q-10 0 -19.5 -7.5t-15.5 -15t-7 -10.5l-41 17q42 100 83 100q23 0 87 -20q22 -7 43.5 -12.5t33.5 -5.5q11 0 20 7t15 15t7 10l40 -16q-19 -47 -39 -73.5z" />
    <glyph glyph-name="hungarumlaut" unicode="&#x2dd;" horiz-adv-x="255" 
d="M-15 549l-27 19l91 160h87v-21zM146 549l-27 19l91 160h87v-21z" />
    <glyph glyph-name="uni02E1" unicode="&#x2e1;" horiz-adv-x="246" 
d="M230 314v-35h-214v35l57 19v426l-57 8v30l124 29h33v-493z" />
    <glyph glyph-name="uni02E2" unicode="&#x2e2;" horiz-adv-x="350" 
d="M137.5 591.5q-14.5 -11.5 -14.5 -32.5q0 -15 8.5 -24.5t27.5 -16.5l73 -28q41 -15 60 -38t19 -66q0 -50 -40 -83t-111 -33q-28 0 -61.5 5.5t-58.5 15.5l10 101h38l17 -61q23 -9 56 -9q32 0 48 9.5t16 34.5q0 16 -9.5 26t-32.5 18l-72 28q-36 13 -53 37t-17 68
q0 52 34 81.5t106 29.5q63 0 112 -20l-10 -97h-41l-16 56q-17 10 -46 10q-28 0 -42.5 -11.5z" />
    <glyph glyph-name="gravecomb" unicode="&#x300;" horiz-adv-x="0" 
d="M-24 640l-227 106l3 22l90 32l154 -131z" />
    <glyph glyph-name="acutecomb" unicode="&#x301;" horiz-adv-x="0" 
d="M-228 640l-23 29l155 131l92 -32v-22z" />
    <glyph glyph-name="uni0302" unicode="&#x302;" horiz-adv-x="0" 
d="M-5 644l-124 79l-121 -79l-23 22l107 134h76l107 -134z" />
    <glyph glyph-name="tildecomb" unicode="&#x303;" horiz-adv-x="0" 
d="M-2 690.5q-20 -26.5 -43 -26.5q-24 0 -90 20q-21 7 -42 12.5t-32 5.5q-10 0 -19.5 -7.5t-15.5 -15t-7 -10.5l-41 17q16 45 37.5 72.5t45.5 27.5q23 0 87 -20q22 -7 43.5 -12.5t33.5 -5.5q11 0 20 7.5t15 15t7 10.5l40 -17q-19 -47 -39 -73.5z" />
    <glyph glyph-name="uni0304" unicode="&#x304;" horiz-adv-x="0" 
d="M-244 755h233v-70h-233v70z" />
    <glyph glyph-name="uni0306" unicode="&#x306;" horiz-adv-x="0" 
d="M-222.5 690.5q-25.5 34.5 -25.5 93.5l51 2q0 -26 15.5 -44t53.5 -18q40 0 56 18t16 44l48 -2q0 -58 -26.5 -93t-95.5 -35q-67 0 -92.5 34.5z" />
    <glyph glyph-name="uni0307" unicode="&#x307;" horiz-adv-x="0" 
d="M-74.5 667q-22.5 -21 -52.5 -21t-53.5 21t-23.5 51t23.5 53t53.5 23t52.5 -22.5t22.5 -53.5q0 -30 -22.5 -51z" />
    <glyph glyph-name="uni0308" unicode="&#x308;" horiz-adv-x="0" 
d="M-187 673q-20 -19 -48 -19q-29 0 -50 19t-21 47t21 48t50 20q27 0 47.5 -20t20.5 -48t-20 -47zM31 673q-20 -19 -48 -19t-49 19t-21 47t21 48t49 20q27 0 47.5 -20t20.5 -48t-20 -47z" />
    <glyph glyph-name="hookabovecomb" unicode="&#x309;" horiz-adv-x="0" 
d="M-110 573l-6 -24h-48l-4 42q63 0 63 31q0 11 -9.5 17.5t-27.5 6.5q-6 0 -26 -2l-7 -29h-37l-6 53q50 10 84 10q45 0 70.5 -14t25.5 -39q0 -42 -72 -52z" />
    <glyph glyph-name="uni030A" unicode="&#x30a;" horiz-adv-x="0" 
d="M-208 655q-28 26 -28 68q0 43 28 70t80 27q53 0 81.5 -27t28.5 -70q0 -42 -28.5 -68t-81.5 -26q-52 0 -80 26zM-92.5 685.5q8.5 13.5 8.5 37.5q0 25 -8.5 39.5t-35.5 14.5q-26 0 -34.5 -14.5t-8.5 -39.5q0 -24 8.5 -37.5t34.5 -13.5q27 0 35.5 13.5z" />
    <glyph glyph-name="uni030B" unicode="&#x30b;" horiz-adv-x="0" 
d="M0 638zM-266 638l-28 21l86 150h86v-20zM-105 638l-28 21l86 150h86v-20z" />
    <glyph glyph-name="uni030C" unicode="&#x30c;" horiz-adv-x="0" 
d="M-165 644l-108 133l23 23l123 -79l122 79l22 -23l-106 -133h-76z" />
    <glyph glyph-name="uni030F" unicode="&#x30f;" horiz-adv-x="0" 
d="M-146 549l-151 158v21h86l92 -160zM15 549l-151 158v21h86l92 -160z" />
    <glyph glyph-name="uni0311" unicode="&#x311;" horiz-adv-x="0" 
d="M-32 680.5q24 -34.5 24 -93.5l-49 -2q0 62 -67 62q-75 0 -75 -62l-49 2q0 128 124 128q68 0 92 -34.5z" />
    <glyph glyph-name="uni031B" unicode="&#x31b;" horiz-adv-x="0" 
d="M-90 544q6 -13 9.5 -29t3.5 -28q0 -34 -26 -60t-67 -39.5t-85 -13.5h-14v49h40q29 0 44.5 11t15.5 42q0 19 -5 41l6 13z" />
    <glyph glyph-name="dotbelowcomb" unicode="&#x323;" horiz-adv-x="0" 
d="M-74.5 -170q-22.5 -21 -52.5 -21q-31 0 -54 21t-23 51t23.5 53t53.5 23t52.5 -22.5t22.5 -53.5q0 -30 -22.5 -51z" />
    <glyph glyph-name="uni0326" unicode="&#x326;" horiz-adv-x="0" 
d="M-145 -231l-40 5l10 182l83 19l21 -21z" />
    <glyph glyph-name="uni0327" unicode="&#x327;" horiz-adv-x="0" 
d="M-33 0zM-59 -66q26 -20 26 -51q0 -28 -19 -51.5t-50.5 -37.5t-66.5 -14q-29 0 -53 10l8 35q14 -7 30 -7q30 0 47.5 16t17.5 37q0 18 -15 30t-47 13l-6 15l28 77h40l-16 -52q50 0 76 -20z" />
    <glyph glyph-name="uni0328" unicode="&#x328;" horiz-adv-x="0" 
d="M-26 0zM-134.5 -60q-16.5 -37 -16.5 -68q0 -50 47 -50q31 0 57 22l21 -20q0 -2 -13 -17t-36.5 -28t-55.5 -13q-51 0 -75 25t-24 61q0 32 23 71.5t69 76.5h41q-21 -23 -37.5 -60z" />
    <glyph glyph-name="uni0394" unicode="&#x394;" horiz-adv-x="553" 
d="M32 0zM32 0l220 611h71l217 -573v-38h-508zM123 56h287v20l-142 400z" />
    <glyph glyph-name="uni03A9" unicode="&#x3a9;" horiz-adv-x="739" 
d="M33 0zM652 77l21 75h44v-152h-268v51q46 46 72 105t26 162q0 96 -39 171.5t-136 75.5q-168 0 -168 -254q0 -87 27 -149.5t72 -110.5v-51h-270v152h46l20 -75h46l75 -5q-59 31 -100.5 93.5t-41.5 157.5q0 89 34.5 157.5t103 107.5t164.5 39q101 0 166.5 -40.5t95.5 -107.5
t30 -149q0 -45 -18.5 -97t-51 -95.5t-72.5 -63.5l75 3h47z" />
    <glyph glyph-name="uni03BC" unicode="&#x3bc;" horiz-adv-x="588" 
d="M11 0zM446 -4q-29 0 -53 13.5t-30 37.5q-26 -25 -58 -41t-66 -16q-43 0 -70 21l24 -218h-105v600l-77 9v36l156 34h35v-344q0 -35 12 -50.5t46 -15.5q48 0 100 31v300l-68 9v36l145 34h38v-401l77 -24v-36q-59 -15 -106 -15z" />
    <glyph glyph-name="pi" unicode="&#x3c0;" horiz-adv-x="639" 
d="M134.5 -1.5q-21.5 3.5 -56.5 13.5v38l80 24v340h-8q-38 0 -55.5 -10t-33.5 -40l-44 11q0 60 30.5 98t87.5 38h371q25 0 37.5 13t12.5 42h57v-16q0 -71 -21.5 -103.5t-67.5 -32.5h-30v-272q0 -80 74 -80h45l6 -42q-27 -13 -55 -19.5t-46 -6.5q-43 0 -68.5 11.5t-39 47.5
t-13.5 107v254h-146v-331q0 -44 -15 -66t-56 -22q-24 0 -45.5 3.5z" />
    <glyph glyph-name="uni1E0C" unicode="&#x1e0c;" horiz-adv-x="649" 
d="M36 0zM541 535q75 -78 75 -216q0 -142 -72 -230.5t-220 -88.5h-287v41l86 22v487l-87 22v41h270q160 0 235 -78zM240 550v-485q46 -14 91 -14q161 0 161 268q0 107 -51 172t-139 65q-34 0 -62 -6zM378.5 -170q-22.5 -21 -52.5 -21q-31 0 -54 21t-23 51t23.5 53t53.5 23
t52.5 -22.5t22.5 -53.5q0 -30 -22.5 -51z" />
    <glyph glyph-name="uni1E0D" unicode="&#x1e0d;" horiz-adv-x="563" 
d="M31 0zM200 -10q-55 0 -93 35t-57 92.5t-19 126.5q0 120 57 188.5t160 68.5q26 0 50.5 -5t41.5 -11.5t19 -8.5v165l-83 11v39l161 39h39v-656l81 -24v-38q-61 -17 -109 -17q-30 0 -55 14t-31 38q-78 -57 -162 -57zM314.5 74q28.5 11 44.5 25v314q-17 13 -41.5 20.5
t-48.5 7.5q-55 0 -83.5 -52t-28.5 -143q0 -85 24.5 -134t75.5 -49q29 0 57.5 11zM335.5 -170q-22.5 -21 -52.5 -21q-31 0 -54 21t-23 51t23.5 53t53.5 23t52.5 -22.5t22.5 -53.5q0 -30 -22.5 -51z" />
    <glyph glyph-name="uni1E24" unicode="&#x1e24;" horiz-adv-x="732" 
d="M36 0zM36 0v41l87 22v488l-87 21v41h290v-41l-86 -21v-218h252v218l-87 21v41h290v-41l-86 -21v-488l87 -22v-41h-290v41l86 22v214h-252v-214l86 -22v-41h-290zM419.5 -170q-22.5 -21 -52.5 -21q-31 0 -54 21t-23 51t23.5 53t53.5 23t52.5 -22.5t22.5 -53.5
q0 -30 -22.5 -51z" />
    <glyph glyph-name="uni1E25" unicode="&#x1e25;" horiz-adv-x="621" 
d="M19 0zM337 0v41l68 23v303q0 25 -6 38t-22.5 18t-48.5 5q-65 0 -109 -14v-350l68 -23v-41h-268v44l83 20v577l-82 11v39l161 39h38v-269q31 15 83 27.5t95 12.5q55 0 90.5 -25.5t35.5 -79.5v-332l82 -23v-41h-268zM364.5 -170q-22.5 -21 -52.5 -21q-31 0 -54 21t-23 51
t23.5 53t53.5 23t52.5 -22.5t22.5 -53.5q0 -30 -22.5 -51z" />
    <glyph glyph-name="uni1E44" unicode="&#x1e44;" horiz-adv-x="710" 
d="M35 0zM455 613h236v-41l-84 -21v-551l-94 -10l-329 477v-404l85 -22v-41h-233v41l83 22v488l-84 21v41h186l319 -461v399l-85 21v41zM408.5 667q-22.5 -21 -52.5 -21t-53.5 21t-23.5 51t23.5 53t53.5 23t52.5 -22.5t22.5 -53.5q0 -30 -22.5 -51z" />
    <glyph glyph-name="uni1E45" unicode="&#x1e45;" horiz-adv-x="628" 
d="M27 0zM307 487.5q53 13.5 96 13.5q56 0 91.5 -25t35.5 -80v-332l83 -25v-39h-268v39l68 25v303q0 26 -6.5 39t-23.5 17.5t-50 4.5q-56 0 -107 -14v-350l68 -25v-39h-267v39l82 25v350l-82 10v40l161 37h38v-40q28 13 81 26.5zM367.5 592q-22.5 -21 -52.5 -21
q-31 0 -54 21t-23 51t23.5 53t53.5 23t52.5 -22.5t22.5 -53.5q0 -30 -22.5 -51z" />
    <glyph glyph-name="uni1E5A" unicode="&#x1e5a;" horiz-adv-x="584" 
d="M37 0zM345 195.5q-22 48.5 -36 62.5t-38 14h-29v-209l80 -22v-41h-285v41l88 22v487l-88 22v41h269q112 0 166 -41.5t54 -109.5q0 -62 -36.5 -105.5t-106.5 -62.5q25 -8 39 -20.5t26 -35t37 -79.5l44 -96l68 -22v-41h-171q-59 147 -81 195.5zM375.5 356.5
q30.5 34.5 30.5 92.5q0 53 -29.5 81.5t-81.5 28.5q-25 0 -53 -8v-229h47q56 0 86.5 34.5zM345.5 -170q-22.5 -21 -52.5 -21q-31 0 -54 21t-23 51t23.5 53t53.5 23t52.5 -22.5t22.5 -53.5q0 -30 -22.5 -51z" />
    <glyph glyph-name="uni1E5B" unicode="&#x1e5b;" horiz-adv-x="417" 
d="M26 0zM225 407v-343l115 -21v-43h-314v42l82 22v348l-82 12v39l156 38h42v-46q34 22 75 35.5t76 13.5q21 0 28 -1l-18 -167h-59l-21 88q-44 0 -80 -17zM220.5 -170q-22.5 -21 -52.5 -21q-31 0 -54 21t-23 51t23.5 53t53.5 23t52.5 -22.5t22.5 -53.5q0 -30 -22.5 -51z" />
    <glyph glyph-name="uni1E62" unicode="&#x1e62;" horiz-adv-x="474" 
d="M31 0zM96.5 581q54.5 47 154.5 47q83 0 170 -27l-11 -140h-47l-22 93q-13 4 -38 7.5t-43 3.5q-52 0 -84 -21.5t-32 -66.5q0 -37 22.5 -60.5t66.5 -42.5l97 -40q59 -23 85.5 -62t26.5 -99q0 -85 -59 -134t-171 -49q-44 0 -93 8t-88 23l15 135h49l18 -87q52 -15 100 -15
q56 0 88.5 23t32.5 63q0 37 -20 60t-67 43l-99 41q-46 19 -76 59.5t-30 105.5q0 85 54.5 132zM291.5 -170q-22.5 -21 -52.5 -21q-31 0 -54 21t-23 51t23.5 53t53.5 23t52.5 -22.5t22.5 -53.5q0 -30 -22.5 -51z" />
    <glyph glyph-name="uni1E63" unicode="&#x1e63;" horiz-adv-x="440" 
d="M42 0zM166.5 424q-23.5 -16 -23.5 -44q0 -25 12.5 -40t42.5 -25l100 -33q56 -18 80 -49.5t24 -87.5q0 -72 -52.5 -113.5t-147.5 -41.5q-37 0 -82 6.5t-78 18.5l12 131h49l21 -83q36 -12 77 -12q49 0 75 18t26 53q0 23 -14 35.5t-51 25.5l-93 32q-50 18 -74.5 50t-24.5 84
q0 72 47 112t141 40q36 0 75.5 -7.5t73.5 -22.5l-14 -119h-47l-21 74q-31 14 -69 14q-41 0 -64.5 -16zM273.5 -170q-22.5 -21 -52.5 -21q-31 0 -54 21t-23 51t23.5 53t53.5 23t52.5 -22.5t22.5 -53.5q0 -30 -22.5 -51z" />
    <glyph glyph-name="uni1E6C" unicode="&#x1e6c;" horiz-adv-x="530" 
d="M8 0zM8 613h514l-6 -152h-50l-20 90h-122v-488l92 -22v-41h-301v41l92 22v488h-124l-19 -90h-49zM319.5 -170q-22.5 -21 -52.5 -21q-31 0 -54 21t-23 51t23.5 53t53.5 23t52.5 -22.5t22.5 -53.5q0 -30 -22.5 -51z" />
    <glyph glyph-name="uni1E6D" unicode="&#x1e6d;" horiz-adv-x="350" 
d="M17 0zM247 -3q-45 -6 -72 -6q-49 0 -67.5 22t-18.5 57v357h-72v43l82 33l53 100h53v-111h131v-72l-131 8v-352l117 -22v-42q-30 -9 -75 -15zM228.5 -170q-22.5 -21 -52.5 -21q-31 0 -54 21t-23 51t23.5 53t53.5 23t52.5 -22.5t22.5 -53.5q0 -30 -22.5 -51z" />
    <glyph glyph-name="Wgrave" unicode="&#x1e80;" horiz-adv-x="783" 
d="M0 0zM586 613h216v-40l-72 -23l-130 -547l-70 -13l-132 416l-113 -403l-70 -13l-154 560l-71 22v41h257v-41l-62 -20l84 -367l92 361l104 19l112 -388l79 373l-70 22v41zM427 640l-227 106l3 22l90 32l154 -131z" />
    <glyph glyph-name="wgrave" unicode="&#x1e81;" horiz-adv-x="734" 
d="M0 0zM682 429l-138 -434l-79 -9l-97 288l-91 -279l-78 -9l-154 445l-53 17v44h230v-46l-55 -15l89 -295l96 308l73 12l97 -320l83 293l-72 17v46h212v-44zM430 558l-227 107l3 21l90 36l154 -135z" />
    <glyph glyph-name="Wacute" unicode="&#x1e82;" horiz-adv-x="783" 
d="M0 0zM586 613h216v-40l-72 -23l-130 -547l-70 -13l-132 416l-113 -403l-70 -13l-154 560l-71 22v41h257v-41l-62 -20l84 -367l92 361l104 19l112 -388l79 373l-70 22v41zM346 640l-23 29l155 131l92 -32v-22z" />
    <glyph glyph-name="wacute" unicode="&#x1e83;" horiz-adv-x="734" 
d="M0 0zM682 429l-138 -434l-79 -9l-97 288l-91 -279l-78 -9l-154 445l-53 17v44h230v-46l-55 -15l89 -295l96 308l73 12l97 -320l83 293l-72 17v46h212v-44zM288 558l-23 29l155 135l92 -36v-21z" />
    <glyph glyph-name="Wdieresis" unicode="&#x1e84;" horiz-adv-x="783" 
d="M0 0zM586 613h216v-40l-72 -23l-130 -547l-70 -13l-132 416l-113 -403l-70 -13l-154 560l-71 22v41h257v-41l-62 -20l84 -367l92 361l104 19l112 -388l79 373l-70 22v41zM327 673q-20 -19 -48 -19q-29 0 -50 19t-21 47t21 48t50 20q27 0 47.5 -20t20.5 -48t-20 -47z
M545 673q-20 -19 -48 -19t-49 19t-21 47t21 48t49 20q27 0 47.5 -20t20.5 -48t-20 -47z" />
    <glyph glyph-name="wdieresis" unicode="&#x1e85;" horiz-adv-x="734" 
d="M0 0zM682 429l-138 -434l-79 -9l-97 288l-91 -279l-78 -9l-154 445l-53 17v44h230v-46l-55 -15l89 -295l96 308l73 12l97 -320l83 293l-72 17v46h212v-44zM306.5 596.5q-20.5 -19.5 -47.5 -19.5q-29 0 -50 19.5t-21 47.5t21 47.5t50 19.5q27 0 47.5 -20t20.5 -47
q0 -28 -20.5 -47.5zM524.5 596.5q-20.5 -19.5 -47.5 -19.5q-28 0 -49 19.5t-21 47.5q0 27 21 47t49 20q27 0 47.5 -20t20.5 -47q0 -28 -20.5 -47.5z" />
    <glyph glyph-name="uni1E92" unicode="&#x1e92;" horiz-adv-x="506" 
d="M29 0zM473 157l-9 -157h-417l-18 33l313 517h-210l-24 -78h-51l-9 141h424l5 -33l-309 -516h217l38 93h50zM306.5 -170q-22.5 -21 -52.5 -21q-31 0 -54 21t-23 51t23.5 53t53.5 23t52.5 -22.5t22.5 -53.5q0 -30 -22.5 -51z" />
    <glyph glyph-name="uni1E93" unicode="&#x1e93;" horiz-adv-x="473" 
d="M33 0zM297 426h-172l-22 -85h-43l-17 151h380l21 -42l-265 -386h182l35 88h45l-11 -152h-377l-20 42zM290.5 -170q-22.5 -21 -52.5 -21q-31 0 -54 21t-23 51t23.5 53t53.5 23t52.5 -22.5t22.5 -53.5q0 -30 -22.5 -51z" />
    <glyph glyph-name="uni1E9E" unicode="&#x1e9e;" horiz-adv-x="613" 
d="M7 41l86 22v322q0 111 65 176.5t187 65.5q57 0 111.5 -16.5t84.5 -42.5l5 -33l-127 -213q88 -8 130 -51t42 -110q0 -76 -49.5 -123.5t-138.5 -47.5q-35 0 -70.5 8t-62.5 23l14 135h50l17 -90q24 -12 52 -12q36 0 57.5 24.5t21.5 68.5q0 118 -180 118l-18 33l151 245
q-36 18 -92 18q-71 0 -102 -40t-31 -117v-341l25 -21v-42h-228v41z" />
    <glyph glyph-name="uni1EA0" unicode="&#x1ea0;" horiz-adv-x="594" 
d="M0 0zM138 62l70 -21v-41h-215v40l72 23l188 550l71 13l202 -563l72 -22v-41h-257v41l63 19l-31 93h-205zM267 447l-82 -243h169zM350.5 -170q-22.5 -21 -52.5 -21q-31 0 -54 21t-23 51t23.5 53t53.5 23t52.5 -22.5t22.5 -53.5q0 -30 -22.5 -51z" />
    <glyph glyph-name="uni1EA1" unicode="&#x1ea1;" horiz-adv-x="514" 
d="M36 0zM151 420l-23 -84h-49l-17 128q97 37 201 37q78 0 118 -26t40 -93v-308l82 -24v-38q-64 -17 -108 -17q-31 0 -56 14t-32 40q-41 -29 -78 -44t-79 -15q-53 0 -83.5 34.5t-30.5 88.5q0 48 28.5 88.5t99.5 54.5l140 27v75q0 40 -16 57.5t-56 17.5q-42 0 -81 -13z
M170.5 183q-17.5 -22 -17.5 -56q0 -63 59 -63q21 0 47 9.5t45 21.5v135l-75 -16q-41 -9 -58.5 -31zM308.5 -170q-22.5 -21 -52.5 -21q-31 0 -54 21t-23 51t23.5 53t53.5 23t52.5 -22.5t22.5 -53.5q0 -30 -22.5 -51z" />
    <glyph glyph-name="uni1EA2" unicode="&#x1ea2;" horiz-adv-x="594" 
d="M0 0zM138 62l70 -21v-41h-215v40l72 23l188 550l71 13l202 -563l72 -22v-41h-257v41l63 19l-31 93h-205zM267 447l-82 -243h169zM330 694l-6 -24h-48l-4 42q63 0 63 31q0 11 -9.5 17.5t-27.5 6.5q-6 0 -26 -2l-7 -29h-37l-6 53q50 10 84 10q45 0 70.5 -14t25.5 -39
q0 -42 -72 -52z" />
    <glyph glyph-name="uni1EA3" unicode="&#x1ea3;" horiz-adv-x="514" 
d="M36 0zM151 420l-23 -84h-49l-17 128q97 37 201 37q78 0 118 -26t40 -93v-308l82 -24v-38q-64 -17 -108 -17q-31 0 -56 14t-32 40q-41 -29 -78 -44t-79 -15q-53 0 -83.5 34.5t-30.5 88.5q0 48 28.5 88.5t99.5 54.5l140 27v75q0 40 -16 57.5t-56 17.5q-42 0 -81 -13z
M170.5 183q-17.5 -22 -17.5 -56q0 -63 59 -63q21 0 47 9.5t45 21.5v135l-75 -16q-41 -9 -58.5 -31zM288 573l-6 -24h-48l-4 42q63 0 63 31q0 11 -9.5 17.5t-27.5 6.5q-6 0 -26 -2l-7 -29h-37l-6 53q50 10 84 10q45 0 70.5 -14t25.5 -39q0 -42 -72 -52z" />
    <glyph glyph-name="uni1EA4" unicode="&#x1ea4;" horiz-adv-x="594" 
d="M431 693l-30 20l93 182h97l10 -18zM393 644l-124 79l-121 -79l-23 22l107 134h76l107 -134zM138 62l70 -21v-41h-215v40l72 23l188 550l71 13l202 -563l72 -22v-41h-257v41l63 19l-31 93h-205zM267 447l-82 -243h169z" />
    <glyph glyph-name="uni1EA5" unicode="&#x1ea5;" horiz-adv-x="514" 
d="M416 616l-30 19l93 183h97l10 -19zM370 557l-115 86l-113 -86l-31 25l106 141h76l106 -141zM151 420l-23 -84h-49l-17 128q97 37 201 37q78 0 118 -26t40 -93v-308l82 -24v-38q-64 -17 -108 -17q-31 0 -56 14t-32 40q-41 -29 -78 -44t-79 -15q-53 0 -83.5 34.5
t-30.5 88.5q0 48 28.5 88.5t99.5 54.5l140 27v75q0 40 -16 57.5t-56 17.5q-42 0 -81 -13zM170.5 183q-17.5 -22 -17.5 -56q0 -63 59 -63q21 0 47 9.5t45 21.5v135l-75 -16q-41 -9 -58.5 -31z" />
    <glyph glyph-name="uni1EA6" unicode="&#x1ea6;" horiz-adv-x="594" 
d="M462 692l-170 184l10 18h97l93 -182zM393 644l-124 79l-121 -79l-23 22l107 134h76l107 -134zM138 62l70 -21v-41h-215v40l72 23l188 550l71 13l202 -563l72 -22v-41h-257v41l63 19l-31 93h-205zM267 447l-82 -243h169z" />
    <glyph glyph-name="uni1EA7" unicode="&#x1ea7;" horiz-adv-x="514" 
d="M437 616l-170 183l10 19h97l93 -183zM360 557l-115 86l-113 -86l-31 25l106 141h76l106 -141zM151 420l-23 -84h-49l-17 128q97 37 201 37q78 0 118 -26t40 -93v-308l82 -24v-38q-64 -17 -108 -17q-31 0 -56 14t-32 40q-41 -29 -78 -44t-79 -15q-53 0 -83.5 34.5
t-30.5 88.5q0 48 28.5 88.5t99.5 54.5l140 27v75q0 40 -16 57.5t-56 17.5q-42 0 -81 -13zM170.5 183q-17.5 -22 -17.5 -56q0 -63 59 -63q21 0 47 9.5t45 21.5v135l-75 -16q-41 -9 -58.5 -31z" />
    <glyph glyph-name="uni1EA8" unicode="&#x1ea8;" horiz-adv-x="594" 
d="M0 0zM138 62l70 -21v-41h-215v40l72 23l188 550l71 13l202 -563l72 -22v-41h-257v41l63 19l-31 93h-205zM267 447l-82 -243h169zM420 644l-124 79l-121 -79l-23 22l107 134h76l107 -134zM448 790l-6 -24h-48l-4 42q63 0 63 31q0 11 -9.5 17.5t-27.5 6.5q-6 0 -26 -2
l-7 -29h-37l-6 53q50 10 84 10q45 0 70.5 -14t25.5 -39q0 -42 -72 -52z" />
    <glyph glyph-name="uni1EA9" unicode="&#x1ea9;" horiz-adv-x="514" 
d="M36 0zM151 420l-23 -84h-49l-17 128q97 37 201 37q78 0 118 -26t40 -93v-308l82 -24v-38q-64 -17 -108 -17q-31 0 -56 14t-32 40q-41 -29 -78 -44t-79 -15q-53 0 -83.5 34.5t-30.5 88.5q0 48 28.5 88.5t99.5 54.5l140 27v75q0 40 -16 57.5t-56 17.5q-42 0 -81 -13z
M170.5 183q-17.5 -22 -17.5 -56q0 -63 59 -63q21 0 47 9.5t45 21.5v135l-75 -16q-41 -9 -58.5 -31zM370 557l-115 86l-113 -86l-31 25l106 141h76l106 -141zM406 713l-6 -24h-48l-4 42q63 0 63 31q0 11 -9.5 17.5t-27.5 6.5q-6 0 -26 -2l-7 -29h-37l-6 53q50 10 84 10
q45 0 70.5 -14t25.5 -39q0 -42 -72 -52z" />
    <glyph glyph-name="uni1EAA" unicode="&#x1eaa;" horiz-adv-x="594" 
d="M0 0zM138 62l70 -21v-41h-215v40l72 23l188 550l71 13l202 -563l72 -22v-41h-257v41l63 19l-31 93h-205zM267 447l-82 -243h169zM420 644l-124 79l-121 -79l-23 22l107 134h76l107 -134zM424 834.5q-20 -26.5 -43 -26.5q-24 0 -90 20q-21 7 -42 12.5t-32 5.5
q-10 0 -19.5 -7.5t-15.5 -15t-7 -10.5l-41 17q16 45 37.5 72.5t45.5 27.5q23 0 87 -20q22 -7 43.5 -12.5t33.5 -5.5q11 0 20 7.5t15 15t7 10.5l40 -17q-19 -47 -39 -73.5z" />
    <glyph glyph-name="uni1EAB" unicode="&#x1eab;" horiz-adv-x="514" 
d="M36 0zM151 420l-23 -84h-49l-17 128q97 37 201 37q78 0 118 -26t40 -93v-308l82 -24v-38q-64 -17 -108 -17q-31 0 -56 14t-32 40q-41 -29 -78 -44t-79 -15q-53 0 -83.5 34.5t-30.5 88.5q0 48 28.5 88.5t99.5 54.5l140 27v75q0 40 -16 57.5t-56 17.5q-42 0 -81 -13z
M170.5 183q-17.5 -22 -17.5 -56q0 -63 59 -63q21 0 47 9.5t45 21.5v135l-75 -16q-41 -9 -58.5 -31zM378 523l-124 79l-121 -79l-23 22l107 134h76l107 -134zM382 713.5q-20 -26.5 -43 -26.5q-24 0 -90 20q-21 7 -42 12.5t-32 5.5q-10 0 -19.5 -7.5t-15.5 -15t-7 -10.5
l-41 17q16 45 37.5 72.5t45.5 27.5q23 0 87 -20q22 -7 43.5 -12.5t33.5 -5.5q11 0 20 7.5t15 15t7 10.5l40 -17q-19 -47 -39 -73.5z" />
    <glyph glyph-name="uni1EAC" unicode="&#x1eac;" horiz-adv-x="594" 
d="M0 0zM138 62l70 -21v-41h-215v40l72 23l188 550l71 13l202 -563l72 -22v-41h-257v41l63 19l-31 93h-205zM267 447l-82 -243h169zM350.5 -170q-22.5 -21 -52.5 -21q-31 0 -54 21t-23 51t23.5 53t53.5 23t52.5 -22.5t22.5 -53.5q0 -30 -22.5 -51zM420 644l-124 79l-121 -79
l-23 22l107 134h76l107 -134z" />
    <glyph glyph-name="uni1EAD" unicode="&#x1ead;" horiz-adv-x="514" 
d="M36 0zM151 420l-23 -84h-49l-17 128q97 37 201 37q78 0 118 -26t40 -93v-308l82 -24v-38q-64 -17 -108 -17q-31 0 -56 14t-32 40q-41 -29 -78 -44t-79 -15q-53 0 -83.5 34.5t-30.5 88.5q0 48 28.5 88.5t99.5 54.5l140 27v75q0 40 -16 57.5t-56 17.5q-42 0 -81 -13z
M170.5 183q-17.5 -22 -17.5 -56q0 -63 59 -63q21 0 47 9.5t45 21.5v135l-75 -16q-41 -9 -58.5 -31zM308.5 -170q-22.5 -21 -52.5 -21q-31 0 -54 21t-23 51t23.5 53t53.5 23t52.5 -22.5t22.5 -53.5q0 -30 -22.5 -51zM370 557l-115 86l-113 -86l-31 25l106 141h76l106 -141z
" />
    <glyph glyph-name="uni1EAE" unicode="&#x1eae;" horiz-adv-x="594" 
d="M0 0zM138 62l70 -21v-41h-215v40l72 23l188 550l71 13l202 -563l72 -22v-41h-257v41l63 19l-31 93h-205zM267 447l-82 -243h169zM201.5 690.5q-25.5 34.5 -25.5 93.5l51 2q0 -26 15.5 -44t53.5 -18q40 0 56 18t16 44l48 -2q0 -58 -26.5 -93t-95.5 -35q-67 0 -92.5 34.5z
M258 780l-23 29l155 131l92 -32v-22z" />
    <glyph glyph-name="uni1EAF" unicode="&#x1eaf;" horiz-adv-x="514" 
d="M36 0zM151 420l-23 -84h-49l-17 128q97 37 201 37q78 0 118 -26t40 -93v-308l82 -24v-38q-64 -17 -108 -17q-31 0 -56 14t-32 40q-41 -29 -78 -44t-79 -15q-53 0 -83.5 34.5t-30.5 88.5q0 48 28.5 88.5t99.5 54.5l140 27v75q0 40 -16 57.5t-56 17.5q-42 0 -81 -13z
M170.5 183q-17.5 -22 -17.5 -56q0 -63 59 -63q21 0 47 9.5t45 21.5v135l-75 -16q-41 -9 -58.5 -31zM159.5 569.5q-25.5 34.5 -25.5 93.5l51 2q0 -26 15.5 -44t53.5 -18q40 0 56 18t16 44l48 -2q0 -58 -26.5 -93t-95.5 -35q-67 0 -92.5 34.5zM216 659l-23 29l155 131l92 -32
v-22z" />
    <glyph glyph-name="uni1EB0" unicode="&#x1eb0;" horiz-adv-x="594" 
d="M0 0zM138 62l70 -21v-41h-215v40l72 23l188 550l71 13l202 -563l72 -22v-41h-257v41l63 19l-31 93h-205zM267 447l-82 -243h169zM201.5 690.5q-25.5 34.5 -25.5 93.5l51 2q0 -26 15.5 -44t53.5 -18q40 0 56 18t16 44l48 -2q0 -58 -26.5 -93t-95.5 -35q-67 0 -92.5 34.5z
M339 780l-227 106l3 22l90 32l154 -131z" />
    <glyph glyph-name="uni1EB1" unicode="&#x1eb1;" horiz-adv-x="514" 
d="M36 0zM151 420l-23 -84h-49l-17 128q97 37 201 37q78 0 118 -26t40 -93v-308l82 -24v-38q-64 -17 -108 -17q-31 0 -56 14t-32 40q-41 -29 -78 -44t-79 -15q-53 0 -83.5 34.5t-30.5 88.5q0 48 28.5 88.5t99.5 54.5l140 27v75q0 40 -16 57.5t-56 17.5q-42 0 -81 -13z
M170.5 183q-17.5 -22 -17.5 -56q0 -63 59 -63q21 0 47 9.5t45 21.5v135l-75 -16q-41 -9 -58.5 -31zM159.5 569.5q-25.5 34.5 -25.5 93.5l51 2q0 -26 15.5 -44t53.5 -18q40 0 56 18t16 44l48 -2q0 -58 -26.5 -93t-95.5 -35q-67 0 -92.5 34.5zM297 659l-227 106l3 22l90 32
l154 -131z" />
    <glyph glyph-name="uni1EB2" unicode="&#x1eb2;" horiz-adv-x="594" 
d="M0 0zM138 62l70 -21v-41h-215v40l72 23l188 550l71 13l202 -563l72 -22v-41h-257v41l63 19l-31 93h-205zM267 447l-82 -243h169zM201.5 690.5q-25.5 34.5 -25.5 93.5l51 2q0 -26 15.5 -44t53.5 -18q40 0 56 18t16 44l48 -2q0 -58 -26.5 -93t-95.5 -35q-67 0 -92.5 34.5z
M332 834l-6 -24h-48l-4 42q63 0 63 31q0 11 -9.5 17.5t-27.5 6.5q-6 0 -26 -2l-7 -29h-37l-6 53q50 10 84 10q45 0 70.5 -14t25.5 -39q0 -42 -72 -52z" />
    <glyph glyph-name="uni1EB3" unicode="&#x1eb3;" horiz-adv-x="514" 
d="M36 0zM151 420l-23 -84h-49l-17 128q97 37 201 37q78 0 118 -26t40 -93v-308l82 -24v-38q-64 -17 -108 -17q-31 0 -56 14t-32 40q-41 -29 -78 -44t-79 -15q-53 0 -83.5 34.5t-30.5 88.5q0 48 28.5 88.5t99.5 54.5l140 27v75q0 40 -16 57.5t-56 17.5q-42 0 -81 -13z
M170.5 183q-17.5 -22 -17.5 -56q0 -63 59 -63q21 0 47 9.5t45 21.5v135l-75 -16q-41 -9 -58.5 -31zM159.5 569.5q-25.5 34.5 -25.5 93.5l51 2q0 -26 15.5 -44t53.5 -18q40 0 56 18t16 44l48 -2q0 -58 -26.5 -93t-95.5 -35q-67 0 -92.5 34.5zM290 713l-6 -24h-48l-4 42
q63 0 63 31q0 11 -9.5 17.5t-27.5 6.5q-6 0 -26 -2l-7 -29h-37l-6 53q50 10 84 10q45 0 70.5 -14t25.5 -39q0 -42 -72 -52z" />
    <glyph glyph-name="uni1EB4" unicode="&#x1eb4;" horiz-adv-x="594" 
d="M0 0zM138 62l70 -21v-41h-215v40l72 23l188 550l71 13l202 -563l72 -22v-41h-257v41l63 19l-31 93h-205zM267 447l-82 -243h169zM201.5 690.5q-25.5 34.5 -25.5 93.5l51 2q0 -26 15.5 -44t53.5 -18q40 0 56 18t16 44l48 -2q0 -58 -26.5 -93t-95.5 -35q-67 0 -92.5 34.5z
M424 830.5q-20 -26.5 -43 -26.5q-24 0 -90 20q-21 7 -42 12.5t-32 5.5q-10 0 -19.5 -7.5t-15.5 -15t-7 -10.5l-41 17q16 45 37.5 72.5t45.5 27.5q23 0 87 -20q22 -7 43.5 -12.5t33.5 -5.5q11 0 20 7.5t15 15t7 10.5l40 -17q-19 -47 -39 -73.5z" />
    <glyph glyph-name="uni1EB5" unicode="&#x1eb5;" horiz-adv-x="514" 
d="M36 0zM151 420l-23 -84h-49l-17 128q97 37 201 37q78 0 118 -26t40 -93v-308l82 -24v-38q-64 -17 -108 -17q-31 0 -56 14t-32 40q-41 -29 -78 -44t-79 -15q-53 0 -83.5 34.5t-30.5 88.5q0 48 28.5 88.5t99.5 54.5l140 27v75q0 40 -16 57.5t-56 17.5q-42 0 -81 -13z
M170.5 183q-17.5 -22 -17.5 -56q0 -63 59 -63q21 0 47 9.5t45 21.5v135l-75 -16q-41 -9 -58.5 -31zM159.5 569.5q-25.5 34.5 -25.5 93.5l51 2q0 -26 15.5 -44t53.5 -18q40 0 56 18t16 44l48 -2q0 -58 -26.5 -93t-95.5 -35q-67 0 -92.5 34.5zM382 709.5q-20 -26.5 -43 -26.5
q-24 0 -90 20q-21 7 -42 12.5t-32 5.5q-10 0 -19.5 -7.5t-15.5 -15t-7 -10.5l-41 17q16 45 37.5 72.5t45.5 27.5q23 0 87 -20q22 -7 43.5 -12.5t33.5 -5.5q11 0 20 7.5t15 15t7 10.5l40 -17q-19 -47 -39 -73.5z" />
    <glyph glyph-name="uni1EB6" unicode="&#x1eb6;" horiz-adv-x="594" 
d="M0 0zM138 62l70 -21v-41h-215v40l72 23l188 550l71 13l202 -563l72 -22v-41h-257v41l63 19l-31 93h-205zM267 447l-82 -243h169zM350.5 -170q-22.5 -21 -52.5 -21q-31 0 -54 21t-23 51t23.5 53t53.5 23t52.5 -22.5t22.5 -53.5q0 -30 -22.5 -51zM201.5 690.5
q-25.5 34.5 -25.5 93.5l51 2q0 -26 15.5 -44t53.5 -18q40 0 56 18t16 44l48 -2q0 -58 -26.5 -93t-95.5 -35q-67 0 -92.5 34.5z" />
    <glyph glyph-name="uni1EB7" unicode="&#x1eb7;" horiz-adv-x="514" 
d="M36 0zM151 420l-23 -84h-49l-17 128q97 37 201 37q78 0 118 -26t40 -93v-308l82 -24v-38q-64 -17 -108 -17q-31 0 -56 14t-32 40q-41 -29 -78 -44t-79 -15q-53 0 -83.5 34.5t-30.5 88.5q0 48 28.5 88.5t99.5 54.5l140 27v75q0 40 -16 57.5t-56 17.5q-42 0 -81 -13z
M170.5 183q-17.5 -22 -17.5 -56q0 -63 59 -63q21 0 47 9.5t45 21.5v135l-75 -16q-41 -9 -58.5 -31zM308.5 -170q-22.5 -21 -52.5 -21q-31 0 -54 21t-23 51t23.5 53t53.5 23t52.5 -22.5t22.5 -53.5q0 -30 -22.5 -51zM158.5 609.5q-24.5 34.5 -24.5 93.5l49 2q0 -61 68 -61
q75 0 75 61l48 -2q0 -128 -124 -128q-67 0 -91.5 34.5z" />
    <glyph glyph-name="uni1EB8" unicode="&#x1eb8;" 
d="M36 0zM380 394h47v-188h-47l-21 69h-117v-210h193l26 92h50v-157h-474v41l88 22v487l-89 22v41h453v-141h-50l-21 79h-176v-223h119zM326.5 -170q-22.5 -21 -52.5 -21q-31 0 -54 21t-23 51t23.5 53t53.5 23t52.5 -22.5t22.5 -53.5q0 -30 -22.5 -51z" />
    <glyph glyph-name="uni1EB9" unicode="&#x1eb9;" horiz-adv-x="478" 
d="M30 0zM85 58q-55 68 -55 186q0 133 60.5 195t163.5 62q102 0 149 -46t47 -144q0 -34 -3 -61h-291v-27q0 -87 35.5 -126.5t103.5 -39.5q60 0 142 23l8 -39q-76 -51 -181 -51q-124 0 -179 68zM330 308v22q0 54 -15.5 81.5t-55.5 27.5q-55 0 -76.5 -33.5t-24.5 -107.5z
M292.5 -170q-22.5 -21 -52.5 -21q-31 0 -54 21t-23 51t23.5 53t53.5 23t52.5 -22.5t22.5 -53.5q0 -30 -22.5 -51z" />
    <glyph glyph-name="uni1EBA" unicode="&#x1eba;" 
d="M36 0zM380 394h47v-188h-47l-21 69h-117v-210h193l26 92h50v-157h-474v41l88 22v487l-89 22v41h453v-141h-50l-21 79h-176v-223h119zM306 694l-6 -24h-48l-4 42q63 0 63 31q0 11 -9.5 17.5t-27.5 6.5q-6 0 -26 -2l-7 -29h-37l-6 53q50 10 84 10q45 0 70.5 -14t25.5 -39
q0 -42 -72 -52z" />
    <glyph glyph-name="uni1EBB" unicode="&#x1ebb;" horiz-adv-x="478" 
d="M30 0zM85 58q-55 68 -55 186q0 133 60.5 195t163.5 62q102 0 149 -46t47 -144q0 -34 -3 -61h-291v-27q0 -87 35.5 -126.5t103.5 -39.5q60 0 142 23l8 -39q-76 -51 -181 -51q-124 0 -179 68zM330 308v22q0 54 -15.5 81.5t-55.5 27.5q-55 0 -76.5 -33.5t-24.5 -107.5z
M272 573l-6 -24h-48l-4 42q63 0 63 31q0 11 -9.5 17.5t-27.5 6.5q-6 0 -26 -2l-7 -29h-37l-6 53q50 10 84 10q45 0 70.5 -14t25.5 -39q0 -42 -72 -52z" />
    <glyph glyph-name="uni1EBC" unicode="&#x1ebc;" 
d="M408 700q-19 -26 -42 -26q-25 0 -89 20q-22 7 -43 12.5t-33 5.5q-10 0 -19 -7.5t-15 -15t-7 -10.5l-41 17q16 45 37.5 73t44.5 28q25 0 89 -20q21 -7 42 -12.5t33 -5.5q11 0 20.5 7t15.5 15t7 10l39 -17q-20 -48 -39 -74zM380 394h47v-188h-47l-21 69h-117v-210h193
l26 92h50v-157h-474v41l88 22v487l-89 22v41h453v-141h-50l-21 79h-176v-223h119z" />
    <glyph glyph-name="uni1EBD" unicode="&#x1ebd;" horiz-adv-x="478" 
d="M239 603q-21 7 -42 12.5t-32 5.5q-10 0 -19.5 -7.5t-15.5 -15t-7 -10.5l-41 17q42 100 83 100q23 0 87 -20q22 -7 43.5 -12.5t33.5 -5.5q11 0 20 7t15 15t7 10l40 -16q-19 -47 -39 -73.5t-43 -26.5q-24 0 -90 20zM85 58q-55 68 -55 186q0 133 60.5 195t163.5 62
q102 0 149 -46t47 -144q0 -34 -3 -61h-291v-27q0 -87 35.5 -126.5t103.5 -39.5q60 0 142 23l8 -39q-76 -51 -181 -51q-124 0 -179 68zM330 308v22q0 54 -15.5 81.5t-55.5 27.5q-55 0 -76.5 -33.5t-24.5 -107.5z" />
    <glyph glyph-name="uni1EBE" unicode="&#x1ebe;" 
d="M407 693l-30 20l93 182h97l10 -18zM369 644l-124 79l-121 -79l-23 22l107 134h76l107 -134zM380 394h47v-188h-47l-21 69h-117v-210h193l26 92h50v-157h-474v41l88 22v487l-89 22v41h453v-141h-50l-21 79h-176v-223h119z" />
    <glyph glyph-name="uni1EBF" unicode="&#x1ebf;" horiz-adv-x="478" 
d="M400 616l-30 19l93 183h97l10 -19zM354 557l-115 86l-113 -86l-31 25l106 141h76l106 -141zM85 58q-55 68 -55 186q0 133 60.5 195t163.5 62q102 0 149 -46t47 -144q0 -34 -3 -61h-291v-27q0 -87 35.5 -126.5t103.5 -39.5q60 0 142 23l8 -39q-76 -51 -181 -51
q-124 0 -179 68zM330 308v22q0 54 -15.5 81.5t-55.5 27.5q-55 0 -76.5 -33.5t-24.5 -107.5z" />
    <glyph glyph-name="uni1EC0" unicode="&#x1ec0;" 
d="M438 692l-170 184l10 18h97l93 -182zM369 644l-124 79l-121 -79l-23 22l107 134h76l107 -134zM380 394h47v-188h-47l-21 69h-117v-210h193l26 92h50v-157h-474v41l88 22v487l-89 22v41h453v-141h-50l-21 79h-176v-223h119z" />
    <glyph glyph-name="uni1EC1" unicode="&#x1ec1;" horiz-adv-x="478" 
d="M421 616l-170 183l10 19h97l93 -183zM344 557l-115 86l-113 -86l-31 25l106 141h76l106 -141zM85 58q-55 68 -55 186q0 133 60.5 195t163.5 62q102 0 149 -46t47 -144q0 -34 -3 -61h-291v-27q0 -87 35.5 -126.5t103.5 -39.5q60 0 142 23l8 -39q-76 -51 -181 -51
q-124 0 -179 68zM330 308v22q0 54 -15.5 81.5t-55.5 27.5q-55 0 -76.5 -33.5t-24.5 -107.5z" />
    <glyph glyph-name="uni1EC2" unicode="&#x1ec2;" 
d="M36 0zM380 394h47v-188h-47l-21 69h-117v-210h193l26 92h50v-157h-474v41l88 22v487l-89 22v41h453v-141h-50l-21 79h-176v-223h119zM396 644l-124 79l-121 -79l-23 22l107 134h76l107 -134zM424 790l-6 -24h-48l-4 42q63 0 63 31q0 11 -9.5 17.5t-27.5 6.5q-6 0 -26 -2
l-7 -29h-37l-6 53q50 10 84 10q45 0 70.5 -14t25.5 -39q0 -42 -72 -52z" />
    <glyph glyph-name="uni1EC3" unicode="&#x1ec3;" horiz-adv-x="478" 
d="M30 0zM85 58q-55 68 -55 186q0 133 60.5 195t163.5 62q102 0 149 -46t47 -144q0 -34 -3 -61h-291v-27q0 -87 35.5 -126.5t103.5 -39.5q60 0 142 23l8 -39q-76 -51 -181 -51q-124 0 -179 68zM330 308v22q0 54 -15.5 81.5t-55.5 27.5q-55 0 -76.5 -33.5t-24.5 -107.5z
M354 557l-115 86l-113 -86l-31 25l106 141h76l106 -141zM390 713l-6 -24h-48l-4 42q63 0 63 31q0 11 -9.5 17.5t-27.5 6.5q-6 0 -26 -2l-7 -29h-37l-6 53q50 10 84 10q45 0 70.5 -14t25.5 -39q0 -42 -72 -52z" />
    <glyph glyph-name="uni1EC4" unicode="&#x1ec4;" 
d="M36 0zM380 394h47v-188h-47l-21 69h-117v-210h193l26 92h50v-157h-474v41l88 22v487l-89 22v41h453v-141h-50l-21 79h-176v-223h119zM396 644l-124 79l-121 -79l-23 22l107 134h76l107 -134zM400 834.5q-20 -26.5 -43 -26.5q-24 0 -90 20q-21 7 -42 12.5t-32 5.5
q-10 0 -19.5 -7.5t-15.5 -15t-7 -10.5l-41 17q16 45 37.5 72.5t45.5 27.5q23 0 87 -20q22 -7 43.5 -12.5t33.5 -5.5q11 0 20 7.5t15 15t7 10.5l40 -17q-19 -47 -39 -73.5z" />
    <glyph glyph-name="uni1EC5" unicode="&#x1ec5;" horiz-adv-x="478" 
d="M30 0zM85 58q-55 68 -55 186q0 133 60.5 195t163.5 62q102 0 149 -46t47 -144q0 -34 -3 -61h-291v-27q0 -87 35.5 -126.5t103.5 -39.5q60 0 142 23l8 -39q-76 -51 -181 -51q-124 0 -179 68zM330 308v22q0 54 -15.5 81.5t-55.5 27.5q-55 0 -76.5 -33.5t-24.5 -107.5z
M362 523l-124 79l-121 -79l-23 22l107 134h76l107 -134zM366 713.5q-20 -26.5 -43 -26.5q-24 0 -90 20q-21 7 -42 12.5t-32 5.5q-10 0 -19.5 -7.5t-15.5 -15t-7 -10.5l-41 17q16 45 37.5 72.5t45.5 27.5q23 0 87 -20q22 -7 43.5 -12.5t33.5 -5.5q11 0 20 7.5t15 15t7 10.5
l40 -17q-19 -47 -39 -73.5z" />
    <glyph glyph-name="uni1EC6" unicode="&#x1ec6;" 
d="M36 0zM380 394h47v-188h-47l-21 69h-117v-210h193l26 92h50v-157h-474v41l88 22v487l-89 22v41h453v-141h-50l-21 79h-176v-223h119zM326.5 -170q-22.5 -21 -52.5 -21q-31 0 -54 21t-23 51t23.5 53t53.5 23t52.5 -22.5t22.5 -53.5q0 -30 -22.5 -51zM396 644l-124 79
l-121 -79l-23 22l107 134h76l107 -134z" />
    <glyph glyph-name="uni1EC7" unicode="&#x1ec7;" horiz-adv-x="478" 
d="M30 0zM85 58q-55 68 -55 186q0 133 60.5 195t163.5 62q102 0 149 -46t47 -144q0 -34 -3 -61h-291v-27q0 -87 35.5 -126.5t103.5 -39.5q60 0 142 23l8 -39q-76 -51 -181 -51q-124 0 -179 68zM330 308v22q0 54 -15.5 81.5t-55.5 27.5q-55 0 -76.5 -33.5t-24.5 -107.5z
M292.5 -170q-22.5 -21 -52.5 -21q-31 0 -54 21t-23 51t23.5 53t53.5 23t52.5 -22.5t22.5 -53.5q0 -30 -22.5 -51zM354 557l-115 86l-113 -86l-31 25l106 141h76l106 -141z" />
    <glyph glyph-name="uni1EC8" unicode="&#x1ec8;" horiz-adv-x="363" 
d="M36 0zM37 0v41l86 22v487l-87 22v41h291v-41l-87 -22v-487l87 -22v-41h-290zM215 694l-6 -24h-48l-4 42q63 0 63 31q0 11 -9.5 17.5t-27.5 6.5q-6 0 -26 -2l-7 -29h-37l-6 53q50 10 84 10q45 0 70.5 -14t25.5 -39q0 -42 -72 -52z" />
    <glyph glyph-name="uni1EC9" unicode="&#x1ec9;" horiz-adv-x="324" 
d="M27 0zM307 44v-44h-280v44l82 20v349l-82 11v39l161 38h38v-437zM195 573l-6 -24h-48l-4 42q63 0 63 31q0 11 -9.5 17.5t-27.5 6.5q-6 0 -26 -2l-7 -29h-37l-6 53q50 10 84 10q45 0 70.5 -14t25.5 -39q0 -42 -72 -52z" />
    <glyph glyph-name="uni1ECA" unicode="&#x1eca;" horiz-adv-x="363" 
d="M36 0zM37 0v41l86 22v487l-87 22v41h291v-41l-87 -22v-487l87 -22v-41h-290zM235.5 -170q-22.5 -21 -52.5 -21q-31 0 -54 21t-23 51t23.5 53t53.5 23t52.5 -22.5t22.5 -53.5q0 -30 -22.5 -51z" />
    <glyph glyph-name="uni1ECB" unicode="&#x1ecb;" horiz-adv-x="323" 
d="M27 0zM113 592q-23 21 -23 51q0 31 23 53.5t54 22.5q30 0 52 -22.5t22 -53.5q0 -30 -22 -51t-52 -21q-31 0 -54 21zM27 0v44l82 20v349l-82 11v39l161 38h38v-437l81 -20v-44h-280zM215.5 -170q-22.5 -21 -52.5 -21q-31 0 -54 21t-23 51t23.5 53t53.5 23t52.5 -22.5
t22.5 -53.5q0 -30 -22.5 -51z" />
    <glyph glyph-name="uni1ECC" unicode="&#x1ecc;" horiz-adv-x="661" 
d="M34 0zM555.5 539q71.5 -88 71.5 -229q0 -142 -72 -230.5t-223 -88.5q-101 0 -168 42t-98.5 114t-31.5 163q0 140 73.5 228.5t224.5 88.5q152 0 223.5 -88zM464 489q-38 76 -138 76q-95 0 -130.5 -75.5t-35.5 -179.5q0 -106 38 -181t138 -75q96 0 131 75.5t35 180.5
q0 103 -38 179zM384.5 -170q-22.5 -21 -52.5 -21q-31 0 -54 21t-23 51t23.5 53t53.5 23t52.5 -22.5t22.5 -53.5q0 -30 -22.5 -51z" />
    <glyph glyph-name="uni1ECD" unicode="&#x1ecd;" 
d="M31 0zM456 430.5q59 -70.5 59 -186.5q0 -113 -60 -183.5t-184 -70.5q-121 0 -180.5 71t-59.5 183q0 116 58.5 186.5t181.5 70.5q126 0 185 -70.5zM362 390q-26 51 -93 51q-63 0 -87.5 -51t-24.5 -144q0 -92 26 -143.5t92 -51.5q65 0 89 51t24 144t-26 144zM326.5 -170
q-22.5 -21 -52.5 -21q-31 0 -54 21t-23 51t23.5 53t53.5 23t52.5 -22.5t22.5 -53.5q0 -30 -22.5 -51z" />
    <glyph glyph-name="uni1ECE" unicode="&#x1ece;" horiz-adv-x="661" 
d="M34 0zM555.5 539q71.5 -88 71.5 -229q0 -142 -72 -230.5t-223 -88.5q-101 0 -168 42t-98.5 114t-31.5 163q0 140 73.5 228.5t224.5 88.5q152 0 223.5 -88zM464 489q-38 76 -138 76q-95 0 -130.5 -75.5t-35.5 -179.5q0 -106 38 -181t138 -75q96 0 131 75.5t35 180.5
q0 103 -38 179zM364 694l-6 -24h-48l-4 42q63 0 63 31q0 11 -9.5 17.5t-27.5 6.5q-6 0 -26 -2l-7 -29h-37l-6 53q50 10 84 10q45 0 70.5 -14t25.5 -39q0 -42 -72 -52z" />
    <glyph glyph-name="uni1ECF" unicode="&#x1ecf;" 
d="M31 0zM456 430.5q59 -70.5 59 -186.5q0 -113 -60 -183.5t-184 -70.5q-121 0 -180.5 71t-59.5 183q0 116 58.5 186.5t181.5 70.5q126 0 185 -70.5zM362 390q-26 51 -93 51q-63 0 -87.5 -51t-24.5 -144q0 -92 26 -143.5t92 -51.5q65 0 89 51t24 144t-26 144zM306 573
l-6 -24h-48l-4 42q63 0 63 31q0 11 -9.5 17.5t-27.5 6.5q-6 0 -26 -2l-7 -29h-37l-6 53q50 10 84 10q45 0 70.5 -14t25.5 -39q0 -42 -72 -52z" />
    <glyph glyph-name="uni1ED0" unicode="&#x1ed0;" horiz-adv-x="661" 
d="M465 693l-30 20l93 182h97l10 -18zM427 644l-124 79l-121 -79l-23 22l107 134h76l107 -134zM555.5 539q71.5 -88 71.5 -229q0 -142 -72 -230.5t-223 -88.5q-101 0 -168 42t-98.5 114t-31.5 163q0 140 73.5 228.5t224.5 88.5q152 0 223.5 -88zM464 489q-38 76 -138 76
q-95 0 -130.5 -75.5t-35.5 -179.5q0 -106 38 -181t138 -75q96 0 131 75.5t35 180.5q0 103 -38 179z" />
    <glyph glyph-name="uni1ED1" unicode="&#x1ed1;" 
d="M434 616l-30 19l93 183h97l10 -19zM388 557l-115 86l-113 -86l-31 25l106 141h76l106 -141zM456 430.5q59 -70.5 59 -186.5q0 -113 -60 -183.5t-184 -70.5q-121 0 -180.5 71t-59.5 183q0 116 58.5 186.5t181.5 70.5q126 0 185 -70.5zM362 390q-26 51 -93 51
q-63 0 -87.5 -51t-24.5 -144q0 -92 26 -143.5t92 -51.5q65 0 89 51t24 144t-26 144z" />
    <glyph glyph-name="uni1ED2" unicode="&#x1ed2;" horiz-adv-x="661" 
d="M496 692l-170 184l10 18h97l93 -182zM427 644l-124 79l-121 -79l-23 22l107 134h76l107 -134zM555.5 539q71.5 -88 71.5 -229q0 -142 -72 -230.5t-223 -88.5q-101 0 -168 42t-98.5 114t-31.5 163q0 140 73.5 228.5t224.5 88.5q152 0 223.5 -88zM464 489q-38 76 -138 76
q-95 0 -130.5 -75.5t-35.5 -179.5q0 -106 38 -181t138 -75q96 0 131 75.5t35 180.5q0 103 -38 179z" />
    <glyph glyph-name="uni1ED3" unicode="&#x1ed3;" 
d="M455 616l-170 183l10 19h97l93 -183zM378 557l-115 86l-113 -86l-31 25l106 141h76l106 -141zM456 430.5q59 -70.5 59 -186.5q0 -113 -60 -183.5t-184 -70.5q-121 0 -180.5 71t-59.5 183q0 116 58.5 186.5t181.5 70.5q126 0 185 -70.5zM362 390q-26 51 -93 51
q-63 0 -87.5 -51t-24.5 -144q0 -92 26 -143.5t92 -51.5q65 0 89 51t24 144t-26 144z" />
    <glyph glyph-name="uni1ED4" unicode="&#x1ed4;" horiz-adv-x="661" 
d="M34 0zM555.5 539q71.5 -88 71.5 -229q0 -142 -72 -230.5t-223 -88.5q-101 0 -168 42t-98.5 114t-31.5 163q0 140 73.5 228.5t224.5 88.5q152 0 223.5 -88zM464 489q-38 76 -138 76q-95 0 -130.5 -75.5t-35.5 -179.5q0 -106 38 -181t138 -75q96 0 131 75.5t35 180.5
q0 103 -38 179zM454 644l-124 79l-121 -79l-23 22l107 134h76l107 -134zM482 790l-6 -24h-48l-4 42q63 0 63 31q0 11 -9.5 17.5t-27.5 6.5q-6 0 -26 -2l-7 -29h-37l-6 53q50 10 84 10q45 0 70.5 -14t25.5 -39q0 -42 -72 -52z" />
    <glyph glyph-name="uni1ED5" unicode="&#x1ed5;" 
d="M31 0zM456 430.5q59 -70.5 59 -186.5q0 -113 -60 -183.5t-184 -70.5q-121 0 -180.5 71t-59.5 183q0 116 58.5 186.5t181.5 70.5q126 0 185 -70.5zM362 390q-26 51 -93 51q-63 0 -87.5 -51t-24.5 -144q0 -92 26 -143.5t92 -51.5q65 0 89 51t24 144t-26 144zM388 557
l-115 86l-113 -86l-31 25l106 141h76l106 -141zM424 713l-6 -24h-48l-4 42q63 0 63 31q0 11 -9.5 17.5t-27.5 6.5q-6 0 -26 -2l-7 -29h-37l-6 53q50 10 84 10q45 0 70.5 -14t25.5 -39q0 -42 -72 -52z" />
    <glyph glyph-name="uni1ED6" unicode="&#x1ed6;" horiz-adv-x="661" 
d="M34 0zM555.5 539q71.5 -88 71.5 -229q0 -142 -72 -230.5t-223 -88.5q-101 0 -168 42t-98.5 114t-31.5 163q0 140 73.5 228.5t224.5 88.5q152 0 223.5 -88zM464 489q-38 76 -138 76q-95 0 -130.5 -75.5t-35.5 -179.5q0 -106 38 -181t138 -75q96 0 131 75.5t35 180.5
q0 103 -38 179zM454 644l-124 79l-121 -79l-23 22l107 134h76l107 -134zM458 834.5q-20 -26.5 -43 -26.5q-24 0 -90 20q-21 7 -42 12.5t-32 5.5q-10 0 -19.5 -7.5t-15.5 -15t-7 -10.5l-41 17q16 45 37.5 72.5t45.5 27.5q23 0 87 -20q22 -7 43.5 -12.5t33.5 -5.5q11 0 20 7.5
t15 15t7 10.5l40 -17q-19 -47 -39 -73.5z" />
    <glyph glyph-name="uni1ED7" unicode="&#x1ed7;" 
d="M31 0zM456 430.5q59 -70.5 59 -186.5q0 -113 -60 -183.5t-184 -70.5q-121 0 -180.5 71t-59.5 183q0 116 58.5 186.5t181.5 70.5q126 0 185 -70.5zM362 390q-26 51 -93 51q-63 0 -87.5 -51t-24.5 -144q0 -92 26 -143.5t92 -51.5q65 0 89 51t24 144t-26 144zM396 523
l-124 79l-121 -79l-23 22l107 134h76l107 -134zM400 713.5q-20 -26.5 -43 -26.5q-24 0 -90 20q-21 7 -42 12.5t-32 5.5q-10 0 -19.5 -7.5t-15.5 -15t-7 -10.5l-41 17q16 45 37.5 72.5t45.5 27.5q23 0 87 -20q22 -7 43.5 -12.5t33.5 -5.5q11 0 20 7.5t15 15t7 10.5l40 -17
q-19 -47 -39 -73.5z" />
    <glyph glyph-name="uni1ED8" unicode="&#x1ed8;" horiz-adv-x="661" 
d="M34 0zM555.5 539q71.5 -88 71.5 -229q0 -142 -72 -230.5t-223 -88.5q-101 0 -168 42t-98.5 114t-31.5 163q0 140 73.5 228.5t224.5 88.5q152 0 223.5 -88zM464 489q-38 76 -138 76q-95 0 -130.5 -75.5t-35.5 -179.5q0 -106 38 -181t138 -75q96 0 131 75.5t35 180.5
q0 103 -38 179zM384.5 -170q-22.5 -21 -52.5 -21q-31 0 -54 21t-23 51t23.5 53t53.5 23t52.5 -22.5t22.5 -53.5q0 -30 -22.5 -51zM454 644l-124 79l-121 -79l-23 22l107 134h76l107 -134z" />
    <glyph glyph-name="uni1ED9" unicode="&#x1ed9;" 
d="M31 0zM456 430.5q59 -70.5 59 -186.5q0 -113 -60 -183.5t-184 -70.5q-121 0 -180.5 71t-59.5 183q0 116 58.5 186.5t181.5 70.5q126 0 185 -70.5zM362 390q-26 51 -93 51q-63 0 -87.5 -51t-24.5 -144q0 -92 26 -143.5t92 -51.5q65 0 89 51t24 144t-26 144zM326.5 -170
q-22.5 -21 -52.5 -21q-31 0 -54 21t-23 51t23.5 53t53.5 23t52.5 -22.5t22.5 -53.5q0 -30 -22.5 -51zM388 557l-115 86l-113 -86l-31 25l106 141h76l106 -141z" />
    <glyph glyph-name="uni1EDA" unicode="&#x1eda;" horiz-adv-x="661" 
d="M34 0zM642 579q-35 -28 -88 -38q73 -84 73 -231q0 -142 -72 -230.5t-223 -88.5q-101 0 -168 42t-98.5 114t-31.5 163q0 140 73.5 228.5t224.5 88.5q101 0 171 -43h22q29 0 44.5 11t15.5 42q0 19 -5 41l6 13l78 14q6 -13 9.5 -29t3.5 -28q0 -41 -35 -69zM467 129.5
q35 75.5 35 180.5q0 103 -38 179t-138 76q-95 0 -130.5 -75.5t-35.5 -179.5q0 -106 38 -181t138 -75q96 0 131 75.5zM290 640l-23 29l155 131l92 -32v-22z" />
    <glyph glyph-name="uni1EDB" unicode="&#x1edb;" 
d="M31 0zM531.5 473q-30.5 -27 -78.5 -40q62 -66 62 -189q0 -113 -60 -183.5t-184 -70.5q-121 0 -180.5 71t-59.5 183q0 116 58.5 186.5t181.5 70.5q77 0 130 -28h9q29 0 44.5 11t15.5 42q0 19 -5 41l6 13l78 14q6 -13 9.5 -29t3.5 -28q0 -37 -30.5 -64zM364 102
q24 51 24 144t-26 144t-93 51q-63 0 -87.5 -51t-24.5 -144q0 -92 26 -143.5t92 -51.5q65 0 89 51zM194 558l-23 29l155 135l92 -36v-21z" />
    <glyph glyph-name="uni1EDC" unicode="&#x1edc;" horiz-adv-x="661" 
d="M34 0zM642 579q-35 -28 -88 -38q73 -84 73 -231q0 -142 -72 -230.5t-223 -88.5q-101 0 -168 42t-98.5 114t-31.5 163q0 140 73.5 228.5t224.5 88.5q101 0 171 -43h22q29 0 44.5 11t15.5 42q0 19 -5 41l6 13l78 14q6 -13 9.5 -29t3.5 -28q0 -41 -35 -69zM467 129.5
q35 75.5 35 180.5q0 103 -38 179t-138 76q-95 0 -130.5 -75.5t-35.5 -179.5q0 -106 38 -181t138 -75q96 0 131 75.5zM371 640l-227 106l3 22l90 32l154 -131z" />
    <glyph glyph-name="uni1EDD" unicode="&#x1edd;" 
d="M31 0zM531.5 473q-30.5 -27 -78.5 -40q62 -66 62 -189q0 -113 -60 -183.5t-184 -70.5q-121 0 -180.5 71t-59.5 183q0 116 58.5 186.5t181.5 70.5q77 0 130 -28h9q29 0 44.5 11t15.5 42q0 19 -5 41l6 13l78 14q6 -13 9.5 -29t3.5 -28q0 -37 -30.5 -64zM364 102
q24 51 24 144t-26 144t-93 51q-63 0 -87.5 -51t-24.5 -144q0 -92 26 -143.5t92 -51.5q65 0 89 51zM336 558l-227 107l3 21l90 36l154 -135z" />
    <glyph glyph-name="uni1EDE" unicode="&#x1ede;" horiz-adv-x="661" 
d="M34 0zM642 579q-35 -28 -88 -38q73 -84 73 -231q0 -142 -72 -230.5t-223 -88.5q-101 0 -168 42t-98.5 114t-31.5 163q0 140 73.5 228.5t224.5 88.5q101 0 171 -43h22q29 0 44.5 11t15.5 42q0 19 -5 41l6 13l78 14q6 -13 9.5 -29t3.5 -28q0 -41 -35 -69zM467 129.5
q35 75.5 35 180.5q0 103 -38 179t-138 76q-95 0 -130.5 -75.5t-35.5 -179.5q0 -106 38 -181t138 -75q96 0 131 75.5zM364 694l-6 -24h-48l-4 42q63 0 63 31q0 11 -9.5 17.5t-27.5 6.5q-6 0 -26 -2l-7 -29h-37l-6 53q50 10 84 10q45 0 70.5 -14t25.5 -39q0 -42 -72 -52z" />
    <glyph glyph-name="uni1EDF" unicode="&#x1edf;" 
d="M31 0zM531.5 473q-30.5 -27 -78.5 -40q62 -66 62 -189q0 -113 -60 -183.5t-184 -70.5q-121 0 -180.5 71t-59.5 183q0 116 58.5 186.5t181.5 70.5q77 0 130 -28h9q29 0 44.5 11t15.5 42q0 19 -5 41l6 13l78 14q6 -13 9.5 -29t3.5 -28q0 -37 -30.5 -64zM364 102
q24 51 24 144t-26 144t-93 51q-63 0 -87.5 -51t-24.5 -144q0 -92 26 -143.5t92 -51.5q65 0 89 51zM306 573l-6 -24h-48l-4 42q63 0 63 31q0 11 -9.5 17.5t-27.5 6.5q-6 0 -26 -2l-7 -29h-37l-6 53q50 10 84 10q45 0 70.5 -14t25.5 -39q0 -42 -72 -52z" />
    <glyph glyph-name="uni1EE0" unicode="&#x1ee0;" horiz-adv-x="661" 
d="M34 0zM642 579q-35 -28 -88 -38q73 -84 73 -231q0 -142 -72 -230.5t-223 -88.5q-101 0 -168 42t-98.5 114t-31.5 163q0 140 73.5 228.5t224.5 88.5q101 0 171 -43h22q29 0 44.5 11t15.5 42q0 19 -5 41l6 13l78 14q6 -13 9.5 -29t3.5 -28q0 -41 -35 -69zM467 129.5
q35 75.5 35 180.5q0 103 -38 179t-138 76q-95 0 -130.5 -75.5t-35.5 -179.5q0 -106 38 -181t138 -75q96 0 131 75.5zM456 690.5q-20 -26.5 -43 -26.5q-24 0 -90 20q-21 7 -42 12.5t-32 5.5q-10 0 -19.5 -7.5t-15.5 -15t-7 -10.5l-41 17q16 45 37.5 72.5t45.5 27.5
q23 0 87 -20q22 -7 43.5 -12.5t33.5 -5.5q11 0 20 7.5t15 15t7 10.5l40 -17q-19 -47 -39 -73.5z" />
    <glyph glyph-name="uni1EE1" unicode="&#x1ee1;" 
d="M31 0zM531.5 473q-30.5 -27 -78.5 -40q62 -66 62 -189q0 -113 -60 -183.5t-184 -70.5q-121 0 -180.5 71t-59.5 183q0 116 58.5 186.5t181.5 70.5q77 0 130 -28h9q29 0 44.5 11t15.5 42q0 19 -5 41l6 13l78 14q6 -13 9.5 -29t3.5 -28q0 -37 -30.5 -64zM364 102
q24 51 24 144t-26 144t-93 51q-63 0 -87.5 -51t-24.5 -144q0 -92 26 -143.5t92 -51.5q65 0 89 51zM398 609.5q-20 -26.5 -43 -26.5q-24 0 -90 20q-21 7 -42 12.5t-32 5.5q-10 0 -19.5 -7.5t-15.5 -15t-7 -10.5l-41 17q42 100 83 100q23 0 87 -20q22 -7 43.5 -12.5t33.5 -5.5
q11 0 20 7t15 15t7 10l40 -16q-19 -47 -39 -73.5z" />
    <glyph glyph-name="uni1EE2" unicode="&#x1ee2;" horiz-adv-x="661" 
d="M34 0zM642 579q-35 -28 -88 -38q73 -84 73 -231q0 -142 -72 -230.5t-223 -88.5q-101 0 -168 42t-98.5 114t-31.5 163q0 140 73.5 228.5t224.5 88.5q101 0 171 -43h22q29 0 44.5 11t15.5 42q0 19 -5 41l6 13l78 14q6 -13 9.5 -29t3.5 -28q0 -41 -35 -69zM467 129.5
q35 75.5 35 180.5q0 103 -38 179t-138 76q-95 0 -130.5 -75.5t-35.5 -179.5q0 -106 38 -181t138 -75q96 0 131 75.5zM384.5 -170q-22.5 -21 -52.5 -21q-31 0 -54 21t-23 51t23.5 53t53.5 23t52.5 -22.5t22.5 -53.5q0 -30 -22.5 -51z" />
    <glyph glyph-name="uni1EE3" unicode="&#x1ee3;" 
d="M31 0zM531.5 473q-30.5 -27 -78.5 -40q62 -66 62 -189q0 -113 -60 -183.5t-184 -70.5q-121 0 -180.5 71t-59.5 183q0 116 58.5 186.5t181.5 70.5q77 0 130 -28h9q29 0 44.5 11t15.5 42q0 19 -5 41l6 13l78 14q6 -13 9.5 -29t3.5 -28q0 -37 -30.5 -64zM364 102
q24 51 24 144t-26 144t-93 51q-63 0 -87.5 -51t-24.5 -144q0 -92 26 -143.5t92 -51.5q65 0 89 51zM326.5 -170q-22.5 -21 -52.5 -21q-31 0 -54 21t-23 51t23.5 53t53.5 23t52.5 -22.5t22.5 -53.5q0 -30 -22.5 -51z" />
    <glyph glyph-name="uni1EE4" unicode="&#x1ee4;" horiz-adv-x="658" 
d="M7 0zM516.5 68.5q-49.5 -77.5 -182.5 -77.5q-97 0 -150 36t-71.5 95.5t-18.5 142.5v285l-87 22v41h291v-41l-87 -22v-285q0 -67 10 -111.5t40 -71.5t87 -27q77 0 113.5 50.5t36.5 136.5v309l-86 21v41h238v-41l-84 -21v-315q0 -90 -49.5 -167.5zM382.5 -170
q-22.5 -21 -52.5 -21q-31 0 -54 21t-23 51t23.5 53t53.5 23t52.5 -22.5t22.5 -53.5q0 -30 -22.5 -51z" />
    <glyph glyph-name="uni1EE5" unicode="&#x1ee5;" horiz-adv-x="612" 
d="M15 0zM481 -5q-31 0 -57 15t-31 40q-36 -25 -83 -42.5t-90 -17.5q-65 0 -94 33t-29 83v307l-82 11v39l162 38h37v-368q0 -35 15 -51.5t54 -16.5q22 0 52.5 9.5t53.5 22.5v316l-82 11v39l161 38h38v-427l83 -24v-38q-64 -17 -108 -17zM359.5 -170q-22.5 -21 -52.5 -21
q-31 0 -54 21t-23 51t23.5 53t53.5 23t52.5 -22.5t22.5 -53.5q0 -30 -22.5 -51z" />
    <glyph glyph-name="uni1EE6" unicode="&#x1ee6;" horiz-adv-x="658" 
d="M7 0zM516.5 68.5q-49.5 -77.5 -182.5 -77.5q-97 0 -150 36t-71.5 95.5t-18.5 142.5v285l-87 22v41h291v-41l-87 -22v-285q0 -67 10 -111.5t40 -71.5t87 -27q77 0 113.5 50.5t36.5 136.5v309l-86 21v41h238v-41l-84 -21v-315q0 -90 -49.5 -167.5zM362 694l-6 -24h-48
l-4 42q63 0 63 31q0 11 -9.5 17.5t-27.5 6.5q-6 0 -26 -2l-7 -29h-37l-6 53q50 10 84 10q45 0 70.5 -14t25.5 -39q0 -42 -72 -52z" />
    <glyph glyph-name="uni1EE7" unicode="&#x1ee7;" horiz-adv-x="612" 
d="M15 0zM481 -5q-31 0 -57 15t-31 40q-36 -25 -83 -42.5t-90 -17.5q-65 0 -94 33t-29 83v307l-82 11v39l162 38h37v-368q0 -35 15 -51.5t54 -16.5q22 0 52.5 9.5t53.5 22.5v316l-82 11v39l161 38h38v-427l83 -24v-38q-64 -17 -108 -17zM339 573l-6 -24h-48l-4 42
q63 0 63 31q0 11 -9.5 17.5t-27.5 6.5q-6 0 -26 -2l-7 -29h-37l-6 53q50 10 84 10q45 0 70.5 -14t25.5 -39q0 -42 -72 -52z" />
    <glyph glyph-name="uni1EE8" unicode="&#x1ee8;" horiz-adv-x="658" 
d="M7 0zM671.5 626.5q-17.5 -22.5 -47.5 -37.5l-58 -38v-315q0 -90 -49.5 -167.5t-182.5 -77.5q-97 0 -150 36t-71.5 95.5t-18.5 142.5v285l-87 22v41h291v-41l-87 -22v-285q0 -67 10 -111.5t40 -71.5t87 -27q77 0 113.5 50.5t36.5 136.5v309l-86 21v41h125q29 0 44.5 11
t15.5 42q0 19 -5 41l6 13l78 14q6 -13 9.5 -29t3.5 -28q0 -28 -17.5 -50.5zM288 640l-23 29l155 131l92 -32v-22z" />
    <glyph glyph-name="uni1EE9" unicode="&#x1ee9;" horiz-adv-x="612" 
d="M15 0zM614 489q-45 -30 -108 -36v-379l83 -24v-38q-64 -17 -108 -17q-31 0 -57 15t-31 40q-36 -25 -83 -42.5t-90 -17.5q-65 0 -94 33t-29 83v307l-82 11v39l162 38h37v-368q0 -35 15 -51.5t54 -16.5q22 0 52.5 9.5t53.5 22.5v316l-82 11v39l160 38h40q29 0 44.5 11
t15.5 42q0 19 -5 41l6 13l78 14q6 -13 9.5 -29t3.5 -28q0 -46 -45 -76zM227 558l-23 29l155 135l92 -36v-21z" />
    <glyph glyph-name="uni1EEA" unicode="&#x1eea;" horiz-adv-x="658" 
d="M7 0zM671.5 626.5q-17.5 -22.5 -47.5 -37.5l-58 -38v-315q0 -90 -49.5 -167.5t-182.5 -77.5q-97 0 -150 36t-71.5 95.5t-18.5 142.5v285l-87 22v41h291v-41l-87 -22v-285q0 -67 10 -111.5t40 -71.5t87 -27q77 0 113.5 50.5t36.5 136.5v309l-86 21v41h125q29 0 44.5 11
t15.5 42q0 19 -5 41l6 13l78 14q6 -13 9.5 -29t3.5 -28q0 -28 -17.5 -50.5zM369 640l-227 106l3 22l90 32l154 -131z" />
    <glyph glyph-name="uni1EEB" unicode="&#x1eeb;" horiz-adv-x="612" 
d="M15 0zM614 489q-45 -30 -108 -36v-379l83 -24v-38q-64 -17 -108 -17q-31 0 -57 15t-31 40q-36 -25 -83 -42.5t-90 -17.5q-65 0 -94 33t-29 83v307l-82 11v39l162 38h37v-368q0 -35 15 -51.5t54 -16.5q22 0 52.5 9.5t53.5 22.5v316l-82 11v39l160 38h40q29 0 44.5 11
t15.5 42q0 19 -5 41l6 13l78 14q6 -13 9.5 -29t3.5 -28q0 -46 -45 -76zM369 558l-227 107l3 21l90 36l154 -135z" />
    <glyph glyph-name="uni1EEC" unicode="&#x1eec;" horiz-adv-x="658" 
d="M7 0zM671.5 626.5q-17.5 -22.5 -47.5 -37.5l-58 -38v-315q0 -90 -49.5 -167.5t-182.5 -77.5q-97 0 -150 36t-71.5 95.5t-18.5 142.5v285l-87 22v41h291v-41l-87 -22v-285q0 -67 10 -111.5t40 -71.5t87 -27q77 0 113.5 50.5t36.5 136.5v309l-86 21v41h125q29 0 44.5 11
t15.5 42q0 19 -5 41l6 13l78 14q6 -13 9.5 -29t3.5 -28q0 -28 -17.5 -50.5zM362 694l-6 -24h-48l-4 42q63 0 63 31q0 11 -9.5 17.5t-27.5 6.5q-6 0 -26 -2l-7 -29h-37l-6 53q50 10 84 10q45 0 70.5 -14t25.5 -39q0 -42 -72 -52z" />
    <glyph glyph-name="uni1EED" unicode="&#x1eed;" horiz-adv-x="612" 
d="M15 0zM614 489q-45 -30 -108 -36v-379l83 -24v-38q-64 -17 -108 -17q-31 0 -57 15t-31 40q-36 -25 -83 -42.5t-90 -17.5q-65 0 -94 33t-29 83v307l-82 11v39l162 38h37v-368q0 -35 15 -51.5t54 -16.5q22 0 52.5 9.5t53.5 22.5v316l-82 11v39l160 38h40q29 0 44.5 11
t15.5 42q0 19 -5 41l6 13l78 14q6 -13 9.5 -29t3.5 -28q0 -46 -45 -76zM339 573l-6 -24h-48l-4 42q63 0 63 31q0 11 -9.5 17.5t-27.5 6.5q-6 0 -26 -2l-7 -29h-37l-6 53q50 10 84 10q45 0 70.5 -14t25.5 -39q0 -42 -72 -52z" />
    <glyph glyph-name="uni1EEE" unicode="&#x1eee;" horiz-adv-x="658" 
d="M7 0zM671.5 626.5q-17.5 -22.5 -47.5 -37.5l-58 -38v-315q0 -90 -49.5 -167.5t-182.5 -77.5q-97 0 -150 36t-71.5 95.5t-18.5 142.5v285l-87 22v41h291v-41l-87 -22v-285q0 -67 10 -111.5t40 -71.5t87 -27q77 0 113.5 50.5t36.5 136.5v309l-86 21v41h125q29 0 44.5 11
t15.5 42q0 19 -5 41l6 13l78 14q6 -13 9.5 -29t3.5 -28q0 -28 -17.5 -50.5zM454 690.5q-20 -26.5 -43 -26.5q-24 0 -90 20q-21 7 -42 12.5t-32 5.5q-10 0 -19.5 -7.5t-15.5 -15t-7 -10.5l-41 17q16 45 37.5 72.5t45.5 27.5q23 0 87 -20q22 -7 43.5 -12.5t33.5 -5.5
q11 0 20 7.5t15 15t7 10.5l40 -17q-19 -47 -39 -73.5z" />
    <glyph glyph-name="uni1EEF" unicode="&#x1eef;" horiz-adv-x="612" 
d="M15 0zM614 489q-45 -30 -108 -36v-379l83 -24v-38q-64 -17 -108 -17q-31 0 -57 15t-31 40q-36 -25 -83 -42.5t-90 -17.5q-65 0 -94 33t-29 83v307l-82 11v39l162 38h37v-368q0 -35 15 -51.5t54 -16.5q22 0 52.5 9.5t53.5 22.5v316l-82 11v39l160 38h40q29 0 44.5 11
t15.5 42q0 19 -5 41l6 13l78 14q6 -13 9.5 -29t3.5 -28q0 -46 -45 -76zM431 609.5q-20 -26.5 -43 -26.5q-24 0 -90 20q-21 7 -42 12.5t-32 5.5q-10 0 -19.5 -7.5t-15.5 -15t-7 -10.5l-41 17q42 100 83 100q23 0 87 -20q22 -7 43.5 -12.5t33.5 -5.5q11 0 20 7t15 15t7 10
l40 -16q-19 -47 -39 -73.5z" />
    <glyph glyph-name="uni1EF0" unicode="&#x1ef0;" horiz-adv-x="658" 
d="M7 0zM671.5 626.5q-17.5 -22.5 -47.5 -37.5l-58 -38v-315q0 -90 -49.5 -167.5t-182.5 -77.5q-97 0 -150 36t-71.5 95.5t-18.5 142.5v285l-87 22v41h291v-41l-87 -22v-285q0 -67 10 -111.5t40 -71.5t87 -27q77 0 113.5 50.5t36.5 136.5v309l-86 21v41h125q29 0 44.5 11
t15.5 42q0 19 -5 41l6 13l78 14q6 -13 9.5 -29t3.5 -28q0 -28 -17.5 -50.5zM382.5 -170q-22.5 -21 -52.5 -21q-31 0 -54 21t-23 51t23.5 53t53.5 23t52.5 -22.5t22.5 -53.5q0 -30 -22.5 -51z" />
    <glyph glyph-name="uni1EF1" unicode="&#x1ef1;" horiz-adv-x="612" 
d="M15 0zM614 489q-45 -30 -108 -36v-379l83 -24v-38q-64 -17 -108 -17q-31 0 -57 15t-31 40q-36 -25 -83 -42.5t-90 -17.5q-65 0 -94 33t-29 83v307l-82 11v39l162 38h37v-368q0 -35 15 -51.5t54 -16.5q22 0 52.5 9.5t53.5 22.5v316l-82 11v39l160 38h40q29 0 44.5 11
t15.5 42q0 19 -5 41l6 13l78 14q6 -13 9.5 -29t3.5 -28q0 -46 -45 -76zM359.5 -170q-22.5 -21 -52.5 -21q-31 0 -54 21t-23 51t23.5 53t53.5 23t52.5 -22.5t22.5 -53.5q0 -30 -22.5 -51z" />
    <glyph glyph-name="Ygrave" unicode="&#x1ef2;" horiz-adv-x="572" 
d="M395 640l-226 106l3 22l90 32l153 -131zM142 0v41l92 22v182l-157 305l-70 22v41h264v-42l-65 -21l112 -222l110 223l-71 20v42h215v-40l-71 -23l-151 -305v-182l93 -22v-41h-301z" />
    <glyph glyph-name="ygrave" unicode="&#x1ef3;" horiz-adv-x="507" 
d="M353 548l-226 107l3 22l90 35l153 -134zM21 -141l7 41h57q50 0 81 31.5t56 92.5l-169 407l-53 24v37h228v-37l-50 -24l103 -275l92 273l-68 17v46h209v-44l-63 -19l-143 -395q-37 -102 -79 -152t-104 -50q-47 0 -104 27z" />
    <glyph glyph-name="uni1EF4" unicode="&#x1ef4;" horiz-adv-x="572" 
d="M10 0zM360 571v42h215v-40l-71 -23l-151 -305v-182l93 -22v-41h-301v41l92 22v182l-157 305l-70 22v41h263v-42l-65 -21l112 -222l111 223zM340.5 -170q-22.5 -21 -52.5 -21q-31 0 -54 21t-23 51t23.5 53t53.5 23t52.5 -22.5t22.5 -53.5q0 -30 -22.5 -51z" />
    <glyph glyph-name="uni1EF5" unicode="&#x1ef5;" horiz-adv-x="496" 
d="M0 0zM220 455l-50 -24l104 -275l91 273l-68 17v46h209v-44l-63 -19l-143 -395q-36 -102 -78 -152t-105 -50q-45 0 -104 27l7 41h57q50 0 81 31t57 93l-170 407l-53 24v37h228v-37zM427.5 -170q-22.5 -21 -52.5 -21q-31 0 -54 21t-23 51t23.5 53t53.5 23t52.5 -22.5
t22.5 -53.5q0 -30 -22.5 -51z" />
    <glyph glyph-name="uni1EF6" unicode="&#x1ef6;" horiz-adv-x="572" 
d="M10 0zM360 571v42h215v-40l-71 -23l-151 -305v-182l93 -22v-41h-301v41l92 22v182l-157 305l-70 22v41h263v-42l-65 -21l112 -222l111 223zM320 694l-6 -24h-48l-4 42q63 0 63 31q0 11 -9.5 17.5t-27.5 6.5q-6 0 -26 -2l-7 -29h-37l-6 53q50 10 84 10q45 0 70.5 -14
t25.5 -39q0 -42 -72 -52z" />
    <glyph glyph-name="uni1EF7" unicode="&#x1ef7;" horiz-adv-x="496" 
d="M0 0zM220 455l-50 -24l104 -275l91 273l-68 17v46h209v-44l-63 -19l-143 -395q-36 -102 -78 -152t-105 -50q-45 0 -104 27l7 41h57q50 0 81 31t57 93l-170 407l-53 24v37h228v-37zM281 573l-6 -24h-48l-4 42q63 0 63 31q0 11 -9.5 17.5t-27.5 6.5q-6 0 -26 -2l-7 -29h-37
l-6 53q50 10 84 10q45 0 70.5 -14t25.5 -39q0 -42 -72 -52z" />
    <glyph glyph-name="uni1EF8" unicode="&#x1ef8;" horiz-adv-x="572" 
d="M433.5 700.5q-19.5 -26.5 -42.5 -26.5q-24 0 -90 20q-21 7 -42 12.5t-32 5.5t-20 -7.5t-15 -15t-7 -10.5l-41 17q16 45 37.5 73t44.5 28q24 0 88 -20q22 -7 43.5 -12.5t33.5 -5.5q11 0 20 7t15 15t7 10l40 -17q-20 -47 -39.5 -73.5zM357 571v42h215v-40l-71 -23
l-151 -305v-182l93 -22v-41h-301v41l92 22v182l-157 305l-70 22v41h263v-42l-64 -21l112 -222l110 223z" />
    <glyph glyph-name="uni1EF9" unicode="&#x1ef9;" horiz-adv-x="507" 
d="M390 609.5q-20 -26.5 -43 -26.5q-24 0 -90 20q-21 7 -42 12.5t-32 5.5q-10 0 -19.5 -7.5t-15.5 -15t-7 -10.5l-41 17q42 100 83 100q23 0 87 -20q22 -7 43.5 -12.5t33.5 -5.5q11 0 20 7t15 15t7 10l40 -16q-19 -47 -39 -73.5zM228 455l-50 -24l103 -275l91 273l-67 17v46
h209v-44l-63 -19l-143 -395q-37 -102 -79 -152t-104 -50q-47 0 -105 27l8 41h57q50 0 81 31.5t56 92.5l-169 407l-53 24v37h228v-37z" />
    <glyph glyph-name="endash" unicode="&#x2013;" horiz-adv-x="719" 
d="M719 206h-719v65h719v-65z" />
    <glyph glyph-name="emdash" unicode="&#x2014;" horiz-adv-x="833" 
d="M832 206h-832v65h832v-65z" />
    <glyph glyph-name="quoteleft" unicode="&#x2018;" horiz-adv-x="183" 
d="M110 675l41 -8l-14 -216l-94 -21l-23 23z" />
    <glyph glyph-name="quoteright" unicode="&#x2019;" horiz-adv-x="183" 
d="M73 430l-41 8l13 216l94 21l24 -24z" />
    <glyph glyph-name="quotesinglbase" unicode="&#x201a;" horiz-adv-x="194" 
d="M75 -117l-38 7l14 209l90 21l20 -24z" />
    <glyph glyph-name="quotedblleft" unicode="&#x201c;" horiz-adv-x="343" 
d="M106 675l41 -8l-14 -216l-93 -21l-24 23zM270 675l42 -8l-14 -216l-93 -21l-24 23z" />
    <glyph glyph-name="quotedblright" unicode="&#x201d;" horiz-adv-x="343" 
d="M70 430l-41 8l13 216l94 21l24 -24zM235 430l-41 8l14 216l93 21l24 -24z" />
    <glyph glyph-name="quotedblbase" unicode="&#x201e;" horiz-adv-x="354" 
d="M66 -117l-37 7l13 209l90 21l20 -24zM239 -117l-37 7l14 209l89 21l21 -24z" />
    <glyph glyph-name="dagger" unicode="&#x2020;" horiz-adv-x="448" 
d="M282 0h-118l25 438l-131 -20v102l130 -19l-19 135h109l-18 -135l132 19v-102l-133 20z" />
    <glyph glyph-name="daggerdbl" unicode="&#x2021;" horiz-adv-x="448" 
d="M169 0l18 136l-131 -18v101l132 -20l-24 119l25 120l-131 -20v102l130 -19l-19 135h109l-18 -135l132 19v-102l-133 20l24 -120l-25 -119l133 20v-101l-132 18l19 -136h-109z" />
    <glyph glyph-name="bullet" unicode="&#x2022;" horiz-adv-x="467" 
d="M359.5 275.5q-19.5 -33.5 -53 -53t-72.5 -19.5q-40 0 -73.5 19.5t-53.5 53t-20 72.5q0 40 20 73t53.5 52.5t73.5 19.5q39 0 72.5 -19.5t53 -52.5t19.5 -73q0 -39 -19.5 -72.5z" />
    <glyph glyph-name="ellipsis" unicode="&#x2026;" horiz-adv-x="561" 
d="M56.5 106q19.5 20 46.5 20q28 0 48 -20t20 -49q0 -27 -20 -46t-48 -19q-27 0 -46.5 19t-19.5 46q0 29 19.5 49zM243 106q19 20 46 20q29 0 49 -20t20 -49q0 -28 -20 -46.5t-49 -18.5q-27 0 -46 19t-19 46q0 29 19 49zM430 106q19 20 46 20q29 0 49 -20t20 -49
q0 -28 -20 -46.5t-49 -18.5q-27 0 -46 18.5t-19 46.5q0 29 19 49z" />
    <glyph glyph-name="perthousand" unicode="&#x2030;" horiz-adv-x="1304" 
d="M332.5 231q-45.5 -53 -122.5 -53t-123.5 53.5t-46.5 171.5t46.5 171.5t123.5 53.5t122.5 -53t45.5 -172t-45.5 -172zM382 0h-75l224 613h74zM286 291.5q32 33.5 32 115.5q0 80 -32 111t-76 31q-45 0 -76 -32t-31 -115q0 -80 31 -112t76 -32q44 0 76 33.5zM824 45
q-45 -53 -121 -53q-77 0 -123.5 53.5t-46.5 171.5q0 119 46.5 172.5t123.5 53.5q76 0 121 -53t45 -173q0 -119 -45 -172zM1208.5 45q-45.5 -53 -121.5 -53q-77 0 -123 53.5t-46 171.5q0 119 46 172.5t123 53.5q76 0 121.5 -53t45.5 -173q0 -119 -45.5 -172zM778 105.5
q31 33.5 31 115.5q0 80 -31 111.5t-75 31.5q-45 0 -76.5 -32t-31.5 -115q0 -80 31.5 -112.5t76.5 -32.5q44 0 75 33.5zM1163 105.5q31 33.5 31 115.5q0 80 -31 111.5t-75 31.5q-45 0 -76.5 -32t-31.5 -115q0 -80 31.5 -112.5t76.5 -32.5q44 0 75 33.5z" />
    <glyph glyph-name="guilsinglleft" unicode="&#x2039;" horiz-adv-x="243" 
d="M20 242l139 179l47 -30l-79 -149l79 -147l-47 -31z" />
    <glyph glyph-name="guilsinglright" unicode="&#x203a;" horiz-adv-x="243" 
d="M85 421l138 -179l-138 -178l-46 31l79 147l-79 149z" />
    <glyph glyph-name="fraction" unicode="&#x2044;" horiz-adv-x="270" 
d="M84 -46h-75l230 681h74z" />
    <glyph glyph-name="uni2070" unicode="&#x2070;" horiz-adv-x="405" 
d="M326 322q-46 -53 -122 -53t-123.5 53.5t-47.5 171.5t47 172t124 54q76 0 122 -53t46 -173q0 -119 -46 -172zM278 382.5q31 34.5 31 115.5q0 80 -30.5 111.5t-73.5 31.5q-44 0 -75 -32.5t-31 -115.5q0 -80 31 -112.5t75 -32.5q42 0 73 34.5z" />
    <glyph glyph-name="uni2074" unicode="&#x2074;" horiz-adv-x="405" 
d="M226 277v85h-203l-12 38l232 317l72 -9v-289h58v-57h-58v-85h-89zM100 419h126v172z" />
    <glyph glyph-name="uni2075" unicode="&#x2075;" horiz-adv-x="405" 
d="M330 652h-178l-8 -106q124 -5 166 -44t42 -94q0 -64 -44 -101.5t-125 -37.5q-64 0 -140 27l11 50q71 -24 109 -24q39 0 64 23.5t25 62.5q0 50 -40 69t-125 19l-20 21l16 192h247v-57z" />
    <glyph glyph-name="uni2076" unicode="&#x2076;" horiz-adv-x="405" 
d="M230 542q72 0 105.5 -35t33.5 -87q0 -57 -37.5 -104t-134.5 -47q-90 0 -125 47.5t-35 129.5q0 96 36 156.5t87 87t100 26.5q32 0 77 -10l-7 -44q-42 6 -59 6q-46 0 -83 -36t-52 -114q38 24 94 24zM149 350q14 -31 46 -31q37 0 56 23.5t19 61.5q0 40 -11.5 63t-40.5 23
q-24 0 -47.5 -15.5t-38.5 -38.5q3 -55 17 -86z" />
    <glyph glyph-name="uni2077" unicode="&#x2077;" horiz-adv-x="405" 
d="M43 603l-6 106h308l13 -43l-161 -394l-98 10l169 373h-152l-15 -52h-58z" />
    <glyph glyph-name="uni2078" unicode="&#x2078;" horiz-adv-x="405" 
d="M62 442q19 29 63 53q-73 43 -73 114q0 47 37.5 78t111.5 31q68 0 104.5 -27t36.5 -67q0 -74 -88 -114q34 -17 53.5 -30t32.5 -33t13 -50q0 -56 -42.5 -90.5t-120.5 -34.5t-112.5 29.5t-34.5 73.5q0 38 19 67zM159 571.5q16 -21.5 43 -35.5q23 13 36 33t13 42
q0 26 -13.5 42.5t-36.5 16.5q-25 0 -41.5 -14t-16.5 -41q0 -22 16 -43.5zM131 386q0 -67 58 -67q28 0 46 16t18 46q0 23 -15.5 43.5t-35.5 30.5l-29 13q-42 -35 -42 -82z" />
    <glyph glyph-name="uni2079" unicode="&#x2079;" horiz-adv-x="405" 
d="M155 324q45 0 74 34t34 101q-45 -16 -89 -16q-64 0 -100.5 37.5t-36.5 93.5t35.5 100t129.5 44q88 0 124.5 -57.5t36.5 -143.5q0 -135 -57 -190.5t-137 -55.5q-60 0 -121 23l10 49q61 -19 97 -19zM250.5 634q-14.5 35 -49.5 35q-30 0 -48 -24t-18 -61q0 -45 16 -67
t42 -22q17 0 37 8.5t35 21.5q0 74 -14.5 109z" />
    <glyph glyph-name="uni207D" unicode="&#x207d;" horiz-adv-x="279" 
d="M162 365.5q5 -53.5 26.5 -100.5t67.5 -67l-11 -33q-71 21 -107 57.5t-49.5 98.5t-13.5 174q0 111 13.5 173.5t49.5 98.5t107 57l11 -33q-46 -21 -67.5 -68t-26.5 -100t-5 -128q0 -76 5 -129.5z" />
    <glyph glyph-name="uni207E" unicode="&#x207e;" horiz-adv-x="279" 
d="M119 623q-5 53 -27 100t-68 68l10 33q72 -20 108 -56.5t48.5 -98.5t12.5 -174q0 -113 -12.5 -175t-48.5 -98t-108 -57l-10 33q46 20 68 67t27 100.5t5 129.5q0 75 -5 128z" />
    <glyph glyph-name="uni207F" unicode="&#x207f;" horiz-adv-x="491" 
d="M253.5 644.5q42.5 9.5 72.5 9.5q40 0 65.5 -18.5t25.5 -59.5v-243l58 -19v-35h-202v35l44 19v218q0 26 -10.5 35t-42.5 9q-51 0 -74 -10v-252l45 -19v-35h-202v35l57 19v254l-57 8v32l125 27h32v-29q21 10 63.5 19.5z" />
    <glyph glyph-name="uni2080" unicode="&#x2080;" horiz-adv-x="397" 
d="M322 -66q-46 -53 -122 -53q-77 0 -124 53.5t-47 171.5t47 172t124 54q76 0 122 -53t46 -173q0 -119 -46 -172zM273 -5q31 34 31 115q0 80 -30.5 111.5t-73.5 31.5q-44 0 -75 -32.5t-31 -115.5q0 -79 31.5 -111.5t74.5 -32.5q42 0 73 34z" />
    <glyph glyph-name="uni2081" unicode="&#x2081;" horiz-adv-x="392" 
d="M56 253v37l208 31v-433h-94v365h-114z" />
    <glyph glyph-name="uni2082" unicode="&#x2082;" horiz-adv-x="405" 
d="M67 244l-21 47q28 17 68 28t79 11q149 0 149 -118q0 -37 -29 -79t-75 -88l-99 -99h141l25 55l51 -6l-8 -106h-304l-14 42l146 149q68 68 68 131q0 31 -15 47.5t-45 16.5q-49 0 -117 -31z" />
    <glyph glyph-name="uni2083" unicode="&#x2083;" horiz-adv-x="405" 
d="M294 304.5q36 -24.5 36 -71.5q0 -35 -20.5 -64.5t-54.5 -46.5q45 -11 70 -40.5t25 -68.5q0 -65 -42.5 -98.5t-123.5 -33.5q-35 0 -71.5 7.5t-67.5 20.5l11 47q72 -24 106 -24q40 0 64.5 21t24.5 60q0 46 -34 61.5t-89 15.5l-3 42q56 6 81.5 31.5t25.5 61.5q0 24 -14 38
t-41 14q-30 0 -100 -35l-19 46q29 18 67 29.5t77 11.5q56 0 92 -24.5z" />
    <glyph glyph-name="uni2084" unicode="&#x2084;" horiz-adv-x="405" 
d="M226 -112v85h-203l-12 38l232 317l72 -9v-290h58v-56h-58v-85h-89zM100 29h126v173z" />
    <glyph glyph-name="uni2085" unicode="&#x2085;" horiz-adv-x="405" 
d="M330 267h-176l-10 -110q123 -4 165.5 -43t42.5 -95q0 -63 -44 -100.5t-125 -37.5q-64 0 -140 27l11 50q70 -25 109 -25t64 23.5t25 62.5q0 50 -40 69.5t-125 19.5l-20 21l16 191l247 5v-58z" />
    <glyph glyph-name="uni2086" unicode="&#x2086;" horiz-adv-x="405" 
d="M229 153q72 0 105.5 -35t33.5 -87q0 -58 -37 -104.5t-135 -46.5q-89 0 -124 47.5t-35 130.5q0 96 36 156t87 86.5t100 26.5q31 0 76 -10l-6 -44q-41 7 -60 7q-43 0 -81.5 -39.5t-50.5 -104.5q42 17 91 17zM148.5 -39q13.5 -31 46.5 -31q37 0 55.5 23t18.5 62
q0 41 -11.5 63.5t-39.5 22.5q-24 0 -48 -16t-38 -38q3 -55 16.5 -86z" />
    <glyph glyph-name="uni2087" unicode="&#x2087;" horiz-adv-x="405" 
d="M43 215l-6 105h308l13 -42l-161 -395l-98 10l169 373h-152l-15 -51h-58z" />
    <glyph glyph-name="uni2088" unicode="&#x2088;" horiz-adv-x="405" 
d="M62 51.5q19 29.5 63 53.5q-73 41 -73 113q0 47 37.5 78t111.5 31q68 0 104.5 -27t36.5 -67q0 -74 -88 -114q34 -17 53.5 -30t32.5 -33t13 -49q0 -57 -42.5 -91.5t-120.5 -34.5t-112.5 29.5t-34.5 73.5q0 38 19 67.5zM159 180.5q16 -21.5 43 -35.5q23 13 36 33.5t13 41.5
q0 26 -13.5 42.5t-36.5 16.5q-25 0 -41.5 -14t-16.5 -41q0 -22 16 -43.5zM131 -5q0 -67 58 -67q28 0 46 16t18 46q0 23 -15.5 43.5t-35.5 30.5l-29 13q-42 -35 -42 -82z" />
    <glyph glyph-name="uni2089" unicode="&#x2089;" horiz-adv-x="405" 
d="M155 -66q45 0 74 34t34 101q-45 -16 -89 -16q-64 0 -100.5 37.5t-36.5 93.5t35.5 100t129.5 44q88 0 124.5 -57.5t36.5 -143.5q0 -135 -57 -190.5t-137 -55.5q-56 0 -121 23l10 49q61 -19 97 -19zM250.5 244q-14.5 35 -49.5 35q-30 0 -48 -24t-18 -61q0 -45 16 -66.5
t42 -21.5q17 0 37 8.5t35 20.5q0 74 -14.5 109z" />
    <glyph glyph-name="uni208D" unicode="&#x208d;" horiz-adv-x="304" 
d="M162 -20q5 -53 26.5 -100.5t67.5 -67.5l-10 -32q-71 21 -107 57t-49.5 98.5t-13.5 174.5q0 111 13.5 173.5t49.5 98.5t107 57l10 -34q-46 -20 -67.5 -67.5t-26.5 -100t-5 -127.5q0 -77 5 -130z" />
    <glyph glyph-name="uni208E" unicode="&#x208e;" horiz-adv-x="304" 
d="M141 237.5q-5 52.5 -27 100t-68 67.5l11 34q72 -21 107.5 -57t48.5 -98.5t13 -173.5q0 -113 -13 -175t-48.5 -98t-107.5 -57l-11 32q46 20 68 67.5t27 100.5t5 130q0 75 -5 127.5z" />
    <glyph glyph-name="Euro" unicode="&#x20ac;" horiz-adv-x="526" 
d="M221 267h188l-9 -53h-175q11 -75 48 -116.5t114 -41.5q40 0 98 12l9 -50q-61 -23 -136 -23q-65 0 -114.5 16t-85.5 64.5t-48 138.5h-88l9 53h74q-1 12 -1 44v19h-82l9 53h77q27 238 233 238q78 0 157 -28l-13 -129h-42l-23 86q-28 9 -62 9q-56 0 -90.5 -37.5
t-44.5 -138.5h186l-9 -53h-180v-20q0 -31 1 -43z" />
    <glyph glyph-name="uni20B2" unicode="&#x20b2;" horiz-adv-x="569" 
d="M546 303v-42l-64 -19v-195q-29 -17 -72 -27.5t-88 -13.5v-93h-61v93q-120 10 -173.5 93t-53.5 207q0 128 56 209t180 90v93h59v-93q41 -2 83.5 -10t69.5 -18l-12 -144h-49l-25 97q-16 6 -42 9.5t-45 3.5q-86 0 -118.5 -66t-32.5 -168q0 -103 29 -171.5t100 -68.5
q47 0 78 12v159l-86 22v41h267z" />
    <glyph glyph-name="uni20BA" unicode="&#x20ba;" horiz-adv-x="495" 
d="M38 41l86 22v170l-90 -33v56l90 33v54l-90 -33v55l90 33v152l-86 22v41h289v-41l-87 -22v-110l115 42v-54l-115 -43v-55l115 42v-55l-115 -42v-208q88 0 131.5 66.5t43.5 172.5h68q-2 -92 -24.5 -158t-84.5 -107t-174 -41h-162v41z" />
    <glyph glyph-name="uni20BD" unicode="&#x20bd;" horiz-adv-x="533" 
d="M37 41l86 22v91h-86v46h86v51h-86v45h86v253l-87 22v42h267q94 0 155 -45.5t61 -129.5q0 -64 -31 -106t-81 -61.5t-108 -19.5h-59v-51h173v-46h-173v-91l106 -21v-42h-309v41zM268 296q62 0 96 34t34 101q0 61 -26 93.5t-76 32.5q-33 0 -56 -6v-255h28z" />
    <glyph glyph-name="uni2113" unicode="&#x2113;" horiz-adv-x="447" 
d="M342.5 70q41.5 8 43.5 10l8 -39q-20 -16 -68.5 -33.5t-99.5 -17.5q-78 0 -110.5 29t-32.5 91v19l-39 -23l-30 46l69 50v158q0 125 37 196.5t142 71.5q136 0 136 -147q0 -83 -60.5 -158.5t-146.5 -129.5v-11q-1 -47 5.5 -72.5t23 -36.5t49.5 -11q32 0 73.5 8zM191 276
q55 42 82.5 94.5t27.5 111.5q0 42 -11.5 61.5t-38.5 19.5q-36 0 -48 -34.5t-12 -118.5v-134z" />
    <glyph glyph-name="trademark" unicode="&#x2122;" horiz-adv-x="859" 
d="M81 279v26l53 13v285h-72l-14 -50h-36l-3 93h327l-3 -93h-36l-14 49h-73v-284l53 -13v-26h-182zM541 272l-103 276l-7 -230l50 -13v-26h-146v26l46 13l12 289l-47 12v27h143l94 -266l92 266h141v-27l-50 -12l12 -289l51 -13v-26h-176v26l48 13l-10 235l-94 -274z" />
    </font>
</defs>
</svg>
