<?xml version="1.0" standalone="no"?>
<!DOCTYPE svg PUBLIC "-//W3C//DTD SVG 1.1//EN" "http://www.w3.org/Graphics/SVG/1.1/DTD/svg11.dtd" >
<svg xmlns="http://www.w3.org/2000/svg" xmlns:xlink="http://www.w3.org/1999/xlink" version="1.1">
<metadata>
Created by FontForge 20170731 at Sat Dec  3 13:25:07 2016
 By Aleksey,,,
Copyright 2016 The Manuale Project Authors (omnibus.type@gmail.com)
</metadata>
<defs>
<font id="Manuale-Bold" horiz-adv-x="413" >
  <font-face 
    font-family="Manuale"
    font-weight="700"
    font-stretch="normal"
    units-per-em="1000"
    panose-1="2 4 8 4 5 4 5 6 2 4"
    ascent="800"
    descent="-200"
    x-height="492"
    cap-height="614"
    bbox="-319 -236 1282 980"
    underline-thickness="50"
    underline-position="-150"
    unicode-range="U+000D-FB02"
  />
<missing-glyph horiz-adv-x="205" 
 />
    <glyph glyph-name="fi" unicode="fi" horiz-adv-x="658" 
d="M30 45l78 25v350h-83v48l83 39q0 106 71 165t199 59q36 0 83.5 -8t59.5 -16l-19 -145h-75l-18 80q-34 6 -60 6q-62 0 -85 -33t-23 -94v-30l316 11v-432l78 -20v-50h-273v45l60 25v352h-179v-352l60 -25v-45h-273v45z" />
    <glyph glyph-name="fl" unicode="fl" horiz-adv-x="646" 
d="M30 45l78 25v350h-83v48l83 39q0 63 31 115.5t87 83t128 30.5q43 0 81 -7.5t57 -17.5l19 20h44v-661l78 -24v-46h-280v45l67 29v559q-2 1 -20 10.5t-63 9.5q-56 0 -76 -32t-20 -100v-29h123v-79l-121 9v-351l60 -26v-45h-273v45z" />
    <glyph glyph-name="f_f" unicode="ff" horiz-adv-x="772" 
d="M25 0zM30 50l78 20v350h-83v48l83 39q0 106 60 165t170 59q27 0 60.5 -8t42.5 -16l-19 -145h-65l-18 80q-16 6 -30 6q-43 0 -55.5 -31.5t-12.5 -95.5v-29h150v-79l-148 9v-348l118 -19v-55h-331v50zM416 50l78 20v350h-83v48l83 39q0 106 60 165t170 59q27 0 60.5 -8
t42.5 -16l-19 -145h-65l-18 80q-16 6 -30 6q-43 0 -55.5 -31.5t-12.5 -95.5v-29h150v-79l-148 9v-348l118 -19v-55h-331v50z" />
    <glyph glyph-name=".notdef" horiz-adv-x="205" 
 />
    <glyph glyph-name=".null" horiz-adv-x="0" 
 />
    <glyph glyph-name="nonmarkingreturn" unicode="&#xd;" horiz-adv-x="170" 
 />
    <glyph glyph-name="NULL" horiz-adv-x="0" 
 />
    <glyph glyph-name="NULL" horiz-adv-x="0" 
 />
    <glyph glyph-name="space" unicode=" " horiz-adv-x="170" 
 />
    <glyph glyph-name="exclam" unicode="!" horiz-adv-x="239" 
d="M162 188h-87l-30 426h147zM70.5 108q19.5 21 48.5 21q28 0 48 -21t20 -50q0 -28 -19.5 -47t-48.5 -19q-30 0 -49 18.5t-19 47.5t19.5 50z" />
    <glyph glyph-name="quotedbl" unicode="&#x22;" horiz-adv-x="345" 
d="M37 701h111l-35 -233h-41zM199 701h109l-36 -233h-38z" />
    <glyph glyph-name="numbersign" unicode="#" horiz-adv-x="558" 
d="M411 235h107l-25 -76h-102l-46 -167h-84l48 167h-112l-46 -167h-84l47 167h-114l22 76h113l24 88h-118l23 77h115l47 167h84l-49 -167h113l45 167h83l-46 -167h102l-21 -77h-102zM217 235h112l25 88h-114z" />
    <glyph glyph-name="dollar" unicode="$" horiz-adv-x="538" 
d="M225 2q-92 3 -166 30l14 127h55l15 -82q55 -15 97 -15q55 0 86.5 22.5t31.5 63.5q0 32 -20 50.5t-68 38.5l-101 43q-48 20 -74.5 56.5t-26.5 102.5q0 75 45 121t127 55v103h68v-101q63 -4 145 -30l-10 -134h-52l-22 94q-12 4 -36 7t-41 3q-47 0 -80 -19t-33 -64
q0 -35 22 -55.5t66 -39.5l103 -44q52 -22 78 -61t26 -104q0 -66 -47 -111t-136 -54v-123h-66v120z" />
    <glyph glyph-name="percent" unicode="%" horiz-adv-x="931" 
d="M335.5 231q-46.5 -53 -125.5 -53t-127 53.5t-48 171.5q0 119 48 172.5t127 53.5t125.5 -53t46.5 -173q0 -119 -46.5 -172zM397 0h-86l224 614h86zM282.5 296.5q30.5 32.5 30.5 110.5q0 77 -30.5 107t-72.5 30q-43 0 -72.5 -30.5t-29.5 -110.5q0 -77 30 -108t72 -31
t72.5 32.5zM846 45q-46 -53 -124 -53q-79 0 -126.5 53.5t-47.5 171.5q0 119 47.5 173t126.5 54q78 0 124 -53.5t46 -173.5q0 -119 -46 -172zM794 110.5q30 32.5 30 110.5q0 76 -29.5 106.5t-72.5 30.5t-73 -31t-30 -110q0 -77 30 -108t73 -31q42 0 72 32.5z" />
    <glyph glyph-name="ampersand" unicode="&#x26;" horiz-adv-x="599" 
d="M227 -6q-69 0 -113.5 23t-65 59.5t-20.5 77.5q0 68 36 111t97 75q-65 87 -65 149q0 51 29 82.5t70 44.5t80 13q73 0 119.5 -30t46.5 -86q0 -40 -17.5 -68.5t-44.5 -48.5t-80 -52q21 -21 113 -124l19 -21q13 36 13 86l-33 13v44h184v-45l-76 -13q-7 -80 -39 -141l73 -77
l79 -21v-45h-179l-45 42q-67 -48 -181 -48zM227 450.5q12 -27.5 31 -50.5q37 22 56 43.5t19 57.5q0 23 -15 42t-47 19q-26 0 -41 -15t-15 -42t12 -54.5zM322 61.5q32 9.5 50 26.5q-13 15 -47 49q-7 7 -51 53t-78 91q-50 -41 -50 -105q0 -57 27.5 -90.5t79.5 -33.5
q37 0 69 9.5z" />
    <glyph glyph-name="quotesingle" unicode="'" horiz-adv-x="195" 
d="M42 701h111l-35 -233h-41z" />
    <glyph glyph-name="parenleft" unicode="(" horiz-adv-x="335" 
d="M185 101q7 -74 37 -144t92 -98l-11 -41q-96 27 -147 76.5t-71.5 136t-20.5 234.5q0 149 20.5 236t71.5 136.5t147 77.5l11 -43q-62 -27 -92 -97t-37 -144t-7 -166q0 -90 7 -164z" />
    <glyph glyph-name="parenright" unicode=")" horiz-adv-x="335" 
d="M150 431q-7 74 -37 144t-93 97l11 43q96 -28 146.5 -77.5t70.5 -136t20 -236.5q0 -149 -20 -235t-71 -135.5t-146 -76.5l-11 41q63 28 93 98t37 144t7 164q0 92 -7 166z" />
    <glyph glyph-name="asterisk" unicode="*" horiz-adv-x="352" 
d="M120 416l-85 61l78 81l-3 10l-110 18l29 99l106 -52l6 6l-17 114h102l-16 -114l9 -6l103 52l30 -99l-111 -18l-3 -10l79 -81l-85 -61l-51 100h-11z" />
    <glyph glyph-name="plus" unicode="+" horiz-adv-x="510" 
d="M215 94v168h-167v79h167v167h79v-167h168v-79h-168v-168h-79z" />
    <glyph glyph-name="comma" unicode="," horiz-adv-x="207" 
d="M80 -115l-51 9l14 225l102 22l29 -28z" />
    <glyph glyph-name="hyphen" unicode="-" horiz-adv-x="282" 
d="M274 203h-265v74h265v-74z" />
    <glyph glyph-name="period" unicode="." horiz-adv-x="220" 
d="M169.5 15q-24.5 -23 -59.5 -23q-34 0 -59 23t-25 57q0 35 25 59.5t59 24.5q35 0 59.5 -24.5t24.5 -59.5q0 -34 -24.5 -57z" />
    <glyph glyph-name="slash" unicode="/" horiz-adv-x="376" 
d="M373 698l-274 -837h-96l271 837h99z" />
    <glyph glyph-name="zero" unicode="0" horiz-adv-x="510" 
d="M418 65q-61 -76 -165 -76q-101 0 -161.5 77t-60.5 247q0 168 64.5 244.5t166.5 76.5q107 0 162 -73.5t55 -247.5q0 -172 -61 -248zM346.5 146.5q36.5 49.5 36.5 171.5q0 210 -127 210q-54 0 -90.5 -47.5t-36.5 -169.5q0 -118 36.5 -166t90.5 -48t90.5 49.5z" />
    <glyph glyph-name="one" unicode="1" horiz-adv-x="510" 
d="M488 49v-49h-426v49l162 28v451h-157v48l283 43v-543z" />
    <glyph glyph-name="two" unicode="2" horiz-adv-x="510" 
d="M6 70l218 223q34 33 55.5 77t21.5 83q0 41 -27 66t-84 25q-25 0 -46.5 -6t-60.5 -20q-12 -5 -26 -10l-30 66q51 25 102 40t108 15q96 0 152 -38t56 -124q0 -62 -32 -114t-103 -120l-176 -158l235 13l40 80h59l-14 -168h-424z" />
    <glyph glyph-name="three" unicode="3" horiz-adv-x="510" 
d="M370.5 594q49.5 -35 49.5 -102q0 -52 -30 -92.5t-80 -65.5q65 -14 102 -56.5t37 -102.5q0 -93 -59 -140t-175 -47q-91 0 -190 37l20 69q95 -32 146 -32q52 0 87.5 28.5t35.5 84.5q0 70 -47 93t-123 23l-4 57q149 17 149 125q0 38 -19.5 57t-62.5 19q-26 0 -66.5 -8.5
t-81.5 -27.5l-29 61q38 24 98 39.5t114 15.5q79 0 128.5 -35z" />
    <glyph glyph-name="four" unicode="4" horiz-adv-x="510" 
d="M280 0v135h-273l-17 49l311 439l102 -10v-408h81v-70h-81v-135h-123zM108 205h172v249z" />
    <glyph glyph-name="five" unicode="5" horiz-adv-x="510" 
d="M431 534h-253l-11 -148q125 -4 189.5 -32.5t85 -71t20.5 -100.5q0 -90 -60 -142.5t-175 -52.5q-93 0 -193 37l23 73q55 -20 85 -27t56 -7q58 0 93.5 30.5t35.5 84.5q0 75 -56 105t-175 30l-30 30l27 271h338v-80z" />
    <glyph glyph-name="six" unicode="6" horiz-adv-x="510" 
d="M296 386q88 0 134.5 -51.5t46.5 -135.5q0 -50 -20.5 -98t-72 -81.5t-138.5 -33.5q-126 0 -170.5 74t-44.5 184q0 128 45 215t116 128.5t148 41.5q33 0 50.5 -2t44.5 -9l-8 -60q-21 4 -36.5 5.5t-36.5 1.5q-81 -1 -131.5 -61.5t-60.5 -170.5q51 53 134 53zM180.5 105.5
q19.5 -48.5 73.5 -48.5q47 0 71 34t24 90q0 60 -18 95t-64 35q-64 0 -106 -72q0 -85 19.5 -133.5z" />
    <glyph glyph-name="seven" unicode="7" horiz-adv-x="510" 
d="M43 448l-7 166h430l17 -57l-232 -570l-128 15l260 525h-248l-20 -79h-72z" />
    <glyph glyph-name="eight" unicode="8" horiz-adv-x="510" 
d="M90.5 26.5q-43.5 37.5 -43.5 110.5q0 100 115 173q-49 30 -73.5 68.5t-24.5 94.5q0 68 50.5 112t150.5 44q107 0 147.5 -37t40.5 -99q0 -42 -26.5 -84t-89.5 -73q43 -23 69 -43.5t42 -50.5t16 -73q0 -83 -56 -131.5t-164 -48.5q-110 0 -153.5 37.5zM324 418.5
q18 26.5 18 58.5q0 46 -19 67.5t-58 21.5q-83 0 -83 -84q0 -33 22.5 -62t63.5 -51q38 23 56 49.5zM316.5 76q26.5 24 26.5 70q0 37 -24 64.5t-62 45.5l-34 18q-26 -21 -43.5 -59t-17.5 -70q0 -93 84 -93q44 0 70.5 24z" />
    <glyph glyph-name="nine" unicode="9" horiz-adv-x="510" 
d="M187 60q85 0 118.5 53t33.5 150q-36 -15 -65 -21t-60 -6q-89 0 -139 49.5t-50 137.5q0 79 47.5 142.5t176.5 63.5q221 0 221 -288q0 -190 -69 -271.5t-201 -81.5q-42 0 -78 7t-81 24l15 66q76 -25 131 -25zM334.5 458q-6.5 45 -28.5 72.5t-66 27.5q-40 0 -63 -33t-23 -88
q0 -66 23 -97t60 -31q45 0 104 34q0 70 -6.5 115z" />
    <glyph glyph-name="colon" unicode=":" horiz-adv-x="228" 
d="M173.5 335q-24.5 -23 -59.5 -23q-34 0 -59 23t-25 57q0 33 25.5 57.5t58.5 24.5q35 0 59.5 -24t24.5 -58t-24.5 -57zM173.5 15q-24.5 -23 -59.5 -23q-34 0 -59 23t-25 57q0 35 25 59.5t59 24.5q35 0 59.5 -24.5t24.5 -59.5q0 -34 -24.5 -57z" />
    <glyph glyph-name="semicolon" unicode=";" horiz-adv-x="200" 
d="M158.5 335q-24.5 -23 -59.5 -23q-34 0 -59 23t-25 57q0 33 25.5 57.5t58.5 24.5q35 0 59.5 -24t24.5 -58t-24.5 -57zM83 -115l-50 9l13 225l102 22l29 -28z" />
    <glyph glyph-name="less" unicode="&#x3c;" horiz-adv-x="510" 
d="M409 97l-382 204l382 204l42 -70l-266 -134l266 -134z" />
    <glyph glyph-name="equal" unicode="=" horiz-adv-x="510" 
d="M40 350v79h414v-79h-414zM40 173v79h414v-79h-414z" />
    <glyph glyph-name="greater" unicode="&#x3e;" horiz-adv-x="510" 
d="M82 97l-42 70l266 134l-266 134l42 70l382 -204z" />
    <glyph glyph-name="question" unicode="?" horiz-adv-x="380" 
d="M273.5 610q42.5 -19 65.5 -51t23 -69q0 -63 -39 -115.5t-146 -95.5l-8 -87h-59l-24 125q57 24 100 68t43 105q0 35 -23.5 53t-58.5 18q-16 0 -29 -3l-19 -103h-62l-19 134q29 16 71.5 28t84.5 12q57 0 99.5 -19zM187 108q20 -21 20 -50q0 -28 -19.5 -47t-48.5 -19
t-48 18.5t-19 47.5t19 50t48 21q28 0 48 -21z" />
    <glyph glyph-name="at" unicode="@" horiz-adv-x="752" 
d="M211.5 50.5q57.5 -60.5 157.5 -60.5q90 0 226 47l16 -52q-64 -31 -131 -47t-127 -16q-105 0 -174.5 43.5t-102 116.5t-32.5 162q0 82 34.5 153t109.5 115t189 44q181 0 256.5 -82.5t75.5 -203.5q0 -71 -30 -120t-78 -72.5t-102 -23.5q-28 0 -49.5 11.5t-33.5 30.5
q-21 -19 -46.5 -30t-50.5 -11q-46 0 -72 28.5t-26 70.5q0 31 17 56t70 40l101 27v34q0 42 -46 42q-40 0 -114 -27l-17 47q87 41 155 41q63 0 96 -20t33 -67v-173q0 -14 2.5 -22.5t12.5 -8.5q33 0 52.5 41t19.5 120q0 57 -23.5 103t-72 73.5t-119.5 27.5q-121 0 -177.5 -67.5
t-56.5 -180.5q0 -129 57.5 -189.5zM332 187q-8 -10 -8 -26q0 -36 34 -36q19 0 51 15v76l-49 -12q-20 -7 -28 -17z" />
    <glyph glyph-name="A" unicode="A" horiz-adv-x="594" 
d="M142 68l68 -23v-45h-220v44l71 25l189 545l78 13l205 -558l71 -24v-45h-278v45l65 20l-29 88h-192zM262 423l-73 -216h153z" />
    <glyph glyph-name="B" unicode="B" horiz-adv-x="593" 
d="M503.5 272q39.5 -41 39.5 -103q0 -78 -61.5 -123.5t-181.5 -45.5h-264v45l84 24v477l-85 23v45h274q218 0 218 -150q0 -56 -39.5 -92.5t-103.5 -47.5q80 -11 119.5 -52zM361 369q31 26 31 91q0 47 -23.5 70t-64.5 23q-17 0 -31 -3t-18 -4v-203h29q46 0 77 26zM304 63
q46 0 73 28t27 84t-34.5 85t-87.5 29h-27v-220q19 -6 49 -6z" />
    <glyph glyph-name="C" unicode="C" horiz-adv-x="548" 
d="M428.5 -3q-43.5 -8 -98.5 -8q-103 0 -170 43t-98.5 115.5t-31.5 164.5q0 141 73 229t227 88q57 0 97.5 -7.5t90.5 -21.5l-11 -153h-50l-25 98q-16 6 -39 9.5t-44 3.5q-101 0 -139 -67.5t-38 -178.5q0 -106 39.5 -177.5t133.5 -71.5q42 0 87 13l25 86h53l8 -141
q-46 -16 -89.5 -24z" />
    <glyph glyph-name="D" unicode="D" horiz-adv-x="655" 
d="M548 535.5q77 -78.5 77 -215.5q0 -142 -73.5 -231t-223.5 -89h-292v45l84 24v477l-85 23v45h274q162 0 239 -78.5zM255 546v-477q38 -12 78 -12q86 0 118 71.5t32 191.5q0 68 -21.5 120.5t-61 82t-92.5 29.5q-29 0 -53 -6z" />
    <glyph glyph-name="E" unicode="E" horiz-adv-x="545" 
d="M378 396h53v-191h-53l-19 69h-104v-205h181l26 93h56v-162h-482v45l84 24v477l-85 23v45h463v-146h-56l-22 78h-165v-216h106z" />
    <glyph glyph-name="F" unicode="F" horiz-adv-x="513" 
d="M498 614v-146h-56l-22 78h-165v-226h106l17 66h53v-191h-53l-19 69h-104v-189l106 -25v-50h-325v45l84 24v477l-85 23v45h463z" />
    <glyph glyph-name="G" unicode="G" horiz-adv-x="619" 
d="M360 558q-105 0 -146.5 -72.5t-41.5 -173.5q0 -111 39 -180t128 -69q44 0 70 8v150l-84 23v45h279v-47l-60 -19v-190q-36 -20 -88.5 -31t-109.5 -11q-165 0 -240.5 89t-75.5 232q0 141 80 229t248 88q47 0 99.5 -8.5t84.5 -20.5l-11 -153h-56l-25 98q-30 13 -90 13z" />
    <glyph glyph-name="H" unicode="H" horiz-adv-x="736" 
d="M35 0v45l85 24v477l-85 23v45h305v-45l-85 -23v-211h226v211l-86 23v45h306v-45l-85 -23v-477l85 -24v-45h-305v45l85 24v207h-226v-207l85 -24v-45h-305z" />
    <glyph glyph-name="I" unicode="I" horiz-adv-x="375" 
d="M36 0v45l84 24v477l-85 23v45h305v-45l-85 -23v-477l85 -24v-45h-304z" />
    <glyph glyph-name="J" unicode="J" horiz-adv-x="351" 
d="M-30 -118l4 37h68q42 0 57 31.5t15 90.5v505l-85 23v45h304v-45l-85 -23v-483q0 -118 -42 -165.5t-125 -47.5q-63 0 -111 32z" />
    <glyph glyph-name="K" unicode="K" horiz-adv-x="593" 
d="M613 0h-184l-175 253v-185l65 -22v-46h-284v45l84 24v477l-84 23v45h284v-46l-65 -22v-199l183 207l-55 15v45h205v-43l-68 -22l-175 -206l188 -270l81 -28v-45z" />
    <glyph glyph-name="L" unicode="L" horiz-adv-x="491" 
d="M486 0h-451v45l84 24v477l-84 23v45h304v-45l-85 -23v-477h150l26 93h56v-162z" />
    <glyph glyph-name="M" unicode="M" horiz-adv-x="814" 
d="M256 0h-237v45l84 24l18 477l-84 23v45h208l156 -468l154 468h216v-45l-85 -23l21 -477l85 -24v-45h-296v45l84 24l-15 366l-148 -435l-74 -10l-158 442l-14 -363l85 -24v-45z" />
    <glyph glyph-name="N" unicode="N" horiz-adv-x="719" 
d="M461 614h243v-45l-85 -23v-546l-112 -10l-318 466v-387l85 -24v-45h-238v45l84 24v477l-85 23v45h206l305 -451v383l-85 23v45z" />
    <glyph glyph-name="O" unicode="O" horiz-adv-x="663" 
d="M560 540q73 -88 73 -229q0 -142 -73.5 -231t-226.5 -89q-102 0 -170 42.5t-100.5 114.5t-32.5 163q0 90 31.5 161.5t99.5 113.5t172 42q154 0 227 -88zM454 484.5q-34 73.5 -127 73.5q-89 0 -120.5 -73t-31.5 -174q0 -249 162 -249q89 0 120 72.5t31 176.5
q0 100 -34 173.5z" />
    <glyph glyph-name="P" unicode="P" horiz-adv-x="549" 
d="M428 593.5q50 -20.5 80.5 -60.5t30.5 -96q0 -66 -33.5 -109.5t-86 -64t-110.5 -20.5q-8 0 -28 1t-26 3v-178l106 -23v-46h-325v45l84 24v477l-85 23v45h286q57 0 107 -20.5zM285 293q56 0 86.5 38.5t30.5 98.5q0 55 -25 88t-67 33q-34 0 -55 -5v-250q10 -3 30 -3z" />
    <glyph glyph-name="Q" unicode="Q" horiz-adv-x="662" 
d="M624 -146q-34 -11 -61 -11q-28 0 -63.5 13t-91.5 48l-155 96q-111 23 -167 107t-56 204q0 140 74.5 228.5t227.5 88.5q154 0 227 -88t73 -229q0 -120 -57 -207t-175 -109q173 -80 207 -80h69l4 -37q-22 -13 -56 -24zM336 63q91 0 121.5 71.5t30.5 176.5
q0 100 -34.5 173.5t-127.5 73.5q-89 0 -120.5 -73t-31.5 -174q0 -248 162 -248z" />
    <glyph glyph-name="R" unicode="R" horiz-adv-x="598" 
d="M349 182.5q-23 55.5 -37 70.5t-32 15h-25v-199l74 -24v-45h-293v45l84 24v477l-85 23v45h283q114 0 169 -40t55 -109q0 -126 -143 -170q25 -8 39 -21t27 -39t42 -93l32 -74l64 -23v-45h-185q-46 127 -69 182.5zM377 357q29 34 29 91q0 52 -27.5 78.5t-75.5 26.5
q-29 0 -48 -7v-223h41q52 0 81 34z" />
    <glyph glyph-name="S" unicode="S" horiz-adv-x="483" 
d="M97 580q56 48 157 48q91 0 175 -27l-11 -145h-53l-22 91q-12 4 -36.5 7.5t-40.5 3.5q-50 0 -80.5 -18.5t-30.5 -61.5q0 -35 22.5 -57.5t65.5 -40.5l91 -38q61 -26 88.5 -66t27.5 -97q0 -88 -60 -138t-175 -50q-45 0 -95.5 8t-89.5 23l15 143h56l16 -87q52 -15 96 -15
q53 0 83.5 20t30.5 57q0 34 -19.5 54t-66.5 41l-92 40q-44 19 -76 61t-32 109q0 87 56 135z" />
    <glyph glyph-name="T" unicode="T" horiz-adv-x="539" 
d="M7 614h525l-6 -159h-57l-20 91h-112v-477l85 -24v-45h-304v45l84 24v477h-114l-19 -91h-55z" />
    <glyph glyph-name="U" unicode="U" horiz-adv-x="661" 
d="M553.5 129.5q-18.5 -55.5 -71 -97t-146.5 -41.5q-98 0 -152 36t-73.5 95.5t-19.5 142.5v281l-85 23v45h305v-45l-85 -23v-281q0 -65 9.5 -108t38 -68.5t82.5 -25.5q72 0 106.5 49.5t34.5 132.5v301l-85 23v45h245v-45l-85 -23v-310q0 -51 -18.5 -106.5z" />
    <glyph glyph-name="V" unicode="V" horiz-adv-x="585" 
d="M267 -10l-200 555l-71 24v45h278v-45l-65 -20l118 -356l4 -13l4 14l113 352l-68 23v45h220v-44l-71 -25l-185 -542z" />
    <glyph glyph-name="W" unicode="W" horiz-adv-x="801" 
d="M595 614h220v-44l-71 -24l-126 -543l-77 -13l-131 410l-109 -397l-77 -13l-156 555l-71 24v45h278v-45l-65 -20l75 -345l82 336l125 23l103 -364l70 347l-70 23v45z" />
    <glyph glyph-name="X" unicode="X" horiz-adv-x="614" 
d="M234 46v-46h-227v45l67 20l162 238l-155 246l-67 20v45h282v-49l-72 -16l103 -160l108 160l-72 16v49h228v-45l-67 -20l-155 -225l161 -259l77 -20v-45h-282v49l62 16l-110 171l-114 -171z" />
    <glyph glyph-name="Y" unicode="Y" horiz-adv-x="575" 
d="M358 568v46h220v-44l-71 -25l-142 -289v-187l86 -24v-45h-304v45l84 24v187l-151 289l-71 24v45h283v-47l-68 -21l105 -202l100 204z" />
    <glyph glyph-name="Z" unicode="Z" horiz-adv-x="500" 
d="M472 162l-8 -162h-425l-18 33l306 513h-196l-24 -78h-58l-10 146h436l5 -33l-301 -512h199l38 93h56z" />
    <glyph glyph-name="bracketleft" unicode="[" horiz-adv-x="335" 
d="M308 -167h-235v865h235v-47l-119 -8v-753l119 -9v-48z" />
    <glyph glyph-name="backslash" unicode="\" horiz-adv-x="376" 
d="M102 698l271 -837h-96l-274 837h99z" />
    <glyph glyph-name="bracketright" unicode="]" horiz-adv-x="335" 
d="M26 698h234v-865h-234v48l119 9v753l-119 8v47z" />
    <glyph glyph-name="asciicircum" unicode="^" horiz-adv-x="452" 
d="M19 249l182 365h50l181 -365h-90l-116 240l-117 -240h-90z" />
    <glyph glyph-name="underscore" unicode="_" horiz-adv-x="442" 
d="M442 -79h-442v61h442v-61z" />
    <glyph glyph-name="grave" unicode="`" horiz-adv-x="255" 
d="M232 558l-232 109l4 23l97 40l154 -137z" />
    <glyph glyph-name="a" unicode="a" horiz-adv-x="516" 
d="M161 414l-22 -84h-59l-17 135q100 37 207 37q81 0 121.5 -27t40.5 -98v-294l78 -28v-43q-40 -10 -62 -13.5t-48 -3.5q-35 0 -63.5 13.5t-36.5 39.5q-40 -30 -74 -44t-74 -14q-55 0 -86.5 33t-31.5 90q0 48 29.5 89.5t98.5 55.5l135 28v70q0 39 -14.5 54.5t-49.5 15.5
q-38 0 -72 -12zM182 182q-16 -21 -16 -55q0 -56 52 -56q19 0 41.5 8.5t37.5 18.5v130l-60 -15q-39 -10 -55 -31z" />
    <glyph glyph-name="b" unicode="b" horiz-adv-x="551" 
d="M253 494q29 8 57 8q103 0 159.5 -62.5t56.5 -189.5q0 -112 -57 -186t-198 -74q-43 0 -102.5 8t-97.5 19v616l-78 11v48l169 39h44v-256q18 11 47 19zM275 58q60 0 83 46t23 144q0 97 -22 142t-83 45q-38 0 -70 -20v-344q19 -13 69 -13z" />
    <glyph glyph-name="c" unicode="c" horiz-adv-x="448" 
d="M81.5 61q-56.5 71 -56.5 183q0 116 56 187t174 71q50 0 91 -8t85 -24l-20 -140h-59l-21 92q-32 13 -61 13q-59 0 -79.5 -49t-20.5 -140q0 -73 12 -112t35.5 -54t62.5 -15q62 0 145 24l8 -44q-33 -24 -80.5 -39.5t-97.5 -15.5q-117 0 -173.5 71z" />
    <glyph glyph-name="d" unicode="d" horiz-adv-x="557" 
d="M190 -10q-80 0 -122.5 73.5t-42.5 180.5q0 121 56 189.5t156 68.5q35 0 67 -10.5t40 -16.5v158l-78 11v48l169 39h44v-648l78 -28v-43q-65 -17 -111 -17q-35 0 -63 14t-36 39q-72 -58 -157 -58zM306.5 81.5q25.5 10.5 37.5 23.5v303q-13 12 -35 19.5t-41 7.5
q-49 0 -73.5 -50t-24.5 -139q0 -82 21 -128.5t65 -46.5q25 0 50.5 10.5z" />
    <glyph glyph-name="e" unicode="e" horiz-adv-x="481" 
d="M25 244q0 138 64 198t166 60q105 0 153 -46.5t48 -145.5q0 -43 -4 -66h-282v-24q0 -88 33 -121.5t102 -33.5q52 0 138 24l8 -44q-73 -55 -186 -55q-240 0 -240 254zM320 309v21q0 50 -12 76.5t-48 26.5q-50 0 -68 -32.5t-20 -102.5z" />
    <glyph glyph-name="f" unicode="f" horiz-adv-x="386" 
d="M30 50l78 20v350h-83v48l83 39q0 106 60 165t170 59q27 0 60.5 -8t42.5 -16l-19 -145h-65l-18 80q-16 6 -30 6q-43 0 -55.5 -31.5t-12.5 -95.5v-29h150v-79l-148 9v-348l118 -19v-55h-331v50z" />
    <glyph glyph-name="g" unicode="g" horiz-adv-x="515" 
d="M69.5 -149.5q-44.5 27.5 -44.5 70.5q0 26 15.5 49.5t56.5 46.5q-20 6 -31 25t-11 38q0 26 18 50.5t51 56.5q-38 22 -55 60.5t-17 87.5q0 76 52 123t146 47q70 0 123 -29l135 40v-86h-94q16 -16 26 -43t10 -52q0 -80 -48.5 -127.5t-151.5 -47.5q-19 0 -40.5 2.5t-30.5 5.5
q-9 -22 -9 -32q0 -33 29 -33h127q83 0 128.5 -27t45.5 -89q0 -42 -30 -79.5t-90 -61t-146 -23.5q-120 0 -164.5 27.5zM321 335q0 108 -72 108q-34 0 -49 -27.5t-15 -80.5q0 -110 67 -110q69 0 69 110zM340.5 -87.5q33.5 22.5 33.5 63.5q0 25 -13.5 30.5t-47.5 5.5h-136
q-14 -17 -19.5 -32.5t-5.5 -35.5q0 -26 19 -40t66 -14q70 0 103.5 22.5z" />
    <glyph glyph-name="h" unicode="h" horiz-adv-x="623" 
d="M336 0v45l60 25v294q0 35 -12.5 46t-52.5 11q-58 0 -100 -12v-339l60 -25v-45h-273v50l78 20v563l-78 11v48l169 39h44v-269q29 14 83 27t95 13q53 0 87.5 -25.5t34.5 -78.5v-328l79 -25v-45h-274z" />
    <glyph glyph-name="i" unicode="i" horiz-adv-x="329" 
d="M110 589.5q-26 23.5 -26 56.5q0 34 26 59t60 25t58 -25t24 -59t-24 -57t-58 -23t-60 23.5zM25 0v50l78 20v334l-78 11v48l169 39h44v-432l78 -20v-50h-291z" />
    <glyph glyph-name="j" unicode="j" horiz-adv-x="330" 
d="M231.5 589.5q-24.5 -23.5 -58.5 -23.5t-60 23.5t-26 56.5q0 34 26 59t60 25t58.5 -25t24.5 -59q0 -33 -24.5 -56.5zM201 502h44v-446q0 -117 -43.5 -170.5t-105.5 -53.5q-19 0 -50 7.5t-60 21.5l6 47h45q37 0 55 22t18 51v423l-78 11v48z" />
    <glyph glyph-name="k" unicode="k" horiz-adv-x="584" 
d="M291 0h-273v50l78 20v563l-78 11v48l168 39h45v-661l60 -18v-52zM599 0h-255v52l43 17l-151 189l139 169l-65 15v50h256v-50l-94 -18l-107 -129l179 -224l55 -19v-52z" />
    <glyph glyph-name="l" unicode="l" horiz-adv-x="322" 
d="M15 0v50l78 20v563l-78 11v48l169 39h44v-661l78 -20v-50h-291z" />
    <glyph glyph-name="m" unicode="m" horiz-adv-x="918" 
d="M25 45l78 25v335l-78 10v50l169 37h44v-40q29 14 80.5 27t89.5 13q77 0 109 -46q43 17 94 31.5t89 14.5q54 0 90 -24.5t36 -79.5v-328l79 -25v-45h-274v45l60 25v294q0 34 -13 45.5t-51 11.5q-55 0 -95 -12v-17v-322l60 -25v-45h-255v45l60 25v294q0 24 -5 36t-19.5 16.5
t-43.5 4.5q-51 0 -91 -12v-339l60 -25v-45h-273v45z" />
    <glyph glyph-name="n" unicode="n" horiz-adv-x="630" 
d="M318 488q54 14 96 14q54 0 89 -25t35 -79v-328l79 -25v-45h-274v45l60 25v294q0 25 -6 37t-20 16t-43 4q-53 0 -96 -12v-339l60 -25v-45h-273v45l78 25v335l-78 10v50l169 37h44v-40q26 12 80 26z" />
    <glyph glyph-name="o" unicode="o" horiz-adv-x="544" 
d="M458.5 431q60.5 -71 60.5 -187q0 -112 -61 -183t-188 -71q-124 0 -184.5 71t-60.5 183q0 116 59.5 187t185.5 71q128 0 188.5 -71zM351 386q-23 49 -83 49q-56 0 -77 -49t-21 -140q0 -90 22.5 -139t81.5 -49q58 0 79 48.5t21 139.5t-23 140z" />
    <glyph glyph-name="p" unicode="p" horiz-adv-x="575" 
d="M17 -118l78 20v506l-90 7v50q64 16 143.5 26.5t151.5 10.5q94 0 148.5 -29t78 -85.5t23.5 -143.5q0 -112 -59.5 -178t-169.5 -66q-37 0 -84 16l13 52q22 -5 40 -5q50 0 75 22t32.5 61t7.5 102q0 82 -21 134.5t-84 52.5q-40 0 -70 -9v-520l108 -21v-53h-321v50z" />
    <glyph glyph-name="q" unicode="q" horiz-adv-x="545" 
d="M550 -118v-50h-301v50l98 24v143q-40 -31 -72.5 -45t-84.5 -14q-79 0 -122 71.5t-43 182.5q0 114 52.5 186t156.5 72q71 0 141 -39l58 32h46v-592zM266 435q-46 0 -71 -49t-25 -127q0 -104 22.5 -146t63.5 -42q26 0 49 10t39 28v295q-39 31 -78 31z" />
    <glyph glyph-name="r" unicode="r" horiz-adv-x="426" 
d="M238 401v-331l116 -20v-50h-329v50l78 20v334l-78 11v48l168 39h45v-46q33 22 74 35.5t75 13.5q23 0 29 -1l-19 -179h-73l-21 92q-39 0 -65 -16z" />
    <glyph glyph-name="s" unicode="s" horiz-adv-x="450" 
d="M176 420.5q-22 -14.5 -22 -39.5q0 -21 10.5 -35t36.5 -23l114 -36q52 -16 76.5 -48.5t24.5 -92.5q0 -72 -55 -114t-153 -42q-39 0 -85.5 6.5t-81.5 18.5l12 139h58l21 -84q34 -12 72 -12q98 0 98 61q0 22 -11.5 32t-43.5 21l-109 37q-48 16 -72 48.5t-24 86.5
q0 74 49 116t147 42q39 0 80.5 -7.5t76.5 -21.5l-14 -126h-56l-20 74q-17 7 -32 10.5t-37 3.5q-38 0 -60 -14.5z" />
    <glyph glyph-name="t" unicode="t" horiz-adv-x="348" 
d="M245.5 -3q-41.5 -6 -70.5 -6q-52 0 -70.5 21.5t-18.5 56.5v351h-72v47l83 37l61 100h61v-112h113v-78l-113 7v-336l99 -22v-50q-31 -10 -72.5 -16z" />
    <glyph glyph-name="u" unicode="u" horiz-adv-x="620" 
d="M533.5 -1.5q-22.5 -3.5 -48.5 -3.5q-36 0 -65.5 15.5t-34.5 41.5q-29 -26 -75.5 -44t-88.5 -18q-67 0 -97 32.5t-30 82.5v299l-78 11v48l169 39h44v-362q0 -34 14.5 -51t47.5 -17q20 0 45.5 9.5t44.5 23.5v299l-78 11v48l169 39h44v-419l78 -28v-43q-38 -10 -60.5 -13.5z
" />
    <glyph glyph-name="v" unicode="v" horiz-adv-x="500" 
d="M453 423l-154 -428l-97 -10l-163 440l-51 15v52h247v-55l-51 -12l88 -276l91 274l-64 14v55h217v-52z" />
    <glyph glyph-name="w" unicode="w" horiz-adv-x="734" 
d="M680 423l-133 -428l-95 -10l-86 262l-80 -252l-94 -10l-153 440l-51 15v52h244v-55l-52 -12l79 -276l88 294l84 14l88 -309l71 275l-64 14v55h217v-52z" />
    <glyph glyph-name="x" unicode="x" horiz-adv-x="500" 
d="M517 0h-251v56l41 9l-72 100l-64 -99l45 -10v-56h-226v53l74 20l116 169l-131 183l-47 15v52h224v-54l-37 -7l75 -104l62 98l-44 13v54h213v-55l-55 -10l-121 -178l127 -177l71 -14v-58z" />
    <glyph glyph-name="y" unicode="y" horiz-adv-x="500" 
d="M227 452l-47 -27l96 -251l84 249l-64 14v55h217v-52l-63 -17l-142 -389q-37 -101 -80.5 -151.5t-107.5 -50.5q-53 0 -118 29l8 46h65q87 0 133 119l-171 399l-50 27v40h240v-40z" />
    <glyph glyph-name="z" unicode="z" horiz-adv-x="480" 
d="M288 419h-157l-25 -89h-47l-18 162h392l23 -47l-257 -374h169l36 92h50l-11 -163h-389l-22 46z" />
    <glyph glyph-name="braceleft" unicode="{" horiz-adv-x="335" 
d="M105 678l186 37l11 -43l-91 -37l27 -344l-78 -31l78 -31l-27 -344l91 -37l-11 -41l-186 35l21 376l-73 34v15l73 37z" />
    <glyph glyph-name="bar" unicode="|" horiz-adv-x="373" 
d="M244 698v-837h-115v837h115z" />
    <glyph glyph-name="braceright" unicode="}" horiz-adv-x="335" 
d="M44 -193l-11 41l91 37l-27 344l78 31l-78 31l27 344l-91 37l11 43l186 -37l-21 -374l73 -37v-15l-73 -34l21 -376z" />
    <glyph glyph-name="asciitilde" unicode="~" horiz-adv-x="517" 
d="M131 238q-15 -11 -34 -37l-48 26q24 50 54 74t64 24q22 0 44 -7t52 -21q29 -12 46 -18t34 -6q26 0 41.5 11t34.5 41l52 -27q-57 -103 -132 -103q-22 0 -42 7t-45 20q-30 14 -48.5 20.5t-40.5 6.5q-17 0 -32 -11z" />
    <glyph glyph-name="uni00A0" unicode="&#xa0;" horiz-adv-x="170" 
 />
    <glyph glyph-name="exclamdown" unicode="&#xa1;" horiz-adv-x="239" 
d="M71 483q19 19 49 19q29 0 48.5 -19.5t19.5 -47.5t-19.5 -48t-48.5 -20q-30 0 -49 19.5t-19 48.5t19 48zM193 -121h-147l30 428h87z" />
    <glyph glyph-name="cent" unicode="&#xa2;" horiz-adv-x="538" 
d="M101 124q-47 72 -47 184q0 113 57.5 186t154.5 85v122h65v-122q75 -7 138 -32l-10 -134h-69l-22 94q-10 5 -27 8.5t-31 3.5q-64 0 -89.5 -55t-25.5 -154q0 -111 27.5 -161t93.5 -50q73 0 148 29l8 -40q-74 -51 -156 -55v-119h-67v123q-101 15 -148 87z" />
    <glyph glyph-name="sterling" unicode="&#xa3;" horiz-adv-x="538" 
d="M222.5 111.5q-22.5 -26.5 -60.5 -48.5l259 12l50 57l32 -17l-33 -115h-426l-13 47q0 -3 25 14.5t45 46t20 68.5v87h-99l10 60h89q0 154 44 226.5t145 72.5q78 0 159 -27l-10 -135h-53l-21 89q-22 9 -54 9q-37 0 -55 -23.5t-23 -63t-5 -104.5v-44h185l-9 -60h-177l-1 -84
q-1 -41 -23.5 -67.5z" />
    <glyph glyph-name="currency" unicode="&#xa4;" horiz-adv-x="538" 
d="M103 131q-37 53 -37 118q0 62 37 117l-53 53l50 49l52 -54q52 38 117 38t117 -38l53 53l48 -48l-53 -53q38 -56 38 -117q0 -68 -38 -118l53 -51l-47 -50l-54 53q-49 -36 -117 -36q-65 0 -117 36l-55 -54l-47 50zM184.5 165.5q34.5 -34.5 83.5 -34.5q50 0 85 34.5t35 83.5
q0 50 -35 85t-85 35q-49 0 -83.5 -35t-34.5 -85q0 -49 34.5 -83.5z" />
    <glyph glyph-name="yen" unicode="&#xa5;" horiz-adv-x="538" 
d="M47 336v58h91l-74 146l-69 28v46h278v-46l-65 -28l89 -196l89 196l-65 28v46h217v-46l-75 -28l-69 -146h94v-58h-121l-29 -63h150v-57h-155v-142l86 -28v-46h-301v46l86 28v142h-157v57h151l-32 63h-119z" />
    <glyph glyph-name="brokenbar" unicode="&#xa6;" horiz-adv-x="405" 
d="M244 698v-323h-115v323h115zM244 185v-324h-115v324h115z" />
    <glyph glyph-name="section" unicode="&#xa7;" horiz-adv-x="400" 
d="M231 606q-75 0 -75 -47q0 -15 18 -37t55 -59q58 -59 90 -102t32 -83q0 -48 -16 -70q-75 90 -175 197q-60 65 -78 91t-18 57q0 51 43 82.5t113 31.5q37 0 67.5 -4t47.5 -8.5t21 -6.5l-12 -140h-56l-20 91q-19 7 -37 7zM128 60q23 -7 39 -7q33 0 52 10t19 41q0 16 -18 38
t-56 59q-56 56 -87 97.5t-31 81.5q0 20 4 33.5t13 29.5q67 -81 117 -135.5t58 -63.5q58 -62 76 -88t18 -57q0 -50 -42 -78.5t-113 -28.5q-38 0 -69 4.5t-48.5 9t-21.5 6.5l14 137h54z" />
    <glyph glyph-name="dieresis" unicode="&#xa8;" horiz-adv-x="255" 
d="M66.5 596.5q-21.5 -20.5 -52.5 -20.5q-32 0 -55 20.5t-23 51.5q0 30 23.5 51.5t54.5 21.5q30 0 52 -21.5t22 -51.5q0 -31 -21.5 -51.5zM297 596.5q-22 -20.5 -51 -20.5q-32 0 -54.5 20.5t-22.5 51.5t22.5 52t54.5 21q29 0 51 -21.5t22 -51.5q0 -31 -22 -51.5z" />
    <glyph glyph-name="copyright" unicode="&#xa9;" horiz-adv-x="495" 
d="M38 576q33 56 89 89t121 33q66 0 122 -33t88.5 -89t32.5 -122t-32.5 -122t-88.5 -89t-122 -33q-65 0 -121 33t-89 89.5t-33 121.5q0 66 33 122zM70.5 349.5q28.5 -48.5 76 -77.5t102.5 -29q56 0 103.5 29t75.5 77.5t28 104.5t-28 104.5t-75.5 77.5t-103.5 29
q-55 0 -102.5 -29t-76 -77.5t-28.5 -104.5t28.5 -104.5zM251 293q-77 0 -115 44.5t-38 114.5q0 72 37.5 116.5t115.5 44.5q47 0 97 -15l-10 -76h-33l-7 50q-24 6 -38 6q-82 0 -82 -126q0 -53 19 -88.5t61 -35.5q20 0 40 6l13 45h33l4 -66q-45 -20 -97 -20z" />
    <glyph glyph-name="ordfeminine" unicode="&#xaa;" horiz-adv-x="412" 
d="M128 587l-19 -67h-46l-13 108q37 12 80 19.5t83 7.5q63 0 95 -20.5t32 -76.5v-209l54 -25v-36q-31 -7 -48.5 -10t-36.5 -3q-31 0 -55.5 11.5t-28.5 31.5q-31 -26 -54.5 -37t-60.5 -11q-34 0 -58 29t-24 65q0 38 21.5 69.5t75.5 40.5l97 17v47q0 57 -43 57q-27 0 -51 -8z
M139 380q0 -20 11.5 -29t26.5 -9q22 0 45 16v86l-34 -7q-49 -9 -49 -57z" />
    <glyph glyph-name="guillemotleft" unicode="&#xab;" horiz-adv-x="415" 
d="M16 239l141 179l53 -34l-77 -145l77 -143l-53 -35zM328 61l-141 178l141 179l53 -34l-77 -145l77 -143z" />
    <glyph glyph-name="logicalnot" unicode="&#xac;" horiz-adv-x="550" 
d="M407 116v146h-340v79h415v-225h-75z" />
    <glyph glyph-name="uni00AD" unicode="&#xad;" horiz-adv-x="282" 
d="M274 203h-265v60h265v-60z" />
    <glyph glyph-name="registered" unicode="&#xae;" horiz-adv-x="495" 
d="M127 243q-56 33 -89 89.5t-33 121.5q0 66 33 122t89 89t121 33q66 0 122 -33t88.5 -89t32.5 -122t-32.5 -122t-88.5 -89t-122 -33q-65 0 -121 33zM352.5 272q47.5 29 75.5 77.5t28 104.5t-28 104.5t-75.5 77.5t-103.5 29q-55 0 -102.5 -29t-76 -77.5t-28.5 -104.5
t28.5 -104.5t76 -77.5t102.5 -29q56 0 103.5 29zM120 330l33 8v243l-33 8v24h131q54 0 79.5 -22t25.5 -53q0 -28 -15 -50t-44 -34q12 -5 17.5 -13t12.5 -23t11 -23l28 -58l27 -7v-23h-95q-26 72 -35.5 96.5t-15.5 30.5t-18 6h-5v-102l35 -8v-23h-139v23zM240 469q20 0 31 17
t11 46q0 24 -11.5 38t-33.5 14q-7 0 -13 -2v-113h16z" />
    <glyph glyph-name="macron" unicode="&#xaf;" horiz-adv-x="255" 
d="M7 685h241v-79h-241v79z" />
    <glyph glyph-name="degree" unicode="&#xb0;" horiz-adv-x="443" 
d="M358.5 480q-21.5 -36 -58 -57t-79.5 -21q-42 0 -78.5 21t-58 57t-21.5 79t21.5 79.5t58 58.5t78.5 22q43 0 79.5 -22t58 -58.5t21.5 -79.5t-21.5 -79zM154.5 636.5q-24.5 -30.5 -24.5 -77.5q0 -46 24.5 -76t66.5 -30t67 30t25 76t-25 77t-67 31t-66.5 -30.5z" />
    <glyph glyph-name="plusminus" unicode="&#xb1;" horiz-adv-x="510" 
d="M215 94v168h-167v79h167v167h79v-167h168v-79h-168v-168h-79zM48 0v79h414v-79h-414z" />
    <glyph glyph-name="uni00B2" unicode="&#xb2;" 
d="M67 626l-21 53q27 17 68 28.5t81 11.5q69 0 111 -28.5t42 -90.5q0 -60 -106 -166l-95 -95h127l24 52l61 -7l-8 -107h-307l-16 43l145 150q28 30 46.5 64t18.5 65q0 28 -14 44.5t-38 16.5q-47 0 -119 -34z" />
    <glyph glyph-name="uni00B3" unicode="&#xb3;" 
d="M299.5 696q37.5 -25 37.5 -73q0 -34 -19 -63.5t-51 -46.5q43 -13 66.5 -43t23.5 -67q0 -65 -44 -99.5t-126 -34.5q-64 0 -143 32l11 53q79 -26 109 -26q37 0 59 19.5t22 55.5q0 44 -32.5 58t-86.5 14l-4 50q54 6 79 31t25 59q0 48 -47 48q-20 0 -102 -37l-21 52
q30 19 69.5 31t78.5 12q58 0 95.5 -25z" />
    <glyph glyph-name="acute" unicode="&#xb4;" horiz-adv-x="255" 
d="M27 558l-27 35l156 137l99 -40v-23z" />
    <glyph glyph-name="uni00B5" unicode="&#xb5;" horiz-adv-x="634" 
d="M474 -5q-36 0 -64.5 15t-34.5 42q-42 -62 -110 -62q-48 0 -80 20l26 -210h-123v612l-78 9v44l173 37h43v-359q0 -37 11 -54t42 -17q43 0 92 33v306l-64 10v44l157 37h46v-419l79 -28v-43q-68 -17 -115 -17z" />
    <glyph glyph-name="paragraph" unicode="&#xb6;" horiz-adv-x="552" 
d="M224 222q-61 0 -105.5 26.5t-67.5 71.5t-23 100t23 99.5t67 70.5t106 26q12 0 21 -1v-392q-7 -1 -21 -1zM498 44v-44h-305v45l98 26v543h207v-43l-82 -27v-474z" />
    <glyph glyph-name="periodcentered" unicode="&#xb7;" horiz-adv-x="230" 
d="M187 199.5q-21 -21.5 -53 -21.5q-33 0 -55 21.5t-22 53.5t22 53.5t55 21.5q32 0 53 -21.5t21 -53.5t-21 -53.5z" />
    <glyph glyph-name="cedilla" unicode="&#xb8;" horiz-adv-x="255" 
d="M197 -66q25 -20 25 -52q0 -27 -19 -50.5t-50.5 -37.5t-66.5 -14q-31 0 -54 11l8 40q13 -7 28 -7q27 0 42.5 14t15.5 31q0 16 -13 27t-42 12l-7 19l29 79h46l-16 -52q49 0 74 -20z" />
    <glyph glyph-name="uni00B9" unicode="&#xb9;" 
d="M50 640v43l222 32v-433h-107v358h-115z" />
    <glyph glyph-name="ordmasculine" unicode="&#xba;" horiz-adv-x="426" 
d="M356.5 602q45.5 -53 45.5 -140q0 -84 -46.5 -138t-141.5 -54q-96 0 -142.5 54t-46.5 138q0 87 46 140t143 53t142.5 -53zM264 565q-15 36 -52 36q-36 0 -49.5 -35.5t-13.5 -101.5q0 -65 14 -100t53 -35q36 0 49.5 35t13.5 100t-15 101z" />
    <glyph glyph-name="guillemotright" unicode="&#xbb;" horiz-adv-x="415" 
d="M229 239l-142 -178l-52 35l78 143l-78 145l52 34zM259 418l140 -179l-140 -178l-52 35l76 143l-76 145z" />
    <glyph glyph-name="onequarter" unicode="&#xbc;" horiz-adv-x="931" 
d="M372 -70h-83l233 717h83zM64 532v41l222 33v-434h-107v360h-115zM713 0v79h-202l-14 41l235 322l82 -10v-292h57v-61h-57v-79h-101zM597 140h116v161z" />
    <glyph glyph-name="onehalf" unicode="&#xbd;" horiz-adv-x="931" 
d="M339 -70h-83l233 717h83zM50 532v41l222 33v-434h-107v360h-115zM550 349l-23 53q27 17 69 28.5t82 11.5q153 0 153 -118q0 -34 -28.5 -75t-75.5 -91l-91 -96h121l24 54l61 -8l-8 -108h-307l-16 44l145 152q28 28 46.5 62t18.5 65q0 29 -12.5 43.5t-39.5 14.5
q-48 0 -119 -32z" />
    <glyph glyph-name="threequarters" unicode="&#xbe;" horiz-adv-x="967" 
d="M406 -70h-83l233 717h83zM299.5 587q37.5 -25 37.5 -72q0 -34 -19 -64.5t-51 -47.5q43 -13 66.5 -41t23.5 -65q0 -67 -43.5 -101t-126.5 -34q-69 0 -143 30l11 53q82 -27 109 -27q37 0 59 20.5t22 58.5q0 43 -33 57.5t-86 14.5l-4 46q54 6 79 31.5t25 60.5q0 23 -12 36
t-35 13q-21 0 -102 -38l-21 51q30 19 69.5 31t78.5 12q58 0 95.5 -25zM749 0v79h-202l-14 41l235 322l82 -10v-292h57v-61h-57v-79h-101zM633 140h116v161z" />
    <glyph glyph-name="questiondown" unicode="&#xbf;" horiz-adv-x="380" 
d="M193.5 387q-19.5 20 -19.5 48t19.5 47.5t47.5 19.5q30 0 49 -19t19 -48t-19 -48.5t-49 -19.5q-28 0 -47.5 20zM108 -117.5q-43 19.5 -66 52t-23 68.5q0 64 39 117t146 95l9 88h58l24 -125q-57 -25 -100 -69.5t-43 -105.5q0 -35 23 -52t59 -17q11 0 29 3l20 102h61
l20 -133q-29 -16 -74.5 -29.5t-81.5 -13.5q-57 0 -100 19.5z" />
    <glyph glyph-name="Agrave" unicode="&#xc0;" horiz-adv-x="594" 
d="M373 634l-232 109l4 23l97 34l154 -131zM142 68l68 -23v-45h-220v44l71 25l189 545l78 13l205 -558l71 -24v-45h-278v45l65 20l-29 88h-192zM262 423l-73 -216h153z" />
    <glyph glyph-name="Aacute" unicode="&#xc1;" horiz-adv-x="594" 
d="M210 634l-27 35l156 131l99 -34v-23zM142 68l68 -23v-45h-220v44l71 25l189 545l78 13l205 -558l71 -24v-45h-278v45l65 20l-29 88h-192zM262 423l-73 -216h153z" />
    <glyph glyph-name="Acircumflex" unicode="&#xc2;" horiz-adv-x="594" 
d="M418 640l-129 77l-126 -77l-26 25l110 135h85l109 -135zM142 68l68 -23v-45h-220v44l71 25l189 545l78 13l205 -558l71 -24v-45h-278v45l65 20l-29 88h-192zM262 423l-73 -216h153z" />
    <glyph glyph-name="Atilde" unicode="&#xc3;" horiz-adv-x="594" 
d="M382 661q-28 0 -98 20q-59 17 -78 17q-11 0 -19.5 -7t-14 -14.5t-6.5 -9.5l-47 19q16 45 39.5 74.5t47.5 29.5q29 0 97 -20q59 -17 79 -17q11 0 20.5 7t15 14.5t6.5 9.5l44 -19q-43 -104 -86 -104zM142 68l68 -23v-45h-220v44l71 25l189 545l78 13l205 -558l71 -24v-45
h-278v45l65 20l-29 88h-192zM262 423l-73 -216h153z" />
    <glyph glyph-name="Adieresis" unicode="&#xc4;" horiz-adv-x="594" 
d="M231.5 667.5q-21.5 -20.5 -52.5 -20.5q-32 0 -55 20.5t-23 51.5q0 30 23.5 51.5t54.5 21.5q30 0 52 -21.5t22 -51.5q0 -31 -21.5 -51.5zM462 667.5q-22 -20.5 -51 -20.5q-32 0 -54.5 20.5t-22.5 51.5t22.5 52t54.5 21q29 0 51 -21.5t22 -51.5q0 -31 -22 -51.5zM142 68
l68 -23v-45h-220v44l71 25l189 545l78 13l205 -558l71 -24v-45h-278v45l65 20l-29 88h-192zM262 423l-73 -216h153z" />
    <glyph glyph-name="Aring" unicode="&#xc5;" horiz-adv-x="594" 
d="M202.5 653q-29.5 26 -29.5 68q0 43 29.5 70.5t83.5 27.5q55 0 84.5 -27.5t29.5 -70.5q0 -42 -29 -68t-85 -26q-54 0 -83.5 26zM318 686.5q8 12.5 8 34.5q0 23 -8 36.5t-32 13.5t-31.5 -13.5t-7.5 -36.5q0 -22 7.5 -34.5t31.5 -12.5t32 12.5zM-10 0v44l71 25l189 545
l78 13l205 -558l71 -24v-45h-278v45l65 20l-29 88h-192l-28 -85l68 -23v-45h-220zM189 207h153l-80 216z" />
    <glyph glyph-name="AE" unicode="&#xc6;" horiz-adv-x="700" 
d="M-52 0v44l71 25l256 482l-65 18v45h424v-146h-56l-22 78h-131l16 -230h71l17 66h53v-191h-53l-19 69h-65l14 -191h134l26 93h56v-162h-430v45l84 24l-14 185h-120l-95 -186l68 -23v-45h-220zM224 310h87l-10 149z" />
    <glyph glyph-name="Ccedilla" unicode="&#xc7;" horiz-adv-x="548" 
d="M432 -2.5q-41 -7.5 -93 -8.5l-11 -35q49 0 74 -20t25 -52q0 -27 -19 -50.5t-50.5 -37.5t-66.5 -14q-31 0 -54 11l8 40q13 -7 28 -7q27 0 42.5 14t15.5 31q0 16 -13 27t-42 12l-7 19l23 64q-133 11 -197.5 99.5t-64.5 221.5q0 141 73 229t227 88q57 0 97.5 -7.5
t90.5 -21.5l-11 -153h-50l-25 98q-16 6 -39 9.5t-44 3.5q-101 0 -139 -67.5t-38 -178.5q0 -106 39.5 -177.5t133.5 -71.5q42 0 87 13l25 86h53l8 -141q-45 -16 -86 -23.5z" />
    <glyph glyph-name="Egrave" unicode="&#xc8;" horiz-adv-x="545" 
d="M373 634l-232 109l4 23l97 34l154 -131zM36 0v45l84 24v477l-85 23v45h463v-146h-56l-22 78h-165v-216h106l17 66h53v-191h-53l-19 69h-104v-205h181l26 93h56v-162h-482z" />
    <glyph glyph-name="Eacute" unicode="&#xc9;" horiz-adv-x="545" 
d="M201 634l-27 35l156 131l99 -34v-23zM36 0v45l84 24v477l-85 23v45h463v-146h-56l-22 78h-165v-216h106l17 66h53v-191h-53l-19 69h-104v-205h181l26 93h56v-162h-482z" />
    <glyph glyph-name="Ecircumflex" unicode="&#xca;" horiz-adv-x="545" 
d="M414 640l-129 77l-126 -77l-26 25l110 135h85l109 -135zM378 396h53v-191h-53l-19 69h-104v-205h181l26 93h56v-162h-482v45l84 24v477l-85 23v45h463v-146h-56l-22 78h-165v-216h106z" />
    <glyph glyph-name="Edieresis" unicode="&#xcb;" horiz-adv-x="545" 
d="M214.5 667.5q-21.5 -20.5 -52.5 -20.5q-32 0 -55 20.5t-23 51.5q0 30 23.5 51.5t54.5 21.5q30 0 52 -21.5t22 -51.5q0 -31 -21.5 -51.5zM445 667.5q-22 -20.5 -51 -20.5q-32 0 -54.5 20.5t-22.5 51.5t22.5 52t54.5 21q29 0 51 -21.5t22 -51.5q0 -31 -22 -51.5zM378 396
h53v-191h-53l-19 69h-104v-205h181l26 93h56v-162h-482v45l84 24v477l-85 23v45h463v-146h-56l-22 78h-165v-216h106z" />
    <glyph glyph-name="Igrave" unicode="&#xcc;" horiz-adv-x="375" 
d="M292 634l-232 109l4 23l97 34l154 -131zM36 0v45l84 24v477l-85 23v45h305v-45l-85 -23v-477l85 -24v-45h-304z" />
    <glyph glyph-name="Iacute" unicode="&#xcd;" horiz-adv-x="375" 
d="M87 634l-27 35l156 131l99 -34v-23zM36 0v45l84 24v477l-85 23v45h305v-45l-85 -23v-477l85 -24v-45h-304z" />
    <glyph glyph-name="Icircumflex" unicode="&#xce;" horiz-adv-x="375" 
d="M61 640l-26 25l110 135h85l109 -135l-23 -25l-129 77zM36 0v45l84 24v477l-85 23v45h305v-45l-85 -23v-477l85 -24v-45h-304z" />
    <glyph glyph-name="Idieresis" unicode="&#xcf;" horiz-adv-x="375" 
d="M19 667.5q-23 20.5 -23 51.5q0 30 23.5 51.5t54.5 21.5q30 0 52 -21.5t22 -51.5q0 -31 -21.5 -51.5t-52.5 -20.5q-32 0 -55 20.5zM251.5 667.5q-22.5 20.5 -22.5 51.5t22.5 52t54.5 21q29 0 51 -21.5t22 -51.5q0 -31 -22 -51.5t-51 -20.5q-32 0 -54.5 20.5zM36 0v45
l84 24v477l-85 23v45h305v-45l-85 -23v-477l85 -24v-45h-304z" />
    <glyph glyph-name="Eth" unicode="&#xd0;" horiz-adv-x="658" 
d="M39 45l84 24v205h-83v56h83v216l-85 23v45h274q162 0 239 -78.5t77 -215.5q0 -142 -73.5 -231t-223.5 -89h-292v45zM454 128.5q32 71.5 32 191.5q0 68 -21.5 120.5t-61 82t-92.5 29.5q-29 0 -53 -6v-216h113v-56h-113v-205q38 -12 78 -12q86 0 118 71.5z" />
    <glyph glyph-name="Ntilde" unicode="&#xd1;" horiz-adv-x="719" 
d="M461 661q-28 0 -98 20q-59 17 -78 17q-11 0 -19.5 -7t-14 -14.5t-6.5 -9.5l-47 19q16 45 39.5 74.5t47.5 29.5q29 0 97 -20q59 -17 79 -17q11 0 20.5 7t15 14.5t6.5 9.5l44 -19q-43 -104 -86 -104zM461 614h243v-45l-85 -23v-546l-112 -10l-318 466v-387l85 -24v-45h-238
v45l84 24v477l-85 23v45h206l305 -451v383l-85 23v45z" />
    <glyph glyph-name="Ograve" unicode="&#xd2;" horiz-adv-x="663" 
d="M416 634l-232 109l4 23l97 34l154 -131zM560 540q73 -88 73 -229q0 -142 -73.5 -231t-226.5 -89q-102 0 -170 42.5t-100.5 114.5t-32.5 163q0 90 31.5 161.5t99.5 113.5t172 42q154 0 227 -88zM454 484.5q-34 73.5 -127 73.5q-89 0 -120.5 -73t-31.5 -174
q0 -249 162 -249q89 0 120 72.5t31 176.5q0 100 -34 173.5z" />
    <glyph glyph-name="Oacute" unicode="&#xd3;" horiz-adv-x="663" 
d="M30 0zM560 540q73 -88 73 -229q0 -142 -73.5 -231t-226.5 -89q-102 0 -170 42.5t-100.5 114.5t-32.5 163q0 90 31.5 161.5t99.5 113.5t172 42q154 0 227 -88zM454 484.5q-34 73.5 -127 73.5q-89 0 -120.5 -73t-31.5 -174q0 -249 162 -249q89 0 120 72.5t31 176.5
q0 100 -34 173.5zM294 634l-27 35l156 131l99 -34v-23z" />
    <glyph glyph-name="Ocircumflex" unicode="&#xd4;" horiz-adv-x="663" 
d="M460 640l-129 77l-126 -77l-26 25l110 135h85l109 -135zM560 540q73 -88 73 -229q0 -142 -73.5 -231t-226.5 -89q-102 0 -170 42.5t-100.5 114.5t-32.5 163q0 90 31.5 161.5t99.5 113.5t172 42q154 0 227 -88zM454 484.5q-34 73.5 -127 73.5q-89 0 -120.5 -73t-31.5 -174
q0 -249 162 -249q89 0 120 72.5t31 176.5q0 100 -34 173.5z" />
    <glyph glyph-name="Otilde" unicode="&#xd5;" horiz-adv-x="663" 
d="M420 661q-28 0 -98 20q-59 17 -78 17q-11 0 -19.5 -7t-14 -14.5t-6.5 -9.5l-47 19q16 45 39.5 74.5t47.5 29.5q29 0 97 -20q59 -17 79 -17q11 0 20.5 7t15 14.5t6.5 9.5l44 -19q-43 -104 -86 -104zM560 540q73 -88 73 -229q0 -142 -73.5 -231t-226.5 -89
q-102 0 -170 42.5t-100.5 114.5t-32.5 163q0 90 31.5 161.5t99.5 113.5t172 42q154 0 227 -88zM454 484.5q-34 73.5 -127 73.5q-89 0 -120.5 -73t-31.5 -174q0 -249 162 -249q89 0 120 72.5t31 176.5q0 100 -34 173.5z" />
    <glyph glyph-name="Odieresis" unicode="&#xd6;" horiz-adv-x="663" 
d="M270.5 667.5q-21.5 -20.5 -52.5 -20.5q-32 0 -55 20.5t-23 51.5q0 30 23.5 51.5t54.5 21.5q30 0 52 -21.5t22 -51.5q0 -31 -21.5 -51.5zM501 667.5q-22 -20.5 -51 -20.5q-32 0 -54.5 20.5t-22.5 51.5t22.5 52t54.5 21q29 0 51 -21.5t22 -51.5q0 -31 -22 -51.5zM560 540
q73 -88 73 -229q0 -142 -73.5 -231t-226.5 -89q-102 0 -170 42.5t-100.5 114.5t-32.5 163q0 90 31.5 161.5t99.5 113.5t172 42q154 0 227 -88zM454 484.5q-34 73.5 -127 73.5q-89 0 -120.5 -73t-31.5 -174q0 -249 162 -249q89 0 120 72.5t31 176.5q0 100 -34 173.5z" />
    <glyph glyph-name="multiply" unicode="&#xd7;" horiz-adv-x="510" 
d="M122 113l-56 58l133 132l-133 134l58 56l132 -133l131 131l58 -56l-133 -132l133 -131l-56 -57l-133 132z" />
    <glyph glyph-name="Oslash" unicode="&#xd8;" horiz-adv-x="663" 
d="M175 26q-73 38 -109 113t-36 172q0 90 31.5 161.5t99.5 113.5t172 42q40 0 73 -6l34 86h84l-43 -110q78 -36 115 -111.5t37 -175.5q0 -142 -73.5 -231t-226.5 -89q-47 0 -86 9l-37 -94h-81zM381 556q-24 9 -54 9q-152 0 -152 -254q0 -125 38 -189zM457 128.5
q31 74.5 31 182.5q0 128 -44 193l-171 -438q27 -12 64 -12q89 0 120 74.5z" />
    <glyph glyph-name="Ugrave" unicode="&#xd9;" horiz-adv-x="661" 
d="M426 634l-232 109l4 23l97 34l154 -131zM553.5 129.5q-18.5 -55.5 -71 -97t-146.5 -41.5q-98 0 -152 36t-73.5 95.5t-19.5 142.5v281l-85 23v45h305v-45l-85 -23v-281q0 -65 9.5 -108t38 -68.5t82.5 -25.5q72 0 106.5 49.5t34.5 132.5v301l-85 23v45h245v-45l-85 -23
v-310q0 -51 -18.5 -106.5z" />
    <glyph glyph-name="Uacute" unicode="&#xda;" horiz-adv-x="661" 
d="M259 634l-27 35l156 131l99 -34v-23zM553.5 129.5q-18.5 -55.5 -71 -97t-146.5 -41.5q-98 0 -152 36t-73.5 95.5t-19.5 142.5v281l-85 23v45h305v-45l-85 -23v-281q0 -65 9.5 -108t38 -68.5t82.5 -25.5q72 0 106.5 49.5t34.5 132.5v301l-85 23v45h245v-45l-85 -23v-310
q0 -51 -18.5 -106.5z" />
    <glyph glyph-name="Ucircumflex" unicode="&#xdb;" horiz-adv-x="661" 
d="M479 640l-129 77l-126 -77l-26 25l110 135h85l109 -135zM553.5 129.5q-18.5 -55.5 -71 -97t-146.5 -41.5q-98 0 -152 36t-73.5 95.5t-19.5 142.5v281l-85 23v45h305v-45l-85 -23v-281q0 -65 9.5 -108t38 -68.5t82.5 -25.5q72 0 106.5 49.5t34.5 132.5v301l-85 23v45h245
v-45l-85 -23v-310q0 -51 -18.5 -106.5z" />
    <glyph glyph-name="Udieresis" unicode="&#xdc;" horiz-adv-x="661" 
d="M292.5 667.5q-21.5 -20.5 -52.5 -20.5q-32 0 -55 20.5t-23 51.5q0 30 23.5 51.5t54.5 21.5q30 0 52 -21.5t22 -51.5q0 -31 -21.5 -51.5zM523 667.5q-22 -20.5 -51 -20.5q-32 0 -54.5 20.5t-22.5 51.5t22.5 52t54.5 21q29 0 51 -21.5t22 -51.5q0 -31 -22 -51.5z
M553.5 129.5q-18.5 -55.5 -71 -97t-146.5 -41.5q-98 0 -152 36t-73.5 95.5t-19.5 142.5v281l-85 23v45h305v-45l-85 -23v-281q0 -65 9.5 -108t38 -68.5t82.5 -25.5q72 0 106.5 49.5t34.5 132.5v301l-85 23v45h245v-45l-85 -23v-310q0 -51 -18.5 -106.5z" />
    <glyph glyph-name="Yacute" unicode="&#xdd;" horiz-adv-x="575" 
d="M237 634l-27 35l156 131l99 -34v-23zM358 568v46h220v-44l-71 -25l-142 -289v-187l86 -24v-45h-304v45l84 24v187l-151 289l-71 24v45h283v-47l-68 -21l105 -202l100 204z" />
    <glyph glyph-name="Thorn" unicode="&#xde;" horiz-adv-x="542" 
d="M36 45l84 24v477l-85 23v45h305v-45l-85 -23v-71h51q94 0 152.5 -42.5t58.5 -120.5q0 -61 -30.5 -101.5t-79 -59t-102.5 -18.5q-8 0 -26 1t-24 3v-68l85 -24v-45h-304v45zM363 216.5q28 33.5 28 88.5q0 52 -27 80t-81 28h-28v-227q10 -3 28 -3q52 0 80 33.5z" />
    <glyph glyph-name="germandbls" unicode="&#xdf;" horiz-adv-x="638" 
d="M369.5 -4.5q-28.5 5.5 -68.5 19.5l11 130h52l19 -85q23 -10 58 -10q33 0 46.5 14t13.5 39q0 28 -22 53t-67 61q-50 41 -76 71.5t-26 67.5q0 31 10.5 48t33.5 37q26 24 39 47t13 67q0 25 -14 52t-59 27q-51 0 -71.5 -29.5t-20.5 -83.5v-521h-211v50l78 20v350h-83v48
l83 39q0 56 27 102t79 73t123 27q60 0 104 -20.5t67 -55t23 -73.5q0 -31 -13.5 -52t-39.5 -45q-23 -22 -34 -38t-11 -39q0 -17 16.5 -34.5t52.5 -45.5q57 -45 89 -83.5t32 -90.5q0 -67 -47.5 -104.5t-134.5 -37.5q-43 0 -71.5 5.5z" />
    <glyph glyph-name="agrave" unicode="&#xe0;" horiz-adv-x="516" 
d="M324 558l-232 109l4 23l97 40l154 -137zM161 414l-22 -84h-59l-17 135q100 37 207 37q81 0 121.5 -27t40.5 -98v-294l78 -28v-43q-40 -10 -62 -13.5t-48 -3.5q-35 0 -63.5 13.5t-36.5 39.5q-40 -30 -74 -44t-74 -14q-55 0 -86.5 33t-31.5 90q0 48 29.5 89.5t98.5 55.5
l135 28v70q0 39 -14.5 54.5t-49.5 15.5q-38 0 -72 -12zM182 182q-16 -21 -16 -55q0 -56 52 -56q19 0 41.5 8.5t37.5 18.5v130l-60 -15q-39 -10 -55 -31z" />
    <glyph glyph-name="aacute" unicode="&#xe1;" horiz-adv-x="516" 
d="M34 0zM161 414l-22 -84h-59l-17 135q100 37 207 37q81 0 121.5 -27t40.5 -98v-294l78 -28v-43q-40 -10 -62 -13.5t-48 -3.5q-35 0 -63.5 13.5t-36.5 39.5q-40 -30 -74 -44t-74 -14q-55 0 -86.5 33t-31.5 90q0 48 29.5 89.5t98.5 55.5l135 28v70q0 39 -14.5 54.5
t-49.5 15.5q-38 0 -72 -12zM182 182q-16 -21 -16 -55q0 -56 52 -56q19 0 41.5 8.5t37.5 18.5v130l-60 -15q-39 -10 -55 -31zM177 558l-27 35l156 137l99 -40v-23z" />
    <glyph glyph-name="acircumflex" unicode="&#xe2;" horiz-adv-x="516" 
d="M356 559l-119 85l-116 -85l-36 30l110 141h85l109 -141zM161 414l-22 -84h-59l-17 135q100 37 207 37q81 0 121.5 -27t40.5 -98v-294l78 -28v-43q-40 -10 -62 -13.5t-48 -3.5q-35 0 -63.5 13.5t-36.5 39.5q-40 -30 -74 -44t-74 -14q-55 0 -86.5 33t-31.5 90
q0 48 29.5 89.5t98.5 55.5l135 28v70q0 39 -14.5 54.5t-49.5 15.5q-38 0 -72 -12zM182 182q-16 -21 -16 -55q0 -56 52 -56q19 0 41.5 8.5t37.5 18.5v130l-60 -15q-39 -10 -55 -31z" />
    <glyph glyph-name="atilde" unicode="&#xe3;" horiz-adv-x="516" 
d="M333 583q-28 0 -98 20q-59 17 -78 17q-11 0 -19.5 -7t-14 -14.5t-6.5 -9.5l-47 19q44 104 87 104q29 0 97 -20q59 -17 79 -17q11 0 20.5 7t15 14.5t6.5 9.5l44 -19q-43 -104 -86 -104zM161 414l-22 -84h-59l-17 135q100 37 207 37q81 0 121.5 -27t40.5 -98v-294l78 -28
v-43q-40 -10 -62 -13.5t-48 -3.5q-35 0 -63.5 13.5t-36.5 39.5q-40 -30 -74 -44t-74 -14q-55 0 -86.5 33t-31.5 90q0 48 29.5 89.5t98.5 55.5l135 28v70q0 39 -14.5 54.5t-49.5 15.5q-38 0 -72 -12zM182 182q-16 -21 -16 -55q0 -56 52 -56q19 0 41.5 8.5t37.5 18.5v130
l-60 -15q-39 -10 -55 -31z" />
    <glyph glyph-name="adieresis" unicode="&#xe4;" horiz-adv-x="516" 
d="M190.5 596.5q-21.5 -20.5 -52.5 -20.5q-32 0 -55 20.5t-23 51.5q0 30 23.5 51.5t54.5 21.5q30 0 52 -21.5t22 -51.5q0 -31 -21.5 -51.5zM421 596.5q-22 -20.5 -51 -20.5q-32 0 -54.5 20.5t-22.5 51.5t22.5 52t54.5 21q29 0 51 -21.5t22 -51.5q0 -31 -22 -51.5zM161 414
l-22 -84h-59l-17 135q100 37 207 37q81 0 121.5 -27t40.5 -98v-294l78 -28v-43q-40 -10 -62 -13.5t-48 -3.5q-35 0 -63.5 13.5t-36.5 39.5q-40 -30 -74 -44t-74 -14q-55 0 -86.5 33t-31.5 90q0 48 29.5 89.5t98.5 55.5l135 28v70q0 39 -14.5 54.5t-49.5 15.5q-38 0 -72 -12z
M182 182q-16 -21 -16 -55q0 -56 52 -56q19 0 41.5 8.5t37.5 18.5v130l-60 -15q-39 -10 -55 -31z" />
    <glyph glyph-name="aring" unicode="&#xe5;" horiz-adv-x="516" 
d="M329 577q-29 -29 -85 -29q-54 0 -83.5 29t-29.5 75q0 47 29.5 77.5t83.5 30.5q55 0 84.5 -30.5t29.5 -77.5q0 -46 -29 -75zM212.5 693q-7.5 -14 -7.5 -41q0 -26 7.5 -39t31.5 -13t32 13t8 39q0 27 -8 41t-32 14t-31.5 -14zM161 414l-22 -84h-59l-17 135q100 37 207 37
q81 0 121.5 -27t40.5 -98v-294l78 -28v-43q-40 -10 -62 -13.5t-48 -3.5q-35 0 -63.5 13.5t-36.5 39.5q-40 -30 -74 -44t-74 -14q-55 0 -86.5 33t-31.5 90q0 48 29.5 89.5t98.5 55.5l135 28v70q0 39 -14.5 54.5t-49.5 15.5q-38 0 -72 -12zM182 182q-16 -21 -16 -55
q0 -56 52 -56q19 0 41.5 8.5t37.5 18.5v130l-60 -15q-39 -10 -55 -31z" />
    <glyph glyph-name="ae" unicode="&#xe6;" horiz-adv-x="738" 
d="M61 20.5q-32 30.5 -32 76.5q0 55 37 95.5t110 52.5l116 20v91q0 39 -14.5 54.5t-49.5 15.5q-38 0 -72 -12l-22 -84h-59l-17 135q100 37 207 37q84 0 122 -49q27 24 60.5 36.5t79.5 12.5q86 0 136 -49t50 -145q0 -17 -3 -26l-283 -51q0 -63 13 -99t42 -51.5t80 -15.5
q52 0 138 24l8 -44q-73 -55 -186 -55q-125 0 -178 78q-97 -78 -197 -78q-54 0 -86 30.5zM577 316q0 65 -12.5 91t-47.5 26q-49 0 -67 -37.5t-21 -109.5zM254.5 79.5q22.5 8.5 37.5 18.5v109l-60 -11q-71 -13 -71 -69t52 -56q19 0 41.5 8.5z" />
    <glyph glyph-name="ccedilla" unicode="&#xe7;" horiz-adv-x="448" 
d="M165 -209l8 40q13 -7 28 -7q27 0 42.5 14t15.5 31q0 16 -13 27t-42 12l-7 19l24 65q-100 11 -148 80t-48 172q0 116 56 187t174 71q50 0 91 -8t85 -24l-20 -140h-59l-21 92q-32 13 -61 13q-59 0 -79.5 -49t-20.5 -140q0 -73 12 -112t35.5 -54t62.5 -15q62 0 145 24l8 -44
q-31 -23 -75.5 -38t-90.5 -17l-11 -36q49 0 74 -20t25 -52q0 -27 -19 -50.5t-50.5 -37.5t-66.5 -14q-31 0 -54 11z" />
    <glyph glyph-name="egrave" unicode="&#xe8;" horiz-adv-x="481" 
d="M333 558l-232 109l4 23l97 40l154 -137zM25 244q0 138 64 198t166 60q105 0 153 -46.5t48 -145.5q0 -43 -4 -66h-282v-24q0 -88 33 -121.5t102 -33.5q52 0 138 24l8 -44q-73 -55 -186 -55q-240 0 -240 254zM320 309v21q0 50 -12 76.5t-48 26.5q-50 0 -68 -32.5
t-20 -102.5z" />
    <glyph glyph-name="eacute" unicode="&#xe9;" horiz-adv-x="481" 
d="M173 558l-27 35l156 137l99 -40v-23zM25 244q0 138 64 198t166 60q105 0 153 -46.5t48 -145.5q0 -43 -4 -66h-282v-24q0 -88 33 -121.5t102 -33.5q52 0 138 24l8 -44q-73 -55 -186 -55q-240 0 -240 254zM320 309v21q0 50 -12 76.5t-48 26.5q-50 0 -68 -32.5t-20 -102.5z
" />
    <glyph glyph-name="ecircumflex" unicode="&#xea;" horiz-adv-x="481" 
d="M133 559l-36 30l110 141h85l109 -141l-33 -30l-119 85zM25 244q0 138 64 198t166 60q105 0 153 -46.5t48 -145.5q0 -43 -4 -66h-282v-24q0 -88 33 -121.5t102 -33.5q52 0 138 24l8 -44q-73 -55 -186 -55q-240 0 -240 254zM320 309v21q0 50 -12 76.5t-48 26.5
q-50 0 -68 -32.5t-20 -102.5z" />
    <glyph glyph-name="edieresis" unicode="&#xeb;" horiz-adv-x="481" 
d="M76 596.5q-23 20.5 -23 51.5q0 30 23.5 51.5t54.5 21.5q30 0 52 -21.5t22 -51.5q0 -31 -21.5 -51.5t-52.5 -20.5q-32 0 -55 20.5zM308.5 596.5q-22.5 20.5 -22.5 51.5t22.5 52t54.5 21q29 0 51 -21.5t22 -51.5q0 -31 -22 -51.5t-51 -20.5q-32 0 -54.5 20.5zM25 244
q0 138 64 198t166 60q105 0 153 -46.5t48 -145.5q0 -43 -4 -66h-282v-24q0 -88 33 -121.5t102 -33.5q52 0 138 24l8 -44q-73 -55 -186 -55q-240 0 -240 254zM320 309v21q0 50 -12 76.5t-48 26.5q-50 0 -68 -32.5t-20 -102.5z" />
    <glyph glyph-name="igrave" unicode="&#xec;" horiz-adv-x="329" 
d="M232 558l-232 109l4 23l97 40l154 -137zM316 50v-50h-291v50l78 20v334l-78 11v48l169 39h44v-432z" />
    <glyph glyph-name="iacute" unicode="&#xed;" horiz-adv-x="329" 
d="M62 558l-27 35l156 137l99 -40v-23zM316 50v-50h-291v50l78 20v334l-78 11v48l169 39h44v-432z" />
    <glyph glyph-name="icircumflex" unicode="&#xee;" horiz-adv-x="329" 
d="M267 559l-119 85l-116 -85l-36 30l110 141h85l109 -141zM316 50v-50h-291v50l78 20v334l-78 11v48l169 39h44v-432z" />
    <glyph glyph-name="idieresis" unicode="&#xef;" horiz-adv-x="329" 
d="M93.5 596.5q-21.5 -20.5 -52.5 -20.5q-32 0 -55 20.5t-23 51.5q0 30 23.5 51.5t54.5 21.5q30 0 52 -21.5t22 -51.5q0 -31 -21.5 -51.5zM324 596.5q-22 -20.5 -51 -20.5q-32 0 -54.5 20.5t-22.5 51.5t22.5 52t54.5 21q29 0 51 -21.5t22 -51.5q0 -31 -22 -51.5zM316 50v-50
h-291v50l78 20v334l-78 11v48l169 39h44v-432z" />
    <glyph glyph-name="eth" unicode="&#xf0;" horiz-adv-x="538" 
d="M85.5 61q-60.5 71 -60.5 183q0 116 59.5 187t185.5 71q43 0 85 -10q-22 55 -51 96l-108 -62l-30 52l101 58q-32 38 -87 83l36 49q29 -10 65 -30.5t71 -52.5l107 62l31 -52l-94 -54q123 -143 124 -364q0 -125 -56.5 -206t-193.5 -81q-124 0 -184.5 71zM353 106.5
q21 48.5 21 139.5t-23 140t-83 49q-56 0 -77 -49t-21 -140q0 -90 22.5 -139t81.5 -49q58 0 79 48.5z" />
    <glyph glyph-name="ntilde" unicode="&#xf1;" horiz-adv-x="630" 
d="M405 583q-28 0 -98 20q-59 17 -78 17q-11 0 -19.5 -7t-14 -14.5t-6.5 -9.5l-47 19q44 104 87 104q29 0 97 -20q59 -17 79 -17q11 0 20.5 7t15 14.5t6.5 9.5l44 -19q-43 -104 -86 -104zM318 488q54 14 96 14q54 0 89 -25t35 -79v-328l79 -25v-45h-274v45l60 25v294
q0 25 -6 37t-20 16t-43 4q-53 0 -96 -12v-339l60 -25v-45h-273v45l78 25v335l-78 10v50l169 37h44v-40q26 12 80 26z" />
    <glyph glyph-name="ograve" unicode="&#xf2;" horiz-adv-x="544" 
d="M355 558l-232 109l4 23l97 40l154 -137zM458.5 431q60.5 -71 60.5 -187q0 -112 -61 -183t-188 -71q-124 0 -184.5 71t-60.5 183q0 116 59.5 187t185.5 71q128 0 188.5 -71zM351 386q-23 49 -83 49q-56 0 -77 -49t-21 -140q0 -90 22.5 -139t81.5 -49q58 0 79 48.5
t21 139.5t-23 140z" />
    <glyph glyph-name="oacute" unicode="&#xf3;" horiz-adv-x="544" 
d="M25 0zM458.5 431q60.5 -71 60.5 -187q0 -112 -61 -183t-188 -71q-124 0 -184.5 71t-60.5 183q0 116 59.5 187t185.5 71q128 0 188.5 -71zM351 386q-23 49 -83 49q-56 0 -77 -49t-21 -140q0 -90 22.5 -139t81.5 -49q58 0 79 48.5t21 139.5t-23 140zM191 558l-27 35
l156 137l99 -40v-23z" />
    <glyph glyph-name="ocircumflex" unicode="&#xf4;" horiz-adv-x="544" 
d="M391 559l-119 85l-116 -85l-36 30l110 141h85l109 -141zM458.5 431q60.5 -71 60.5 -187q0 -112 -61 -183t-188 -71q-124 0 -184.5 71t-60.5 183q0 116 59.5 187t185.5 71q128 0 188.5 -71zM351 386q-23 49 -83 49q-56 0 -77 -49t-21 -140q0 -90 22.5 -139t81.5 -49
q58 0 79 48.5t21 139.5t-23 140z" />
    <glyph glyph-name="otilde" unicode="&#xf5;" horiz-adv-x="544" 
d="M359 583q-28 0 -98 20q-59 17 -78 17q-11 0 -19.5 -7t-14 -14.5t-6.5 -9.5l-47 19q44 104 87 104q29 0 97 -20q59 -17 79 -17q11 0 20.5 7t15 14.5t6.5 9.5l44 -19q-43 -104 -86 -104zM458.5 431q60.5 -71 60.5 -187q0 -112 -61 -183t-188 -71q-124 0 -184.5 71
t-60.5 183q0 116 59.5 187t185.5 71q128 0 188.5 -71zM351 386q-23 49 -83 49q-56 0 -77 -49t-21 -140q0 -90 22.5 -139t81.5 -49q58 0 79 48.5t21 139.5t-23 140z" />
    <glyph glyph-name="odieresis" unicode="&#xf6;" horiz-adv-x="544" 
d="M209.5 596.5q-21.5 -20.5 -52.5 -20.5q-32 0 -55 20.5t-23 51.5q0 30 23.5 51.5t54.5 21.5q30 0 52 -21.5t22 -51.5q0 -31 -21.5 -51.5zM440 596.5q-22 -20.5 -51 -20.5q-32 0 -54.5 20.5t-22.5 51.5t22.5 52t54.5 21q29 0 51 -21.5t22 -51.5q0 -31 -22 -51.5zM458.5 431
q60.5 -71 60.5 -187q0 -112 -61 -183t-188 -71q-124 0 -184.5 71t-60.5 183q0 116 59.5 187t185.5 71q128 0 188.5 -71zM351 386q-23 49 -83 49q-56 0 -77 -49t-21 -140q0 -90 22.5 -139t81.5 -49q58 0 79 48.5t21 139.5t-23 140z" />
    <glyph glyph-name="divide" unicode="&#xf7;" horiz-adv-x="510" 
d="M211.5 408q-18.5 19 -18.5 44q0 27 18.5 45.5t44.5 18.5q27 0 45.5 -18.5t18.5 -45.5q0 -25 -18.5 -44t-45.5 -19q-26 0 -44.5 19zM48 262v79h414v-79h-414zM211.5 106q-18.5 19 -18.5 44q0 27 18.5 45.5t44.5 18.5q27 0 45.5 -18.5t18.5 -45.5q0 -25 -18.5 -44
t-45.5 -19q-26 0 -44.5 19z" />
    <glyph glyph-name="oslash" unicode="&#xf8;" horiz-adv-x="544" 
d="M159 10q-68 28 -101 90t-33 144q0 116 59.5 187t185.5 71q25 0 46 -3l30 92h70l-35 -108q71 -27 104.5 -90t33.5 -149q0 -112 -61 -183t-188 -71q-19 0 -49 4l-28 -88h-67zM295 432q-12 3 -27 3q-56 0 -77 -49t-21 -140q0 -92 21 -137zM353 106.5q21 48.5 21 139.5
q0 97 -24 142l-106 -326q12 -4 30 -4q58 0 79 48.5z" />
    <glyph glyph-name="ugrave" unicode="&#xf9;" horiz-adv-x="620" 
d="M378 558l-232 109l4 23l97 40l154 -137zM533.5 -1.5q-22.5 -3.5 -48.5 -3.5q-36 0 -65.5 15.5t-34.5 41.5q-29 -26 -75.5 -44t-88.5 -18q-67 0 -97 32.5t-30 82.5v299l-78 11v48l169 39h44v-362q0 -34 14.5 -51t47.5 -17q20 0 45.5 9.5t44.5 23.5v299l-78 11v48l169 39
h44v-419l78 -28v-43q-38 -10 -60.5 -13.5z" />
    <glyph glyph-name="uacute" unicode="&#xfa;" horiz-adv-x="620" 
d="M218 558l-27 35l156 137l99 -40v-23zM533.5 -1.5q-22.5 -3.5 -48.5 -3.5q-36 0 -65.5 15.5t-34.5 41.5q-29 -26 -75.5 -44t-88.5 -18q-67 0 -97 32.5t-30 82.5v299l-78 11v48l169 39h44v-362q0 -34 14.5 -51t47.5 -17q20 0 45.5 9.5t44.5 23.5v299l-78 11v48l169 39h44
v-419l78 -28v-43q-38 -10 -60.5 -13.5z" />
    <glyph glyph-name="ucircumflex" unicode="&#xfb;" horiz-adv-x="620" 
d="M415 559l-119 85l-116 -85l-36 30l110 141h85l109 -141zM533.5 -1.5q-22.5 -3.5 -48.5 -3.5q-36 0 -65.5 15.5t-34.5 41.5q-29 -26 -75.5 -44t-88.5 -18q-67 0 -97 32.5t-30 82.5v299l-78 11v48l169 39h44v-362q0 -34 14.5 -51t47.5 -17q20 0 45.5 9.5t44.5 23.5v299
l-78 11v48l169 39h44v-419l78 -28v-43q-38 -10 -60.5 -13.5z" />
    <glyph glyph-name="udieresis" unicode="&#xfc;" horiz-adv-x="620" 
d="M235.5 596.5q-21.5 -20.5 -52.5 -20.5q-32 0 -55 20.5t-23 51.5q0 30 23.5 51.5t54.5 21.5q30 0 52 -21.5t22 -51.5q0 -31 -21.5 -51.5zM466 596.5q-22 -20.5 -51 -20.5q-32 0 -54.5 20.5t-22.5 51.5t22.5 52t54.5 21q29 0 51 -21.5t22 -51.5q0 -31 -22 -51.5z
M533.5 -1.5q-22.5 -3.5 -48.5 -3.5q-36 0 -65.5 15.5t-34.5 41.5q-29 -26 -75.5 -44t-88.5 -18q-67 0 -97 32.5t-30 82.5v299l-78 11v48l169 39h44v-362q0 -34 14.5 -51t47.5 -17q20 0 45.5 9.5t44.5 23.5v299l-78 11v48l169 39h44v-419l78 -28v-43q-38 -10 -60.5 -13.5z
" />
    <glyph glyph-name="yacute" unicode="&#xfd;" horiz-adv-x="500" 
d="M172 558l-27 35l156 137l99 -40v-23zM227 452l-47 -27l96 -251l84 249l-64 14v55h217v-52l-63 -17l-142 -389q-37 -101 -80.5 -151.5t-107.5 -50.5q-53 0 -118 29l8 46h65q87 0 133 119l-171 399l-50 27v40h240v-40z" />
    <glyph glyph-name="thorn" unicode="&#xfe;" horiz-adv-x="541" 
d="M-15 -118l78 20v731l-78 11v48l167 39h44v-232q34 3 70 3q94 0 148.5 -29t78 -85.5t23.5 -143.5q0 -112 -59.5 -178t-169.5 -66q-37 0 -84 16l13 52q23 -5 40 -5q50 0 75 22t32.5 61t7.5 102q0 82 -21 134.5t-84 52.5q-40 0 -70 -9v-520l108 -21v-53h-319v50z" />
    <glyph glyph-name="ydieresis" unicode="&#xff;" horiz-adv-x="500" 
d="M207.5 596.5q-21.5 -20.5 -52.5 -20.5q-32 0 -55 20.5t-23 51.5q0 30 23.5 51.5t54.5 21.5q30 0 52 -21.5t22 -51.5q0 -31 -21.5 -51.5zM438 596.5q-22 -20.5 -51 -20.5q-32 0 -54.5 20.5t-22.5 51.5t22.5 52t54.5 21q29 0 51 -21.5t22 -51.5q0 -31 -22 -51.5zM227 452
l-47 -27l96 -251l84 249l-64 14v55h217v-52l-63 -17l-142 -389q-37 -101 -80.5 -151.5t-107.5 -50.5q-53 0 -118 29l8 46h65q87 0 133 119l-171 399l-50 27v40h240v-40z" />
    <glyph glyph-name="Amacron" unicode="&#x100;" horiz-adv-x="594" 
d="M167 758h241v-79h-241v79zM142 68l68 -23v-45h-220v44l71 25l189 545l78 13l205 -558l71 -24v-45h-278v45l65 20l-29 88h-192zM262 423l-73 -216h153z" />
    <glyph glyph-name="amacron" unicode="&#x101;" horiz-adv-x="516" 
d="M121 685h241v-79h-241v79zM161 414l-22 -84h-59l-17 135q100 37 207 37q81 0 121.5 -27t40.5 -98v-294l78 -28v-43q-40 -10 -62 -13.5t-48 -3.5q-35 0 -63.5 13.5t-36.5 39.5q-40 -30 -74 -44t-74 -14q-55 0 -86.5 33t-31.5 90q0 48 29.5 89.5t98.5 55.5l135 28v70
q0 39 -14.5 54.5t-49.5 15.5q-38 0 -72 -12zM182 182q-16 -21 -16 -55q0 -56 52 -56q19 0 41.5 8.5t37.5 18.5v130l-60 -15q-39 -10 -55 -31z" />
    <glyph glyph-name="Abreve" unicode="&#x102;" horiz-adv-x="594" 
d="M189.5 688q-26.5 37 -26.5 98l59 2q0 -61 58 -61q69 0 69 61l57 -2q0 -63 -25 -99t-95 -36t-96.5 37zM142 68l68 -23v-45h-220v44l71 25l189 545l78 13l205 -558l71 -24v-45h-278v45l65 20l-29 88h-192zM262 423l-73 -216h153z" />
    <glyph glyph-name="abreve" unicode="&#x103;" horiz-adv-x="516" 
d="M153 609.5q-23 35.5 -23 99.5l57 2q0 -25 13.5 -43t46.5 -18q69 0 69 61l57 -2q0 -135 -128 -135q-69 0 -92 35.5zM161 414l-22 -84h-59l-17 135q100 37 207 37q81 0 121.5 -27t40.5 -98v-294l78 -28v-43q-40 -10 -62 -13.5t-48 -3.5q-35 0 -63.5 13.5t-36.5 39.5
q-40 -30 -74 -44t-74 -14q-55 0 -86.5 33t-31.5 90q0 48 29.5 89.5t98.5 55.5l135 28v70q0 39 -14.5 54.5t-49.5 15.5q-38 0 -72 -12zM182 182q-16 -21 -16 -55q0 -56 52 -56q19 0 41.5 8.5t37.5 18.5v130l-60 -15q-39 -10 -55 -31z" />
    <glyph glyph-name="Aogonek" unicode="&#x104;" horiz-adv-x="594" 
d="M-10 44l71 25l189 545l78 13l205 -558l71 -24v-45h-116q-32 0 -60.5 -15.5t-45.5 -42t-17 -58.5q0 -27 10 -41t33 -14q30 0 61 22l23 -22q0 -2 -13.5 -18t-38 -30t-58.5 -14q-53 0 -77.5 24t-24.5 62q0 35 18 64t50 64q22 25 32.5 40.5t10.5 29.5q0 13 -7 34l-22 68h-192
l-28 -85l68 -23v-45h-220v44zM262 423l-73 -216h153z" />
    <glyph glyph-name="aogonek" unicode="&#x105;" horiz-adv-x="528" 
d="M522 -171q-15 -24 -42 -43t-67 -19q-54 0 -78.5 24t-24.5 60t24.5 74.5t66.5 69.5q-37 0 -65.5 13.5t-35.5 39.5q-40 -30 -74 -44t-74 -14q-55 0 -86.5 33t-31.5 90q0 48 29.5 89.5t98.5 55.5l135 28v70q0 39 -14.5 54.5t-49.5 15.5q-38 0 -72 -12l-22 -84h-59l-17 135
q100 37 207 37q81 0 121.5 -27t40.5 -98v-294l78 -28v-43q-39 -8 -65 -32t-38 -52.5t-12 -52.5q0 -46 44 -46q28 0 60 22zM297 228l-60 -15q-39 -10 -55 -31t-16 -55q0 -56 52 -56q19 0 41.5 8.5t37.5 18.5v130z" />
    <glyph glyph-name="Cacute" unicode="&#x106;" horiz-adv-x="548" 
d="M237 634l-27 35l156 131l99 -34v-23zM428.5 -3q-43.5 -8 -98.5 -8q-103 0 -170 43t-98.5 115.5t-31.5 164.5q0 141 73 229t227 88q57 0 97.5 -7.5t90.5 -21.5l-11 -153h-50l-25 98q-16 6 -39 9.5t-44 3.5q-101 0 -139 -67.5t-38 -178.5q0 -106 39.5 -177.5t133.5 -71.5
q42 0 87 13l25 86h53l8 -141q-46 -16 -89.5 -24z" />
    <glyph glyph-name="cacute" unicode="&#x107;" horiz-adv-x="448" 
d="M180 558l-27 35l156 137l99 -40v-23zM81.5 61q-56.5 71 -56.5 183q0 116 56 187t174 71q50 0 91 -8t85 -24l-20 -140h-59l-21 92q-32 13 -61 13q-59 0 -79.5 -49t-20.5 -140q0 -73 12 -112t35.5 -54t62.5 -15q62 0 145 24l8 -44q-33 -24 -80.5 -39.5t-97.5 -15.5
q-117 0 -173.5 71z" />
    <glyph glyph-name="Ccircumflex" unicode="&#x108;" horiz-adv-x="548" 
d="M30 0zM428.5 -3q-43.5 -8 -98.5 -8q-103 0 -170 43t-98.5 115.5t-31.5 164.5q0 141 73 229t227 88q57 0 97.5 -7.5t90.5 -21.5l-11 -153h-50l-25 98q-16 6 -39 9.5t-44 3.5q-101 0 -139 -67.5t-38 -178.5q0 -106 39.5 -177.5t133.5 -71.5q42 0 87 13l25 86h53l8 -141
q-46 -16 -89.5 -24zM443 640l-129 77l-126 -77l-26 25l110 135h85l109 -135z" />
    <glyph glyph-name="ccircumflex" unicode="&#x109;" horiz-adv-x="448" 
d="M25 0zM81.5 61q-56.5 71 -56.5 183q0 116 56 187t174 71q50 0 91 -8t85 -24l-20 -140h-59l-21 92q-32 13 -61 13q-59 0 -79.5 -49t-20.5 -140q0 -73 12 -112t35.5 -54t62.5 -15q62 0 145 24l8 -44q-33 -24 -80.5 -39.5t-97.5 -15.5q-117 0 -173.5 71zM383 559l-119 85
l-116 -85l-36 30l110 141h85l109 -141z" />
    <glyph glyph-name="Cdotaccent" unicode="&#x10a;" horiz-adv-x="548" 
d="M30 0zM428.5 -3q-43.5 -8 -98.5 -8q-103 0 -170 43t-98.5 115.5t-31.5 164.5q0 141 73 229t227 88q57 0 97.5 -7.5t90.5 -21.5l-11 -153h-50l-25 98q-16 6 -39 9.5t-44 3.5q-101 0 -139 -67.5t-38 -178.5q0 -106 39.5 -177.5t133.5 -71.5q42 0 87 13l25 86h53l8 -141
q-46 -16 -89.5 -24zM374 658q-24 -23 -58 -23t-60 23.5t-26 56.5q0 34 26 59t60 25t58 -25t24 -59t-24 -57z" />
    <glyph glyph-name="cdotaccent" unicode="&#x10b;" horiz-adv-x="448" 
d="M25 0zM81.5 61q-56.5 71 -56.5 183q0 116 56 187t174 71q50 0 91 -8t85 -24l-20 -140h-59l-21 92q-32 13 -61 13q-59 0 -79.5 -49t-20.5 -140q0 -73 12 -112t35.5 -54t62.5 -15q62 0 145 24l8 -44q-33 -24 -80.5 -39.5t-97.5 -15.5q-117 0 -173.5 71zM324 589
q-24 -23 -58 -23t-60 23.5t-26 56.5q0 34 26 59t60 25t58 -25t24 -59t-24 -57z" />
    <glyph glyph-name="Ccaron" unicode="&#x10c;" horiz-adv-x="548" 
d="M274 641l-110 134l26 25l126 -77l129 77l23 -25l-109 -134h-85zM160 32q-67 43 -98.5 115.5t-31.5 164.5q0 141 73 229t227 88q57 0 97.5 -7.5t90.5 -21.5l-11 -153h-50l-25 98q-16 6 -39 9.5t-44 3.5q-101 0 -139 -67.5t-38 -178.5q0 -106 39.5 -177.5t133.5 -71.5
q42 0 87 13l25 86h53l8 -141q-46 -16 -89.5 -24t-98.5 -8q-103 0 -170 43z" />
    <glyph glyph-name="ccaron" unicode="&#x10d;" horiz-adv-x="448" 
d="M133 732l116 -79l118 79l34 -24l-109 -142h-86l-109 142zM81.5 61q-56.5 71 -56.5 183q0 116 56 187t174 71q50 0 91 -8t85 -24l-20 -140h-59l-21 92q-32 13 -61 13q-59 0 -79.5 -49t-20.5 -140q0 -73 12 -112t35.5 -54t62.5 -15q62 0 145 24l8 -44q-33 -24 -80.5 -39.5
t-97.5 -15.5q-117 0 -173.5 71z" />
    <glyph glyph-name="Dcaron" unicode="&#x10e;" horiz-adv-x="655" 
d="M266 641l-110 134l26 25l126 -77l129 77l23 -25l-109 -134h-85zM36 45l84 24v477l-85 23v45h274q162 0 239 -78.5t77 -215.5q0 -142 -73.5 -231t-223.5 -89h-292v45zM451 128.5q32 71.5 32 191.5q0 68 -21.5 120.5t-61 82t-92.5 29.5q-29 0 -53 -6v-477q38 -12 78 -12
q86 0 118 71.5z" />
    <glyph glyph-name="dcaron" unicode="&#x10f;" horiz-adv-x="619" 
d="M562 529l-41 227h45l68 -23l-32 -204h-40zM71.5 63.5q-42.5 73.5 -42.5 180.5q0 121 56 189.5t156 68.5q35 0 67 -10.5t40 -16.5v158l-78 11v48l169 39h44v-648l78 -28v-43q-65 -17 -111 -17q-35 0 -63 14t-36 39q-72 -58 -157 -58q-80 0 -122.5 73.5zM310.5 81.5
q25.5 10.5 37.5 23.5v303q-13 12 -35 19.5t-41 7.5q-49 0 -73.5 -50t-24.5 -139q0 -82 21 -128.5t65 -46.5q25 0 50.5 10.5z" />
    <glyph glyph-name="Dcroat" unicode="&#x110;" horiz-adv-x="658" 
d="M38 0zM39 45l84 24v205h-83v56h83v216l-85 23v45h274q162 0 239 -78.5t77 -215.5q0 -142 -73.5 -231t-223.5 -89h-292v45zM454 128.5q32 71.5 32 191.5q0 68 -21.5 120.5t-61 82t-92.5 29.5q-29 0 -53 -6v-216h113v-56h-113v-205q38 -12 78 -12q86 0 118 71.5z" />
    <glyph glyph-name="dcroat" unicode="&#x111;" horiz-adv-x="568" 
d="M561 55v-43q-65 -17 -111 -17q-35 0 -63 14t-36 39q-72 -58 -157 -58q-80 0 -122.5 73.5t-42.5 180.5q0 121 56 189.5t156 68.5q35 0 67 -10.5t40 -16.5v88h-161v60h161v30l-78 11v48l169 19h44v-108h57v-60h-57v-480zM348 408q-13 12 -35 19.5t-41 7.5q-49 0 -73.5 -50
t-24.5 -139q0 -82 21 -128.5t65 -46.5q25 0 50.5 10.5t37.5 23.5v303z" />
    <glyph glyph-name="Emacron" unicode="&#x112;" horiz-adv-x="545" 
d="M173 758h241v-79h-241v79zM378 396h53v-191h-53l-19 69h-104v-205h181l26 93h56v-162h-482v45l84 24v477l-85 23v45h463v-146h-56l-22 78h-165v-216h106z" />
    <glyph glyph-name="emacron" unicode="&#x113;" horiz-adv-x="481" 
d="M122 606v79h241v-79h-241zM25 244q0 138 64 198t166 60q105 0 153 -46.5t48 -145.5q0 -43 -4 -66h-282v-24q0 -88 33 -121.5t102 -33.5q52 0 138 24l8 -44q-73 -55 -186 -55q-240 0 -240 254zM320 309v21q0 50 -12 76.5t-48 26.5q-50 0 -68 -32.5t-20 -102.5z" />
    <glyph glyph-name="Ebreve" unicode="&#x114;" horiz-adv-x="545" 
d="M35 0zM378 396h53v-191h-53l-19 69h-104v-205h181l26 93h56v-162h-482v45l84 24v477l-85 23v45h463v-146h-56l-22 78h-165v-216h106zM175 687q-24 36 -24 99l59 2q0 -25 14.5 -43t48.5 -18q36 0 50.5 18t14.5 43l56 -2q0 -61 -27 -98t-98 -37q-70 0 -94 36z" />
    <glyph glyph-name="ebreve" unicode="&#x115;" horiz-adv-x="481" 
d="M25 0zM25 244q0 138 64 198t166 60q105 0 153 -46.5t48 -145.5q0 -43 -4 -66h-282v-24q0 -88 33 -121.5t102 -33.5q52 0 138 24l8 -44q-73 -55 -186 -55q-240 0 -240 254zM320 309v21q0 50 -12 76.5t-48 26.5q-50 0 -68 -32.5t-20 -102.5zM142 609.5q-23 35.5 -23 99.5
l57 2q0 -25 13.5 -43t46.5 -18q69 0 69 61l57 -2q0 -135 -128 -135q-69 0 -92 35.5z" />
    <glyph glyph-name="Edotaccent" unicode="&#x116;" horiz-adv-x="545" 
d="M352 658q-24 -23 -58 -23t-60 23.5t-26 56.5q0 34 26 59t60 25t58 -25t24 -59t-24 -57zM378 396h53v-191h-53l-19 69h-104v-205h181l26 93h56v-162h-482v45l84 24v477l-85 23v45h463v-146h-56l-22 78h-165v-216h106z" />
    <glyph glyph-name="edotaccent" unicode="&#x117;" horiz-adv-x="481" 
d="M191 589.5q-26 23.5 -26 56.5q0 34 26 59t60 25t58 -25t24 -59t-24 -57t-58 -23t-60 23.5zM25 244q0 138 64 198t166 60q105 0 153 -46.5t48 -145.5q0 -43 -4 -66h-282v-24q0 -88 33 -121.5t102 -33.5q52 0 138 24l8 -44q-73 -55 -186 -55q-240 0 -240 254zM320 309v21
q0 50 -12 76.5t-48 26.5q-50 0 -68 -32.5t-20 -102.5z" />
    <glyph glyph-name="Eogonek" unicode="&#x118;" horiz-adv-x="545" 
d="M356 -208.5q-24 24.5 -24 61.5q0 31 23 71t67 76h-386v45l84 24v477l-85 23v45h463v-146h-56l-22 78h-165v-216h106l17 66h53v-191h-53l-19 69h-104v-205h181l26 93h56v-162h-51q-12 -12 -31 -48.5t-19 -77.5q0 -45 43 -45q30 0 61 22l23 -22q0 -2 -13.5 -18t-38 -30
t-58.5 -14q-54 0 -78 24.5z" />
    <glyph glyph-name="eogonek" unicode="&#x119;" horiz-adv-x="481" 
d="M258.5 -209q-24.5 24 -24.5 61q0 38 26 76.5t64 66.5q-30 -5 -59 -5q-240 0 -240 254q0 138 64 198t166 60q105 0 153 -46.5t48 -145.5q0 -43 -4 -66h-282v-24q0 -88 33 -121.5t102 -33.5q52 0 138 24l8 -44l-19 -14q-53 -37 -83 -71.5t-30 -84.5q0 -46 44 -46
q28 0 60 22l23 -22q-15 -24 -42.5 -43t-66.5 -19q-54 0 -78.5 24zM320 309v21q0 50 -12 76.5t-48 26.5q-50 0 -68 -32.5t-20 -102.5z" />
    <glyph glyph-name="Ecaron" unicode="&#x11a;" horiz-adv-x="545" 
d="M258 641l-110 134l26 25l126 -77l129 77l23 -25l-109 -134h-85zM36 0v45l84 24v477l-85 23v45h463v-146h-56l-22 78h-165v-216h106l17 66h53v-191h-53l-19 69h-104v-205h181l26 93h56v-162h-482z" />
    <glyph glyph-name="ecaron" unicode="&#x11b;" horiz-adv-x="481" 
d="M207 566l-109 142l36 24l116 -79l118 79l34 -24l-109 -142h-86zM25 244q0 138 64 198t166 60q105 0 153 -46.5t48 -145.5q0 -43 -4 -66h-282v-24q0 -88 33 -121.5t102 -33.5q52 0 138 24l8 -44q-73 -55 -186 -55q-240 0 -240 254zM320 309v21q0 50 -12 76.5t-48 26.5
q-50 0 -68 -32.5t-20 -102.5z" />
    <glyph glyph-name="Gcircumflex" unicode="&#x11c;" horiz-adv-x="619" 
d="M30 0zM360 558q-105 0 -146.5 -72.5t-41.5 -173.5q0 -111 39 -180t128 -69q44 0 70 8v150l-84 23v45h279v-47l-60 -19v-190q-36 -20 -88.5 -31t-109.5 -11q-165 0 -240.5 89t-75.5 232q0 141 80 229t248 88q47 0 99.5 -8.5t84.5 -20.5l-11 -153h-56l-25 98q-30 13 -90 13
zM439 640l-129 77l-126 -77l-26 25l110 135h85l109 -135z" />
    <glyph glyph-name="gcircumflex" unicode="&#x11d;" horiz-adv-x="515" 
d="M25 0zM69.5 -149.5q-44.5 27.5 -44.5 70.5q0 26 15.5 49.5t56.5 46.5q-20 6 -31 25t-11 38q0 26 18 50.5t51 56.5q-38 22 -55 60.5t-17 87.5q0 76 52 123t146 47q70 0 123 -29l135 40v-86h-94q16 -16 26 -43t10 -52q0 -80 -48.5 -127.5t-151.5 -47.5q-19 0 -40.5 2.5
t-30.5 5.5q-9 -22 -9 -32q0 -33 29 -33h127q83 0 128.5 -27t45.5 -89q0 -42 -30 -79.5t-90 -61t-146 -23.5q-120 0 -164.5 27.5zM321 335q0 108 -72 108q-34 0 -49 -27.5t-15 -80.5q0 -110 67 -110q69 0 69 110zM340.5 -87.5q33.5 22.5 33.5 63.5q0 25 -13.5 30.5t-47.5 5.5
h-136q-14 -17 -19.5 -32.5t-5.5 -35.5q0 -26 19 -40t66 -14q70 0 103.5 22.5zM377 559l-119 85l-116 -85l-36 30l110 141h85l109 -141z" />
    <glyph glyph-name="Gbreve" unicode="&#x11e;" horiz-adv-x="619" 
d="M230 687q-24 36 -24 99l59 2q0 -25 14.5 -43t48.5 -18q36 0 50.5 18t14.5 43l56 -2q0 -61 -27 -98t-98 -37q-70 0 -94 36zM360 558q-105 0 -146.5 -72.5t-41.5 -173.5q0 -111 39 -180t128 -69q44 0 70 8v150l-84 23v45h279v-47l-60 -19v-190q-36 -20 -88.5 -31
t-109.5 -11q-165 0 -240.5 89t-75.5 232q0 141 80 229t248 88q47 0 99.5 -8.5t84.5 -20.5l-11 -153h-56l-25 98q-30 13 -90 13z" />
    <glyph glyph-name="gbreve" unicode="&#x11f;" horiz-adv-x="530" 
d="M152 609.5q-23 35.5 -23 99.5l57 2q0 -25 13.5 -43t46.5 -18q69 0 69 61l57 -2q0 -135 -128 -135q-69 0 -92 35.5zM21 -79q0 52 78 96q-20 6 -31 25t-11 38q0 26 18 50.5t51 56.5q-38 22 -55 60.5t-17 87.5q0 76 52 123t146 47q70 0 123 -29l135 40v-86h-94
q16 -16 26 -43t10 -52q0 -80 -48.5 -127.5t-151.5 -47.5q-19 0 -40.5 2.5t-30.5 5.5q-9 -22 -9 -32q0 -33 29 -33h135q83 0 128.5 -27t45.5 -89q0 -42 -33 -79.5t-96 -61t-149 -23.5q-211 0 -211 98zM323 335q0 108 -72 108q-34 0 -49 -27.5t-15 -80.5q0 -110 67 -110
q69 0 69 110zM345 -87q39 23 39 63q0 25 -13.5 30.5t-47.5 5.5h-144q-16 -21 -23.5 -35.5t-7.5 -32.5q0 -26 20 -40t67 -14q71 0 110 23z" />
    <glyph glyph-name="Gdotaccent" unicode="&#x120;" horiz-adv-x="619" 
d="M30 0zM360 558q-105 0 -146.5 -72.5t-41.5 -173.5q0 -111 39 -180t128 -69q44 0 70 8v150l-84 23v45h279v-47l-60 -19v-190q-36 -20 -88.5 -31t-109.5 -11q-165 0 -240.5 89t-75.5 232q0 141 80 229t248 88q47 0 99.5 -8.5t84.5 -20.5l-11 -153h-56l-25 98q-30 13 -90 13
zM370 658q-24 -23 -58 -23t-60 23.5t-26 56.5q0 34 26 59t60 25t58 -25t24 -59t-24 -57z" />
    <glyph glyph-name="gdotaccent" unicode="&#x121;" horiz-adv-x="515" 
d="M25 0zM69.5 -149.5q-44.5 27.5 -44.5 70.5q0 26 15.5 49.5t56.5 46.5q-20 6 -31 25t-11 38q0 26 18 50.5t51 56.5q-38 22 -55 60.5t-17 87.5q0 76 52 123t146 47q70 0 123 -29l135 40v-86h-94q16 -16 26 -43t10 -52q0 -80 -48.5 -127.5t-151.5 -47.5q-19 0 -40.5 2.5
t-30.5 5.5q-9 -22 -9 -32q0 -33 29 -33h127q83 0 128.5 -27t45.5 -89q0 -42 -30 -79.5t-90 -61t-146 -23.5q-120 0 -164.5 27.5zM321 335q0 108 -72 108q-34 0 -49 -27.5t-15 -80.5q0 -110 67 -110q69 0 69 110zM340.5 -87.5q33.5 22.5 33.5 63.5q0 25 -13.5 30.5t-47.5 5.5
h-136q-14 -17 -19.5 -32.5t-5.5 -35.5q0 -26 19 -40t66 -14q70 0 103.5 22.5zM318 589q-24 -23 -58 -23t-60 23.5t-26 56.5q0 34 26 59t60 25t58 -25t24 -59t-24 -57z" />
    <glyph glyph-name="Gcommaaccent" unicode="&#x122;" horiz-adv-x="619" 
d="M105.5 80q-75.5 89 -75.5 232q0 141 80 229t248 88q47 0 99.5 -8.5t84.5 -20.5l-11 -153h-56l-25 98q-30 13 -90 13q-105 0 -146.5 -72.5t-41.5 -173.5q0 -111 39 -180t128 -69q44 0 70 8v150l-84 23v45h279v-47l-60 -19v-190q-36 -20 -88.5 -31t-109.5 -11
q-165 0 -240.5 89zM268 -229l9 185l90 20l25 -24l-80 -188z" />
    <glyph glyph-name="gcommaaccent" unicode="&#x123;" horiz-adv-x="530" 
d="M219 561l-25 24l80 188l44 -7l-9 -185zM21 -79q0 52 78 96q-20 6 -31 25t-11 38q0 26 18 50.5t51 56.5q-38 22 -55 60.5t-17 87.5q0 76 52 123t146 47q70 0 123 -29l135 40v-86h-94q16 -16 26 -43t10 -52q0 -80 -48.5 -127.5t-151.5 -47.5q-19 0 -40.5 2.5t-30.5 5.5
q-9 -22 -9 -32q0 -33 29 -33h135q83 0 128.5 -27t45.5 -89q0 -42 -33 -79.5t-96 -61t-149 -23.5q-211 0 -211 98zM323 335q0 108 -72 108q-34 0 -49 -27.5t-15 -80.5q0 -110 67 -110q69 0 69 110zM345 -87q39 23 39 63q0 25 -13.5 30.5t-47.5 5.5h-144q-16 -21 -23.5 -35.5
t-7.5 -32.5q0 -26 20 -40t67 -14q71 0 110 23z" />
    <glyph glyph-name="Hcircumflex" unicode="&#x124;" horiz-adv-x="736" 
d="M35 0zM35 0v45l85 24v477l-85 23v45h305v-45l-85 -23v-211h226v211l-86 23v45h306v-45l-85 -23v-477l85 -24v-45h-305v45l85 24v207h-226v-207l85 -24v-45h-305zM497 640l-129 77l-126 -77l-26 25l110 135h85l109 -135z" />
    <glyph glyph-name="hcircumflex" unicode="&#x125;" horiz-adv-x="623" 
d="M12 0zM336 0v45l60 25v294q0 35 -12.5 46t-52.5 11q-58 0 -100 -12v-339l60 -25v-45h-273v50l78 20v563l-78 11v48l169 39h44v-269q29 14 83 27t95 13q53 0 87.5 -25.5t34.5 -78.5v-328l79 -25v-45h-274zM293 736l-129 77l-126 -77l-26 25l110 135h85l109 -135z" />
    <glyph glyph-name="Hbar" unicode="&#x126;" horiz-adv-x="736" 
d="M701 569l-85 -23v-101h81v-55h-81v-321l85 -24v-45h-305v45l85 24v177h-226v-177l85 -24v-45h-305v45l85 24v321h-81v55h81v101l-85 23v45h305v-45l-85 -23v-101h226v101l-86 23v45h306v-45zM481 305v85h-226v-85h226z" />
    <glyph glyph-name="hbar" unicode="&#x127;" horiz-adv-x="623" 
d="M610 45v-45h-274v45l60 25v294q0 35 -12.5 46t-52.5 11q-58 0 -100 -12v-339l60 -25v-45h-273v50l78 20v493h-78v60h78v30l-78 11v48l169 19h44v-108h140v-60h-140v-101q29 14 83 27t95 13q53 0 87.5 -25.5t34.5 -78.5v-328z" />
    <glyph glyph-name="Itilde" unicode="&#x128;" horiz-adv-x="375" 
d="M165 681q-59 17 -78 17q-11 0 -19.5 -7t-14 -14.5t-6.5 -9.5l-47 19q16 45 39.5 74.5t47.5 29.5q29 0 97 -20q59 -17 79 -17q11 0 20.5 7t15 14.5t6.5 9.5l44 -19q-43 -104 -86 -104q-28 0 -98 20zM36 0v45l84 24v477l-85 23v45h305v-45l-85 -23v-477l85 -24v-45h-304z
" />
    <glyph glyph-name="itilde" unicode="&#x129;" horiz-adv-x="329" 
d="M243 555q-28 0 -98 20q-59 17 -78 17q-11 0 -19.5 -7t-14 -14.5t-6.5 -9.5l-47 19q44 104 87 104q29 0 97 -20q59 -17 79 -17q11 0 20.5 7t15 14.5t6.5 9.5l44 -19q-43 -104 -86 -104zM316 50v-50h-291v50l78 20v334l-78 11v48l169 39h44v-432z" />
    <glyph glyph-name="Imacron" unicode="&#x12a;" horiz-adv-x="375" 
d="M65 679v79h241v-79h-241zM36 0v45l84 24v477l-85 23v45h305v-45l-85 -23v-477l85 -24v-45h-304z" />
    <glyph glyph-name="imacron" unicode="&#x12b;" horiz-adv-x="329" 
d="M21 685h241v-79h-241v79zM316 50v-50h-291v50l78 20v334l-78 11v48l169 39h44v-432z" />
    <glyph glyph-name="Ibreve" unicode="&#x12c;" horiz-adv-x="375" 
d="M35 0zM36 0v45l84 24v477l-85 23v45h305v-45l-85 -23v-477l85 -24v-45h-304zM90 687q-24 36 -24 99l59 2q0 -25 14.5 -43t48.5 -18q36 0 50.5 18t14.5 43l56 -2q0 -61 -27 -98t-98 -37q-70 0 -94 36z" />
    <glyph glyph-name="ibreve" unicode="&#x12d;" horiz-adv-x="329" 
d="M25 0zM316 50v-50h-291v50l78 20v334l-78 11v48l169 39h44v-432zM66 609.5q-23 35.5 -23 99.5l57 2q0 -25 13.5 -43t46.5 -18q69 0 69 61l57 -2q0 -135 -128 -135q-69 0 -92 35.5z" />
    <glyph glyph-name="Iogonek" unicode="&#x12e;" horiz-adv-x="375" 
d="M164.5 -209q-24.5 24 -24.5 60q0 42 28.5 81t73.5 68h-206v45l84 24v477l-85 23v45h305v-45l-85 -23v-477l85 -24v-45q-57 -14 -86 -51t-29 -74q0 -46 44 -46q28 0 60 22l23 -22q-15 -24 -42 -43t-67 -19q-54 0 -78.5 24z" />
    <glyph glyph-name="iogonek" unicode="&#x12f;" horiz-adv-x="329" 
d="M110 589.5q-26 23.5 -26 56.5q0 34 26 59t60 25t58 -25t24 -59t-24 -57t-58 -23t-60 23.5zM140.5 -209q-24.5 24 -24.5 60q0 42 29 81t75 68h-195v50l78 20v334l-78 11v48l169 39h44v-432l78 -20v-50q-57 -14 -86 -51t-29 -74q0 -46 44 -46q28 0 60 22l23 -22
q-15 -24 -42 -43t-67 -19q-54 0 -78.5 24z" />
    <glyph glyph-name="Idotaccent" unicode="&#x130;" horiz-adv-x="375" 
d="M129 658.5q-26 23.5 -26 56.5q0 34 26 59t60 25t58 -25t24 -59t-24 -57t-58 -23t-60 23.5zM36 0v45l84 24v477l-85 23v45h305v-45l-85 -23v-477l85 -24v-45h-304z" />
    <glyph glyph-name="dotlessi" unicode="&#x131;" horiz-adv-x="329" 
d="M316 50v-50h-291v50l78 20v334l-78 11v48l169 39h44v-432z" />
    <glyph glyph-name="IJ" unicode="&#x132;" horiz-adv-x="726" 
d="M35 0zM36 0v45l84 24v477l-85 23v45h305v-45l-85 -23v-477l85 -24v-45h-304zM345 -118l4 37h68q42 0 57 31.5t15 90.5v505l-85 23v45h304v-45l-85 -23v-483q0 -118 -42 -165.5t-125 -47.5q-63 0 -111 32z" />
    <glyph glyph-name="ij" unicode="&#x133;" horiz-adv-x="659" 
d="M25 0zM110 589.5q-26 23.5 -26 56.5q0 34 26 59t60 25t58 -25t24 -59t-24 -57t-58 -23t-60 23.5zM25 0v50l78 20v334l-78 11v48l169 39h44v-432l78 -20v-50h-291zM560.5 589.5q-24.5 -23.5 -58.5 -23.5t-60 23.5t-26 56.5q0 34 26 59t60 25t58.5 -25t24.5 -59
q0 -33 -24.5 -56.5zM530 502h44v-446q0 -117 -43.5 -170.5t-105.5 -53.5q-19 0 -50 7.5t-60 21.5l6 47h45q37 0 55 22t18 51v423l-78 11v48z" />
    <glyph glyph-name="Jcircumflex" unicode="&#x134;" horiz-adv-x="351" 
d="M0 0zM-30 -118l4 37h68q42 0 57 31.5t15 90.5v505l-85 23v45h304v-45l-85 -23v-483q0 -118 -42 -165.5t-125 -47.5q-63 0 -111 32zM305 640l-129 77l-126 -77l-26 25l110 135h85l109 -135z" />
    <glyph glyph-name="jcircumflex" unicode="&#x135;" horiz-adv-x="330" 
d="M0 0zM201 502h44v-446q0 -117 -43.5 -170.5t-105.5 -53.5q-19 0 -50 7.5t-60 21.5l6 47h45q37 0 55 22t18 51v423l-78 11v48zM284 559l-119 85l-116 -85l-36 30l110 141h85l109 -141z" />
    <glyph glyph-name="Kcommaaccent" unicode="&#x136;" horiz-adv-x="593" 
d="M35 0v45l84 24v477l-84 23v45h284v-46l-65 -22v-199l183 207l-55 15v45h205v-43l-68 -22l-175 -206l188 -270l81 -28v-45h-184l-175 253v-185l65 -22v-46h-284zM273 -229l9 185l90 20l25 -24l-80 -188z" />
    <glyph glyph-name="kcommaaccent" unicode="&#x137;" horiz-adv-x="584" 
d="M18 0v50l78 20v563l-78 11v48l168 39h45v-661l60 -18v-52h-273zM344 0v52l43 17l-151 189l139 169l-65 15v50h256v-50l-94 -18l-107 -129l179 -224l55 -19v-52h-255zM247 -229l9 185l90 20l25 -24l-80 -188z" />
    <glyph glyph-name="kgreenlandic" unicode="&#x138;" horiz-adv-x="591" 
d="M298 0h-273v50l78 20v335l-78 10v50l168 37h45v-432l60 -18v-52zM606 0h-255v52l43 17l-151 189l139 169l-65 15v50h256v-50l-94 -18l-107 -129l179 -224l55 -19v-52z" />
    <glyph glyph-name="Lacute" unicode="&#x139;" horiz-adv-x="491" 
d="M105 634l-27 35l156 131l99 -34v-23zM486 0h-451v45l84 24v477l-84 23v45h304v-45l-85 -23v-477h150l26 93h56v-162z" />
    <glyph glyph-name="lacute" unicode="&#x13a;" horiz-adv-x="322" 
d="M37 711l-27 35l156 131l99 -34v-23zM18 0v50l78 20v563l-78 11v48l169 39h44v-661l78 -20v-50h-291z" />
    <glyph glyph-name="Lcommaaccent" unicode="&#x13b;" horiz-adv-x="491" 
d="M35 0v45l84 24v477l-84 23v45h304v-45l-85 -23v-477h150l26 93h56v-162h-451zM220 -229l9 185l90 20l25 -24l-80 -188z" />
    <glyph glyph-name="lcommaaccent" unicode="&#x13c;" horiz-adv-x="322" 
d="M18 0v50l78 20v563l-78 11v48l169 39h44v-661l78 -20v-50h-291zM106 -229l9 185l90 20l25 -24l-80 -188z" />
    <glyph glyph-name="Lcaron" unicode="&#x13d;" horiz-adv-x="491" 
d="M150 641l-110 134l26 25l126 -77l129 77l23 -25l-109 -134h-85zM35 0v45l84 24v477l-84 23v45h304v-45l-85 -23v-477h150l26 93h56v-162h-451z" />
    <glyph glyph-name="lcaron" unicode="&#x13e;" horiz-adv-x="366" 
d="M314 529l-41 227h45l68 -23l-32 -204h-40zM18 0v50l78 20v563l-78 11v48l169 39h44v-661l78 -20v-50h-291z" />
    <glyph glyph-name="Ldot" unicode="&#x13f;" horiz-adv-x="491" 
d="M35 0zM486 0h-451v45l84 24v477l-84 23v45h304v-45l-85 -23v-477h150l26 93h56v-162zM472 363.5q-21 -21.5 -53 -21.5q-33 0 -55 21.5t-22 53.5t22 53.5t55 21.5q32 0 53 -21.5t21 -53.5t-21 -53.5z" />
    <glyph glyph-name="ldot" unicode="&#x140;" horiz-adv-x="322" 
d="M15 0zM15 0v50l78 20v563l-78 11v48l169 39h44v-661l78 -20v-50h-291zM375 363.5q-21 -21.5 -53 -21.5q-33 0 -55 21.5t-22 53.5t22 53.5t55 21.5q32 0 53 -21.5t21 -53.5t-21 -53.5z" />
    <glyph glyph-name="Lslash" unicode="&#x141;" horiz-adv-x="491" 
d="M35 0v45l84 24v161l-59 -35l-32 56l91 54v241l-84 23v45h304v-45l-85 -23v-160l84 50l32 -56l-116 -70v-241h150l26 93h56v-162h-451z" />
    <glyph glyph-name="lslash" unicode="&#x142;" horiz-adv-x="322" 
d="M18 0v50l78 20v227l-67 -40l-32 56l99 59v261l-78 11v48l169 39h44v-279l76 46l32 -56l-108 -65v-307l78 -20v-50h-291z" />
    <glyph glyph-name="Nacute" unicode="&#x143;" horiz-adv-x="719" 
d="M298 634l-27 35l156 131l99 -34v-23zM461 614h243v-45l-85 -23v-546l-112 -10l-318 466v-387l85 -24v-45h-238v45l84 24v477l-85 23v45h206l305 -451v383l-85 23v45z" />
    <glyph glyph-name="nacute" unicode="&#x144;" horiz-adv-x="630" 
d="M235 558l-27 35l156 137l99 -40v-23zM318 488q54 14 96 14q54 0 89 -25t35 -79v-328l79 -25v-45h-274v45l60 25v294q0 25 -6 37t-20 16t-43 4q-53 0 -96 -12v-339l60 -25v-45h-273v45l78 25v335l-78 10v50l169 37h44v-40q26 12 80 26z" />
    <glyph glyph-name="Ncommaaccent" unicode="&#x145;" horiz-adv-x="719" 
d="M507 -10l-318 466v-387l85 -24v-45h-238v45l84 24v477l-85 23v45h206l305 -451v383l-85 23v45h243v-45l-85 -23v-546zM313 -229l9 185l90 20l25 -24l-80 -188z" />
    <glyph glyph-name="ncommaaccent" unicode="&#x146;" horiz-adv-x="630" 
d="M25 45l78 25v335l-78 10v50l169 37h44v-40q26 12 80 26t96 14q54 0 89 -25t35 -79v-328l79 -25v-45h-274v45l60 25v294q0 25 -6 37t-20 16t-43 4q-53 0 -96 -12v-339l60 -25v-45h-273v45zM258 -229l9 185l90 20l25 -24l-80 -188z" />
    <glyph glyph-name="Ncaron" unicode="&#x147;" horiz-adv-x="719" 
d="M327 641l-110 134l26 25l126 -77l129 77l23 -25l-109 -134h-85zM507 -10l-318 466v-387l85 -24v-45h-238v45l84 24v477l-85 23v45h206l305 -451v383l-85 23v45h243v-45l-85 -23v-546z" />
    <glyph glyph-name="ncaron" unicode="&#x148;" horiz-adv-x="630" 
d="M198 732l116 -79l118 79l34 -24l-109 -142h-86l-109 142zM318 488q54 14 96 14q54 0 89 -25t35 -79v-328l79 -25v-45h-274v45l60 25v294q0 25 -6 37t-20 16t-43 4q-53 0 -96 -12v-339l60 -25v-45h-273v45l78 25v335l-78 10v50l169 37h44v-40q26 12 80 26z" />
    <glyph glyph-name="napostrophe" unicode="&#x149;" horiz-adv-x="600" 
d="M25 0zM112 529l-41 227h45l68 -23l-32 -204h-40zM318 488q54 14 96 14q54 0 89 -25t35 -79v-328l79 -25v-45h-274v45l60 25v294q0 25 -6 37t-20 16t-43 4q-53 0 -96 -12v-339l60 -25v-45h-273v45l78 25v335l-78 10v50l169 37h44v-40q26 12 80 26z" />
    <glyph glyph-name="Eng" unicode="&#x14a;" horiz-adv-x="719" 
d="M420 -160.5q-31 7.5 -60 21.5l6 47h45q37 0 55 22t18 51v43l-295 432v-387l85 -24v-45h-238v45l84 24v477l-85 23v45h206l305 -451v383l-85 23v45h243v-45l-85 -23v-490q0 -117 -43.5 -170.5t-105.5 -53.5q-19 0 -50 7.5z" />
    <glyph glyph-name="eng" unicode="&#x14b;" horiz-adv-x="612" 
d="M503 477q35 -25 35 -79v-342q0 -117 -43.5 -170.5t-105.5 -53.5q-19 0 -50 7.5t-60 21.5l6 47h45q37 0 55 22t18 51v383q0 25 -6 37t-20 16t-43 4q-53 0 -96 -12v-339l60 -25v-45h-273v45l78 25v335l-78 10v50l169 37h44v-40q26 12 80 26t96 14q54 0 89 -25z" />
    <glyph glyph-name="Omacron" unicode="&#x14c;" horiz-adv-x="663" 
d="M211 758h241v-79h-241v79zM560 540q73 -88 73 -229q0 -142 -73.5 -231t-226.5 -89q-102 0 -170 42.5t-100.5 114.5t-32.5 163q0 90 31.5 161.5t99.5 113.5t172 42q154 0 227 -88zM454 484.5q-34 73.5 -127 73.5q-89 0 -120.5 -73t-31.5 -174q0 -249 162 -249
q89 0 120 72.5t31 176.5q0 100 -34 173.5z" />
    <glyph glyph-name="omacron" unicode="&#x14d;" horiz-adv-x="544" 
d="M151 685h241v-79h-241v79zM458.5 431q60.5 -71 60.5 -187q0 -112 -61 -183t-188 -71q-124 0 -184.5 71t-60.5 183q0 116 59.5 187t185.5 71q128 0 188.5 -71zM351 386q-23 49 -83 49q-56 0 -77 -49t-21 -140q0 -90 22.5 -139t81.5 -49q58 0 79 48.5t21 139.5t-23 140z
" />
    <glyph glyph-name="Obreve" unicode="&#x14e;" horiz-adv-x="663" 
d="M30 0zM560 540q73 -88 73 -229q0 -142 -73.5 -231t-226.5 -89q-102 0 -170 42.5t-100.5 114.5t-32.5 163q0 90 31.5 161.5t99.5 113.5t172 42q154 0 227 -88zM454 484.5q-34 73.5 -127 73.5q-89 0 -120.5 -73t-31.5 -174q0 -249 162 -249q89 0 120 72.5t31 176.5
q0 100 -34 173.5zM234 687q-24 36 -24 99l59 2q0 -25 14.5 -43t48.5 -18q36 0 50.5 18t14.5 43l56 -2q0 -61 -27 -98t-98 -37q-70 0 -94 36z" />
    <glyph glyph-name="obreve" unicode="&#x14f;" horiz-adv-x="544" 
d="M25 0zM458.5 431q60.5 -71 60.5 -187q0 -112 -61 -183t-188 -71q-124 0 -184.5 71t-60.5 183q0 116 59.5 187t185.5 71q128 0 188.5 -71zM351 386q-23 49 -83 49q-56 0 -77 -49t-21 -140q0 -90 22.5 -139t81.5 -49q58 0 79 48.5t21 139.5t-23 140zM173 609.5
q-23 35.5 -23 99.5l57 2q0 -25 13.5 -43t46.5 -18q69 0 69 61l57 -2q0 -135 -128 -135q-69 0 -92 35.5z" />
    <glyph glyph-name="Ohungarumlaut" unicode="&#x150;" horiz-adv-x="663" 
d="M229 631l-31 23l92 160h92v-22zM390 631l-31 23l92 160h92v-22zM163 33.5q-68 42.5 -100.5 114.5t-32.5 163q0 90 31.5 161.5t99.5 113.5t172 42q154 0 227 -88t73 -229q0 -142 -73.5 -231t-226.5 -89q-102 0 -170 42.5zM457 134.5q31 72.5 31 176.5q0 100 -34 173.5
t-127 73.5q-89 0 -120.5 -73t-31.5 -174q0 -249 162 -249q89 0 120 72.5z" />
    <glyph glyph-name="ohungarumlaut" unicode="&#x151;" horiz-adv-x="544" 
d="M153 552l-31 23l92 160h92v-22zM314 552l-31 23l92 160h92v-22zM458.5 431q60.5 -71 60.5 -187q0 -112 -61 -183t-188 -71q-124 0 -184.5 71t-60.5 183q0 116 59.5 187t185.5 71q128 0 188.5 -71zM351 386q-23 49 -83 49q-56 0 -77 -49t-21 -140q0 -90 22.5 -139
t81.5 -49q58 0 79 48.5t21 139.5t-23 140z" />
    <glyph glyph-name="OE" unicode="&#x152;" horiz-adv-x="813" 
d="M776 468h-56l-22 78h-159v-216h100l17 66h53v-191h-53l-19 69h-98v-205h175l26 93h56v-162h-473q-147 0 -220 86t-73 225q0 138 72 220.5t220 82.5h454v-146zM317 560q-144 0 -144 -249q0 -108 33 -182.5t121 -74.5q43 0 80 15v477q-40 14 -90 14z" />
    <glyph glyph-name="oe" unicode="&#x153;" horiz-adv-x="831" 
d="M85.5 61q-60.5 71 -60.5 183q0 116 59.5 187t185.5 71q57 0 101 -20t72 -55q29 38 71 56.5t90 18.5q105 0 153 -46.5t48 -145.5q0 -13 -1.5 -33.5t-3.5 -32.5h-281v-24q0 -88 33 -121.5t102 -33.5q52 0 138 24l8 -44q-73 -55 -186 -55q-38 0 -75 13t-63 33.5t-34 42.5
q-21 -36 -69.5 -62.5t-102.5 -26.5q-124 0 -184.5 71zM352 104.5q22 46.5 22 153.5q-2 85 -25 131t-81 46q-56 0 -77 -49t-21 -140q0 -90 22.5 -139t81.5 -49q56 0 78 46.5zM669 309v21q0 50 -12 76.5t-48 26.5q-50 0 -68 -32.5t-20 -102.5z" />
    <glyph glyph-name="Racute" unicode="&#x154;" horiz-adv-x="598" 
d="M218 634l-27 35l156 131l99 -34v-23zM349 182.5q-23 55.5 -37 70.5t-32 15h-25v-199l74 -24v-45h-293v45l84 24v477l-85 23v45h283q114 0 169 -40t55 -109q0 -126 -143 -170q25 -8 39 -21t27 -39t42 -93l32 -74l64 -23v-45h-185q-46 127 -69 182.5zM377 357q29 34 29 91
q0 52 -27.5 78.5t-75.5 26.5q-29 0 -48 -7v-223h41q52 0 81 34z" />
    <glyph glyph-name="racute" unicode="&#x155;" horiz-adv-x="426" 
d="M155 558l-27 35l156 137l99 -40v-23zM238 401v-331l116 -20v-50h-329v50l78 20v334l-78 11v48l168 39h45v-46q33 22 74 35.5t75 13.5q23 0 29 -1l-19 -179h-73l-21 92q-39 0 -65 -16z" />
    <glyph glyph-name="Rcommaaccent" unicode="&#x156;" horiz-adv-x="598" 
d="M36 45l84 24v477l-85 23v45h283q114 0 169 -40t55 -109q0 -126 -143 -170q25 -8 39 -21t27 -39t42 -93l32 -74l64 -23v-45h-185q-46 127 -69 182.5t-37 70.5t-32 15h-25v-199l74 -24v-45h-293v45zM296 323q52 0 81 34t29 91q0 52 -27.5 78.5t-75.5 26.5q-29 0 -48 -7
v-223h41zM275 -229l9 185l90 20l25 -24l-80 -188z" />
    <glyph glyph-name="rcommaaccent" unicode="&#x157;" horiz-adv-x="426" 
d="M25 50l78 20v334l-78 11v48l168 39h45v-46q33 22 74 35.5t75 13.5q23 0 29 -1l-19 -179h-73l-21 92q-39 0 -65 -16v-331l116 -20v-50h-329v50zM124 -229l9 185l90 20l25 -24l-80 -188z" />
    <glyph glyph-name="Rcaron" unicode="&#x158;" horiz-adv-x="598" 
d="M259 641l-110 134l26 25l126 -77l129 77l23 -25l-109 -134h-85zM36 45l84 24v477l-85 23v45h283q114 0 169 -40t55 -109q0 -126 -143 -170q25 -8 39 -21t27 -39t42 -93l32 -74l64 -23v-45h-185q-46 127 -69 182.5t-37 70.5t-32 15h-25v-199l74 -24v-45h-293v45zM296 323
q52 0 81 34t29 91q0 52 -27.5 78.5t-75.5 26.5q-29 0 -48 -7v-223h41z" />
    <glyph glyph-name="rcaron" unicode="&#x159;" horiz-adv-x="426" 
d="M108 732l116 -79l118 79l34 -24l-109 -142h-86l-109 142zM238 401v-331l116 -20v-50h-329v50l78 20v334l-78 11v48l168 39h45v-46q33 22 74 35.5t75 13.5q23 0 29 -1l-19 -179h-73l-21 92q-39 0 -65 -16z" />
    <glyph glyph-name="Sacute" unicode="&#x15a;" horiz-adv-x="483" 
d="M162 634l-27 35l156 131l99 -34v-23zM97 580q56 48 157 48q91 0 175 -27l-11 -145h-53l-22 91q-12 4 -36.5 7.5t-40.5 3.5q-50 0 -80.5 -18.5t-30.5 -61.5q0 -35 22.5 -57.5t65.5 -40.5l91 -38q61 -26 88.5 -66t27.5 -97q0 -88 -60 -138t-175 -50q-45 0 -95.5 8t-89.5 23
l15 143h56l16 -87q52 -15 96 -15q53 0 83.5 20t30.5 57q0 34 -19.5 54t-66.5 41l-92 40q-44 19 -76 61t-32 109q0 87 56 135z" />
    <glyph glyph-name="sacute" unicode="&#x15b;" horiz-adv-x="456" 
d="M149 558l-27 35l156 137l99 -40v-23zM182 420.5q-22 -14.5 -22 -39.5q0 -21 10.5 -35t36.5 -23l114 -36q52 -16 76.5 -48.5t24.5 -92.5q0 -72 -55 -114t-153 -42q-39 0 -85.5 6.5t-81.5 18.5l12 139h58l21 -84q34 -12 72 -12q98 0 98 61q0 22 -11.5 32t-43.5 21l-109 37
q-48 16 -72 48.5t-24 86.5q0 74 49 116t147 42q39 0 80.5 -7.5t76.5 -21.5l-14 -126h-56l-20 74q-17 7 -32 10.5t-37 3.5q-38 0 -60 -14.5z" />
    <glyph glyph-name="Scircumflex" unicode="&#x15c;" horiz-adv-x="483" 
d="M30 0zM97 580q56 48 157 48q91 0 175 -27l-11 -145h-53l-22 91q-12 4 -36.5 7.5t-40.5 3.5q-50 0 -80.5 -18.5t-30.5 -61.5q0 -35 22.5 -57.5t65.5 -40.5l91 -38q61 -26 88.5 -66t27.5 -97q0 -88 -60 -138t-175 -50q-45 0 -95.5 8t-89.5 23l15 143h56l16 -87
q52 -15 96 -15q53 0 83.5 20t30.5 57q0 34 -19.5 54t-66.5 41l-92 40q-44 19 -76 61t-32 109q0 87 56 135zM371 640l-129 77l-126 -77l-26 25l110 135h85l109 -135z" />
    <glyph glyph-name="scircumflex" unicode="&#x15d;" horiz-adv-x="450" 
d="M41 0zM176 420.5q-22 -14.5 -22 -39.5q0 -21 10.5 -35t36.5 -23l114 -36q52 -16 76.5 -48.5t24.5 -92.5q0 -72 -55 -114t-153 -42q-39 0 -85.5 6.5t-81.5 18.5l12 139h58l21 -84q34 -12 72 -12q98 0 98 61q0 22 -11.5 32t-43.5 21l-109 37q-48 16 -72 48.5t-24 86.5
q0 74 49 116t147 42q39 0 80.5 -7.5t76.5 -21.5l-14 -126h-56l-20 74q-17 7 -32 10.5t-37 3.5q-38 0 -60 -14.5zM344 559l-119 85l-116 -85l-36 30l110 141h85l109 -141z" />
    <glyph glyph-name="Scedilla" unicode="&#x15e;" horiz-adv-x="483" 
d="M139 -209l8 40q13 -7 28 -7q27 0 42.5 14t15.5 31q0 16 -13 27t-42 12l-7 19l23 65q-43 2 -86.5 9.5t-77.5 20.5l15 143h56l16 -87q52 -15 96 -15q53 0 83.5 20t30.5 57q0 34 -19.5 54t-66.5 41l-92 40q-44 19 -76 61t-32 109q0 87 56 135t157 48q91 0 175 -27l-11 -145
h-53l-22 91q-12 4 -36.5 7.5t-40.5 3.5q-50 0 -80.5 -18.5t-30.5 -61.5q0 -35 22.5 -57.5t65.5 -40.5l91 -38q61 -26 88.5 -66t27.5 -97q0 -83 -53.5 -132t-155.5 -55l-11 -38q49 0 74 -20t25 -52q0 -27 -19 -50.5t-50.5 -37.5t-66.5 -14q-31 0 -54 11z" />
    <glyph glyph-name="scedilla" unicode="&#x15f;" horiz-adv-x="456" 
d="M138 -209l8 40q13 -7 28 -7q27 0 42.5 14t15.5 31q0 16 -13 27t-42 12l-7 19l23 64q-38 2 -77.5 8t-69.5 16l12 139h58l21 -84q34 -12 72 -12q98 0 98 61q0 22 -11.5 32t-43.5 21l-109 37q-48 16 -72 48.5t-24 86.5q0 74 49 116t147 42q39 0 80.5 -7.5t76.5 -21.5
l-14 -126h-56l-20 74q-17 7 -32 10.5t-37 3.5q-38 0 -60 -14.5t-22 -39.5q0 -21 10.5 -35t36.5 -23l114 -36q52 -16 76.5 -48.5t24.5 -92.5q0 -67 -47.5 -108t-133.5 -47l-11 -37q49 0 74 -20t25 -52q0 -27 -19 -50.5t-50.5 -37.5t-66.5 -14q-31 0 -54 11z" />
    <glyph glyph-name="Scaron" unicode="&#x160;" horiz-adv-x="483" 
d="M207 641l-110 134l26 25l126 -77l129 77l23 -25l-109 -134h-85zM119.5 -1q-50.5 8 -89.5 23l15 143h56l16 -87q52 -15 96 -15q53 0 83.5 20t30.5 57q0 34 -19.5 54t-66.5 41l-92 40q-44 19 -76 61t-32 109q0 87 56 135t157 48q91 0 175 -27l-11 -145h-53l-22 91
q-12 4 -36.5 7.5t-40.5 3.5q-50 0 -80.5 -18.5t-30.5 -61.5q0 -35 22.5 -57.5t65.5 -40.5l91 -38q61 -26 88.5 -66t27.5 -97q0 -88 -60 -138t-175 -50q-45 0 -95.5 8z" />
    <glyph glyph-name="scaron" unicode="&#x161;" horiz-adv-x="456" 
d="M185 566l-109 142l36 24l116 -79l118 79l34 -24l-109 -142h-86zM128.5 -3.5q-46.5 6.5 -81.5 18.5l12 139h58l21 -84q34 -12 72 -12q98 0 98 61q0 22 -11.5 32t-43.5 21l-109 37q-48 16 -72 48.5t-24 86.5q0 74 49 116t147 42q39 0 80.5 -7.5t76.5 -21.5l-14 -126h-56
l-20 74q-17 7 -32 10.5t-37 3.5q-38 0 -60 -14.5t-22 -39.5q0 -21 10.5 -35t36.5 -23l114 -36q52 -16 76.5 -48.5t24.5 -92.5q0 -72 -55 -114t-153 -42q-39 0 -85.5 6.5z" />
    <glyph glyph-name="uni0162" unicode="&#x162;" horiz-adv-x="539" 
d="M189 -209l8 40q13 -7 28 -7q27 0 42.5 14t15.5 31q0 16 -13 27t-42 12l-7 19l27 73h-130v45l84 24v477h-114l-19 -91h-55l-7 159h525l-6 -159h-57l-20 91h-112v-477l85 -24v-45h-128l-14 -46q49 0 74 -20t25 -52q0 -27 -19 -50.5t-50.5 -37.5t-66.5 -14q-31 0 -54 11z
" />
    <glyph glyph-name="uni0163" unicode="&#x163;" horiz-adv-x="348" 
d="M107 -209l8 40q13 -7 28 -7q27 0 42.5 14t15.5 31q0 16 -13 27t-42 12l-7 19l23 65q-41 4 -55.5 24.5t-14.5 52.5v351h-72v47l83 37l61 100h61v-112h113v-78l-113 7v-336l99 -22v-50q-52 -16 -114 -21l-12 -38q49 0 74 -20t25 -52q0 -27 -19 -50.5t-50.5 -37.5t-66.5 -14
q-31 0 -54 11z" />
    <glyph glyph-name="Tcaron" unicode="&#x164;" horiz-adv-x="539" 
d="M229 641l-110 134l26 25l126 -77l129 77l23 -25l-109 -134h-85zM118 0v45l84 24v477h-114l-19 -91h-55l-7 159h525l-6 -159h-57l-20 91h-112v-477l85 -24v-45h-304z" />
    <glyph glyph-name="tcaron" unicode="&#x165;" horiz-adv-x="348" 
d="M253 756h45l68 -23l-32 -204h-40zM251.5 -3q-41.5 -6 -70.5 -6q-52 0 -70.5 21.5t-18.5 56.5v351h-72v47l83 37l61 100h61v-112h113v-78l-113 7v-336l99 -22v-50q-31 -10 -72.5 -16z" />
    <glyph glyph-name="Tbar" unicode="&#x166;" horiz-adv-x="539" 
d="M449 546h-112v-203h166v-55h-166v-219l85 -24v-45h-304v45l84 24v219h-163v55h163v203h-114l-19 -91h-55l-7 159h525l-6 -159h-57z" />
    <glyph glyph-name="tbar" unicode="&#x167;" horiz-adv-x="348" 
d="M219 421v-118h99v-55h-99v-163l99 -22v-50q-31 -10 -72.5 -16t-70.5 -6q-52 0 -70.5 21.5t-18.5 56.5v179h-57v55h57v117h-72v47l83 37l61 100h61v-112h113v-78z" />
    <glyph glyph-name="Utilde" unicode="&#x168;" horiz-adv-x="661" 
d="M443 661q-28 0 -98 20q-59 17 -78 17q-11 0 -19.5 -7t-14 -14.5t-6.5 -9.5l-47 19q16 45 39.5 74.5t47.5 29.5q29 0 97 -20q59 -17 79 -17q11 0 20.5 7t15 14.5t6.5 9.5l44 -19q-43 -104 -86 -104zM553.5 129.5q-18.5 -55.5 -71 -97t-146.5 -41.5q-98 0 -152 36
t-73.5 95.5t-19.5 142.5v281l-85 23v45h305v-45l-85 -23v-281q0 -69 9.5 -113.5t38 -71t82.5 -26.5q72 0 106.5 52t34.5 139v301l-85 23v45h245v-45l-85 -23v-310q0 -51 -18.5 -106.5z" />
    <glyph glyph-name="utilde" unicode="&#x169;" horiz-adv-x="620" 
d="M384 555q-28 0 -98 20q-59 17 -78 17q-11 0 -19.5 -7t-14 -14.5t-6.5 -9.5l-47 19q44 104 87 104q29 0 97 -20q59 -17 79 -17q11 0 20.5 7t15 14.5t6.5 9.5l44 -19q-43 -104 -86 -104zM533.5 -1.5q-22.5 -3.5 -48.5 -3.5q-36 0 -65.5 15.5t-34.5 41.5q-29 -26 -75.5 -44
t-88.5 -18q-67 0 -97 32.5t-30 82.5v299l-78 11v48l169 39h44v-362q0 -34 14.5 -51t47.5 -17q20 0 45.5 9.5t44.5 23.5v299l-78 11v48l169 39h44v-419l78 -28v-43q-38 -10 -60.5 -13.5z" />
    <glyph glyph-name="Umacron" unicode="&#x16a;" horiz-adv-x="661" 
d="M241 758h241v-79h-241v79zM553.5 129.5q-18.5 -55.5 -71 -97t-146.5 -41.5q-98 0 -152 36t-73.5 95.5t-19.5 142.5v281l-85 23v45h305v-45l-85 -23v-281q0 -65 9.5 -108t38 -68.5t82.5 -25.5q72 0 106.5 49.5t34.5 132.5v301l-85 23v45h245v-45l-85 -23v-310
q0 -51 -18.5 -106.5z" />
    <glyph glyph-name="umacron" unicode="&#x16b;" horiz-adv-x="620" 
d="M188 685h241v-79h-241v79zM533.5 -1.5q-22.5 -3.5 -48.5 -3.5q-36 0 -65.5 15.5t-34.5 41.5q-29 -26 -75.5 -44t-88.5 -18q-67 0 -97 32.5t-30 82.5v299l-78 11v48l169 39h44v-362q0 -34 14.5 -51t47.5 -17q20 0 45.5 9.5t44.5 23.5v299l-78 11v48l169 39h44v-419l78 -28
v-43q-38 -10 -60.5 -13.5z" />
    <glyph glyph-name="Ubreve" unicode="&#x16c;" horiz-adv-x="661" 
d="M6 0zM553.5 129.5q-18.5 -55.5 -71 -97t-146.5 -41.5q-98 0 -152 36t-73.5 95.5t-19.5 142.5v281l-85 23v45h305v-45l-85 -23v-281q0 -65 9.5 -108t38 -68.5t82.5 -25.5q72 0 106.5 49.5t34.5 132.5v301l-85 23v45h245v-45l-85 -23v-310q0 -51 -18.5 -106.5zM233 687
q-24 36 -24 99l59 2q0 -25 14.5 -43t48.5 -18q36 0 50.5 18t14.5 43l56 -2q0 -61 -27 -98t-98 -37q-70 0 -94 36z" />
    <glyph glyph-name="ubreve" unicode="&#x16d;" horiz-adv-x="620" 
d="M16 0zM533.5 -1.5q-22.5 -3.5 -48.5 -3.5q-36 0 -65.5 15.5t-34.5 41.5q-29 -26 -75.5 -44t-88.5 -18q-67 0 -97 32.5t-30 82.5v299l-78 11v48l169 39h44v-362q0 -34 14.5 -51t47.5 -17q20 0 45.5 9.5t44.5 23.5v299l-78 11v48l169 39h44v-419l78 -28v-43
q-38 -10 -60.5 -13.5zM211 609.5q-23 35.5 -23 99.5l57 2q0 -25 13.5 -43t46.5 -18q69 0 69 61l57 -2q0 -135 -128 -135q-69 0 -92 35.5z" />
    <glyph glyph-name="Uring" unicode="&#x16e;" horiz-adv-x="661" 
d="M278.5 653q-29.5 26 -29.5 68q0 43 29.5 70.5t83.5 27.5q55 0 84.5 -27.5t29.5 -70.5q0 -42 -29 -68t-85 -26q-54 0 -83.5 26zM394 686.5q8 12.5 8 34.5q0 23 -8 36.5t-32 13.5t-31.5 -13.5t-7.5 -36.5q0 -22 7.5 -34.5t31.5 -12.5t32 12.5zM184 27q-54 36 -73.5 95.5
t-19.5 142.5v281l-85 23v45h305v-45l-85 -23v-281q0 -65 9.5 -108t38 -68.5t82.5 -25.5q72 0 106.5 49.5t34.5 132.5v301l-85 23v45h245v-45l-85 -23v-310q0 -51 -18.5 -106.5t-71 -97t-146.5 -41.5q-98 0 -152 36z" />
    <glyph glyph-name="uring" unicode="&#x16f;" horiz-adv-x="620" 
d="M384 577q-29 -29 -85 -29q-54 0 -83.5 29t-29.5 75q0 47 29.5 77.5t83.5 30.5q55 0 84.5 -30.5t29.5 -77.5q0 -46 -29 -75zM267.5 693q-7.5 -14 -7.5 -41q0 -26 7.5 -39t31.5 -13t32 13t8 39q0 27 -8 41t-32 14t-31.5 -14zM533.5 -1.5q-22.5 -3.5 -48.5 -3.5
q-36 0 -65.5 15.5t-34.5 41.5q-29 -26 -75.5 -44t-88.5 -18q-67 0 -97 32.5t-30 82.5v299l-78 11v48l169 39h44v-362q0 -34 14.5 -51t47.5 -17q20 0 45.5 9.5t44.5 23.5v299l-78 11v48l169 39h44v-419l78 -28v-43q-38 -10 -60.5 -13.5z" />
    <glyph glyph-name="Uhungarumlaut" unicode="&#x170;" horiz-adv-x="661" 
d="M248 631l-31 23l92 160h92v-22zM409 631l-31 23l92 160h92v-22zM553.5 129.5q-18.5 -55.5 -71 -97t-146.5 -41.5q-98 0 -152 36t-73.5 95.5t-19.5 142.5v281l-85 23v45h305v-45l-85 -23v-281q0 -65 9.5 -108t38 -68.5t82.5 -25.5q72 0 106.5 49.5t34.5 132.5v301l-85 23
v45h245v-45l-85 -23v-310q0 -51 -18.5 -106.5z" />
    <glyph glyph-name="uhungarumlaut" unicode="&#x171;" horiz-adv-x="620" 
d="M167 552l-31 23l92 160h92v-22zM328 552l-31 23l92 160h92v-22zM533.5 -1.5q-22.5 -3.5 -48.5 -3.5q-36 0 -65.5 15.5t-34.5 41.5q-29 -26 -75.5 -44t-88.5 -18q-67 0 -97 32.5t-30 82.5v299l-78 11v48l169 39h44v-362q0 -34 14.5 -51t47.5 -17q20 0 45.5 9.5t44.5 23.5
v299l-78 11v48l169 39h44v-419l78 -28v-43q-38 -10 -60.5 -13.5z" />
    <glyph glyph-name="Uogonek" unicode="&#x172;" horiz-adv-x="661" 
d="M299 -208.5q-24 24.5 -24 61.5q0 35 26 72t74 72q-19 -6 -39 -6q-98 0 -152 36t-73.5 95.5t-19.5 142.5v281l-85 23v45h305v-45l-85 -23v-281q0 -65 9.5 -108t38 -68.5t82.5 -25.5q72 0 106.5 49.5t34.5 132.5v301l-85 23v45h245v-45l-85 -23v-310q0 -57 -22.5 -117
t-79.5 -95q-55 -33 -82.5 -65.5t-27.5 -84.5q0 -45 43 -45q30 0 61 22l23 -22q0 -2 -13.5 -18t-38 -30t-58.5 -14q-54 0 -78 24.5z" />
    <glyph glyph-name="uogonek" unicode="&#x173;" horiz-adv-x="620" 
d="M519.5 -25.5q-26.5 -23.5 -39.5 -50.5t-13 -49q0 -46 44 -46q28 0 60 22l23 -22q-13 -21 -42.5 -38.5t-66.5 -17.5q-50 0 -74.5 23.5t-24.5 58.5t27.5 73.5t71.5 66.5q-36 1 -65.5 16t-34.5 41q-29 -26 -75.5 -44t-88.5 -18q-67 0 -97 32.5t-30 82.5v299l-78 11v48
l169 39h44v-362q0 -34 14.5 -51t47.5 -17q20 0 45.5 9.5t44.5 23.5v299l-78 11v48l169 39h44v-419l78 -28v-43l-10 -3q-38 -11 -64.5 -34.5z" />
    <glyph glyph-name="Wcircumflex" unicode="&#x174;" horiz-adv-x="801" 
d="M0 0zM595 614h220v-44l-71 -24l-126 -543l-77 -13l-131 410l-109 -397l-77 -13l-156 555l-71 24v45h278v-45l-65 -20l75 -345l82 336l125 23l103 -364l70 347l-70 23v45zM525 640l-129 77l-126 -77l-26 25l110 135h85l109 -135z" />
    <glyph glyph-name="wcircumflex" unicode="&#x175;" horiz-adv-x="734" 
d="M0 0zM680 423l-133 -428l-95 -10l-86 262l-80 -252l-94 -10l-153 440l-51 15v52h244v-55l-52 -12l79 -276l88 294l84 14l88 -309l71 275l-64 14v55h217v-52zM486 559l-119 85l-116 -85l-36 30l110 141h85l109 -141z" />
    <glyph glyph-name="Ycircumflex" unicode="&#x176;" horiz-adv-x="575" 
d="M434 640l-129 77l-126 -77l-26 25l110 135h85l109 -135zM358 568v46h220v-44l-71 -25l-142 -289v-187l86 -24v-45h-304v45l84 24v187l-151 289l-71 24v45h283v-47l-68 -21l105 -202l100 204z" />
    <glyph glyph-name="ycircumflex" unicode="&#x177;" horiz-adv-x="500" 
d="M141 559l-36 30l110 141h85l109 -141l-33 -30l-119 85zM2 -139l8 46h65q87 0 133 119l-171 399l-50 27v40h240v-40l-47 -27l96 -251l84 249l-64 14v55h217v-52l-63 -17l-142 -389q-37 -101 -80.5 -151.5t-107.5 -50.5q-53 0 -118 29z" />
    <glyph glyph-name="Ydieresis" unicode="&#x178;" horiz-adv-x="575" 
d="M142 667.5q-23 20.5 -23 51.5q0 30 23.5 51.5t54.5 21.5q30 0 52 -21.5t22 -51.5q0 -31 -21.5 -51.5t-52.5 -20.5q-32 0 -55 20.5zM374.5 667.5q-22.5 20.5 -22.5 51.5t22.5 52t54.5 21q29 0 51 -21.5t22 -51.5q0 -31 -22 -51.5t-51 -20.5q-32 0 -54.5 20.5zM147 0v45
l84 24v187l-151 289l-71 24v45h283v-47l-68 -21l105 -202l100 204l-71 20v46h220v-44l-71 -25l-142 -289v-187l86 -24v-45h-304z" />
    <glyph glyph-name="Zacute" unicode="&#x179;" horiz-adv-x="500" 
d="M180 634l-27 35l156 131l99 -34v-23zM472 162l-8 -162h-425l-18 33l306 513h-196l-24 -78h-58l-10 146h436l5 -33l-301 -512h199l38 93h56z" />
    <glyph glyph-name="zacute" unicode="&#x17a;" horiz-adv-x="480" 
d="M155 558l-27 35l156 137l99 -40v-23zM280 419h-157l-25 -89h-47l-18 162h392l23 -47l-257 -374h169l36 92h50l-11 -163h-389l-22 46z" />
    <glyph glyph-name="Zdotaccent" unicode="&#x17b;" horiz-adv-x="500" 
d="M323 658q-24 -23 -58 -23t-60 23.5t-26 56.5q0 34 26 59t60 25t58 -25t24 -59t-24 -57zM472 162l-8 -162h-425l-18 33l306 513h-196l-24 -78h-58l-10 146h436l5 -33l-301 -512h199l38 93h56z" />
    <glyph glyph-name="zdotaccent" unicode="&#x17c;" horiz-adv-x="480" 
d="M305 589q-24 -23 -58 -23t-60 23.5t-26 56.5q0 34 26 59t60 25t58 -25t24 -59t-24 -57zM280 419h-157l-25 -89h-47l-18 162h392l23 -47l-257 -374h169l36 92h50l-11 -163h-389l-22 46z" />
    <glyph glyph-name="Zcaron" unicode="&#x17d;" horiz-adv-x="500" 
d="M224 641l-110 134l26 25l126 -77l129 77l23 -25l-109 -134h-85zM39 0l-18 33l306 513h-196l-24 -78h-58l-10 146h436l5 -33l-301 -512h199l38 93h56l-8 -162h-425z" />
    <glyph glyph-name="zcaron" unicode="&#x17e;" horiz-adv-x="480" 
d="M121 732l116 -79l118 79l34 -24l-109 -142h-86l-109 142zM280 419h-157l-25 -89h-47l-18 162h392l23 -47l-257 -374h169l36 92h50l-11 -163h-389l-22 46z" />
    <glyph glyph-name="longs" unicode="&#x17f;" horiz-adv-x="386" 
d="M30 50l78 20v350h-83v48l83 39q0 106 60 165t170 59q27 0 60.5 -8t42.5 -16l-19 -145h-65l-18 80q-16 6 -30 6q-43 0 -55.5 -31.5t-12.5 -95.5l2 -447l118 -19v-55h-331v50z" />
    <glyph glyph-name="uni018F" unicode="&#x18f;" horiz-adv-x="653" 
d="M102.5 70q-72.5 79 -72.5 237q0 16 1 28h446q-4 98 -44 159t-128 61q-66 0 -134 -34l-25 -86h-53l-8 141q111 52 228 52q161 0 235.5 -88.5t74.5 -231.5q0 -152 -79.5 -234.5t-226.5 -82.5q-142 0 -214.5 79zM477 276h-301q10 -214 150 -214q142 0 151 214z" />
    <glyph glyph-name="florin" unicode="&#x192;" horiz-adv-x="445" 
d="M346 559q-43 0 -63 -41.5t-30 -131.5h134l-7 -54h-134l-51 -369q-9 -67 -49 -100.5t-95 -33.5q-19 0 -46.5 6.5t-51.5 17.5l5 40l59 -1q22 0 42 25.5t26 74.5l43 340h-87l8 54h86q14 120 63.5 176t133.5 56q59 0 127 -21l-10 -108h-50l-11 64q-18 6 -42 6z" />
    <glyph glyph-name="uni019D" unicode="&#x19d;" horiz-adv-x="719" 
d="M704 614v-45l-85 -23v-546l-112 -10l-318 466v-450q0 -90 -30 -132t-71 -42q-18 0 -43 7.5t-49 21.5l6 47h45q37 0 55 22t18 51v565l-85 23v45h206l305 -451v383l-85 23v45h243z" />
    <glyph glyph-name="Ohorn" unicode="&#x1a0;" horiz-adv-x="663" 
d="M646.5 579.5q-34.5 -28.5 -86.5 -40.5q73 -83 73 -228q0 -142 -73.5 -231t-226.5 -89q-102 0 -170 42.5t-100.5 114.5t-32.5 163q0 90 31.5 161.5t99.5 113.5t172 42q103 0 173 -43h21q28 0 42 11t14 42q0 19 -5 41l6 13l84 14q6 -13 9.5 -29t3.5 -28q0 -41 -34.5 -69.5z
M457 134.5q31 72.5 31 176.5q0 100 -34 173.5t-127 73.5q-89 0 -120.5 -73t-31.5 -174q0 -249 162 -249q89 0 120 72.5z" />
    <glyph glyph-name="ohorn" unicode="&#x1a1;" horiz-adv-x="544" 
d="M534.5 472q-29.5 -27 -76.5 -41q61 -67 61 -187q0 -112 -61 -183t-188 -71q-124 0 -184.5 71t-60.5 183q0 116 59.5 187t185.5 71q81 0 134 -29h6q28 0 42 11t14 42q0 19 -5 41l6 13l84 14q6 -13 9.5 -29t3.5 -28q0 -38 -29.5 -65zM353 106.5q21 48.5 21 139.5t-23 140
t-83 49q-56 0 -77 -49t-21 -140q0 -90 22.5 -139t81.5 -49q58 0 79 48.5z" />
    <glyph glyph-name="Uhorn" unicode="&#x1af;" horiz-adv-x="661" 
d="M641 601l-69 -55v-310q0 -51 -18.5 -106.5t-71 -97t-146.5 -41.5q-98 0 -152 36t-73.5 95.5t-19.5 142.5v281l-85 23v45h305v-45l-85 -23v-281q0 -65 9.5 -108t38 -68.5t82.5 -25.5q72 0 106.5 49.5t34.5 132.5v301l-85 23v45h119q28 0 42 11t14 42q0 19 -5 41l6 13
l84 14q6 -13 9.5 -29t3.5 -28q0 -45 -44 -77z" />
    <glyph glyph-name="uhorn" unicode="&#x1b0;" horiz-adv-x="620" 
d="M622 488.5q-44 -30.5 -106 -36.5v-369l78 -28v-43q-38 -10 -60.5 -13.5t-48.5 -3.5q-36 0 -65.5 15.5t-34.5 41.5q-29 -26 -75.5 -44t-88.5 -18q-67 0 -97 32.5t-30 82.5v299l-78 11v48l169 39h44v-362q0 -34 14.5 -51t47.5 -17q20 0 45.5 9.5t44.5 23.5v299l-78 11v48
l168 39h41q28 0 42 11t14 42q0 19 -5 41l6 13l84 14q6 -13 9.5 -29t3.5 -28q0 -47 -44 -77.5z" />
    <glyph glyph-name="uni01C4" unicode="&#x1c4;" horiz-adv-x="1155" 
d="M35 0zM548 535.5q77 -78.5 77 -215.5q0 -142 -73.5 -231t-223.5 -89h-292v45l84 24v477l-85 23v45h274q162 0 239 -78.5zM255 546v-477q38 -12 78 -12q86 0 118 71.5t32 191.5q0 68 -21.5 120.5t-61 82t-92.5 29.5q-29 0 -53 -6zM1127 162l-8 -162h-425l-18 33l306 513
h-196l-24 -78h-58l-10 146h436l5 -33l-301 -512h199l38 93h56zM863 641l-110 134l26 25l126 -77l129 77l23 -25l-109 -134h-85z" />
    <glyph glyph-name="uni01C5" unicode="&#x1c5;" horiz-adv-x="1125" 
d="M35 0zM548 535.5q77 -78.5 77 -215.5q0 -142 -73.5 -231t-223.5 -89h-292v45l84 24v477l-85 23v45h274q162 0 239 -78.5zM255 546v-477q38 -12 78 -12q86 0 118 71.5t32 191.5q0 68 -21.5 120.5t-61 82t-92.5 29.5q-29 0 -53 -6zM933 419h-157l-25 -89h-47l-18 162h392
l23 -47l-257 -374h169l36 92h50l-11 -163h-389l-22 46zM769 732l116 -79l118 79l34 -24l-109 -142h-86l-109 142z" />
    <glyph glyph-name="uni01C6" unicode="&#x1c6;" horiz-adv-x="1037" 
d="M25 0zM190 -10q-80 0 -122.5 73.5t-42.5 180.5q0 121 56 189.5t156 68.5q35 0 67 -10.5t40 -16.5v158l-78 11v48l169 39h44v-648l78 -28v-43q-65 -17 -111 -17q-35 0 -63 14t-36 39q-72 -58 -157 -58zM306.5 81.5q25.5 10.5 37.5 23.5v303q-13 12 -35 19.5t-41 7.5
q-49 0 -73.5 -50t-24.5 -139q0 -82 21 -128.5t65 -46.5q25 0 50.5 10.5zM845 419h-157l-25 -89h-47l-18 162h392l23 -47l-257 -374h169l36 92h50l-11 -163h-389l-22 46zM681 732l116 -79l118 79l34 -24l-109 -142h-86l-109 142z" />
    <glyph glyph-name="uni01C7" unicode="&#x1c7;" horiz-adv-x="842" 
d="M35 0zM486 0h-451v45l84 24v477l-84 23v45h304v-45l-85 -23v-477h150l26 93h56v-162zM461 -118l4 37h68q42 0 57 31.5t15 90.5v505l-85 23v45h304v-45l-85 -23v-483q0 -118 -42 -165.5t-125 -47.5q-63 0 -111 32z" />
    <glyph glyph-name="uni01C8" unicode="&#x1c8;" horiz-adv-x="821" 
d="M35 0zM486 0h-451v45l84 24v477l-84 23v45h304v-45l-85 -23v-477h150l26 93h56v-162zM722.5 589.5q-24.5 -23.5 -58.5 -23.5t-60 23.5t-26 56.5q0 34 26 59t60 25t58.5 -25t24.5 -59q0 -33 -24.5 -56.5zM692 502h44v-446q0 -117 -43.5 -170.5t-105.5 -53.5q-19 0 -50 7.5
t-60 21.5l6 47h45q37 0 55 22t18 51v423l-78 11v48z" />
    <glyph glyph-name="uni01C9" unicode="&#x1c9;" horiz-adv-x="652" 
d="M15 0zM15 0v50l78 20v563l-78 11v48l169 39h44v-661l78 -20v-50h-291zM553.5 589.5q-24.5 -23.5 -58.5 -23.5t-60 23.5t-26 56.5q0 34 26 59t60 25t58.5 -25t24.5 -59q0 -33 -24.5 -56.5zM523 502h44v-446q0 -117 -43.5 -170.5t-105.5 -53.5q-19 0 -50 7.5t-60 21.5l6 47
h45q37 0 55 22t18 51v423l-78 11v48z" />
    <glyph glyph-name="uni01CA" unicode="&#x1ca;" horiz-adv-x="1070" 
d="M35 0zM461 614h243v-45l-85 -23v-546l-112 -10l-318 466v-387l85 -24v-45h-238v45l84 24v477l-85 23v45h206l305 -451v383l-85 23v45zM689 -118l4 37h68q42 0 57 31.5t15 90.5v505l-85 23v45h304v-45l-85 -23v-483q0 -118 -42 -165.5t-125 -47.5q-63 0 -111 32z" />
    <glyph glyph-name="uni01CB" unicode="&#x1cb;" horiz-adv-x="1049" 
d="M35 0zM461 614h243v-45l-85 -23v-546l-112 -10l-318 466v-387l85 -24v-45h-238v45l84 24v477l-85 23v45h206l305 -451v383l-85 23v45zM950.5 589.5q-24.5 -23.5 -58.5 -23.5t-60 23.5t-26 56.5q0 34 26 59t60 25t58.5 -25t24.5 -59q0 -33 -24.5 -56.5zM920 502h44v-446
q0 -117 -43.5 -170.5t-105.5 -53.5q-19 0 -50 7.5t-60 21.5l6 47h45q37 0 55 22t18 51v423l-78 11v48z" />
    <glyph glyph-name="uni01CC" unicode="&#x1cc;" horiz-adv-x="960" 
d="M25 0zM318 488q54 14 96 14q54 0 89 -25t35 -79v-328l79 -25v-45h-274v45l60 25v294q0 25 -6 37t-20 16t-43 4q-53 0 -96 -12v-339l60 -25v-45h-273v45l78 25v335l-78 10v50l169 37h44v-40q26 12 80 26zM861.5 589.5q-24.5 -23.5 -58.5 -23.5t-60 23.5t-26 56.5
q0 34 26 59t60 25t58.5 -25t24.5 -59q0 -33 -24.5 -56.5zM831 502h44v-446q0 -117 -43.5 -170.5t-105.5 -53.5q-19 0 -50 7.5t-60 21.5l6 47h45q37 0 55 22t18 51v423l-78 11v48z" />
    <glyph glyph-name="uni01CD" unicode="&#x1cd;" horiz-adv-x="594" 
d="M0 0zM142 68l68 -23v-45h-220v44l71 25l189 545l78 13l205 -558l71 -24v-45h-278v45l65 20l-29 88h-192zM262 423l-73 -216h153zM255 641l-110 134l26 25l126 -77l129 77l23 -25l-109 -134h-85z" />
    <glyph glyph-name="uni01CE" unicode="&#x1ce;" horiz-adv-x="516" 
d="M34 0zM161 414l-22 -84h-59l-17 135q100 37 207 37q81 0 121.5 -27t40.5 -98v-294l78 -28v-43q-40 -10 -62 -13.5t-48 -3.5q-35 0 -63.5 13.5t-36.5 39.5q-40 -30 -74 -44t-74 -14q-55 0 -86.5 33t-31.5 90q0 48 29.5 89.5t98.5 55.5l135 28v70q0 39 -14.5 54.5
t-49.5 15.5q-38 0 -72 -12zM182 182q-16 -21 -16 -55q0 -56 52 -56q19 0 41.5 8.5t37.5 18.5v130l-60 -15q-39 -10 -55 -31zM142 732l116 -79l118 79l34 -24l-109 -142h-86l-109 142z" />
    <glyph glyph-name="uni01CF" unicode="&#x1cf;" horiz-adv-x="375" 
d="M35 0zM36 0v45l84 24v477l-85 23v45h305v-45l-85 -23v-477l85 -24v-45h-304zM146 641l-110 134l26 25l126 -77l129 77l23 -25l-109 -134h-85z" />
    <glyph glyph-name="uni01D0" unicode="&#x1d0;" horiz-adv-x="329" 
d="M13 0zM316 50v-50h-291v50l78 20v334l-78 11v48l169 39h44v-432zM49 732l116 -79l118 79l34 -24l-109 -142h-86l-109 142z" />
    <glyph glyph-name="uni01D1" unicode="&#x1d1;" horiz-adv-x="663" 
d="M30 0zM560 540q73 -88 73 -229q0 -142 -73.5 -231t-226.5 -89q-102 0 -170 42.5t-100.5 114.5t-32.5 163q0 90 31.5 161.5t99.5 113.5t172 42q154 0 227 -88zM454 484.5q-34 73.5 -127 73.5q-89 0 -120.5 -73t-31.5 -174q0 -249 162 -249q89 0 120 72.5t31 176.5
q0 100 -34 173.5zM290 641l-110 134l26 25l126 -77l129 77l23 -25l-109 -134h-85z" />
    <glyph glyph-name="uni01D2" unicode="&#x1d2;" horiz-adv-x="544" 
d="M25 0zM458.5 431q60.5 -71 60.5 -187q0 -112 -61 -183t-188 -71q-124 0 -184.5 71t-60.5 183q0 116 59.5 187t185.5 71q128 0 188.5 -71zM351 386q-23 49 -83 49q-56 0 -77 -49t-21 -140q0 -90 22.5 -139t81.5 -49q58 0 79 48.5t21 139.5t-23 140zM156 732l116 -79
l118 79l34 -24l-109 -142h-86l-109 142z" />
    <glyph glyph-name="uni01D3" unicode="&#x1d3;" horiz-adv-x="661" 
d="M6 0zM553.5 129.5q-18.5 -55.5 -71 -97t-146.5 -41.5q-98 0 -152 36t-73.5 95.5t-19.5 142.5v281l-85 23v45h305v-45l-85 -23v-281q0 -65 9.5 -108t38 -68.5t82.5 -25.5q72 0 106.5 49.5t34.5 132.5v301l-85 23v45h245v-45l-85 -23v-310q0 -51 -18.5 -106.5zM289 641
l-110 134l26 25l126 -77l129 77l23 -25l-109 -134h-85z" />
    <glyph glyph-name="uni01D4" unicode="&#x1d4;" horiz-adv-x="620" 
d="M16 0zM533.5 -1.5q-22.5 -3.5 -48.5 -3.5q-36 0 -65.5 15.5t-34.5 41.5q-29 -26 -75.5 -44t-88.5 -18q-67 0 -97 32.5t-30 82.5v299l-78 11v48l169 39h44v-362q0 -34 14.5 -51t47.5 -17q20 0 45.5 9.5t44.5 23.5v299l-78 11v48l169 39h44v-419l78 -28v-43
q-38 -10 -60.5 -13.5zM194 732l116 -79l118 79l34 -24l-109 -142h-86l-109 142z" />
    <glyph glyph-name="uni01D5" unicode="&#x1d5;" horiz-adv-x="661" 
d="M6 0zM553.5 129.5q-18.5 -55.5 -71 -97t-146.5 -41.5q-98 0 -152 36t-73.5 95.5t-19.5 142.5v281l-85 23v45h305v-45l-85 -23v-281q0 -65 9.5 -108t38 -68.5t82.5 -25.5q72 0 106.5 49.5t34.5 132.5v301l-85 23v45h245v-45l-85 -23v-310q0 -51 -18.5 -106.5zM269.5 667.5
q-21.5 -20.5 -52.5 -20.5q-32 0 -55 20.5t-23 51.5q0 30 23.5 51.5t54.5 21.5q30 0 52 -21.5t22 -51.5q0 -31 -21.5 -51.5zM500 667.5q-22 -20.5 -51 -20.5q-32 0 -54.5 20.5t-22.5 51.5t22.5 52t54.5 21q29 0 51 -21.5t22 -51.5q0 -31 -22 -51.5zM212 936h241v-79h-241v79z
" />
    <glyph glyph-name="uni01D6" unicode="&#x1d6;" horiz-adv-x="620" 
d="M16 0zM533.5 -1.5q-22.5 -3.5 -48.5 -3.5q-36 0 -65.5 15.5t-34.5 41.5q-29 -26 -75.5 -44t-88.5 -18q-67 0 -97 32.5t-30 82.5v299l-78 11v48l169 39h44v-362q0 -34 14.5 -51t47.5 -17q20 0 45.5 9.5t44.5 23.5v299l-78 11v48l169 39h44v-419l78 -28v-43
q-38 -10 -60.5 -13.5zM248.5 545.5q-21.5 -20.5 -52.5 -20.5q-32 0 -55 20.5t-23 51.5q0 30 23.5 51.5t54.5 21.5q30 0 52 -21.5t22 -51.5q0 -31 -21.5 -51.5zM479 545.5q-22 -20.5 -51 -20.5q-32 0 -54.5 20.5t-22.5 51.5t22.5 52t54.5 21q29 0 51 -21.5t22 -51.5
q0 -31 -22 -51.5zM191 814h241v-79h-241v79z" />
    <glyph glyph-name="uni01D7" unicode="&#x1d7;" horiz-adv-x="661" 
d="M6 0zM553.5 129.5q-18.5 -55.5 -71 -97t-146.5 -41.5q-98 0 -152 36t-73.5 95.5t-19.5 142.5v281l-85 23v45h305v-45l-85 -23v-281q0 -65 9.5 -108t38 -68.5t82.5 -25.5q72 0 106.5 49.5t34.5 132.5v301l-85 23v45h245v-45l-85 -23v-310q0 -51 -18.5 -106.5zM269.5 667.5
q-21.5 -20.5 -52.5 -20.5q-32 0 -55 20.5t-23 51.5q0 30 23.5 51.5t54.5 21.5q30 0 52 -21.5t22 -51.5q0 -31 -21.5 -51.5zM500 667.5q-22 -20.5 -51 -20.5q-32 0 -54.5 20.5t-22.5 51.5t22.5 52t54.5 21q29 0 51 -21.5t22 -51.5q0 -31 -22 -51.5zM295 812l-27 35l156 131
l99 -34v-23z" />
    <glyph glyph-name="uni01D8" unicode="&#x1d8;" horiz-adv-x="620" 
d="M16 0zM533.5 -1.5q-22.5 -3.5 -48.5 -3.5q-36 0 -65.5 15.5t-34.5 41.5q-29 -26 -75.5 -44t-88.5 -18q-67 0 -97 32.5t-30 82.5v299l-78 11v48l169 39h44v-362q0 -34 14.5 -51t47.5 -17q20 0 45.5 9.5t44.5 23.5v299l-78 11v48l169 39h44v-419l78 -28v-43
q-38 -10 -60.5 -13.5zM248.5 545.5q-21.5 -20.5 -52.5 -20.5q-32 0 -55 20.5t-23 51.5q0 30 23.5 51.5t54.5 21.5q30 0 52 -21.5t22 -51.5q0 -31 -21.5 -51.5zM479 545.5q-22 -20.5 -51 -20.5q-32 0 -54.5 20.5t-22.5 51.5t22.5 52t54.5 21q29 0 51 -21.5t22 -51.5
q0 -31 -22 -51.5zM274 690l-27 35l156 131l99 -34v-23z" />
    <glyph glyph-name="uni01D9" unicode="&#x1d9;" horiz-adv-x="661" 
d="M6 0zM553.5 129.5q-18.5 -55.5 -71 -97t-146.5 -41.5q-98 0 -152 36t-73.5 95.5t-19.5 142.5v281l-85 23v45h305v-45l-85 -23v-281q0 -65 9.5 -108t38 -68.5t82.5 -25.5q72 0 106.5 49.5t34.5 132.5v301l-85 23v45h245v-45l-85 -23v-310q0 -51 -18.5 -106.5zM269.5 667.5
q-21.5 -20.5 -52.5 -20.5q-32 0 -55 20.5t-23 51.5q0 30 23.5 51.5t54.5 21.5q30 0 52 -21.5t22 -51.5q0 -31 -21.5 -51.5zM500 667.5q-22 -20.5 -51 -20.5q-32 0 -54.5 20.5t-22.5 51.5t22.5 52t54.5 21q29 0 51 -21.5t22 -51.5q0 -31 -22 -51.5zM291 819l-110 134l26 25
l126 -77l129 77l23 -25l-109 -134h-85z" />
    <glyph glyph-name="uni01DA" unicode="&#x1da;" horiz-adv-x="620" 
d="M16 0zM533.5 -1.5q-22.5 -3.5 -48.5 -3.5q-36 0 -65.5 15.5t-34.5 41.5q-29 -26 -75.5 -44t-88.5 -18q-67 0 -97 32.5t-30 82.5v299l-78 11v48l169 39h44v-362q0 -34 14.5 -51t47.5 -17q20 0 45.5 9.5t44.5 23.5v299l-78 11v48l169 39h44v-419l78 -28v-43
q-38 -10 -60.5 -13.5zM248.5 545.5q-21.5 -20.5 -52.5 -20.5q-32 0 -55 20.5t-23 51.5q0 30 23.5 51.5t54.5 21.5q30 0 52 -21.5t22 -51.5q0 -31 -21.5 -51.5zM479 545.5q-22 -20.5 -51 -20.5q-32 0 -54.5 20.5t-22.5 51.5t22.5 52t54.5 21q29 0 51 -21.5t22 -51.5
q0 -31 -22 -51.5zM270 697l-110 134l26 25l126 -77l129 77l23 -25l-109 -134h-85z" />
    <glyph glyph-name="uni01DB" unicode="&#x1db;" horiz-adv-x="661" 
d="M6 0zM553.5 129.5q-18.5 -55.5 -71 -97t-146.5 -41.5q-98 0 -152 36t-73.5 95.5t-19.5 142.5v281l-85 23v45h305v-45l-85 -23v-281q0 -65 9.5 -108t38 -68.5t82.5 -25.5q72 0 106.5 49.5t34.5 132.5v301l-85 23v45h245v-45l-85 -23v-310q0 -51 -18.5 -106.5zM269.5 667.5
q-21.5 -20.5 -52.5 -20.5q-32 0 -55 20.5t-23 51.5q0 30 23.5 51.5t54.5 21.5q30 0 52 -21.5t22 -51.5q0 -31 -21.5 -51.5zM500 667.5q-22 -20.5 -51 -20.5q-32 0 -54.5 20.5t-22.5 51.5t22.5 52t54.5 21q29 0 51 -21.5t22 -51.5q0 -31 -22 -51.5zM367 812l-232 109l4 23
l97 34l154 -131z" />
    <glyph glyph-name="uni01DC" unicode="&#x1dc;" horiz-adv-x="620" 
d="M16 0zM533.5 -1.5q-22.5 -3.5 -48.5 -3.5q-36 0 -65.5 15.5t-34.5 41.5q-29 -26 -75.5 -44t-88.5 -18q-67 0 -97 32.5t-30 82.5v299l-78 11v48l169 39h44v-362q0 -34 14.5 -51t47.5 -17q20 0 45.5 9.5t44.5 23.5v299l-78 11v48l169 39h44v-419l78 -28v-43
q-38 -10 -60.5 -13.5zM248.5 545.5q-21.5 -20.5 -52.5 -20.5q-32 0 -55 20.5t-23 51.5q0 30 23.5 51.5t54.5 21.5q30 0 52 -21.5t22 -51.5q0 -31 -21.5 -51.5zM479 545.5q-22 -20.5 -51 -20.5q-32 0 -54.5 20.5t-22.5 51.5t22.5 52t54.5 21q29 0 51 -21.5t22 -51.5
q0 -31 -22 -51.5zM346 690l-232 109l4 23l97 34l154 -131z" />
    <glyph glyph-name="Gcaron" unicode="&#x1e6;" horiz-adv-x="619" 
d="M30 0zM360 558q-105 0 -146.5 -72.5t-41.5 -173.5q0 -111 39 -180t128 -69q44 0 70 8v150l-84 23v45h279v-47l-60 -19v-190q-36 -20 -88.5 -31t-109.5 -11q-165 0 -240.5 89t-75.5 232q0 141 80 229t248 88q47 0 99.5 -8.5t84.5 -20.5l-11 -153h-56l-25 98q-30 13 -90 13
zM268 641l-110 134l26 25l126 -77l129 77l23 -25l-109 -134h-85z" />
    <glyph glyph-name="gcaron" unicode="&#x1e7;" horiz-adv-x="515" 
d="M25 0zM69.5 -149.5q-44.5 27.5 -44.5 70.5q0 26 15.5 49.5t56.5 46.5q-20 6 -31 25t-11 38q0 26 18 50.5t51 56.5q-38 22 -55 60.5t-17 87.5q0 76 52 123t146 47q70 0 123 -29l135 40v-86h-94q16 -16 26 -43t10 -52q0 -80 -48.5 -127.5t-151.5 -47.5q-19 0 -40.5 2.5
t-30.5 5.5q-9 -22 -9 -32q0 -33 29 -33h127q83 0 128.5 -27t45.5 -89q0 -42 -30 -79.5t-90 -61t-146 -23.5q-120 0 -164.5 27.5zM321 335q0 108 -72 108q-34 0 -49 -27.5t-15 -80.5q0 -110 67 -110q69 0 69 110zM340.5 -87.5q33.5 22.5 33.5 63.5q0 25 -13.5 30.5t-47.5 5.5
h-136q-14 -17 -19.5 -32.5t-5.5 -35.5q0 -26 19 -40t66 -14q70 0 103.5 22.5zM142 732l116 -79l118 79l34 -24l-109 -142h-86l-109 142z" />
    <glyph glyph-name="uni01EA" unicode="&#x1ea;" horiz-adv-x="663" 
d="M566 -111l23 -22q-39 -62 -114 -62q-50 0 -74 25t-24 59q0 25 13.5 54.5t39.5 59.5q-43 -12 -97 -12q-102 0 -170 42.5t-100.5 114.5t-32.5 163q0 90 31.5 161.5t99.5 113.5t172 42q154 0 227 -88t73 -229q0 -83 -25.5 -150t-77.5 -110q-30 -25 -49 -65t-19 -72
q0 -47 43 -47q30 0 61 22zM457 134.5q31 72.5 31 176.5q0 100 -34 173.5t-127 73.5q-89 0 -120.5 -73t-31.5 -174q0 -249 162 -249q89 0 120 72.5z" />
    <glyph glyph-name="uni01EB" unicode="&#x1eb;" horiz-adv-x="544" 
d="M480 -115l23 -22q0 -2 -13.5 -18t-38 -30t-58.5 -14q-54 0 -78 24.5t-24 61.5q0 24 13 52.5t39 58.5q-35 -8 -73 -8q-124 0 -184.5 71t-60.5 183q0 116 59.5 187t185.5 71q128 0 188.5 -71t60.5 -187q0 -65 -21 -118.5t-64 -86.5q-24 -22 -41 -61.5t-17 -69.5
q0 -45 43 -45q30 0 61 22zM353 106.5q21 48.5 21 139.5t-23 140t-83 49q-56 0 -77 -49t-21 -140q0 -90 22.5 -139t81.5 -49q58 0 79 48.5z" />
    <glyph glyph-name="uni01F1" unicode="&#x1f1;" horiz-adv-x="1155" 
d="M35 0zM548 535.5q77 -78.5 77 -215.5q0 -142 -73.5 -231t-223.5 -89h-292v45l84 24v477l-85 23v45h274q162 0 239 -78.5zM255 546v-477q38 -12 78 -12q86 0 118 71.5t32 191.5q0 68 -21.5 120.5t-61 82t-92.5 29.5q-29 0 -53 -6zM1127 162l-8 -162h-425l-18 33l306 513
h-196l-24 -78h-58l-10 146h436l5 -33l-301 -512h199l38 93h56z" />
    <glyph glyph-name="uni01F2" unicode="&#x1f2;" horiz-adv-x="1125" 
d="M35 0zM548 535.5q77 -78.5 77 -215.5q0 -142 -73.5 -231t-223.5 -89h-292v45l84 24v477l-85 23v45h274q162 0 239 -78.5zM255 546v-477q38 -12 78 -12q86 0 118 71.5t32 191.5q0 68 -21.5 120.5t-61 82t-92.5 29.5q-29 0 -53 -6zM933 419h-157l-25 -89h-47l-18 162h392
l23 -47l-257 -374h169l36 92h50l-11 -163h-389l-22 46z" />
    <glyph glyph-name="uni01F3" unicode="&#x1f3;" horiz-adv-x="1037" 
d="M25 0zM190 -10q-80 0 -122.5 73.5t-42.5 180.5q0 121 56 189.5t156 68.5q35 0 67 -10.5t40 -16.5v158l-78 11v48l169 39h44v-648l78 -28v-43q-65 -17 -111 -17q-35 0 -63 14t-36 39q-72 -58 -157 -58zM306.5 81.5q25.5 10.5 37.5 23.5v303q-13 12 -35 19.5t-41 7.5
q-49 0 -73.5 -50t-24.5 -139q0 -82 21 -128.5t65 -46.5q25 0 50.5 10.5zM845 419h-157l-25 -89h-47l-18 162h392l23 -47l-257 -374h169l36 92h50l-11 -163h-389l-22 46z" />
    <glyph glyph-name="uni01F4" unicode="&#x1f4;" horiz-adv-x="619" 
d="M30 0zM360 558q-105 0 -146.5 -72.5t-41.5 -173.5q0 -111 39 -180t128 -69q44 0 70 8v150l-84 23v45h279v-47l-60 -19v-190q-36 -20 -88.5 -31t-109.5 -11q-165 0 -240.5 89t-75.5 232q0 141 80 229t248 88q47 0 99.5 -8.5t84.5 -20.5l-11 -153h-56l-25 98q-30 13 -90 13
zM272 634l-27 35l156 131l99 -34v-23z" />
    <glyph glyph-name="uni01F5" unicode="&#x1f5;" horiz-adv-x="515" 
d="M25 0zM69.5 -149.5q-44.5 27.5 -44.5 70.5q0 26 15.5 49.5t56.5 46.5q-20 6 -31 25t-11 38q0 26 18 50.5t51 56.5q-38 22 -55 60.5t-17 87.5q0 76 52 123t146 47q70 0 123 -29l135 40v-86h-94q16 -16 26 -43t10 -52q0 -80 -48.5 -127.5t-151.5 -47.5q-19 0 -40.5 2.5
t-30.5 5.5q-9 -22 -9 -32q0 -33 29 -33h127q83 0 128.5 -27t45.5 -89q0 -42 -30 -79.5t-90 -61t-146 -23.5q-120 0 -164.5 27.5zM321 335q0 108 -72 108q-34 0 -49 -27.5t-15 -80.5q0 -110 67 -110q69 0 69 110zM340.5 -87.5q33.5 22.5 33.5 63.5q0 25 -13.5 30.5t-47.5 5.5
h-136q-14 -17 -19.5 -32.5t-5.5 -35.5q0 -26 19 -40t66 -14q70 0 103.5 22.5zM177 558l-27 35l156 137l99 -40v-23z" />
    <glyph glyph-name="Aringacute" unicode="&#x1fa;" horiz-adv-x="594" 
d="M212.5 653q-29.5 26 -29.5 68q0 35 20 60t57 34l-26 34l156 131l99 -34v-23l-223 -107q13 3 30 3q55 0 84.5 -27.5t29.5 -70.5q0 -42 -29 -68t-85 -26q-54 0 -83.5 26zM264.5 757.5q-7.5 -13.5 -7.5 -36.5q0 -22 7.5 -34.5t31.5 -12.5t32 12.5t8 34.5q0 23 -8 36.5
t-32 13.5t-31.5 -13.5zM533 69l71 -24v-45h-278v45l65 20l-29 88h-192l-28 -85l68 -23v-45h-220v44l71 25l189 545l78 13zM189 207h153l-80 216z" />
    <glyph glyph-name="aringacute" unicode="&#x1fb;" horiz-adv-x="516" 
d="M173.5 531q-29.5 26 -29.5 68q0 35 20 60t57 34l-26 34l156 131l99 -34v-23l-223 -107q14 3 30 3q55 0 84.5 -27.5t29.5 -70.5q0 -42 -29 -68t-85 -26q-54 0 -83.5 26zM225.5 635.5q-7.5 -13.5 -7.5 -36.5q0 -22 7.5 -34.5t31.5 -12.5t32 12.5t8 34.5q0 23 -8 36.5
t-32 13.5t-31.5 -13.5zM510 55v-43q-40 -10 -62 -13.5t-48 -3.5q-35 0 -63.5 13.5t-36.5 39.5q-40 -30 -74 -44t-74 -14q-55 0 -86.5 33t-31.5 90q0 48 29.5 89.5t98.5 55.5l135 28v70q0 39 -14.5 54.5t-49.5 15.5q-38 0 -72 -12l-22 -84h-59l-17 135q100 37 207 37
q81 0 121.5 -27t40.5 -98v-294zM297 228l-60 -15q-39 -10 -55 -31t-16 -55q0 -56 52 -56q19 0 41.5 8.5t37.5 18.5v130z" />
    <glyph glyph-name="AEacute" unicode="&#x1fc;" horiz-adv-x="700" 
d="M0 0zM-52 0v44l71 25l256 482l-65 18v45h424v-146h-56l-22 78h-131l16 -230h71l17 66h53v-191h-53l-19 69h-65l14 -191h134l26 93h56v-162h-430v45l84 24l-14 185h-120l-95 -186l68 -23v-45h-220zM224 310h87l-10 149zM312 634l-27 35l156 131l99 -34v-23z" />
    <glyph glyph-name="aeacute" unicode="&#x1fd;" horiz-adv-x="738" 
d="M29 0zM61 20.5q-32 30.5 -32 76.5q0 55 37 95.5t110 52.5l116 20v91q0 39 -14.5 54.5t-49.5 15.5q-38 0 -72 -12l-22 -84h-59l-17 135q100 37 207 37q84 0 122 -49q27 24 60.5 36.5t79.5 12.5q86 0 136 -49t50 -145q0 -17 -3 -26l-283 -51q0 -63 13 -99t42 -51.5
t80 -15.5q52 0 138 24l8 -44q-73 -55 -186 -55q-125 0 -178 78q-97 -78 -197 -78q-54 0 -86 30.5zM577 316q0 65 -12.5 91t-47.5 26q-49 0 -67 -37.5t-21 -109.5zM254.5 79.5q22.5 8.5 37.5 18.5v109l-60 -11q-71 -13 -71 -69t52 -56q19 0 41.5 8.5zM288 558l-27 35l156 137
l99 -40v-23z" />
    <glyph glyph-name="Oslashacute" unicode="&#x1fe;" horiz-adv-x="663" 
d="M30 0zM175 26q-73 38 -109 113t-36 172q0 90 31.5 161.5t99.5 113.5t172 42q40 0 73 -6l34 86h84l-43 -110q78 -36 115 -111.5t37 -175.5q0 -142 -73.5 -231t-226.5 -89q-47 0 -86 9l-37 -94h-81zM381 556q-24 9 -54 9q-152 0 -152 -254q0 -125 38 -189zM457 128.5
q31 74.5 31 182.5q0 128 -44 193l-171 -438q27 -12 64 -12q89 0 120 74.5zM224 634l-27 35l156 131l99 -34v-23z" />
    <glyph glyph-name="oslashacute" unicode="&#x1ff;" horiz-adv-x="544" 
d="M25 0zM159 10q-68 28 -101 90t-33 144q0 116 59.5 187t185.5 71q25 0 46 -3l30 92h70l-35 -108q71 -27 104.5 -90t33.5 -149q0 -112 -61 -183t-188 -71q-19 0 -49 4l-28 -88h-67zM295 432q-12 3 -27 3q-56 0 -77 -49t-21 -140q0 -92 21 -137zM353 106.5q21 48.5 21 139.5
q0 97 -24 142l-106 -326q12 -4 30 -4q58 0 79 48.5zM191 558l-27 35l156 137l99 -40v-23z" />
    <glyph glyph-name="uni0200" unicode="&#x200;" horiz-adv-x="594" 
d="M0 0zM142 68l68 -23v-45h-220v44l71 25l189 545l78 13l205 -558l71 -24v-45h-278v45l65 20l-29 88h-192zM262 423l-73 -216h153zM217 631l-153 161v22h92l92 -160zM378 631l-153 161v22h92l92 -160z" />
    <glyph glyph-name="uni0201" unicode="&#x201;" horiz-adv-x="516" 
d="M34 0zM161 414l-22 -84h-59l-17 135q100 37 207 37q81 0 121.5 -27t40.5 -98v-294l78 -28v-43q-40 -10 -62 -13.5t-48 -3.5q-35 0 -63.5 13.5t-36.5 39.5q-40 -30 -74 -44t-74 -14q-55 0 -86.5 33t-31.5 90q0 48 29.5 89.5t98.5 55.5l135 28v70q0 39 -14.5 54.5
t-49.5 15.5q-38 0 -72 -12zM182 182q-16 -21 -16 -55q0 -56 52 -56q19 0 41.5 8.5t37.5 18.5v130l-60 -15q-39 -10 -55 -31zM190 552l-153 161v22h92l92 -160zM351 552l-153 161v22h92l92 -160z" />
    <glyph glyph-name="uni0202" unicode="&#x202;" horiz-adv-x="594" 
d="M0 0zM142 68l68 -23v-45h-220v44l71 25l189 545l78 13l205 -558l71 -24v-45h-278v45l65 20l-29 88h-192zM262 423l-73 -216h153zM394 762q24 -36 24 -99l-59 -2q0 25 -14.5 43t-48.5 18q-36 0 -50.5 -18t-14.5 -43l-56 2q0 61 27 98t98 37q70 0 94 -36z" />
    <glyph glyph-name="uni0203" unicode="&#x203;" horiz-adv-x="516" 
d="M34 0zM161 414l-22 -84h-59l-17 135q100 37 207 37q81 0 121.5 -27t40.5 -98v-294l78 -28v-43q-40 -10 -62 -13.5t-48 -3.5q-35 0 -63.5 13.5t-36.5 39.5q-40 -30 -74 -44t-74 -14q-55 0 -86.5 33t-31.5 90q0 48 29.5 89.5t98.5 55.5l135 28v70q0 39 -14.5 54.5
t-49.5 15.5q-38 0 -72 -12zM182 182q-16 -21 -16 -55q0 -56 52 -56q19 0 41.5 8.5t37.5 18.5v130l-60 -15q-39 -10 -55 -31zM356 685.5q23 -35.5 23 -99.5l-57 -2q0 25 -13.5 43t-46.5 18q-69 0 -69 -61l-57 2q0 135 128 135q69 0 92 -35.5z" />
    <glyph glyph-name="uni0204" unicode="&#x204;" horiz-adv-x="545" 
d="M35 0zM378 396h53v-191h-53l-19 69h-104v-205h181l26 93h56v-162h-482v45l84 24v477l-85 23v45h463v-146h-56l-22 78h-165v-216h106zM193 631l-153 161v22h92l92 -160zM354 631l-153 161v22h92l92 -160z" />
    <glyph glyph-name="uni0205" unicode="&#x205;" horiz-adv-x="481" 
d="M20 0zM25 244q0 138 64 198t166 60q105 0 153 -46.5t48 -145.5q0 -43 -4 -66h-282v-24q0 -88 33 -121.5t102 -33.5q52 0 138 24l8 -44q-73 -55 -186 -55q-240 0 -240 254zM320 309v21q0 50 -12 76.5t-48 26.5q-50 0 -68 -32.5t-20 -102.5zM173 552l-153 161v22h92
l92 -160zM334 552l-153 161v22h92l92 -160z" />
    <glyph glyph-name="uni0206" unicode="&#x206;" horiz-adv-x="545" 
d="M35 0zM378 396h53v-191h-53l-19 69h-104v-205h181l26 93h56v-162h-482v45l84 24v477l-85 23v45h463v-146h-56l-22 78h-165v-216h106zM370 762q24 -36 24 -99l-59 -2q0 25 -14.5 43t-48.5 18q-36 0 -50.5 -18t-14.5 -43l-56 2q0 61 27 98t98 37q70 0 94 -36z" />
    <glyph glyph-name="uni0207" unicode="&#x207;" horiz-adv-x="481" 
d="M25 0zM25 244q0 138 64 198t166 60q105 0 153 -46.5t48 -145.5q0 -43 -4 -66h-282v-24q0 -88 33 -121.5t102 -33.5q52 0 138 24l8 -44q-73 -55 -186 -55q-240 0 -240 254zM320 309v21q0 50 -12 76.5t-48 26.5q-50 0 -68 -32.5t-20 -102.5zM339 685.5q23 -35.5 23 -99.5
l-57 -2q0 25 -13.5 43t-46.5 18q-69 0 -69 -61l-57 2q0 135 128 135q69 0 92 -35.5z" />
    <glyph glyph-name="uni0208" unicode="&#x208;" horiz-adv-x="375" 
d="M0 0zM36 0v45l84 24v477l-85 23v45h305v-45l-85 -23v-477l85 -24v-45h-304zM108 631l-153 161v22h92l92 -160zM269 631l-153 161v22h92l92 -160z" />
    <glyph glyph-name="uni0209" unicode="&#x209;" horiz-adv-x="329" 
d="M0 0zM316 50v-50h-291v50l78 20v334l-78 11v48l169 39h44v-432zM97 552l-153 161v22h92l92 -160zM258 552l-153 161v22h92l92 -160z" />
    <glyph glyph-name="uni020A" unicode="&#x20a;" horiz-adv-x="375" 
d="M35 0zM36 0v45l84 24v477l-85 23v45h305v-45l-85 -23v-477l85 -24v-45h-304zM285 762q24 -36 24 -99l-59 -2q0 25 -14.5 43t-48.5 18q-36 0 -50.5 -18t-14.5 -43l-56 2q0 61 27 98t98 37q70 0 94 -36z" />
    <glyph glyph-name="uni020B" unicode="&#x20b;" horiz-adv-x="329" 
d="M25 0zM316 50v-50h-291v50l78 20v334l-78 11v48l169 39h44v-432zM263 685.5q23 -35.5 23 -99.5l-57 -2q0 25 -13.5 43t-46.5 18q-69 0 -69 -61l-57 2q0 135 128 135q69 0 92 -35.5z" />
    <glyph glyph-name="uni020C" unicode="&#x20c;" horiz-adv-x="663" 
d="M30 0zM560 540q73 -88 73 -229q0 -142 -73.5 -231t-226.5 -89q-102 0 -170 42.5t-100.5 114.5t-32.5 163q0 90 31.5 161.5t99.5 113.5t172 42q154 0 227 -88zM454 484.5q-34 73.5 -127 73.5q-89 0 -120.5 -73t-31.5 -174q0 -249 162 -249q89 0 120 72.5t31 176.5
q0 100 -34 173.5zM252 631l-153 161v22h92l92 -160zM413 631l-153 161v22h92l92 -160z" />
    <glyph glyph-name="uni020D" unicode="&#x20d;" horiz-adv-x="544" 
d="M25 0zM458.5 431q60.5 -71 60.5 -187q0 -112 -61 -183t-188 -71q-124 0 -184.5 71t-60.5 183q0 116 59.5 187t185.5 71q128 0 188.5 -71zM351 386q-23 49 -83 49q-56 0 -77 -49t-21 -140q0 -90 22.5 -139t81.5 -49q58 0 79 48.5t21 139.5t-23 140zM204 552l-153 161v22
h92l92 -160zM365 552l-153 161v22h92l92 -160z" />
    <glyph glyph-name="uni020E" unicode="&#x20e;" horiz-adv-x="663" 
d="M30 0zM560 540q73 -88 73 -229q0 -142 -73.5 -231t-226.5 -89q-102 0 -170 42.5t-100.5 114.5t-32.5 163q0 90 31.5 161.5t99.5 113.5t172 42q154 0 227 -88zM454 484.5q-34 73.5 -127 73.5q-89 0 -120.5 -73t-31.5 -174q0 -249 162 -249q89 0 120 72.5t31 176.5
q0 100 -34 173.5zM429 762q24 -36 24 -99l-59 -2q0 25 -14.5 43t-48.5 18q-36 0 -50.5 -18t-14.5 -43l-56 2q0 61 27 98t98 37q70 0 94 -36z" />
    <glyph glyph-name="uni020F" unicode="&#x20f;" horiz-adv-x="544" 
d="M25 0zM458.5 431q60.5 -71 60.5 -187q0 -112 -61 -183t-188 -71q-124 0 -184.5 71t-60.5 183q0 116 59.5 187t185.5 71q128 0 188.5 -71zM351 386q-23 49 -83 49q-56 0 -77 -49t-21 -140q0 -90 22.5 -139t81.5 -49q58 0 79 48.5t21 139.5t-23 140zM370 685.5
q23 -35.5 23 -99.5l-57 -2q0 25 -13.5 43t-46.5 18q-69 0 -69 -61l-57 2q0 135 128 135q69 0 92 -35.5z" />
    <glyph glyph-name="uni0210" unicode="&#x210;" horiz-adv-x="598" 
d="M35 0zM349 182.5q-23 55.5 -37 70.5t-32 15h-25v-199l74 -24v-45h-293v45l84 24v477l-85 23v45h283q114 0 169 -40t55 -109q0 -126 -143 -170q25 -8 39 -21t27 -39t42 -93l32 -74l64 -23v-45h-185q-46 127 -69 182.5zM377 357q29 34 29 91q0 52 -27.5 78.5t-75.5 26.5
q-29 0 -48 -7v-223h41q52 0 81 34zM219 631l-153 161v22h92l92 -160zM380 631l-153 161v22h92l92 -160z" />
    <glyph glyph-name="uni0211" unicode="&#x211;" horiz-adv-x="426" 
d="M0 0zM238 401v-331l116 -20v-50h-329v50l78 20v334l-78 11v48l168 39h45v-46q33 22 74 35.5t75 13.5q23 0 29 -1l-19 -179h-73l-21 92q-39 0 -65 -16zM145 552l-153 161v22h92l92 -160zM306 552l-153 161v22h92l92 -160z" />
    <glyph glyph-name="uni0212" unicode="&#x212;" horiz-adv-x="598" 
d="M35 0zM349 182.5q-23 55.5 -37 70.5t-32 15h-25v-199l74 -24v-45h-293v45l84 24v477l-85 23v45h283q114 0 169 -40t55 -109q0 -126 -143 -170q25 -8 39 -21t27 -39t42 -93l32 -74l64 -23v-45h-185q-46 127 -69 182.5zM377 357q29 34 29 91q0 52 -27.5 78.5t-75.5 26.5
q-29 0 -48 -7v-223h41q52 0 81 34zM396 762q24 -36 24 -99l-59 -2q0 25 -14.5 43t-48.5 18q-36 0 -50.5 -18t-14.5 -43l-56 2q0 61 27 98t98 37q70 0 94 -36z" />
    <glyph glyph-name="uni0213" unicode="&#x213;" horiz-adv-x="426" 
d="M25 0zM238 401v-331l116 -20v-50h-329v50l78 20v334l-78 11v48l168 39h45v-46q33 22 74 35.5t75 13.5q23 0 29 -1l-19 -179h-73l-21 92q-39 0 -65 -16zM311 685.5q23 -35.5 23 -99.5l-57 -2q0 25 -13.5 43t-46.5 18q-69 0 -69 -61l-57 2q0 135 128 135q69 0 92 -35.5z
" />
    <glyph glyph-name="uni0214" unicode="&#x214;" horiz-adv-x="661" 
d="M6 0zM553.5 129.5q-18.5 -55.5 -71 -97t-146.5 -41.5q-98 0 -152 36t-73.5 95.5t-19.5 142.5v281l-85 23v45h305v-45l-85 -23v-281q0 -65 9.5 -108t38 -68.5t82.5 -25.5q72 0 106.5 49.5t34.5 132.5v301l-85 23v45h245v-45l-85 -23v-310q0 -51 -18.5 -106.5zM251 631
l-153 161v22h92l92 -160zM412 631l-153 161v22h92l92 -160z" />
    <glyph glyph-name="uni0215" unicode="&#x215;" horiz-adv-x="620" 
d="M16 0zM533.5 -1.5q-22.5 -3.5 -48.5 -3.5q-36 0 -65.5 15.5t-34.5 41.5q-29 -26 -75.5 -44t-88.5 -18q-67 0 -97 32.5t-30 82.5v299l-78 11v48l169 39h44v-362q0 -34 14.5 -51t47.5 -17q20 0 45.5 9.5t44.5 23.5v299l-78 11v48l169 39h44v-419l78 -28v-43
q-38 -10 -60.5 -13.5zM242 552l-153 161v22h92l92 -160zM403 552l-153 161v22h92l92 -160z" />
    <glyph glyph-name="uni0216" unicode="&#x216;" horiz-adv-x="661" 
d="M6 0zM553.5 129.5q-18.5 -55.5 -71 -97t-146.5 -41.5q-98 0 -152 36t-73.5 95.5t-19.5 142.5v281l-85 23v45h305v-45l-85 -23v-281q0 -65 9.5 -108t38 -68.5t82.5 -25.5q72 0 106.5 49.5t34.5 132.5v301l-85 23v45h245v-45l-85 -23v-310q0 -51 -18.5 -106.5zM428 762
q24 -36 24 -99l-59 -2q0 25 -14.5 43t-48.5 18q-36 0 -50.5 -18t-14.5 -43l-56 2q0 61 27 98t98 37q70 0 94 -36z" />
    <glyph glyph-name="uni0217" unicode="&#x217;" horiz-adv-x="620" 
d="M16 0zM533.5 -1.5q-22.5 -3.5 -48.5 -3.5q-36 0 -65.5 15.5t-34.5 41.5q-29 -26 -75.5 -44t-88.5 -18q-67 0 -97 32.5t-30 82.5v299l-78 11v48l169 39h44v-362q0 -34 14.5 -51t47.5 -17q20 0 45.5 9.5t44.5 23.5v299l-78 11v48l169 39h44v-419l78 -28v-43
q-38 -10 -60.5 -13.5zM408 685.5q23 -35.5 23 -99.5l-57 -2q0 25 -13.5 43t-46.5 18q-69 0 -69 -61l-57 2q0 135 128 135q69 0 92 -35.5z" />
    <glyph glyph-name="Scommaaccent" unicode="&#x218;" horiz-adv-x="483" 
d="M119.5 -1q-50.5 8 -89.5 23l15 143h56l16 -87q52 -15 96 -15q53 0 83.5 20t30.5 57q0 34 -19.5 54t-66.5 41l-92 40q-44 19 -76 61t-32 109q0 87 56 135t157 48q91 0 175 -27l-11 -145h-53l-22 91q-12 4 -36.5 7.5t-40.5 3.5q-50 0 -80.5 -18.5t-30.5 -61.5
q0 -35 22.5 -57.5t65.5 -40.5l91 -38q61 -26 88.5 -66t27.5 -97q0 -88 -60 -138t-175 -50q-45 0 -95.5 8zM180 -229l9 185l90 20l25 -24l-80 -188z" />
    <glyph glyph-name="scommaaccent" unicode="&#x219;" horiz-adv-x="456" 
d="M181 420.5q-22 -14.5 -22 -39.5q0 -21 10.5 -35t36.5 -23l114 -36q52 -16 76.5 -48.5t24.5 -92.5q0 -72 -55 -114t-153 -42q-39 0 -85.5 6.5t-81.5 18.5l12 139h58l21 -84q34 -12 72 -12q98 0 98 61q0 22 -11.5 32t-43.5 21l-109 37q-48 16 -72 48.5t-24 86.5
q0 74 49 116t147 42q39 0 80.5 -7.5t76.5 -21.5l-14 -126h-56l-20 74q-17 7 -32 10.5t-37 3.5q-38 0 -60 -14.5zM212 -236l-44 7l9 185l90 20l25 -24z" />
    <glyph glyph-name="uni021A" unicode="&#x21a;" horiz-adv-x="539" 
d="M118 0v45l84 24v477h-114l-19 -91h-55l-7 159h525l-6 -159h-57l-20 91h-112v-477l85 -24v-45h-304zM210 -229l9 185l90 20l25 -24l-80 -188z" />
    <glyph glyph-name="uni021B" unicode="&#x21b;" horiz-adv-x="348" 
d="M110.5 12.5q-18.5 21.5 -18.5 56.5v351h-72v47l83 37l61 100h61v-112h113v-78l-113 7v-336l99 -22v-50q-31 -10 -72.5 -16t-70.5 -6q-52 0 -70.5 21.5zM129 -229l9 185l90 20l25 -24l-80 -188z" />
    <glyph glyph-name="uni0232" unicode="&#x232;" horiz-adv-x="575" 
d="M9 0zM358 568v46h220v-44l-71 -25l-142 -289v-187l86 -24v-45h-304v45l84 24v187l-151 289l-71 24v45h283v-47l-68 -21l105 -202l100 204zM167 758h241v-79h-241v79z" />
    <glyph glyph-name="uni0233" unicode="&#x233;" horiz-adv-x="500" 
d="M0 0zM227 452l-47 -27l96 -251l84 249l-64 14v55h217v-52l-63 -17l-142 -389q-37 -101 -80.5 -151.5t-107.5 -50.5q-53 0 -118 29l8 46h65q87 0 133 119l-171 399l-50 27v40h240v-40zM129 685h241v-79h-241v79z" />
    <glyph glyph-name="uni0237" unicode="&#x237;" horiz-adv-x="330" 
d="M201 502h44v-446q0 -117 -43.5 -170.5t-105.5 -53.5q-19 0 -50 7.5t-60 21.5l6 47h45q37 0 55 22t18 51v423l-78 11v48z" />
    <glyph glyph-name="uni0259" unicode="&#x259;" horiz-adv-x="481" 
d="M456 248q0 -138 -64 -198t-166 -60q-105 0 -153 46.5t-48 145.5q0 43 4 66h282v24q0 88 -33 121.5t-102 33.5q-52 0 -138 -24l-8 44q73 55 186 55q240 0 240 -254zM161 183v-21q0 -50 12 -76.5t48 -26.5q50 0 68 32.5t20 102.5z" />
    <glyph glyph-name="uni0272" unicode="&#x272;" horiz-adv-x="630" 
d="M617 45v-45h-274v45l60 25v294q0 25 -6 37t-20 16t-43 4q-53 0 -96 -12v-353q0 -117 -43.5 -170.5t-105.5 -53.5q-19 0 -50 7.5t-60 21.5l6 47h45q37 0 55 22t18 51v424l-78 10v50l169 37h44v-40q26 12 80 26t96 14q54 0 89 -25t35 -79v-328z" />
    <glyph glyph-name="uni02B0" unicode="&#x2b0;" horiz-adv-x="476" 
d="M463 321v-42h-207v42l37 19v208q0 25 -8.5 33.5t-34.5 8.5q-48 0 -66 -9v-241l38 -19v-42h-206v42l53 19v414l-53 9v36l130 28h38v-201q20 9 64.5 19t72.5 10q38 0 62.5 -18.5t24.5 -58.5v-238z" />
    <glyph glyph-name="uni02BC" unicode="&#x2bc;" horiz-adv-x="255" 
d="M112 529l-41 227h45l68 -23l-32 -204h-40z" />
    <glyph glyph-name="circumflex" unicode="&#x2c6;" horiz-adv-x="255" 
d="M246 559l-119 85l-116 -85l-36 30l110 141h85l109 -141z" />
    <glyph glyph-name="caron" unicode="&#x2c7;" horiz-adv-x="255" 
d="M11 732l116 -79l118 79l34 -24l-109 -142h-86l-109 142z" />
    <glyph glyph-name="uni02C9" unicode="&#x2c9;" horiz-adv-x="255" 
d="M7 685h241v-79h-241v79z" />
    <glyph glyph-name="breve" unicode="&#x2d8;" horiz-adv-x="255" 
d="M29 609.5q-23 35.5 -23 99.5l57 2q0 -25 13.5 -43t46.5 -18q69 0 69 61l57 -2q0 -135 -128 -135q-69 0 -92 35.5z" />
    <glyph glyph-name="dotaccent" unicode="&#x2d9;" horiz-adv-x="255" 
d="M187 589q-24 -23 -58 -23t-60 23.5t-26 56.5q0 34 26 59t60 25t58 -25t24 -59t-24 -57z" />
    <glyph glyph-name="ring" unicode="&#x2da;" horiz-adv-x="255" 
d="M212 577q-29 -29 -85 -29q-54 0 -83.5 29t-29.5 75q0 47 29.5 77.5t83.5 30.5q55 0 84.5 -30.5t29.5 -77.5q0 -46 -29 -75zM95.5 693q-7.5 -14 -7.5 -41q0 -26 7.5 -39t31.5 -13t32 13t8 39q0 27 -8 41t-32 14t-31.5 -14z" />
    <glyph glyph-name="ogonek" unicode="&#x2db;" horiz-adv-x="255" 
d="M121.5 -59.5q-15.5 -37.5 -15.5 -66.5q0 -45 43 -45q30 0 61 22l23 -22q0 -2 -13.5 -18t-38 -30t-58.5 -14q-54 0 -78 24.5t-24 61.5q0 31 23 71t68 76h45q-20 -22 -35.5 -59.5z" />
    <glyph glyph-name="tilde" unicode="&#x2dc;" horiz-adv-x="255" 
d="M216 583q-28 0 -98 20q-59 17 -78 17q-11 0 -19.5 -7t-14 -14.5t-6.5 -9.5l-47 19q44 104 87 104q29 0 97 -20q59 -17 79 -17q11 0 20.5 7t15 14.5t6.5 9.5l44 -19q-43 -104 -86 -104z" />
    <glyph glyph-name="hungarumlaut" unicode="&#x2dd;" horiz-adv-x="255" 
d="M-14 552l-31 23l92 160h92v-22zM147 552l-31 23l92 160h92v-22z" />
    <glyph glyph-name="uni02E1" unicode="&#x2e1;" horiz-adv-x="252" 
d="M236 319v-40h-220v40l53 21v414l-53 9v36l130 28h38v-487z" />
    <glyph glyph-name="uni02E2" unicode="&#x2e2;" horiz-adv-x="350" 
d="M139 588.5q-12 -9.5 -12 -29.5q0 -26 29 -35l80 -31q38 -15 57 -37.5t19 -66.5q0 -50 -41.5 -84.5t-114.5 -34.5q-29 0 -64 5.5t-60 15.5l10 108h44l17 -62q26 -8 53 -8q31 0 44.5 6.5t13.5 31.5q0 13 -7 20.5t-24 13.5l-83 32q-34 13 -50.5 37.5t-16.5 71.5
q0 52 34.5 82.5t110.5 30.5q69 0 116 -19l-9 -104h-49l-16 58q-13 8 -43 8q-26 0 -38 -9.5z" />
    <glyph glyph-name="gravecomb" unicode="&#x300;" horiz-adv-x="0" 
d="M-23 634l-232 109l4 23l97 34l154 -131z" />
    <glyph glyph-name="acutecomb" unicode="&#x301;" horiz-adv-x="0" 
d="M-228 634l-27 35l156 131l99 -34v-23z" />
    <glyph glyph-name="uni0302" unicode="&#x302;" horiz-adv-x="0" 
d="M1 640l-129 77l-126 -77l-26 25l110 135h85l109 -135z" />
    <glyph glyph-name="tildecomb" unicode="&#x303;" horiz-adv-x="0" 
d="M-39 661q-28 0 -98 20q-59 17 -78 17q-11 0 -19.5 -7t-14 -14.5t-6.5 -9.5l-47 19q16 45 39.5 74.5t47.5 29.5q29 0 97 -20q59 -17 79 -17q11 0 20.5 7t15 14.5t6.5 9.5l44 -19q-43 -104 -86 -104z" />
    <glyph glyph-name="uni0304" unicode="&#x304;" horiz-adv-x="0" 
d="M-248 758h241v-79h-241v79z" />
    <glyph glyph-name="uni0306" unicode="&#x306;" horiz-adv-x="0" 
d="M-225 687q-24 36 -24 99l59 2q0 -25 14.5 -43t48.5 -18q36 0 50.5 18t14.5 43l56 -2q0 -61 -27 -98t-98 -37q-70 0 -94 36z" />
    <glyph glyph-name="uni0307" unicode="&#x307;" horiz-adv-x="0" 
d="M-68 658q-24 -23 -58 -23t-60 23.5t-26 56.5q0 34 26 59t60 25t58 -25t24 -59t-24 -57z" />
    <glyph glyph-name="uni0308" unicode="&#x308;" horiz-adv-x="0" 
d="M-188.5 667.5q-21.5 -20.5 -52.5 -20.5q-32 0 -55 20.5t-23 51.5q0 30 23.5 51.5t54.5 21.5q30 0 52 -21.5t22 -51.5q0 -31 -21.5 -51.5zM42 667.5q-22 -20.5 -51 -20.5q-32 0 -54.5 20.5t-22.5 51.5t22.5 52t54.5 21q29 0 51 -21.5t22 -51.5q0 -31 -22 -51.5z" />
    <glyph glyph-name="hookabovecomb" unicode="&#x309;" horiz-adv-x="0" 
d="M-112 568l-6 -23h-54l-4 44q66 0 66 30q0 22 -38 22q-8 0 -28 -2l-7 -27h-40l-6 53q50 11 92 11q48 0 74.5 -14t26.5 -40q0 -42 -76 -54z" />
    <glyph glyph-name="uni030A" unicode="&#x30a;" horiz-adv-x="0" 
d="M-14 627zM-211.5 653q-29.5 26 -29.5 68q0 43 29.5 70.5t83.5 27.5q55 0 84.5 -27.5t29.5 -70.5q0 -42 -29 -68t-85 -26q-54 0 -83.5 26zM-96 686.5q8 12.5 8 34.5q0 23 -8 36.5t-32 13.5t-31.5 -13.5t-7.5 -36.5q0 -22 7.5 -34.5t31.5 -12.5t32 12.5z" />
    <glyph glyph-name="uni030B" unicode="&#x30b;" horiz-adv-x="0" 
d="M0 631zM-269 631l-31 23l92 160h92v-22zM-108 631l-31 23l92 160h92v-22z" />
    <glyph glyph-name="uni030C" unicode="&#x30c;" horiz-adv-x="0" 
d="M-170 641l-110 134l26 25l126 -77l129 77l23 -25l-109 -134h-85z" />
    <glyph glyph-name="uni030F" unicode="&#x30f;" horiz-adv-x="0" 
d="M-147 552l-153 161v22h92l92 -160zM14 552l-153 161v22h92l92 -160z" />
    <glyph glyph-name="uni0311" unicode="&#x311;" horiz-adv-x="0" 
d="M-29 685.5q23 -35.5 23 -99.5l-57 -2q0 25 -13.5 43t-46.5 18q-69 0 -69 -61l-57 2q0 135 128 135q69 0 92 -35.5z" />
    <glyph glyph-name="uni031B" unicode="&#x31b;" horiz-adv-x="0" 
d="M-90 544q6 -13 9.5 -29t3.5 -28q0 -35 -26 -61.5t-67.5 -40.5t-84.5 -14h-17v52h41q28 0 42 11t14 42q0 19 -5 41l6 13z" />
    <glyph glyph-name="dotbelowcomb" unicode="&#x323;" horiz-adv-x="0" 
d="M-68 -185q-24 -23 -58 -23t-60 23.5t-26 56.5q0 34 26 59t60 25t58 -25t24 -59t-24 -57z" />
    <glyph glyph-name="uni0326" unicode="&#x326;" horiz-adv-x="0" 
d="M-146 -236l-44 7l9 185l90 20l25 -24z" />
    <glyph glyph-name="uni0327" unicode="&#x327;" horiz-adv-x="0" 
d="M-33 0zM-58 -66q25 -20 25 -52q0 -27 -19 -50.5t-50.5 -37.5t-66.5 -14q-31 0 -54 11l8 40q13 -7 28 -7q27 0 42.5 14t15.5 31q0 16 -13 27t-42 12l-7 19l29 79h46l-16 -52q49 0 74 -20z" />
    <glyph glyph-name="uni0328" unicode="&#x328;" horiz-adv-x="0" 
d="M-22 0zM-133.5 -59.5q-15.5 -37.5 -15.5 -66.5q0 -45 43 -45q30 0 61 22l23 -22q0 -2 -13.5 -18t-38 -30t-58.5 -14q-54 0 -78 24.5t-24 61.5q0 31 23 71t68 76h45q-20 -22 -35.5 -59.5z" />
    <glyph glyph-name="uni0394" unicode="&#x394;" horiz-adv-x="553" 
d="M37 0zM37 0l213 611h84l212 -573v-38h-509zM136 62h264v20l-132 380z" />
    <glyph glyph-name="uni03A9" unicode="&#x3a9;" horiz-adv-x="764" 
d="M35 0zM661 80l21 74h47v-154h-273v51q28 32 44.5 60t27.5 79t11 133q0 91 -35 163t-124 72q-88 0 -121.5 -68t-33.5 -178q0 -92 22.5 -152t62.5 -109v-51h-275v154h49l20 -74h48l68 -4q-140 79 -140 248q0 93 36.5 161.5t106 105.5t164.5 37q103 0 169 -40.5t96.5 -107.5
t30.5 -149q0 -45 -18 -97t-50 -94.5t-71 -62.5l68 3h49z" />
    <glyph glyph-name="uni03BC" unicode="&#x3bc;" horiz-adv-x="634" 
d="M10 0zM474 -5q-36 0 -64.5 15t-34.5 42q-42 -62 -110 -62q-48 0 -80 20l26 -210h-123v612l-78 9v44l173 37h43v-359q0 -37 11 -54t42 -17q43 0 92 33v306l-64 10v44l157 37h46v-419l79 -28v-43q-68 -17 -115 -17z" />
    <glyph glyph-name="pi" unicode="&#x3c0;" horiz-adv-x="665" 
d="M146 -1.5q-20 3.5 -59 13.5v43l82 28v331h-9q-35 0 -54 -11t-32 -41l-52 13q0 66 31 106t94 40h376q25 0 37.5 13t12.5 42h69v-16q0 -76 -25.5 -111t-73.5 -35h-27v-273q0 -34 19 -53.5t57 -19.5h45l6 -47q-29 -14 -60 -21.5t-50 -7.5q-42 0 -67.5 10.5t-41 46
t-15.5 106.5v259h-136v-325q0 -46 -15.5 -70t-65.5 -24q-26 0 -46 3.5z" />
    <glyph glyph-name="uni1E0C" unicode="&#x1e0c;" horiz-adv-x="655" 
d="M35 0zM548 535.5q77 -78.5 77 -215.5q0 -142 -73.5 -231t-223.5 -89h-292v45l84 24v477l-85 23v45h274q162 0 239 -78.5zM255 546v-477q38 -12 78 -12q86 0 118 71.5t32 191.5q0 68 -21.5 120.5t-61 82t-92.5 29.5q-29 0 -53 -6zM388 -185q-24 -23 -58 -23t-60 23.5
t-26 56.5q0 34 26 59t60 25t58 -25t24 -59t-24 -57z" />
    <glyph glyph-name="uni1E0D" unicode="&#x1e0d;" horiz-adv-x="557" 
d="M25 0zM190 -10q-80 0 -122.5 73.5t-42.5 180.5q0 121 56 189.5t156 68.5q35 0 67 -10.5t40 -16.5v158l-78 11v48l169 39h44v-648l78 -28v-43q-65 -17 -111 -17q-35 0 -63 14t-36 39q-72 -58 -157 -58zM306.5 81.5q25.5 10.5 37.5 23.5v303q-13 12 -35 19.5t-41 7.5
q-49 0 -73.5 -50t-24.5 -139q0 -82 21 -128.5t65 -46.5q25 0 50.5 10.5zM339 -185q-24 -23 -58 -23t-60 23.5t-26 56.5q0 34 26 59t60 25t58 -25t24 -59t-24 -57z" />
    <glyph glyph-name="uni1E24" unicode="&#x1e24;" horiz-adv-x="736" 
d="M35 0zM35 0v45l85 24v477l-85 23v45h305v-45l-85 -23v-211h226v211l-86 23v45h306v-45l-85 -23v-477l85 -24v-45h-305v45l85 24v207h-226v-207l85 -24v-45h-305zM428 -185q-24 -23 -58 -23t-60 23.5t-26 56.5q0 34 26 59t60 25t58 -25t24 -59t-24 -57z" />
    <glyph glyph-name="uni1E25" unicode="&#x1e25;" horiz-adv-x="623" 
d="M18 0zM336 0v45l60 25v294q0 35 -12.5 46t-52.5 11q-58 0 -100 -12v-339l60 -25v-45h-273v50l78 20v563l-78 11v48l169 39h44v-269q29 14 83 27t95 13q53 0 87.5 -25.5t34.5 -78.5v-328l79 -25v-45h-274zM372 -185q-24 -23 -58 -23t-60 23.5t-26 56.5q0 34 26 59t60 25
t58 -25t24 -59t-24 -57z" />
    <glyph glyph-name="uni1E44" unicode="&#x1e44;" horiz-adv-x="719" 
d="M35 0zM461 614h243v-45l-85 -23v-546l-112 -10l-318 466v-387l85 -24v-45h-238v45l84 24v477l-85 23v45h206l305 -451v383l-85 23v45zM420 658q-24 -23 -58 -23t-60 23.5t-26 56.5q0 34 26 59t60 25t58 -25t24 -59t-24 -57z" />
    <glyph glyph-name="uni1E45" unicode="&#x1e45;" horiz-adv-x="630" 
d="M25 0zM318 488q54 14 96 14q54 0 89 -25t35 -79v-328l79 -25v-45h-274v45l60 25v294q0 25 -6 37t-20 16t-43 4q-53 0 -96 -12v-339l60 -25v-45h-273v45l78 25v335l-78 10v50l169 37h44v-40q26 12 80 26zM375 589q-24 -23 -58 -23t-60 23.5t-26 56.5q0 34 26 59t60 25
t58 -25t24 -59t-24 -57z" />
    <glyph glyph-name="uni1E5A" unicode="&#x1e5a;" horiz-adv-x="598" 
d="M35 0zM349 182.5q-23 55.5 -37 70.5t-32 15h-25v-199l74 -24v-45h-293v45l84 24v477l-85 23v45h283q114 0 169 -40t55 -109q0 -126 -143 -170q25 -8 39 -21t27 -39t42 -93l32 -74l64 -23v-45h-185q-46 127 -69 182.5zM377 357q29 34 29 91q0 52 -27.5 78.5t-75.5 26.5
q-29 0 -48 -7v-223h41q52 0 81 34zM359 -185q-24 -23 -58 -23t-60 23.5t-26 56.5q0 34 26 59t60 25t58 -25t24 -59t-24 -57z" />
    <glyph glyph-name="uni1E5B" unicode="&#x1e5b;" horiz-adv-x="426" 
d="M25 0zM238 401v-331l116 -20v-50h-329v50l78 20v334l-78 11v48l168 39h45v-46q33 22 74 35.5t75 13.5q23 0 29 -1l-19 -179h-73l-21 92q-39 0 -65 -16zM231 -185q-24 -23 -58 -23t-60 23.5t-26 56.5q0 34 26 59t60 25t58 -25t24 -59t-24 -57z" />
    <glyph glyph-name="uni1E62" unicode="&#x1e62;" horiz-adv-x="483" 
d="M30 0zM97 580q56 48 157 48q91 0 175 -27l-11 -145h-53l-22 91q-12 4 -36.5 7.5t-40.5 3.5q-50 0 -80.5 -18.5t-30.5 -61.5q0 -35 22.5 -57.5t65.5 -40.5l91 -38q61 -26 88.5 -66t27.5 -97q0 -88 -60 -138t-175 -50q-45 0 -95.5 8t-89.5 23l15 143h56l16 -87
q52 -15 96 -15q53 0 83.5 20t30.5 57q0 34 -19.5 54t-66.5 41l-92 40q-44 19 -76 61t-32 109q0 87 56 135zM302 -185q-24 -23 -58 -23t-60 23.5t-26 56.5q0 34 26 59t60 25t58 -25t24 -59t-24 -57z" />
    <glyph glyph-name="uni1E63" unicode="&#x1e63;" horiz-adv-x="450" 
d="M41 0zM176 420.5q-22 -14.5 -22 -39.5q0 -21 10.5 -35t36.5 -23l114 -36q52 -16 76.5 -48.5t24.5 -92.5q0 -72 -55 -114t-153 -42q-39 0 -85.5 6.5t-81.5 18.5l12 139h58l21 -84q34 -12 72 -12q98 0 98 61q0 22 -11.5 32t-43.5 21l-109 37q-48 16 -72 48.5t-24 86.5
q0 74 49 116t147 42q39 0 80.5 -7.5t76.5 -21.5l-14 -126h-56l-20 74q-17 7 -32 10.5t-37 3.5q-38 0 -60 -14.5zM285 -185q-24 -23 -58 -23t-60 23.5t-26 56.5q0 34 26 59t60 25t58 -25t24 -59t-24 -57z" />
    <glyph glyph-name="uni1E6C" unicode="&#x1e6c;" horiz-adv-x="539" 
d="M7 0zM7 614h525l-6 -159h-57l-20 91h-112v-477l85 -24v-45h-304v45l84 24v477h-114l-19 -91h-55zM330 -185q-24 -23 -58 -23t-60 23.5t-26 56.5q0 34 26 59t60 25t58 -25t24 -59t-24 -57z" />
    <glyph glyph-name="uni1E6D" unicode="&#x1e6d;" horiz-adv-x="348" 
d="M14 0zM245.5 -3q-41.5 -6 -70.5 -6q-52 0 -70.5 21.5t-18.5 56.5v351h-72v47l83 37l61 100h61v-112h113v-78l-113 7v-336l99 -22v-50q-31 -10 -72.5 -16zM234 -185q-24 -23 -58 -23t-60 23.5t-26 56.5q0 34 26 59t60 25t58 -25t24 -59t-24 -57z" />
    <glyph glyph-name="Wgrave" unicode="&#x1e80;" horiz-adv-x="801" 
d="M0 0zM595 614h220v-44l-71 -24l-126 -543l-77 -13l-131 410l-109 -397l-77 -13l-156 555l-71 24v45h278v-45l-65 -20l75 -345l82 336l125 23l103 -364l70 347l-70 23v45zM430 634l-232 109l4 23l97 34l154 -131z" />
    <glyph glyph-name="wgrave" unicode="&#x1e81;" horiz-adv-x="734" 
d="M0 0zM680 423l-133 -428l-95 -10l-86 262l-80 -252l-94 -10l-153 440l-51 15v52h244v-55l-52 -12l79 -276l88 294l84 14l88 -309l71 275l-64 14v55h217v-52zM431 558l-232 109l4 23l97 40l154 -137z" />
    <glyph glyph-name="Wacute" unicode="&#x1e82;" horiz-adv-x="801" 
d="M0 0zM595 614h220v-44l-71 -24l-126 -543l-77 -13l-131 410l-109 -397l-77 -13l-156 555l-71 24v45h278v-45l-65 -20l75 -345l82 336l125 23l103 -364l70 347l-70 23v45zM358 634l-27 35l156 131l99 -34v-23z" />
    <glyph glyph-name="wacute" unicode="&#x1e83;" horiz-adv-x="734" 
d="M0 0zM680 423l-133 -428l-95 -10l-86 262l-80 -252l-94 -10l-153 440l-51 15v52h244v-55l-52 -12l79 -276l88 294l84 14l88 -309l71 275l-64 14v55h217v-52zM286 558l-27 35l156 137l99 -40v-23z" />
    <glyph glyph-name="Wdieresis" unicode="&#x1e84;" horiz-adv-x="801" 
d="M0 0zM595 614h220v-44l-71 -24l-126 -543l-77 -13l-131 410l-109 -397l-77 -13l-156 555l-71 24v45h278v-45l-65 -20l75 -345l82 336l125 23l103 -364l70 347l-70 23v45zM334.5 667.5q-21.5 -20.5 -52.5 -20.5q-32 0 -55 20.5t-23 51.5q0 30 23.5 51.5t54.5 21.5
q30 0 52 -21.5t22 -51.5q0 -31 -21.5 -51.5zM565 667.5q-22 -20.5 -51 -20.5q-32 0 -54.5 20.5t-22.5 51.5t22.5 52t54.5 21q29 0 51 -21.5t22 -51.5q0 -31 -22 -51.5z" />
    <glyph glyph-name="wdieresis" unicode="&#x1e85;" horiz-adv-x="734" 
d="M0 0zM680 423l-133 -428l-95 -10l-86 262l-80 -252l-94 -10l-153 440l-51 15v52h244v-55l-52 -12l79 -276l88 294l84 14l88 -309l71 275l-64 14v55h217v-52zM305.5 596.5q-21.5 -20.5 -52.5 -20.5q-32 0 -55 20.5t-23 51.5q0 30 23.5 51.5t54.5 21.5q30 0 52 -21.5
t22 -51.5q0 -31 -21.5 -51.5zM536 596.5q-22 -20.5 -51 -20.5q-32 0 -54.5 20.5t-22.5 51.5t22.5 52t54.5 21q29 0 51 -21.5t22 -51.5q0 -31 -22 -51.5z" />
    <glyph glyph-name="uni1E92" unicode="&#x1e92;" horiz-adv-x="500" 
d="M21 0zM472 162l-8 -162h-425l-18 33l306 513h-196l-24 -78h-58l-10 146h436l5 -33l-301 -512h199l38 93h56zM310 -185q-24 -23 -58 -23t-60 23.5t-26 56.5q0 34 26 59t60 25t58 -25t24 -59t-24 -57z" />
    <glyph glyph-name="uni1E93" unicode="&#x1e93;" horiz-adv-x="480" 
d="M32 0zM288 419h-157l-25 -89h-47l-18 162h392l23 -47l-257 -374h169l36 92h50l-11 -163h-389l-22 46zM300 -185q-24 -23 -58 -23t-60 23.5t-26 56.5q0 34 26 59t60 25t58 -25t24 -59t-24 -57z" />
    <glyph glyph-name="uni1E9E" unicode="&#x1e9e;" horiz-adv-x="624" 
d="M6 45l85 24v317q0 69 29.5 124t88 86.5t142.5 31.5q56 0 111.5 -16.5t86.5 -41.5l5 -33l-126 -216q88 -6 130.5 -49.5t42.5 -109.5q0 -75 -50.5 -123t-141.5 -48q-36 0 -75 8t-69 23l15 143h56l17 -90q26 -12 54 -12q33 0 52 22t19 63q0 59 -45.5 85.5t-138.5 26.5
l-18 33l149 250q-38 10 -81 10q-65 0 -91.5 -40t-26.5 -113v-400h-220v45z" />
    <glyph glyph-name="uni1EA0" unicode="&#x1ea0;" horiz-adv-x="594" 
d="M0 0zM142 68l68 -23v-45h-220v44l71 25l189 545l78 13l205 -558l71 -24v-45h-278v45l65 20l-29 88h-192zM262 423l-73 -216h153zM357 -185q-24 -23 -58 -23t-60 23.5t-26 56.5q0 34 26 59t60 25t58 -25t24 -59t-24 -57z" />
    <glyph glyph-name="uni1EA1" unicode="&#x1ea1;" horiz-adv-x="516" 
d="M34 0zM161 414l-22 -84h-59l-17 135q100 37 207 37q81 0 121.5 -27t40.5 -98v-294l78 -28v-43q-40 -10 -62 -13.5t-48 -3.5q-35 0 -63.5 13.5t-36.5 39.5q-40 -30 -74 -44t-74 -14q-55 0 -86.5 33t-31.5 90q0 48 29.5 89.5t98.5 55.5l135 28v70q0 39 -14.5 54.5
t-49.5 15.5q-38 0 -72 -12zM182 182q-16 -21 -16 -55q0 -56 52 -56q19 0 41.5 8.5t37.5 18.5v130l-60 -15q-39 -10 -55 -31zM318 -185q-24 -23 -58 -23t-60 23.5t-26 56.5q0 34 26 59t60 25t58 -25t24 -59t-24 -57z" />
    <glyph glyph-name="uni1EA2" unicode="&#x1ea2;" horiz-adv-x="594" 
d="M0 0zM142 68l68 -23v-45h-220v44l71 25l189 545l78 13l205 -558l71 -24v-45h-278v45l65 20l-29 88h-192zM262 423l-73 -216h153zM330 690l-6 -23h-54l-4 44q66 0 66 30q0 22 -38 22q-8 0 -28 -2l-7 -27h-40l-6 53q50 11 92 11q48 0 74.5 -14t26.5 -40q0 -42 -76 -54z" />
    <glyph glyph-name="uni1EA3" unicode="&#x1ea3;" horiz-adv-x="516" 
d="M34 0zM161 414l-22 -84h-59l-17 135q100 37 207 37q81 0 121.5 -27t40.5 -98v-294l78 -28v-43q-40 -10 -62 -13.5t-48 -3.5q-35 0 -63.5 13.5t-36.5 39.5q-40 -30 -74 -44t-74 -14q-55 0 -86.5 33t-31.5 90q0 48 29.5 89.5t98.5 55.5l135 28v70q0 39 -14.5 54.5
t-49.5 15.5q-38 0 -72 -12zM182 182q-16 -21 -16 -55q0 -56 52 -56q19 0 41.5 8.5t37.5 18.5v130l-60 -15q-39 -10 -55 -31zM291 568l-6 -23h-54l-4 44q66 0 66 30q0 22 -38 22q-8 0 -28 -2l-7 -27h-40l-6 53q50 11 92 11q48 0 74.5 -14t26.5 -40q0 -42 -76 -54z" />
    <glyph glyph-name="uni1EA4" unicode="&#x1ea4;" horiz-adv-x="594" 
d="M441 691l-35 23l90 186h105l12 -19zM396 640l-129 77l-126 -77l-26 25l110 135h85l109 -135zM142 68l68 -23v-45h-220v44l71 25l189 545l78 13l205 -558l71 -24v-45h-278v45l65 20l-29 88h-192zM262 423l-73 -216h153z" />
    <glyph glyph-name="uni1EA5" unicode="&#x1ea5;" horiz-adv-x="516" 
d="M432 621l-35 23l90 186h105l12 -19zM377 559l-119 85l-116 -85l-36 30l110 141h85l109 -141zM161 414l-22 -84h-59l-17 135q100 37 207 37q81 0 121.5 -27t40.5 -98v-294l78 -28v-43q-40 -10 -62 -13.5t-48 -3.5q-35 0 -63.5 13.5t-36.5 39.5q-40 -30 -74 -44t-74 -14
q-55 0 -86.5 33t-31.5 90q0 48 29.5 89.5t98.5 55.5l135 28v70q0 39 -14.5 54.5t-49.5 15.5q-38 0 -72 -12zM182 182q-16 -21 -16 -55q0 -56 52 -56q19 0 41.5 8.5t37.5 18.5v130l-60 -15q-39 -10 -55 -31z" />
    <glyph glyph-name="uni1EA6" unicode="&#x1ea6;" horiz-adv-x="594" 
d="M468 690l-172 190l12 19h105l90 -186zM396 640l-129 77l-126 -77l-26 25l110 135h85l109 -135zM142 68l68 -23v-45h-220v44l71 25l189 545l78 13l205 -558l71 -24v-45h-278v45l65 20l-29 88h-192zM262 423l-73 -216h153z" />
    <glyph glyph-name="uni1EA7" unicode="&#x1ea7;" horiz-adv-x="516" 
d="M449 621l-172 190l12 19h105l90 -186zM367 559l-119 85l-116 -85l-36 30l110 141h85l109 -141zM161 414l-22 -84h-59l-17 135q100 37 207 37q81 0 121.5 -27t40.5 -98v-294l78 -28v-43q-40 -10 -62 -13.5t-48 -3.5q-35 0 -63.5 13.5t-36.5 39.5q-40 -30 -74 -44t-74 -14
q-55 0 -86.5 33t-31.5 90q0 48 29.5 89.5t98.5 55.5l135 28v70q0 39 -14.5 54.5t-49.5 15.5q-38 0 -72 -12zM182 182q-16 -21 -16 -55q0 -56 52 -56q19 0 41.5 8.5t37.5 18.5v130l-60 -15q-39 -10 -55 -31z" />
    <glyph glyph-name="uni1EA8" unicode="&#x1ea8;" horiz-adv-x="594" 
d="M0 0zM142 68l68 -23v-45h-220v44l71 25l189 545l78 13l205 -558l71 -24v-45h-278v45l65 20l-29 88h-192zM262 423l-73 -216h153zM426 640l-129 77l-126 -77l-26 25l110 135h85l109 -135zM456 792l-6 -23h-54l-4 44q66 0 66 30q0 22 -38 22q-8 0 -28 -2l-7 -27h-40l-6 53
q50 11 92 11q48 0 74.5 -14t26.5 -40q0 -42 -76 -54z" />
    <glyph glyph-name="uni1EA9" unicode="&#x1ea9;" horiz-adv-x="516" 
d="M34 0zM161 414l-22 -84h-59l-17 135q100 37 207 37q81 0 121.5 -27t40.5 -98v-294l78 -28v-43q-40 -10 -62 -13.5t-48 -3.5q-35 0 -63.5 13.5t-36.5 39.5q-40 -30 -74 -44t-74 -14q-55 0 -86.5 33t-31.5 90q0 48 29.5 89.5t98.5 55.5l135 28v70q0 39 -14.5 54.5
t-49.5 15.5q-38 0 -72 -12zM182 182q-16 -21 -16 -55q0 -56 52 -56q19 0 41.5 8.5t37.5 18.5v130l-60 -15q-39 -10 -55 -31zM377 559l-119 85l-116 -85l-36 30l110 141h85l109 -141zM418 722l-6 -23h-54l-4 44q66 0 66 30q0 22 -38 22q-8 0 -28 -2l-7 -27h-40l-6 53
q50 11 92 11q48 0 74.5 -14t26.5 -40q0 -42 -76 -54z" />
    <glyph glyph-name="uni1EAA" unicode="&#x1eaa;" horiz-adv-x="594" 
d="M0 0zM142 68l68 -23v-45h-220v44l71 25l189 545l78 13l205 -558l71 -24v-45h-278v45l65 20l-29 88h-192zM262 423l-73 -216h153zM426 640l-129 77l-126 -77l-26 25l110 135h85l109 -135zM387 807q-28 0 -98 20q-59 17 -78 17q-11 0 -19.5 -7t-14 -14.5t-6.5 -9.5l-47 19
q16 45 39.5 74.5t47.5 29.5q29 0 97 -20q59 -17 79 -17q11 0 20.5 7t15 14.5t6.5 9.5l44 -19q-43 -104 -86 -104z" />
    <glyph glyph-name="uni1EAB" unicode="&#x1eab;" horiz-adv-x="516" 
d="M34 0zM161 414l-22 -84h-59l-17 135q100 37 207 37q81 0 121.5 -27t40.5 -98v-294l78 -28v-43q-40 -10 -62 -13.5t-48 -3.5q-35 0 -63.5 13.5t-36.5 39.5q-40 -30 -74 -44t-74 -14q-55 0 -86.5 33t-31.5 90q0 48 29.5 89.5t98.5 55.5l135 28v70q0 39 -14.5 54.5
t-49.5 15.5q-38 0 -72 -12zM182 182q-16 -21 -16 -55q0 -56 52 -56q19 0 41.5 8.5t37.5 18.5v130l-60 -15q-39 -10 -55 -31zM387 518l-129 77l-126 -77l-26 25l110 135h85l109 -135zM348 685q-28 0 -98 20q-59 17 -78 17q-11 0 -19.5 -7t-14 -14.5t-6.5 -9.5l-47 19
q16 45 39.5 74.5t47.5 29.5q29 0 97 -20q59 -17 79 -17q11 0 20.5 7t15 14.5t6.5 9.5l44 -19q-43 -104 -86 -104z" />
    <glyph glyph-name="uni1EAC" unicode="&#x1eac;" horiz-adv-x="594" 
d="M0 0zM142 68l68 -23v-45h-220v44l71 25l189 545l78 13l205 -558l71 -24v-45h-278v45l65 20l-29 88h-192zM262 423l-73 -216h153zM357 -185q-24 -23 -58 -23t-60 23.5t-26 56.5q0 34 26 59t60 25t58 -25t24 -59t-24 -57zM426 640l-129 77l-126 -77l-26 25l110 135h85
l109 -135z" />
    <glyph glyph-name="uni1EAD" unicode="&#x1ead;" horiz-adv-x="516" 
d="M34 0zM161 414l-22 -84h-59l-17 135q100 37 207 37q81 0 121.5 -27t40.5 -98v-294l78 -28v-43q-40 -10 -62 -13.5t-48 -3.5q-35 0 -63.5 13.5t-36.5 39.5q-40 -30 -74 -44t-74 -14q-55 0 -86.5 33t-31.5 90q0 48 29.5 89.5t98.5 55.5l135 28v70q0 39 -14.5 54.5
t-49.5 15.5q-38 0 -72 -12zM182 182q-16 -21 -16 -55q0 -56 52 -56q19 0 41.5 8.5t37.5 18.5v130l-60 -15q-39 -10 -55 -31zM318 -185q-24 -23 -58 -23t-60 23.5t-26 56.5q0 34 26 59t60 25t58 -25t24 -59t-24 -57zM377 559l-119 85l-116 -85l-36 30l110 141h85l109 -141z
" />
    <glyph glyph-name="uni1EAE" unicode="&#x1eae;" horiz-adv-x="594" 
d="M0 0zM142 68l68 -23v-45h-220v44l71 25l189 545l78 13l205 -558l71 -24v-45h-278v45l65 20l-29 88h-192zM262 423l-73 -216h153zM199 687q-24 36 -24 99l59 2q0 -25 14.5 -43t48.5 -18q36 0 50.5 18t14.5 43l56 -2q0 -61 -27 -98t-98 -37q-70 0 -94 36zM261 780l-27 35
l156 131l99 -34v-23z" />
    <glyph glyph-name="uni1EAF" unicode="&#x1eaf;" horiz-adv-x="516" 
d="M34 0zM161 414l-22 -84h-59l-17 135q100 37 207 37q81 0 121.5 -27t40.5 -98v-294l78 -28v-43q-40 -10 -62 -13.5t-48 -3.5q-35 0 -63.5 13.5t-36.5 39.5q-40 -30 -74 -44t-74 -14q-55 0 -86.5 33t-31.5 90q0 48 29.5 89.5t98.5 55.5l135 28v70q0 39 -14.5 54.5
t-49.5 15.5q-38 0 -72 -12zM182 182q-16 -21 -16 -55q0 -56 52 -56q19 0 41.5 8.5t37.5 18.5v130l-60 -15q-39 -10 -55 -31zM160 565q-24 36 -24 99l59 2q0 -25 14.5 -43t48.5 -18q36 0 50.5 18t14.5 43l56 -2q0 -61 -27 -98t-98 -37q-70 0 -94 36zM222 658l-27 35l156 131
l99 -34v-23z" />
    <glyph glyph-name="uni1EB0" unicode="&#x1eb0;" horiz-adv-x="594" 
d="M0 0zM142 68l68 -23v-45h-220v44l71 25l189 545l78 13l205 -558l71 -24v-45h-278v45l65 20l-29 88h-192zM262 423l-73 -216h153zM199 687q-24 36 -24 99l59 2q0 -25 14.5 -43t48.5 -18q36 0 50.5 18t14.5 43l56 -2q0 -61 -27 -98t-98 -37q-70 0 -94 36zM333 780l-232 109
l4 23l97 34l154 -131z" />
    <glyph glyph-name="uni1EB1" unicode="&#x1eb1;" horiz-adv-x="516" 
d="M34 0zM161 414l-22 -84h-59l-17 135q100 37 207 37q81 0 121.5 -27t40.5 -98v-294l78 -28v-43q-40 -10 -62 -13.5t-48 -3.5q-35 0 -63.5 13.5t-36.5 39.5q-40 -30 -74 -44t-74 -14q-55 0 -86.5 33t-31.5 90q0 48 29.5 89.5t98.5 55.5l135 28v70q0 39 -14.5 54.5
t-49.5 15.5q-38 0 -72 -12zM182 182q-16 -21 -16 -55q0 -56 52 -56q19 0 41.5 8.5t37.5 18.5v130l-60 -15q-39 -10 -55 -31zM160 565q-24 36 -24 99l59 2q0 -25 14.5 -43t48.5 -18q36 0 50.5 18t14.5 43l56 -2q0 -61 -27 -98t-98 -37q-70 0 -94 36zM294 658l-232 109l4 23
l97 34l154 -131z" />
    <glyph glyph-name="uni1EB2" unicode="&#x1eb2;" horiz-adv-x="594" 
d="M0 0zM142 68l68 -23v-45h-220v44l71 25l189 545l78 13l205 -558l71 -24v-45h-278v45l65 20l-29 88h-192zM262 423l-73 -216h153zM199 687q-24 36 -24 99l59 2q0 -25 14.5 -43t48.5 -18q36 0 50.5 18t14.5 43l56 -2q0 -61 -27 -98t-98 -37q-70 0 -94 36zM332 836l-6 -23
h-54l-4 44q66 0 66 30q0 22 -38 22q-8 0 -28 -2l-7 -27h-40l-6 53q50 11 92 11q48 0 74.5 -14t26.5 -40q0 -42 -76 -54z" />
    <glyph glyph-name="uni1EB3" unicode="&#x1eb3;" horiz-adv-x="516" 
d="M34 0zM161 414l-22 -84h-59l-17 135q100 37 207 37q81 0 121.5 -27t40.5 -98v-294l78 -28v-43q-40 -10 -62 -13.5t-48 -3.5q-35 0 -63.5 13.5t-36.5 39.5q-40 -30 -74 -44t-74 -14q-55 0 -86.5 33t-31.5 90q0 48 29.5 89.5t98.5 55.5l135 28v70q0 39 -14.5 54.5
t-49.5 15.5q-38 0 -72 -12zM182 182q-16 -21 -16 -55q0 -56 52 -56q19 0 41.5 8.5t37.5 18.5v130l-60 -15q-39 -10 -55 -31zM160 565q-24 36 -24 99l59 2q0 -25 14.5 -43t48.5 -18q36 0 50.5 18t14.5 43l56 -2q0 -61 -27 -98t-98 -37q-70 0 -94 36zM293 714l-6 -23h-54
l-4 44q66 0 66 30q0 22 -38 22q-8 0 -28 -2l-7 -27h-40l-6 53q50 11 92 11q48 0 74.5 -14t26.5 -40q0 -42 -76 -54z" />
    <glyph glyph-name="uni1EB4" unicode="&#x1eb4;" horiz-adv-x="594" 
d="M0 0zM142 68l68 -23v-45h-220v44l71 25l189 545l78 13l205 -558l71 -24v-45h-278v45l65 20l-29 88h-192zM262 423l-73 -216h153zM199 687q-24 36 -24 99l59 2q0 -25 14.5 -43t48.5 -18q36 0 50.5 18t14.5 43l56 -2q0 -61 -27 -98t-98 -37q-70 0 -94 36zM387 807
q-28 0 -98 20q-59 17 -78 17q-11 0 -19.5 -7t-14 -14.5t-6.5 -9.5l-47 19q16 45 39.5 74.5t47.5 29.5q29 0 97 -20q59 -17 79 -17q11 0 20.5 7t15 14.5t6.5 9.5l44 -19q-43 -104 -86 -104z" />
    <glyph glyph-name="uni1EB5" unicode="&#x1eb5;" horiz-adv-x="516" 
d="M34 0zM161 414l-22 -84h-59l-17 135q100 37 207 37q81 0 121.5 -27t40.5 -98v-294l78 -28v-43q-40 -10 -62 -13.5t-48 -3.5q-35 0 -63.5 13.5t-36.5 39.5q-40 -30 -74 -44t-74 -14q-55 0 -86.5 33t-31.5 90q0 48 29.5 89.5t98.5 55.5l135 28v70q0 39 -14.5 54.5
t-49.5 15.5q-38 0 -72 -12zM182 182q-16 -21 -16 -55q0 -56 52 -56q19 0 41.5 8.5t37.5 18.5v130l-60 -15q-39 -10 -55 -31zM160 565q-24 36 -24 99l59 2q0 -25 14.5 -43t48.5 -18q36 0 50.5 18t14.5 43l56 -2q0 -61 -27 -98t-98 -37q-70 0 -94 36zM348 685q-28 0 -98 20
q-59 17 -78 17q-11 0 -19.5 -7t-14 -14.5t-6.5 -9.5l-47 19q16 45 39.5 74.5t47.5 29.5q29 0 97 -20q59 -17 79 -17q11 0 20.5 7t15 14.5t6.5 9.5l44 -19q-43 -104 -86 -104z" />
    <glyph glyph-name="uni1EB6" unicode="&#x1eb6;" horiz-adv-x="594" 
d="M0 0zM142 68l68 -23v-45h-220v44l71 25l189 545l78 13l205 -558l71 -24v-45h-278v45l65 20l-29 88h-192zM262 423l-73 -216h153zM357 -185q-24 -23 -58 -23t-60 23.5t-26 56.5q0 34 26 59t60 25t58 -25t24 -59t-24 -57zM199 687q-24 36 -24 99l59 2q0 -25 14.5 -43
t48.5 -18q36 0 50.5 18t14.5 43l56 -2q0 -61 -27 -98t-98 -37q-70 0 -94 36z" />
    <glyph glyph-name="uni1EB7" unicode="&#x1eb7;" horiz-adv-x="516" 
d="M34 0zM161 414l-22 -84h-59l-17 135q100 37 207 37q81 0 121.5 -27t40.5 -98v-294l78 -28v-43q-40 -10 -62 -13.5t-48 -3.5q-35 0 -63.5 13.5t-36.5 39.5q-40 -30 -74 -44t-74 -14q-55 0 -86.5 33t-31.5 90q0 48 29.5 89.5t98.5 55.5l135 28v70q0 39 -14.5 54.5
t-49.5 15.5q-38 0 -72 -12zM182 182q-16 -21 -16 -55q0 -56 52 -56q19 0 41.5 8.5t37.5 18.5v130l-60 -15q-39 -10 -55 -31zM318 -185q-24 -23 -58 -23t-60 23.5t-26 56.5q0 34 26 59t60 25t58 -25t24 -59t-24 -57zM159 609.5q-23 35.5 -23 99.5l57 2q0 -25 13.5 -43
t46.5 -18q69 0 69 61l57 -2q0 -135 -128 -135q-69 0 -92 35.5z" />
    <glyph glyph-name="uni1EB8" unicode="&#x1eb8;" horiz-adv-x="545" 
d="M35 0zM378 396h53v-191h-53l-19 69h-104v-205h181l26 93h56v-162h-482v45l84 24v477l-85 23v45h463v-146h-56l-22 78h-165v-216h106zM333 -185q-24 -23 -58 -23t-60 23.5t-26 56.5q0 34 26 59t60 25t58 -25t24 -59t-24 -57z" />
    <glyph glyph-name="uni1EB9" unicode="&#x1eb9;" horiz-adv-x="481" 
d="M25 0zM25 244q0 138 64 198t166 60q105 0 153 -46.5t48 -145.5q0 -43 -4 -66h-282v-24q0 -88 33 -121.5t102 -33.5q52 0 138 24l8 -44q-73 -55 -186 -55q-240 0 -240 254zM320 309v21q0 50 -12 76.5t-48 26.5q-50 0 -68 -32.5t-20 -102.5zM301 -185q-24 -23 -58 -23
t-60 23.5t-26 56.5q0 34 26 59t60 25t58 -25t24 -59t-24 -57z" />
    <glyph glyph-name="uni1EBA" unicode="&#x1eba;" horiz-adv-x="545" 
d="M35 0zM378 396h53v-191h-53l-19 69h-104v-205h181l26 93h56v-162h-482v45l84 24v477l-85 23v45h463v-146h-56l-22 78h-165v-216h106zM306 690l-6 -23h-54l-4 44q66 0 66 30q0 22 -38 22q-8 0 -28 -2l-7 -27h-40l-6 53q50 11 92 11q48 0 74.5 -14t26.5 -40q0 -42 -76 -54z
" />
    <glyph glyph-name="uni1EBB" unicode="&#x1ebb;" horiz-adv-x="481" 
d="M25 0zM25 244q0 138 64 198t166 60q105 0 153 -46.5t48 -145.5q0 -43 -4 -66h-282v-24q0 -88 33 -121.5t102 -33.5q52 0 138 24l8 -44q-73 -55 -186 -55q-240 0 -240 254zM320 309v21q0 50 -12 76.5t-48 26.5q-50 0 -68 -32.5t-20 -102.5zM274 568l-6 -23h-54l-4 44
q66 0 66 30q0 22 -38 22q-8 0 -28 -2l-7 -27h-40l-6 53q50 11 92 11q48 0 74.5 -14t26.5 -40q0 -42 -76 -54z" />
    <glyph glyph-name="uni1EBC" unicode="&#x1ebc;" horiz-adv-x="545" 
d="M368 661q-28 0 -98 20q-59 17 -78 17q-11 0 -19.5 -7t-14 -14.5t-6.5 -9.5l-47 19q16 45 39.5 74.5t47.5 29.5q29 0 97 -20q59 -17 79 -17q11 0 20.5 7t15 14.5t6.5 9.5l44 -19q-43 -104 -86 -104zM378 396h53v-191h-53l-19 69h-104v-205h181l26 93h56v-162h-482v45
l84 24v477l-85 23v45h463v-146h-56l-22 78h-165v-216h106z" />
    <glyph glyph-name="uni1EBD" unicode="&#x1ebd;" horiz-adv-x="481" 
d="M237 603q-59 17 -78 17q-11 0 -19.5 -7t-14 -14.5t-6.5 -9.5l-47 19q44 104 87 104q29 0 97 -20q59 -17 79 -17q11 0 20.5 7t15 14.5t6.5 9.5l44 -19q-43 -104 -86 -104q-28 0 -98 20zM25 244q0 138 64 198t166 60q105 0 153 -46.5t48 -145.5q0 -43 -4 -66h-282v-24
q0 -88 33 -121.5t102 -33.5q52 0 138 24l8 -44q-73 -55 -186 -55q-240 0 -240 254zM320 309v21q0 50 -12 76.5t-48 26.5q-50 0 -68 -32.5t-20 -102.5z" />
    <glyph glyph-name="uni1EBE" unicode="&#x1ebe;" horiz-adv-x="545" 
d="M417 691l-35 23l90 186h105l12 -19zM372 640l-129 77l-126 -77l-26 25l110 135h85l109 -135zM378 396h53v-191h-53l-19 69h-104v-205h181l26 93h56v-162h-482v45l84 24v477l-85 23v45h463v-146h-56l-22 78h-165v-216h106z" />
    <glyph glyph-name="uni1EBF" unicode="&#x1ebf;" horiz-adv-x="481" 
d="M415 621l-35 23l90 186h105l12 -19zM360 559l-119 85l-116 -85l-36 30l110 141h85l109 -141zM25 244q0 138 64 198t166 60q105 0 153 -46.5t48 -145.5q0 -43 -4 -66h-282v-24q0 -88 33 -121.5t102 -33.5q52 0 138 24l8 -44q-73 -55 -186 -55q-240 0 -240 254zM320 309v21
q0 50 -12 76.5t-48 26.5q-50 0 -68 -32.5t-20 -102.5z" />
    <glyph glyph-name="uni1EC0" unicode="&#x1ec0;" horiz-adv-x="545" 
d="M444 690l-172 190l12 19h105l90 -186zM372 640l-129 77l-126 -77l-26 25l110 135h85l109 -135zM378 396h53v-191h-53l-19 69h-104v-205h181l26 93h56v-162h-482v45l84 24v477l-85 23v45h463v-146h-56l-22 78h-165v-216h106z" />
    <glyph glyph-name="uni1EC1" unicode="&#x1ec1;" horiz-adv-x="481" 
d="M432 621l-172 190l12 19h105l90 -186zM350 559l-119 85l-116 -85l-36 30l110 141h85l109 -141zM25 244q0 138 64 198t166 60q105 0 153 -46.5t48 -145.5q0 -43 -4 -66h-282v-24q0 -88 33 -121.5t102 -33.5q52 0 138 24l8 -44q-73 -55 -186 -55q-240 0 -240 254zM320 309
v21q0 50 -12 76.5t-48 26.5q-50 0 -68 -32.5t-20 -102.5z" />
    <glyph glyph-name="uni1EC2" unicode="&#x1ec2;" horiz-adv-x="545" 
d="M35 0zM378 396h53v-191h-53l-19 69h-104v-205h181l26 93h56v-162h-482v45l84 24v477l-85 23v45h463v-146h-56l-22 78h-165v-216h106zM402 640l-129 77l-126 -77l-26 25l110 135h85l109 -135zM432 792l-6 -23h-54l-4 44q66 0 66 30q0 22 -38 22q-8 0 -28 -2l-7 -27h-40
l-6 53q50 11 92 11q48 0 74.5 -14t26.5 -40q0 -42 -76 -54z" />
    <glyph glyph-name="uni1EC3" unicode="&#x1ec3;" horiz-adv-x="481" 
d="M25 0zM25 244q0 138 64 198t166 60q105 0 153 -46.5t48 -145.5q0 -43 -4 -66h-282v-24q0 -88 33 -121.5t102 -33.5q52 0 138 24l8 -44q-73 -55 -186 -55q-240 0 -240 254zM320 309v21q0 50 -12 76.5t-48 26.5q-50 0 -68 -32.5t-20 -102.5zM360 559l-119 85l-116 -85
l-36 30l110 141h85l109 -141zM401 722l-6 -23h-54l-4 44q66 0 66 30q0 22 -38 22q-8 0 -28 -2l-7 -27h-40l-6 53q50 11 92 11q48 0 74.5 -14t26.5 -40q0 -42 -76 -54z" />
    <glyph glyph-name="uni1EC4" unicode="&#x1ec4;" horiz-adv-x="545" 
d="M35 0zM378 396h53v-191h-53l-19 69h-104v-205h181l26 93h56v-162h-482v45l84 24v477l-85 23v45h463v-146h-56l-22 78h-165v-216h106zM402 640l-129 77l-126 -77l-26 25l110 135h85l109 -135zM363 807q-28 0 -98 20q-59 17 -78 17q-11 0 -19.5 -7t-14 -14.5t-6.5 -9.5
l-47 19q16 45 39.5 74.5t47.5 29.5q29 0 97 -20q59 -17 79 -17q11 0 20.5 7t15 14.5t6.5 9.5l44 -19q-43 -104 -86 -104z" />
    <glyph glyph-name="uni1EC5" unicode="&#x1ec5;" horiz-adv-x="481" 
d="M25 0zM25 244q0 138 64 198t166 60q105 0 153 -46.5t48 -145.5q0 -43 -4 -66h-282v-24q0 -88 33 -121.5t102 -33.5q52 0 138 24l8 -44q-73 -55 -186 -55q-240 0 -240 254zM320 309v21q0 50 -12 76.5t-48 26.5q-50 0 -68 -32.5t-20 -102.5zM370 518l-129 77l-126 -77
l-26 25l110 135h85l109 -135zM331 685q-28 0 -98 20q-59 17 -78 17q-11 0 -19.5 -7t-14 -14.5t-6.5 -9.5l-47 19q16 45 39.5 74.5t47.5 29.5q29 0 97 -20q59 -17 79 -17q11 0 20.5 7t15 14.5t6.5 9.5l44 -19q-43 -104 -86 -104z" />
    <glyph glyph-name="uni1EC6" unicode="&#x1ec6;" horiz-adv-x="545" 
d="M35 0zM378 396h53v-191h-53l-19 69h-104v-205h181l26 93h56v-162h-482v45l84 24v477l-85 23v45h463v-146h-56l-22 78h-165v-216h106zM333 -185q-24 -23 -58 -23t-60 23.5t-26 56.5q0 34 26 59t60 25t58 -25t24 -59t-24 -57zM402 640l-129 77l-126 -77l-26 25l110 135h85
l109 -135z" />
    <glyph glyph-name="uni1EC7" unicode="&#x1ec7;" horiz-adv-x="481" 
d="M25 0zM25 244q0 138 64 198t166 60q105 0 153 -46.5t48 -145.5q0 -43 -4 -66h-282v-24q0 -88 33 -121.5t102 -33.5q52 0 138 24l8 -44q-73 -55 -186 -55q-240 0 -240 254zM320 309v21q0 50 -12 76.5t-48 26.5q-50 0 -68 -32.5t-20 -102.5zM301 -185q-24 -23 -58 -23
t-60 23.5t-26 56.5q0 34 26 59t60 25t58 -25t24 -59t-24 -57zM360 559l-119 85l-116 -85l-36 30l110 141h85l109 -141z" />
    <glyph glyph-name="uni1EC8" unicode="&#x1ec8;" horiz-adv-x="375" 
d="M35 0zM36 0v45l84 24v477l-85 23v45h305v-45l-85 -23v-477l85 -24v-45h-304zM221 690l-6 -23h-54l-4 44q66 0 66 30q0 22 -38 22q-8 0 -28 -2l-7 -27h-40l-6 53q50 11 92 11q48 0 74.5 -14t26.5 -40q0 -42 -76 -54z" />
    <glyph glyph-name="uni1EC9" unicode="&#x1ec9;" horiz-adv-x="329" 
d="M25 0zM316 50v-50h-291v50l78 20v334l-78 11v48l169 39h44v-432zM198 568l-6 -23h-54l-4 44q66 0 66 30q0 22 -38 22q-8 0 -28 -2l-7 -27h-40l-6 53q50 11 92 11q48 0 74.5 -14t26.5 -40q0 -42 -76 -54z" />
    <glyph glyph-name="uni1ECA" unicode="&#x1eca;" horiz-adv-x="375" 
d="M35 0zM36 0v45l84 24v477l-85 23v45h305v-45l-85 -23v-477l85 -24v-45h-304zM248 -185q-24 -23 -58 -23t-60 23.5t-26 56.5q0 34 26 59t60 25t58 -25t24 -59t-24 -57z" />
    <glyph glyph-name="uni1ECB" unicode="&#x1ecb;" horiz-adv-x="329" 
d="M25 0zM110 589.5q-26 23.5 -26 56.5q0 34 26 59t60 25t58 -25t24 -59t-24 -57t-58 -23t-60 23.5zM25 0v50l78 20v334l-78 11v48l169 39h44v-432l78 -20v-50h-291zM225 -185q-24 -23 -58 -23t-60 23.5t-26 56.5q0 34 26 59t60 25t58 -25t24 -59t-24 -57z" />
    <glyph glyph-name="uni1ECC" unicode="&#x1ecc;" horiz-adv-x="663" 
d="M30 0zM560 540q73 -88 73 -229q0 -142 -73.5 -231t-226.5 -89q-102 0 -170 42.5t-100.5 114.5t-32.5 163q0 90 31.5 161.5t99.5 113.5t172 42q154 0 227 -88zM454 484.5q-34 73.5 -127 73.5q-89 0 -120.5 -73t-31.5 -174q0 -249 162 -249q89 0 120 72.5t31 176.5
q0 100 -34 173.5zM392 -185q-24 -23 -58 -23t-60 23.5t-26 56.5q0 34 26 59t60 25t58 -25t24 -59t-24 -57z" />
    <glyph glyph-name="uni1ECD" unicode="&#x1ecd;" horiz-adv-x="544" 
d="M25 0zM458.5 431q60.5 -71 60.5 -187q0 -112 -61 -183t-188 -71q-124 0 -184.5 71t-60.5 183q0 116 59.5 187t185.5 71q128 0 188.5 -71zM351 386q-23 49 -83 49q-56 0 -77 -49t-21 -140q0 -90 22.5 -139t81.5 -49q58 0 79 48.5t21 139.5t-23 140zM332 -185
q-24 -23 -58 -23t-60 23.5t-26 56.5q0 34 26 59t60 25t58 -25t24 -59t-24 -57z" />
    <glyph glyph-name="uni1ECE" unicode="&#x1ece;" horiz-adv-x="663" 
d="M30 0zM560 540q73 -88 73 -229q0 -142 -73.5 -231t-226.5 -89q-102 0 -170 42.5t-100.5 114.5t-32.5 163q0 90 31.5 161.5t99.5 113.5t172 42q154 0 227 -88zM454 484.5q-34 73.5 -127 73.5q-89 0 -120.5 -73t-31.5 -174q0 -249 162 -249q89 0 120 72.5t31 176.5
q0 100 -34 173.5zM365 690l-6 -23h-54l-4 44q66 0 66 30q0 22 -38 22q-8 0 -28 -2l-7 -27h-40l-6 53q50 11 92 11q48 0 74.5 -14t26.5 -40q0 -42 -76 -54z" />
    <glyph glyph-name="uni1ECF" unicode="&#x1ecf;" horiz-adv-x="544" 
d="M25 0zM458.5 431q60.5 -71 60.5 -187q0 -112 -61 -183t-188 -71q-124 0 -184.5 71t-60.5 183q0 116 59.5 187t185.5 71q128 0 188.5 -71zM351 386q-23 49 -83 49q-56 0 -77 -49t-21 -140q0 -90 22.5 -139t81.5 -49q58 0 79 48.5t21 139.5t-23 140zM305 568l-6 -23h-54
l-4 44q66 0 66 30q0 22 -38 22q-8 0 -28 -2l-7 -27h-40l-6 53q50 11 92 11q48 0 74.5 -14t26.5 -40q0 -42 -76 -54z" />
    <glyph glyph-name="uni1ED0" unicode="&#x1ed0;" horiz-adv-x="663" 
d="M476 691l-35 23l90 186h105l12 -19zM431 640l-129 77l-126 -77l-26 25l110 135h85l109 -135zM560 540q73 -88 73 -229q0 -142 -73.5 -231t-226.5 -89q-102 0 -170 42.5t-100.5 114.5t-32.5 163q0 90 31.5 161.5t99.5 113.5t172 42q154 0 227 -88zM454 484.5
q-34 73.5 -127 73.5q-89 0 -120.5 -73t-31.5 -174q0 -249 162 -249q89 0 120 72.5t31 176.5q0 100 -34 173.5z" />
    <glyph glyph-name="uni1ED1" unicode="&#x1ed1;" horiz-adv-x="544" 
d="M446 621l-35 23l90 186h105l12 -19zM391 559l-119 85l-116 -85l-36 30l110 141h85l109 -141zM458.5 431q60.5 -71 60.5 -187q0 -112 -61 -183t-188 -71q-124 0 -184.5 71t-60.5 183q0 116 59.5 187t185.5 71q128 0 188.5 -71zM351 386q-23 49 -83 49q-56 0 -77 -49
t-21 -140q0 -90 22.5 -139t81.5 -49q58 0 79 48.5t21 139.5t-23 140z" />
    <glyph glyph-name="uni1ED2" unicode="&#x1ed2;" horiz-adv-x="663" 
d="M503 690l-172 190l12 19h105l90 -186zM431 640l-129 77l-126 -77l-26 25l110 135h85l109 -135zM560 540q73 -88 73 -229q0 -142 -73.5 -231t-226.5 -89q-102 0 -170 42.5t-100.5 114.5t-32.5 163q0 90 31.5 161.5t99.5 113.5t172 42q154 0 227 -88zM454 484.5
q-34 73.5 -127 73.5q-89 0 -120.5 -73t-31.5 -174q0 -249 162 -249q89 0 120 72.5t31 176.5q0 100 -34 173.5z" />
    <glyph glyph-name="uni1ED3" unicode="&#x1ed3;" horiz-adv-x="544" 
d="M463 621l-172 190l12 19h105l90 -186zM381 559l-119 85l-116 -85l-36 30l110 141h85l109 -141zM458.5 431q60.5 -71 60.5 -187q0 -112 -61 -183t-188 -71q-124 0 -184.5 71t-60.5 183q0 116 59.5 187t185.5 71q128 0 188.5 -71zM351 386q-23 49 -83 49q-56 0 -77 -49
t-21 -140q0 -90 22.5 -139t81.5 -49q58 0 79 48.5t21 139.5t-23 140z" />
    <glyph glyph-name="uni1ED4" unicode="&#x1ed4;" horiz-adv-x="663" 
d="M30 0zM560 540q73 -88 73 -229q0 -142 -73.5 -231t-226.5 -89q-102 0 -170 42.5t-100.5 114.5t-32.5 163q0 90 31.5 161.5t99.5 113.5t172 42q154 0 227 -88zM454 484.5q-34 73.5 -127 73.5q-89 0 -120.5 -73t-31.5 -174q0 -249 162 -249q89 0 120 72.5t31 176.5
q0 100 -34 173.5zM461 640l-129 77l-126 -77l-26 25l110 135h85l109 -135zM491 792l-6 -23h-54l-4 44q66 0 66 30q0 22 -38 22q-8 0 -28 -2l-7 -27h-40l-6 53q50 11 92 11q48 0 74.5 -14t26.5 -40q0 -42 -76 -54z" />
    <glyph glyph-name="uni1ED5" unicode="&#x1ed5;" horiz-adv-x="544" 
d="M25 0zM458.5 431q60.5 -71 60.5 -187q0 -112 -61 -183t-188 -71q-124 0 -184.5 71t-60.5 183q0 116 59.5 187t185.5 71q128 0 188.5 -71zM351 386q-23 49 -83 49q-56 0 -77 -49t-21 -140q0 -90 22.5 -139t81.5 -49q58 0 79 48.5t21 139.5t-23 140zM391 559l-119 85
l-116 -85l-36 30l110 141h85l109 -141zM432 722l-6 -23h-54l-4 44q66 0 66 30q0 22 -38 22q-8 0 -28 -2l-7 -27h-40l-6 53q50 11 92 11q48 0 74.5 -14t26.5 -40q0 -42 -76 -54z" />
    <glyph glyph-name="uni1ED6" unicode="&#x1ed6;" horiz-adv-x="663" 
d="M30 0zM560 540q73 -88 73 -229q0 -142 -73.5 -231t-226.5 -89q-102 0 -170 42.5t-100.5 114.5t-32.5 163q0 90 31.5 161.5t99.5 113.5t172 42q154 0 227 -88zM454 484.5q-34 73.5 -127 73.5q-89 0 -120.5 -73t-31.5 -174q0 -249 162 -249q89 0 120 72.5t31 176.5
q0 100 -34 173.5zM461 640l-129 77l-126 -77l-26 25l110 135h85l109 -135zM422 807q-28 0 -98 20q-59 17 -78 17q-11 0 -19.5 -7t-14 -14.5t-6.5 -9.5l-47 19q16 45 39.5 74.5t47.5 29.5q29 0 97 -20q59 -17 79 -17q11 0 20.5 7t15 14.5t6.5 9.5l44 -19q-43 -104 -86 -104z
" />
    <glyph glyph-name="uni1ED7" unicode="&#x1ed7;" horiz-adv-x="544" 
d="M25 0zM458.5 431q60.5 -71 60.5 -187q0 -112 -61 -183t-188 -71q-124 0 -184.5 71t-60.5 183q0 116 59.5 187t185.5 71q128 0 188.5 -71zM351 386q-23 49 -83 49q-56 0 -77 -49t-21 -140q0 -90 22.5 -139t81.5 -49q58 0 79 48.5t21 139.5t-23 140zM401 518l-129 77
l-126 -77l-26 25l110 135h85l109 -135zM362 685q-28 0 -98 20q-59 17 -78 17q-11 0 -19.5 -7t-14 -14.5t-6.5 -9.5l-47 19q16 45 39.5 74.5t47.5 29.5q29 0 97 -20q59 -17 79 -17q11 0 20.5 7t15 14.5t6.5 9.5l44 -19q-43 -104 -86 -104z" />
    <glyph glyph-name="uni1ED8" unicode="&#x1ed8;" horiz-adv-x="663" 
d="M30 0zM560 540q73 -88 73 -229q0 -142 -73.5 -231t-226.5 -89q-102 0 -170 42.5t-100.5 114.5t-32.5 163q0 90 31.5 161.5t99.5 113.5t172 42q154 0 227 -88zM454 484.5q-34 73.5 -127 73.5q-89 0 -120.5 -73t-31.5 -174q0 -249 162 -249q89 0 120 72.5t31 176.5
q0 100 -34 173.5zM392 -185q-24 -23 -58 -23t-60 23.5t-26 56.5q0 34 26 59t60 25t58 -25t24 -59t-24 -57zM461 640l-129 77l-126 -77l-26 25l110 135h85l109 -135z" />
    <glyph glyph-name="uni1ED9" unicode="&#x1ed9;" horiz-adv-x="544" 
d="M25 0zM458.5 431q60.5 -71 60.5 -187q0 -112 -61 -183t-188 -71q-124 0 -184.5 71t-60.5 183q0 116 59.5 187t185.5 71q128 0 188.5 -71zM351 386q-23 49 -83 49q-56 0 -77 -49t-21 -140q0 -90 22.5 -139t81.5 -49q58 0 79 48.5t21 139.5t-23 140zM332 -185
q-24 -23 -58 -23t-60 23.5t-26 56.5q0 34 26 59t60 25t58 -25t24 -59t-24 -57zM391 559l-119 85l-116 -85l-36 30l110 141h85l109 -141z" />
    <glyph glyph-name="uni1EDA" unicode="&#x1eda;" horiz-adv-x="663" 
d="M30 0zM646.5 579.5q-34.5 -28.5 -86.5 -40.5q73 -83 73 -228q0 -142 -73.5 -231t-226.5 -89q-102 0 -170 42.5t-100.5 114.5t-32.5 163q0 90 31.5 161.5t99.5 113.5t172 42q103 0 173 -43h21q28 0 42 11t14 42q0 19 -5 41l6 13l84 14q6 -13 9.5 -29t3.5 -28
q0 -41 -34.5 -69.5zM457 134.5q31 72.5 31 176.5q0 100 -34 173.5t-127 73.5q-89 0 -120.5 -73t-31.5 -174q0 -249 162 -249q89 0 120 72.5zM294 634l-27 35l156 131l99 -34v-23z" />
    <glyph glyph-name="uni1EDB" unicode="&#x1edb;" horiz-adv-x="544" 
d="M25 0zM534.5 472q-29.5 -27 -76.5 -41q61 -67 61 -187q0 -112 -61 -183t-188 -71q-124 0 -184.5 71t-60.5 183q0 116 59.5 187t185.5 71q81 0 134 -29h6q28 0 42 11t14 42q0 19 -5 41l6 13l84 14q6 -13 9.5 -29t3.5 -28q0 -38 -29.5 -65zM353 106.5q21 48.5 21 139.5
t-23 140t-83 49q-56 0 -77 -49t-21 -140q0 -90 22.5 -139t81.5 -49q58 0 79 48.5zM191 558l-27 35l156 137l99 -40v-23z" />
    <glyph glyph-name="uni1EDC" unicode="&#x1edc;" horiz-adv-x="663" 
d="M389 669l-23 -35l-232 109l4 23l97 34zM646.5 579.5q-34.5 -28.5 -86.5 -40.5q73 -83 73 -228q0 -142 -73.5 -231t-226.5 -89q-102 0 -170 42.5t-100.5 114.5t-32.5 163q0 90 31.5 161.5t99.5 113.5t172 42q103 0 173 -43h21q28 0 42 11t14 42q0 19 -5 41l6 13l84 14
q6 -13 9.5 -29t3.5 -28q0 -41 -34.5 -69.5zM457 134.5q31 72.5 31 176.5q0 100 -34 173.5t-127 73.5q-89 0 -120.5 -73t-31.5 -174q0 -249 162 -249q89 0 120 72.5z" />
    <glyph glyph-name="uni1EDD" unicode="&#x1edd;" horiz-adv-x="544" 
d="M25 0zM534.5 472q-29.5 -27 -76.5 -41q61 -67 61 -187q0 -112 -61 -183t-188 -71q-124 0 -184.5 71t-60.5 183q0 116 59.5 187t185.5 71q81 0 134 -29h6q28 0 42 11t14 42q0 19 -5 41l6 13l84 14q6 -13 9.5 -29t3.5 -28q0 -38 -29.5 -65zM353 106.5q21 48.5 21 139.5
t-23 140t-83 49q-56 0 -77 -49t-21 -140q0 -90 22.5 -139t81.5 -49q58 0 79 48.5zM336 558l-232 109l4 23l97 40l154 -137z" />
    <glyph glyph-name="uni1EDE" unicode="&#x1ede;" horiz-adv-x="663" 
d="M30 0zM646.5 579.5q-34.5 -28.5 -86.5 -40.5q73 -83 73 -228q0 -142 -73.5 -231t-226.5 -89q-102 0 -170 42.5t-100.5 114.5t-32.5 163q0 90 31.5 161.5t99.5 113.5t172 42q103 0 173 -43h21q28 0 42 11t14 42q0 19 -5 41l6 13l84 14q6 -13 9.5 -29t3.5 -28
q0 -41 -34.5 -69.5zM457 134.5q31 72.5 31 176.5q0 100 -34 173.5t-127 73.5q-89 0 -120.5 -73t-31.5 -174q0 -249 162 -249q89 0 120 72.5zM365 690l-6 -23h-54l-4 44q66 0 66 30q0 22 -38 22q-8 0 -28 -2l-7 -27h-40l-6 53q50 11 92 11q48 0 74.5 -14t26.5 -40
q0 -42 -76 -54z" />
    <glyph glyph-name="uni1EDF" unicode="&#x1edf;" horiz-adv-x="544" 
d="M25 0zM534.5 472q-29.5 -27 -76.5 -41q61 -67 61 -187q0 -112 -61 -183t-188 -71q-124 0 -184.5 71t-60.5 183q0 116 59.5 187t185.5 71q81 0 134 -29h6q28 0 42 11t14 42q0 19 -5 41l6 13l84 14q6 -13 9.5 -29t3.5 -28q0 -38 -29.5 -65zM353 106.5q21 48.5 21 139.5
t-23 140t-83 49q-56 0 -77 -49t-21 -140q0 -90 22.5 -139t81.5 -49q58 0 79 48.5zM305 568l-6 -23h-54l-4 44q66 0 66 30q0 22 -38 22q-8 0 -28 -2l-7 -27h-40l-6 53q50 11 92 11q48 0 74.5 -14t26.5 -40q0 -42 -76 -54z" />
    <glyph glyph-name="uni1EE0" unicode="&#x1ee0;" horiz-adv-x="663" 
d="M30 0zM646.5 579.5q-34.5 -28.5 -86.5 -40.5q73 -83 73 -228q0 -142 -73.5 -231t-226.5 -89q-102 0 -170 42.5t-100.5 114.5t-32.5 163q0 90 31.5 161.5t99.5 113.5t172 42q103 0 173 -43h21q28 0 42 11t14 42q0 19 -5 41l6 13l84 14q6 -13 9.5 -29t3.5 -28
q0 -41 -34.5 -69.5zM457 134.5q31 72.5 31 176.5q0 100 -34 173.5t-127 73.5q-89 0 -120.5 -73t-31.5 -174q0 -249 162 -249q89 0 120 72.5zM420 661q-28 0 -98 20q-59 17 -78 17q-11 0 -19.5 -7t-14 -14.5t-6.5 -9.5l-47 19q16 45 39.5 74.5t47.5 29.5q29 0 97 -20
q59 -17 79 -17q11 0 20.5 7t15 14.5t6.5 9.5l44 -19q-43 -104 -86 -104z" />
    <glyph glyph-name="uni1EE1" unicode="&#x1ee1;" horiz-adv-x="544" 
d="M25 0zM534.5 472q-29.5 -27 -76.5 -41q61 -67 61 -187q0 -112 -61 -183t-188 -71q-124 0 -184.5 71t-60.5 183q0 116 59.5 187t185.5 71q81 0 134 -29h6q28 0 42 11t14 42q0 19 -5 41l6 13l84 14q6 -13 9.5 -29t3.5 -28q0 -38 -29.5 -65zM353 106.5q21 48.5 21 139.5
t-23 140t-83 49q-56 0 -77 -49t-21 -140q0 -90 22.5 -139t81.5 -49q58 0 79 48.5zM360 583q-28 0 -98 20q-59 17 -78 17q-11 0 -19.5 -7t-14 -14.5t-6.5 -9.5l-47 19q44 104 87 104q29 0 97 -20q59 -17 79 -17q11 0 20.5 7t15 14.5t6.5 9.5l44 -19q-43 -104 -86 -104z" />
    <glyph glyph-name="uni1EE2" unicode="&#x1ee2;" horiz-adv-x="663" 
d="M30 0zM646.5 579.5q-34.5 -28.5 -86.5 -40.5q73 -83 73 -228q0 -142 -73.5 -231t-226.5 -89q-102 0 -170 42.5t-100.5 114.5t-32.5 163q0 90 31.5 161.5t99.5 113.5t172 42q103 0 173 -43h21q28 0 42 11t14 42q0 19 -5 41l6 13l84 14q6 -13 9.5 -29t3.5 -28
q0 -41 -34.5 -69.5zM457 134.5q31 72.5 31 176.5q0 100 -34 173.5t-127 73.5q-89 0 -120.5 -73t-31.5 -174q0 -249 162 -249q89 0 120 72.5zM392 -185q-24 -23 -58 -23t-60 23.5t-26 56.5q0 34 26 59t60 25t58 -25t24 -59t-24 -57z" />
    <glyph glyph-name="uni1EE3" unicode="&#x1ee3;" horiz-adv-x="544" 
d="M25 0zM534.5 472q-29.5 -27 -76.5 -41q61 -67 61 -187q0 -112 -61 -183t-188 -71q-124 0 -184.5 71t-60.5 183q0 116 59.5 187t185.5 71q81 0 134 -29h6q28 0 42 11t14 42q0 19 -5 41l6 13l84 14q6 -13 9.5 -29t3.5 -28q0 -38 -29.5 -65zM353 106.5q21 48.5 21 139.5
t-23 140t-83 49q-56 0 -77 -49t-21 -140q0 -90 22.5 -139t81.5 -49q58 0 79 48.5zM332 -185q-24 -23 -58 -23t-60 23.5t-26 56.5q0 34 26 59t60 25t58 -25t24 -59t-24 -57z" />
    <glyph glyph-name="uni1EE4" unicode="&#x1ee4;" horiz-adv-x="661" 
d="M6 0zM553.5 129.5q-18.5 -55.5 -71 -97t-146.5 -41.5q-98 0 -152 36t-73.5 95.5t-19.5 142.5v281l-85 23v45h305v-45l-85 -23v-281q0 -65 9.5 -108t38 -68.5t82.5 -25.5q72 0 106.5 49.5t34.5 132.5v301l-85 23v45h245v-45l-85 -23v-310q0 -51 -18.5 -106.5zM391 -185
q-24 -23 -58 -23t-60 23.5t-26 56.5q0 34 26 59t60 25t58 -25t24 -59t-24 -57z" />
    <glyph glyph-name="uni1EE5" unicode="&#x1ee5;" horiz-adv-x="620" 
d="M16 0zM533.5 -1.5q-22.5 -3.5 -48.5 -3.5q-36 0 -65.5 15.5t-34.5 41.5q-29 -26 -75.5 -44t-88.5 -18q-67 0 -97 32.5t-30 82.5v299l-78 11v48l169 39h44v-362q0 -34 14.5 -51t47.5 -17q20 0 45.5 9.5t44.5 23.5v299l-78 11v48l169 39h44v-419l78 -28v-43
q-38 -10 -60.5 -13.5zM370 -185q-24 -23 -58 -23t-60 23.5t-26 56.5q0 34 26 59t60 25t58 -25t24 -59t-24 -57z" />
    <glyph glyph-name="uni1EE6" unicode="&#x1ee6;" horiz-adv-x="661" 
d="M6 0zM553.5 129.5q-18.5 -55.5 -71 -97t-146.5 -41.5q-98 0 -152 36t-73.5 95.5t-19.5 142.5v281l-85 23v45h305v-45l-85 -23v-281q0 -65 9.5 -108t38 -68.5t82.5 -25.5q72 0 106.5 49.5t34.5 132.5v301l-85 23v45h245v-45l-85 -23v-310q0 -51 -18.5 -106.5zM364 690
l-6 -23h-54l-4 44q66 0 66 30q0 22 -38 22q-8 0 -28 -2l-7 -27h-40l-6 53q50 11 92 11q48 0 74.5 -14t26.5 -40q0 -42 -76 -54z" />
    <glyph glyph-name="uni1EE7" unicode="&#x1ee7;" horiz-adv-x="620" 
d="M16 0zM533.5 -1.5q-22.5 -3.5 -48.5 -3.5q-36 0 -65.5 15.5t-34.5 41.5q-29 -26 -75.5 -44t-88.5 -18q-67 0 -97 32.5t-30 82.5v299l-78 11v48l169 39h44v-362q0 -34 14.5 -51t47.5 -17q20 0 45.5 9.5t44.5 23.5v299l-78 11v48l169 39h44v-419l78 -28v-43
q-38 -10 -60.5 -13.5zM343 568l-6 -23h-54l-4 44q66 0 66 30q0 22 -38 22q-8 0 -28 -2l-7 -27h-40l-6 53q50 11 92 11q48 0 74.5 -14t26.5 -40q0 -42 -76 -54z" />
    <glyph glyph-name="uni1EE8" unicode="&#x1ee8;" horiz-adv-x="661" 
d="M6 0zM641 601l-69 -55v-310q0 -51 -18.5 -106.5t-71 -97t-146.5 -41.5q-98 0 -152 36t-73.5 95.5t-19.5 142.5v281l-85 23v45h305v-45l-85 -23v-281q0 -65 9.5 -108t38 -68.5t82.5 -25.5q72 0 106.5 49.5t34.5 132.5v301l-85 23v45h119q28 0 42 11t14 42q0 19 -5 41l6 13
l84 14q6 -13 9.5 -29t3.5 -28q0 -45 -44 -77zM293 634l-27 35l156 131l99 -34v-23z" />
    <glyph glyph-name="uni1EE9" unicode="&#x1ee9;" horiz-adv-x="620" 
d="M16 0zM622 488.5q-44 -30.5 -106 -36.5v-369l78 -28v-43q-38 -10 -60.5 -13.5t-48.5 -3.5q-36 0 -65.5 15.5t-34.5 41.5q-29 -26 -75.5 -44t-88.5 -18q-67 0 -97 32.5t-30 82.5v299l-78 11v48l169 39h44v-362q0 -34 14.5 -51t47.5 -17q20 0 45.5 9.5t44.5 23.5v299
l-78 11v48l168 39h41q28 0 42 11t14 42q0 19 -5 41l6 13l84 14q6 -13 9.5 -29t3.5 -28q0 -47 -44 -77.5zM229 558l-27 35l156 137l99 -40v-23z" />
    <glyph glyph-name="uni1EEA" unicode="&#x1eea;" horiz-adv-x="661" 
d="M6 0zM641 601l-69 -55v-310q0 -51 -18.5 -106.5t-71 -97t-146.5 -41.5q-98 0 -152 36t-73.5 95.5t-19.5 142.5v281l-85 23v45h305v-45l-85 -23v-281q0 -65 9.5 -108t38 -68.5t82.5 -25.5q72 0 106.5 49.5t34.5 132.5v301l-85 23v45h119q28 0 42 11t14 42q0 19 -5 41l6 13
l84 14q6 -13 9.5 -29t3.5 -28q0 -45 -44 -77zM365 634l-232 109l4 23l97 34l154 -131z" />
    <glyph glyph-name="uni1EEB" unicode="&#x1eeb;" horiz-adv-x="620" 
d="M16 0zM622 488.5q-44 -30.5 -106 -36.5v-369l78 -28v-43q-38 -10 -60.5 -13.5t-48.5 -3.5q-36 0 -65.5 15.5t-34.5 41.5q-29 -26 -75.5 -44t-88.5 -18q-67 0 -97 32.5t-30 82.5v299l-78 11v48l169 39h44v-362q0 -34 14.5 -51t47.5 -17q20 0 45.5 9.5t44.5 23.5v299
l-78 11v48l168 39h41q28 0 42 11t14 42q0 19 -5 41l6 13l84 14q6 -13 9.5 -29t3.5 -28q0 -47 -44 -77.5zM374 558l-232 109l4 23l97 40l154 -137z" />
    <glyph glyph-name="uni1EEC" unicode="&#x1eec;" horiz-adv-x="661" 
d="M6 0zM641 601l-69 -55v-310q0 -51 -18.5 -106.5t-71 -97t-146.5 -41.5q-98 0 -152 36t-73.5 95.5t-19.5 142.5v281l-85 23v45h305v-45l-85 -23v-281q0 -65 9.5 -108t38 -68.5t82.5 -25.5q72 0 106.5 49.5t34.5 132.5v301l-85 23v45h119q28 0 42 11t14 42q0 19 -5 41l6 13
l84 14q6 -13 9.5 -29t3.5 -28q0 -45 -44 -77zM364 690l-6 -23h-54l-4 44q66 0 66 30q0 22 -38 22q-8 0 -28 -2l-7 -27h-40l-6 53q50 11 92 11q48 0 74.5 -14t26.5 -40q0 -42 -76 -54z" />
    <glyph glyph-name="uni1EED" unicode="&#x1eed;" horiz-adv-x="620" 
d="M16 0zM622 488.5q-44 -30.5 -106 -36.5v-369l78 -28v-43q-38 -10 -60.5 -13.5t-48.5 -3.5q-36 0 -65.5 15.5t-34.5 41.5q-29 -26 -75.5 -44t-88.5 -18q-67 0 -97 32.5t-30 82.5v299l-78 11v48l169 39h44v-362q0 -34 14.5 -51t47.5 -17q20 0 45.5 9.5t44.5 23.5v299
l-78 11v48l168 39h41q28 0 42 11t14 42q0 19 -5 41l6 13l84 14q6 -13 9.5 -29t3.5 -28q0 -47 -44 -77.5zM343 568l-6 -23h-54l-4 44q66 0 66 30q0 22 -38 22q-8 0 -28 -2l-7 -27h-40l-6 53q50 11 92 11q48 0 74.5 -14t26.5 -40q0 -42 -76 -54z" />
    <glyph glyph-name="uni1EEE" unicode="&#x1eee;" horiz-adv-x="661" 
d="M6 0zM641 601l-69 -55v-310q0 -51 -18.5 -106.5t-71 -97t-146.5 -41.5q-98 0 -152 36t-73.5 95.5t-19.5 142.5v281l-85 23v45h305v-45l-85 -23v-281q0 -65 9.5 -108t38 -68.5t82.5 -25.5q72 0 106.5 49.5t34.5 132.5v301l-85 23v45h119q28 0 42 11t14 42q0 19 -5 41l6 13
l84 14q6 -13 9.5 -29t3.5 -28q0 -45 -44 -77zM419 661q-28 0 -98 20q-59 17 -78 17q-11 0 -19.5 -7t-14 -14.5t-6.5 -9.5l-47 19q16 45 39.5 74.5t47.5 29.5q29 0 97 -20q59 -17 79 -17q11 0 20.5 7t15 14.5t6.5 9.5l44 -19q-43 -104 -86 -104z" />
    <glyph glyph-name="uni1EEF" unicode="&#x1eef;" horiz-adv-x="620" 
d="M16 0zM622 488.5q-44 -30.5 -106 -36.5v-369l78 -28v-43q-38 -10 -60.5 -13.5t-48.5 -3.5q-36 0 -65.5 15.5t-34.5 41.5q-29 -26 -75.5 -44t-88.5 -18q-67 0 -97 32.5t-30 82.5v299l-78 11v48l169 39h44v-362q0 -34 14.5 -51t47.5 -17q20 0 45.5 9.5t44.5 23.5v299
l-78 11v48l168 39h41q28 0 42 11t14 42q0 19 -5 41l6 13l84 14q6 -13 9.5 -29t3.5 -28q0 -47 -44 -77.5zM398 583q-28 0 -98 20q-59 17 -78 17q-11 0 -19.5 -7t-14 -14.5t-6.5 -9.5l-47 19q44 104 87 104q29 0 97 -20q59 -17 79 -17q11 0 20.5 7t15 14.5t6.5 9.5l44 -19
q-43 -104 -86 -104z" />
    <glyph glyph-name="uni1EF0" unicode="&#x1ef0;" horiz-adv-x="661" 
d="M6 0zM641 601l-69 -55v-310q0 -51 -18.5 -106.5t-71 -97t-146.5 -41.5q-98 0 -152 36t-73.5 95.5t-19.5 142.5v281l-85 23v45h305v-45l-85 -23v-281q0 -65 9.5 -108t38 -68.5t82.5 -25.5q72 0 106.5 49.5t34.5 132.5v301l-85 23v45h119q28 0 42 11t14 42q0 19 -5 41l6 13
l84 14q6 -13 9.5 -29t3.5 -28q0 -45 -44 -77zM391 -185q-24 -23 -58 -23t-60 23.5t-26 56.5q0 34 26 59t60 25t58 -25t24 -59t-24 -57z" />
    <glyph glyph-name="uni1EF1" unicode="&#x1ef1;" horiz-adv-x="620" 
d="M16 0zM622 488.5q-44 -30.5 -106 -36.5v-369l78 -28v-43q-38 -10 -60.5 -13.5t-48.5 -3.5q-36 0 -65.5 15.5t-34.5 41.5q-29 -26 -75.5 -44t-88.5 -18q-67 0 -97 32.5t-30 82.5v299l-78 11v48l169 39h44v-362q0 -34 14.5 -51t47.5 -17q20 0 45.5 9.5t44.5 23.5v299
l-78 11v48l168 39h41q28 0 42 11t14 42q0 19 -5 41l6 13l84 14q6 -13 9.5 -29t3.5 -28q0 -47 -44 -77.5zM370 -185q-24 -23 -58 -23t-60 23.5t-26 56.5q0 34 26 59t60 25t58 -25t24 -59t-24 -57z" />
    <glyph glyph-name="Ygrave" unicode="&#x1ef2;" horiz-adv-x="575" 
d="M396 634l-232 109l4 23l97 34l154 -131zM147 0v45l84 24v187l-151 289l-71 24v45h283v-47l-68 -21l105 -202l100 204l-71 20v46h220v-44l-71 -25l-142 -289v-187l86 -24v-45h-304z" />
    <glyph glyph-name="ygrave" unicode="&#x1ef3;" horiz-adv-x="500" 
d="M343 558l-232 109l4 23l97 40l154 -137zM2 -139l8 46h65q87 0 133 119l-171 399l-50 27v40h240v-40l-47 -27l96 -251l84 249l-64 14v55h217v-52l-63 -17l-142 -389q-37 -101 -80.5 -151.5t-107.5 -50.5q-53 0 -118 29z" />
    <glyph glyph-name="uni1EF4" unicode="&#x1ef4;" horiz-adv-x="575" 
d="M9 0zM358 568v46h220v-44l-71 -25l-142 -289v-187l86 -24v-45h-304v45l84 24v187l-151 289l-71 24v45h283v-47l-68 -21l105 -202l100 204zM348 -185q-24 -23 -58 -23t-60 23.5t-26 56.5q0 34 26 59t60 25t58 -25t24 -59t-24 -57z" />
    <glyph glyph-name="uni1EF5" unicode="&#x1ef5;" horiz-adv-x="500" 
d="M0 0zM227 452l-47 -27l96 -251l84 249l-64 14v55h217v-52l-63 -17l-142 -389q-37 -101 -80.5 -151.5t-107.5 -50.5q-53 0 -118 29l8 46h65q87 0 133 119l-171 399l-50 27v40h240v-40zM434 -185q-24 -23 -58 -23t-60 23.5t-26 56.5q0 34 26 59t60 25t58 -25t24 -59
t-24 -57z" />
    <glyph glyph-name="uni1EF6" unicode="&#x1ef6;" horiz-adv-x="575" 
d="M9 0zM358 568v46h220v-44l-71 -25l-142 -289v-187l86 -24v-45h-304v45l84 24v187l-151 289l-71 24v45h283v-47l-68 -21l105 -202l100 204zM321 690l-6 -23h-54l-4 44q66 0 66 30q0 22 -38 22q-8 0 -28 -2l-7 -27h-40l-6 53q50 11 92 11q48 0 74.5 -14t26.5 -40
q0 -42 -76 -54z" />
    <glyph glyph-name="uni1EF7" unicode="&#x1ef7;" horiz-adv-x="500" 
d="M0 0zM227 452l-47 -27l96 -251l84 249l-64 14v55h217v-52l-63 -17l-142 -389q-37 -101 -80.5 -151.5t-107.5 -50.5q-53 0 -118 29l8 46h65q87 0 133 119l-171 399l-50 27v40h240v-40zM283 568l-6 -23h-54l-4 44q66 0 66 30q0 22 -38 22q-8 0 -28 -2l-7 -27h-40l-6 53
q50 11 92 11q48 0 74.5 -14t26.5 -40q0 -42 -76 -54z" />
    <glyph glyph-name="uni1EF8" unicode="&#x1ef8;" horiz-adv-x="575" 
d="M400 661q-28 0 -98 20q-59 17 -78 17q-11 0 -19.5 -7t-14 -14.5t-6.5 -9.5l-47 19q16 45 39.5 74.5t47.5 29.5q29 0 97 -20q59 -17 79 -17q11 0 20.5 7t15 14.5t6.5 9.5l44 -19q-43 -104 -86 -104zM358 568v46h220v-44l-71 -25l-142 -289v-187l86 -24v-45h-304v45l84 24
v187l-151 289l-71 24v45h283v-47l-68 -21l105 -202l100 204z" />
    <glyph glyph-name="uni1EF9" unicode="&#x1ef9;" horiz-adv-x="500" 
d="M344 583q-28 0 -98 20q-59 17 -78 17q-11 0 -19.5 -7t-14 -14.5t-6.5 -9.5l-47 19q44 104 87 104q29 0 97 -20q59 -17 79 -17q11 0 20.5 7t15 14.5t6.5 9.5l44 -19q-43 -104 -86 -104zM227 452l-47 -27l96 -251l84 249l-64 14v55h217v-52l-63 -17l-142 -389
q-37 -101 -80.5 -151.5t-107.5 -50.5q-53 0 -118 29l8 46h65q87 0 133 119l-171 399l-50 27v40h240v-40z" />
    <glyph glyph-name="endash" unicode="&#x2013;" horiz-adv-x="720" 
d="M720 203h-720v74h720v-74z" />
    <glyph glyph-name="emdash" unicode="&#x2014;" horiz-adv-x="834" 
d="M833 203h-833v74h833v-74z" />
    <glyph glyph-name="quoteleft" unicode="&#x2018;" horiz-adv-x="195" 
d="M114 687l51 -9l-13 -223l-103 -22l-28 27z" />
    <glyph glyph-name="quoteright" unicode="&#x2019;" horiz-adv-x="195" 
d="M81 433l-51 9l12 222l103 23l30 -28z" />
    <glyph glyph-name="quotesinglbase" unicode="&#x201a;" horiz-adv-x="195" 
d="M78 -116l-46 8l13 212l97 23l23 -29z" />
    <glyph glyph-name="quotedblleft" unicode="&#x201c;" horiz-adv-x="360" 
d="M108 687l51 -9l-13 -223l-103 -22l-29 27zM280 687l52 -9l-13 -223l-102 -22l-30 27z" />
    <glyph glyph-name="quotedblright" unicode="&#x201d;" horiz-adv-x="360" 
d="M76 433l-51 9l12 222l103 23l30 -28zM249 433l-51 9l13 222l103 23l29 -28z" />
    <glyph glyph-name="quotedblbase" unicode="&#x201e;" horiz-adv-x="360" 
d="M65 -116l-46 8l13 212l97 23l23 -29zM250 -116l-45 8l13 212l96 23l24 -29z" />
    <glyph glyph-name="dagger" unicode="&#x2020;" horiz-adv-x="456" 
d="M292 0h-130l25 440l-134 -20v109l133 -18l-19 138h121l-18 -138l134 18v-109l-135 20z" />
    <glyph glyph-name="daggerdbl" unicode="&#x2021;" horiz-adv-x="456" 
d="M167 0l17 140l-133 -18v108l134 -20l-23 115l25 115l-134 -20v109l133 -18l-19 138h121l-18 -138l134 18v-109l-135 20l23 -115l-25 -115l135 20v-108l-134 18l20 -140h-121z" />
    <glyph glyph-name="bullet" unicode="&#x2022;" horiz-adv-x="467" 
d="M360.5 276q-19.5 -33 -53.5 -52.5t-73 -19.5t-73 19.5t-54 52.5t-20 73t20 73t54 52.5t73 19.5t73 -19.5t53.5 -52.5t19.5 -73t-19.5 -73z" />
    <glyph glyph-name="ellipsis" unicode="&#x2026;" horiz-adv-x="563" 
d="M58.5 116q21.5 22 51.5 22t51.5 -22t21.5 -54q0 -30 -21.5 -50t-51.5 -20t-51.5 20t-21.5 50q0 32 21.5 54zM246 116q21 22 50 22q31 0 53 -22t22 -54q0 -30 -22 -50t-53 -20q-30 0 -50.5 20t-20.5 50q0 32 21 54zM434 116q21 22 50 22q31 0 52.5 -22t21.5 -54
q0 -30 -21.5 -50t-52.5 -20q-30 0 -50.5 20t-20.5 50q0 32 21 54z" />
    <glyph glyph-name="perthousand" unicode="&#x2030;" horiz-adv-x="1321" 
d="M335.5 231q-46.5 -53 -125.5 -53t-127 53.5t-48 171.5q0 119 48 172.5t127 53.5t125.5 -53t46.5 -173q0 -119 -46.5 -172zM397 0h-86l224 614h86zM282.5 296.5q30.5 32.5 30.5 110.5q0 77 -30.5 107t-72.5 30q-43 0 -72.5 -30.5t-29.5 -110.5q0 -77 30 -108t72 -31
t72.5 32.5zM846 45q-46 -53 -124 -53q-79 0 -126.5 53.5t-47.5 171.5q0 119 47.5 173t126.5 54q78 0 124 -53.5t46 -173.5q0 -119 -46 -172zM1236 45q-46 -53 -124 -53q-79 0 -126.5 53.5t-47.5 171.5q0 119 47.5 173t126.5 54q78 0 124 -53.5t46 -173.5q0 -119 -46 -172z
M794 110.5q30 32.5 30 110.5q0 76 -29.5 106.5t-72.5 30.5t-73 -31t-30 -110q0 -77 30 -108t73 -31q42 0 72 32.5zM1184 110.5q30 32.5 30 110.5q0 76 -29.5 106.5t-72.5 30.5t-73 -31t-30 -110q0 -77 30 -108t73 -31q42 0 72 32.5z" />
    <glyph glyph-name="guilsinglleft" unicode="&#x2039;" horiz-adv-x="244" 
d="M16 239l141 179l53 -34l-77 -145l77 -143l-53 -35z" />
    <glyph glyph-name="guilsinglright" unicode="&#x203a;" horiz-adv-x="244" 
d="M87 418l141 -179l-141 -178l-52 35l78 143l-78 145z" />
    <glyph glyph-name="fraction" unicode="&#x2044;" horiz-adv-x="250" 
d="M85 -70h-83l233 717h83z" />
    <glyph glyph-name="uni2070" unicode="&#x2070;" 
d="M333.5 322q-47.5 -53 -125.5 -53t-126.5 53.5t-48.5 171.5q0 119 48.5 173t126.5 54t125.5 -53.5t47.5 -173.5q0 -119 -47.5 -172zM278 388q29 33 29 110q0 76 -29 106.5t-69 30.5q-41 0 -70.5 -31t-29.5 -110q0 -76 29.5 -107.5t70.5 -31.5q40 0 69 33z" />
    <glyph glyph-name="uni2074" unicode="&#x2074;" 
d="M222 277v79h-202l-14 41l235 322l82 -10v-292h57v-61h-57v-79h-101zM106 417h116v161z" />
    <glyph glyph-name="uni2075" unicode="&#x2075;" 
d="M338 647h-176l-6 -100q121 -5 162.5 -44t41.5 -94q0 -64 -45.5 -102t-128.5 -38q-61 0 -145 28l11 56q79 -27 115 -27q34 0 57 23t23 60q0 47 -38.5 65.5t-121.5 18.5l-22 23l16 194h257v-63z" />
    <glyph glyph-name="uni2076" unicode="&#x2076;" 
d="M186 537.5q23 4.5 45 4.5q75 0 109.5 -35t34.5 -87q0 -58 -38 -104.5t-137 -46.5q-92 0 -128 47t-36 129q0 95 36.5 156t88 88t100.5 27q36 0 83 -11l-7 -48q-46 7 -66 7q-89 0 -125 -139q17 8 40 12.5zM158 352.5q12 -28.5 40 -28.5q32 0 48.5 22t16.5 59q0 81 -42 81
q-21 0 -42.5 -15t-35.5 -36q3 -54 15 -82.5z" />
    <glyph glyph-name="uni2077" unicode="&#x2077;" 
d="M41 601l-6 109h314l15 -45l-159 -393l-111 11l166 369h-134l-15 -51h-70z" />
    <glyph glyph-name="uni2078" unicode="&#x2078;" 
d="M59.5 441.5q18.5 28.5 62.5 53.5q-34 19 -53 48t-19 66q0 47 38.5 78.5t114.5 31.5q70 0 108 -27.5t38 -67.5q0 -30 -18.5 -61t-66.5 -54q48 -25 71.5 -47.5t23.5 -62.5q0 -57 -43.5 -91.5t-123.5 -34.5t-115.5 30t-35.5 72q0 38 18.5 66.5zM167.5 573q13.5 -22 36.5 -34
q19 11 30 32t11 40q0 25 -11 40t-31 15q-21 0 -35 -13t-14 -38q0 -20 13.5 -42zM141 388q0 -63 50 -63q24 0 39.5 14.5t15.5 42.5q0 18 -10.5 37.5t-21.5 26.5l-38 17q-35 -37 -35 -75z" />
    <glyph glyph-name="uni2079" unicode="&#x2079;" 
d="M159 330q38 0 64 31.5t33 92.5q-33 -9 -80 -9q-65 0 -103 37t-38 93t36.5 100t133.5 44q90 0 127 -57t37 -143q0 -133 -58 -190t-139 -57q-52 0 -126 24l11 55q66 -21 102 -21zM246.5 632q-12.5 34 -43.5 34q-25 0 -41 -23t-16 -58q0 -42 14 -63t35 -21q14 0 32.5 8
t31.5 18q0 71 -12.5 105z" />
    <glyph glyph-name="uni207D" unicode="&#x207d;" horiz-adv-x="280" 
d="M167 374.5q5 -53.5 26.5 -104t66.5 -69.5l-10 -37q-72 21 -110 57.5t-53.5 100t-15.5 172.5q0 108 15.5 172t54 100.5t109.5 57.5l10 -38q-45 -20 -66.5 -70t-26.5 -103t-5 -119t5 -119.5z" />
    <glyph glyph-name="uni207E" unicode="&#x207e;" horiz-adv-x="280" 
d="M115 613q-5 53 -27 103t-68 70l10 38q72 -21 110 -57.5t53 -100t15 -172.5q0 -110 -15 -173t-53 -99.5t-110 -57.5l-10 37q46 19 68 69.5t27 104t5 119.5t-5 119z" />
    <glyph glyph-name="uni207F" unicode="&#x207f;" horiz-adv-x="495" 
d="M264.5 645q44.5 10 72.5 10q38 0 62.5 -18.5t24.5 -58.5v-238l55 -19v-42h-207v42l37 19v208q0 25 -8.5 33.5t-34.5 8.5q-48 0 -66 -9v-241l38 -19v-42h-206v42l53 19v242l-53 8v38l131 27h37v-29q20 9 64.5 19z" />
    <glyph glyph-name="uni2080" unicode="&#x2080;" horiz-adv-x="401" 
d="M326.5 -66q-47.5 -53 -125.5 -53t-126.5 53.5t-48.5 171.5q0 119 48.5 173t126.5 54t125.5 -53.5t47.5 -173.5q0 -119 -47.5 -172zM271 0q29 33 29 110q0 76 -29 106.5t-69 30.5q-41 0 -70.5 -31t-29.5 -110q0 -76 29.5 -107.5t70.5 -31.5q40 0 69 33z" />
    <glyph glyph-name="uni2081" unicode="&#x2081;" 
d="M50 248v41l222 33v-434h-107v360h-115z" />
    <glyph glyph-name="uni2082" unicode="&#x2082;" 
d="M67 238l-23 53q27 17 69 28.5t82 11.5q153 0 153 -118q0 -34 -28.5 -75t-75.5 -91l-91 -96h121l24 54l61 -8l-8 -108h-307l-16 44l145 152q28 28 46.5 62t18.5 65q0 29 -12.5 43.5t-39.5 14.5q-48 0 -119 -32z" />
    <glyph glyph-name="uni2083" unicode="&#x2083;" 
d="M299.5 305q37.5 -25 37.5 -72q0 -34 -19 -64.5t-51 -47.5q43 -13 66.5 -41t23.5 -65q0 -67 -43.5 -101t-126.5 -34q-69 0 -143 30l11 53q82 -27 109 -27q37 0 59 20.5t22 58.5q0 43 -33 57.5t-86 14.5l-4 46q54 6 79 31.5t25 60.5q0 23 -12 36t-35 13q-21 0 -102 -38
l-21 51q30 19 69.5 31t78.5 12q58 0 95.5 -25z" />
    <glyph glyph-name="uni2084" unicode="&#x2084;" 
d="M222 -112v79h-202l-14 41l235 322l82 -10v-292h57v-61h-57v-79h-101zM106 28h116v161z" />
    <glyph glyph-name="uni2085" unicode="&#x2085;" 
d="M338 265h-173l-9 -106q121 -5 162.5 -44t41.5 -94q0 -64 -45.5 -102t-128.5 -38q-61 0 -145 28l11 56q79 -27 115 -27q34 0 57 23t23 60q0 47 -38.5 65.5t-121.5 18.5l-22 23l16 194h257v-57z" />
    <glyph glyph-name="uni2086" unicode="&#x2086;" 
d="M230 153q75 0 109.5 -35t34.5 -87q0 -58 -38 -104.5t-137 -46.5q-92 0 -128 47.5t-36 130.5q0 95 36 155.5t88 87t101 26.5q36 0 83 -11l-7 -48q-46 7 -66 7q-36 0 -70 -35t-50 -93q38 6 80 6zM157 -36.5q12 -28.5 40 -28.5q32 0 48.5 22t16.5 59q0 81 -42 81
q-21 0 -42.5 -15t-35.5 -36q3 -54 15 -82.5z" />
    <glyph glyph-name="uni2087" unicode="&#x2087;" 
d="M41 213l-6 109h314l15 -45l-159 -393l-111 11l166 369h-134l-15 -51h-70z" />
    <glyph glyph-name="uni2088" unicode="&#x2088;" 
d="M59.5 49.5q18.5 28.5 62.5 53.5q-34 19 -53 48t-19 66q0 47 38.5 78.5t114.5 31.5q70 0 108 -27.5t38 -67.5q0 -30 -18.5 -61t-66.5 -54q48 -25 71.5 -47.5t23.5 -62.5q0 -57 -43.5 -91.5t-123.5 -34.5t-115.5 30t-35.5 72q0 38 18.5 66.5zM167.5 181q13.5 -22 36.5 -34
q19 11 30 32t11 40q0 25 -11 40t-31 15q-21 0 -35 -13t-14 -38q0 -20 13.5 -42zM141 -4q0 -63 50 -63q24 0 39.5 14.5t15.5 42.5q0 18 -10.5 37.5t-21.5 26.5l-38 17q-35 -37 -35 -75z" />
    <glyph glyph-name="uni2089" unicode="&#x2089;" 
d="M159 -61q38 0 64 31.5t33 92.5q-33 -9 -80 -9q-65 0 -103 37t-38 93t36.5 100t133.5 44q90 0 127 -57t37 -143q0 -133 -58 -190t-139 -57q-52 0 -126 24l11 55q66 -21 102 -21zM246.5 241q-12.5 34 -43.5 34q-25 0 -41 -23t-16 -58q0 -42 14 -63t35 -21q14 0 32.5 8
t31.5 18q0 71 -12.5 105z" />
    <glyph glyph-name="uni208D" unicode="&#x208d;" horiz-adv-x="318" 
d="M168 -15.5q5 -53.5 26.5 -103.5t66.5 -69l-10 -37q-72 21 -110 57.5t-53.5 100t-15.5 172.5q0 108 15.5 172t54 100.5t109.5 57.5l10 -38q-45 -20 -66.5 -70t-26.5 -103t-5 -119q0 -67 5 -120.5z" />
    <glyph glyph-name="uni208E" unicode="&#x208e;" horiz-adv-x="317" 
d="M150 224q-5 53 -27 103t-68 70l10 38q72 -21 110 -57.5t53 -100t15 -172.5q0 -110 -15 -173t-53 -99.5t-110 -57.5l-10 37q46 19 68 69t27 103.5t5 120.5q0 66 -5 119z" />
    <glyph glyph-name="Euro" unicode="&#x20ac;" horiz-adv-x="538" 
d="M236 270h178l-9 -58h-165q10 -73 45.5 -112.5t108.5 -39.5q33 0 101 12l10 -54q-64 -23 -140 -23q-68 0 -118.5 15.5t-88 63.5t-50.5 138h-92l9 58h77q-1 11 -1 43v18h-85l9 58h81q30 233 241 233q38 0 81.5 -8t80.5 -20l-13 -137h-47l-23 89q-30 9 -62 9
q-49 0 -82 -36.5t-43 -129.5h175l-9 -58h-170v-20q0 -30 1 -41z" />
    <glyph glyph-name="uni20B2" unicode="&#x20b2;" horiz-adv-x="579" 
d="M554 303v-47l-60 -19v-190q-28 -16 -70 -26.5t-88 -14.5v-92h-67v92q-126 10 -182.5 93.5t-56.5 207.5q0 127 59 207.5t187 90.5v96h65v-96q41 -2 82.5 -10t68.5 -18l-11 -153h-56l-25 98q-15 6 -38 9.5t-42 3.5q-85 0 -116.5 -63t-31.5 -164t27.5 -166t89.5 -65
q44 0 70 8v150l-84 23v45h279z" />
    <glyph glyph-name="uni20BA" unicode="&#x20ba;" horiz-adv-x="491" 
d="M35 45l84 24v150l-85 -31v61l85 31v54l-85 -31v60l85 31v152l-84 23v45h304v-45l-85 -23v-103l106 39v-60l-106 -39v-55l106 39v-60l-106 -39v-199q87 0 120 61.5t33 175.5h77q-3 -103 -18.5 -164t-73.5 -101.5t-179 -40.5h-178v45z" />
    <glyph glyph-name="uni20BD" unicode="&#x20bd;" horiz-adv-x="549" 
d="M36 45l84 24v83h-84v49h84v46h-84v49h84v250l-85 23v45h286q57 0 107 -20.5t80.5 -60.5t30.5 -96q0 -66 -33.5 -108.5t-85.5 -62t-111 -19.5h-54v-46h172v-49h-172v-83l106 -23v-46h-325v45zM285 296q56 0 86.5 37.5t30.5 96.5q0 55 -25 88t-67 33q-34 0 -55 -5v-250h30z
" />
    <glyph glyph-name="uni2113" unicode="&#x2113;" horiz-adv-x="478" 
d="M376 79q42 8 44 10l8 -44q-25 -21 -75 -38t-100 -17q-91 0 -127.5 29t-36.5 90v1q-11 -6 -20.5 -10.5t-16.5 -8.5l-31 53l68 43v176q0 124 40.5 195t156.5 71q75 0 112.5 -40t37.5 -115q0 -78 -65 -157t-160 -138q0 -46 6.5 -68.5t24.5 -31t55 -8.5t79 8zM211 273
q110 85 110 202q0 43 -11.5 62.5t-37.5 19.5q-36 0 -48.5 -31t-12.5 -105v-148z" />
    <glyph glyph-name="trademark" unicode="&#x2122;" horiz-adv-x="865" 
d="M93 280v27l47 13v282h-68l-15 -49h-39l-4 94h336l-3 -94h-39l-15 48h-70v-281l47 -13v-27h-177zM549 272l-99 260l-6 -212l48 -13v-27h-148v27l45 13l12 287l-47 12v28h151l90 -252l85 252h149v-28l-48 -12l10 -287l49 -13v-27h-179v27l45 13l-8 220l-88 -260z" />
    <glyph glyph-name="uni2126" unicode="&#x2126;" horiz-adv-x="764" 
d="M661 80l21 74h47v-154h-273v51q28 32 44.5 60t27.5 79t11 133q0 91 -35 163t-124 72q-88 0 -121.5 -68t-33.5 -178q0 -92 22.5 -152t62.5 -109v-51h-275v154h49l20 -74h48l68 -4q-140 79 -140 248q0 93 36.5 161.5t106 105.5t164.5 37q103 0 169 -40.5t96.5 -107.5
t30.5 -149q0 -45 -18 -97t-50 -94.5t-71 -62.5l68 3h49z" />
    </font>
</defs>
</svg>
